<svg xmlns="http://www.w3.org/2000/svg" viewBox="0 0 500 500"><style><![CDATA[.B{fill:#1a164e}.C{fill:#46327a}.D{fill:#263238}.E{fill:#f8db01}.F{fill:#ffbe9d}]]></style><path d="M461.4 105.3l-2.4-3.9c-20.4-33.2-57.2-53.1-96-50.7-5 .3-10 1-14.9 2-35.3 7.5-66 33.8-78.8 67.6-7.5 19.9-9.6 42.7-23.8 58.5-18.5 20.5-49.9 21.2-77.5 20.3-27.6-.8-59-.1-77.4 20.5C79 232.4 75.4 250.8 76.3 268c2.5 45.7 34.7 86.6 75.8 107s89.4 22.1 134.3 13.2c62.9-12.5 122.8-46.9 158.7-100.1 36-53.1 45.1-125.5 16.3-182.8z" class="E"/><path d="M333.7 445.9l-132.9-.6c-16-.1-28.9-13.1-28.8-29.1l1.4-333.1c.1-16 13.1-28.9 29.1-28.8l132.9.6c16 .1 28.9 13.1 28.8 29.1l-1.4 333.1c-.1 15.9-13.2 28.8-29.1 28.8z" class="B"/><path fill="#fff" d="M335.1 66.4l-25.8-.1c-3.5 0-6.3 2.9-6.3 6.5v4.7c0 3.6-2.8 6.5-6.3 6.5l-50.2-.2c-3.5 0-6.2-3-6.2-6.6v-4.7c0-3.6-2.8-6.6-6.2-6.6H225l-22.5-.1c-11.2-.1-20.3 9-20.4 20.2l-1.4 325.1c0 11.2 9 20.3 20.2 20.4l132.6.6c11.2.1 20.3-9 20.4-20.2l1.4-325.1c.1-11.2-9-20.4-20.2-20.4z"/><g class="E"><path d="M296.4 224.7h-52a9.82 9.82 0 0 1-9.8-9.8v-52a9.82 9.82 0 0 1 9.8-9.8h52a9.82 9.82 0 0 1 9.8 9.8v52c-.1 5.4-4.4 9.8-9.8 9.8zm-80.7-45.5l1.7 3.5 3.9.5-2.8 2.8.6 3.8-3.4-1.8-3.5 1.8.7-3.8-2.8-2.8 3.9-.5zm111.5-34.7l1.3 2.7 3 .5-2.2 2.1.5 2.9-2.6-1.4-2.7 1.4.5-2.9-2.1-2.1 2.9-.5zm-2.6 64.9l1.1 1.6 2-.1-1.2 1.6.7 1.8-1.9-.6-1.5 1.2V213l-1.6-1.1 1.8-.6zM214.4 156a1.8 1.8 0 1 1 0-3.6 1.8 1.8 0 1 1 0 3.6zm0-2.7c-.5 0-.8.4-.8.8 0 .5.4.8.8.8.5 0 .8-.4.8-.8s-.4-.8-.8-.8zm103.1 27.9a1.8 1.8 0 1 1 0-3.6 1.79 1.79 0 0 1 1.8 1.8c.1 1-.8 1.8-1.8 1.8zm0-2.6c-.5 0-.8.4-.8.8 0 .5.4.8.8.8.5 0 .8-.4.8-.8.1-.5-.3-.8-.8-.8zm-23.8-35.9a1.8 1.8 0 1 1 0-3.6 1.8 1.8 0 1 1 0 3.6zm0-2.7c-.5 0-.8.4-.8.8 0 .5.4.8.8.8.5 0 .8-.4.8-.8s-.3-.8-.8-.8z"/><circle cx="204.4" cy="213.5" r="1.3"/><path d="M266.9 232.4c0 .7-.6 1.3-1.3 1.3s-1.3-.6-1.3-1.3.6-1.3 1.3-1.3 1.3.6 1.3 1.3z"/><circle cx="252.7" cy="127.4" r="1.3"/></g><path fill="#fff" d="M281.6 179.7c-.4 0-.9 0-1.3.1a11.01 11.01 0 0 0-3.2-5.5c-2.1-1.9-4.7-3-7.5-3-5.2 0-9.6 3.5-10.8 8.4-6 .1-10.8 5.1-10.8 11.1 0 6.1 5 11.1 11.1 11.1h6.5l1.8 2.6c.7 1 1.8 1.6 3 1.6s2.3-.6 3-1.6l1.8-2.6h6.5c6.1 0 11.1-5 11.1-11.1-.1-6.2-5.1-11.1-11.2-11.1zm-4.8 16.2l-5.2 7.5c-.3.4-.8.7-1.3.7s-1-.2-1.3-.7l-5.2-7.5c-.3-.5-.4-1.1-.1-1.6s.8-.8 1.4-.8h2.2V187a1.58 1.58 0 0 1 1.6-1.6h2.9a1.58 1.58 0 0 1 1.6 1.6v6.5h2.2c.6 0 1.1.3 1.4.8.2.5.2 1.1-.2 1.6z"/><path d="M244.6 247.8h73.1v52.9h-73.1z" class="B"/><g class="C"><path d="M220.6 247.8h63.7v52.9h-63.7z"/><path d="M220.6 247.8l-11.3-11.3H238l10.6 11.3zm63.7 0l13-11.3H333l-15.3 11.3z"/></g><path d="M284.3 247.8c0 .1-14.3.3-31.9.3s-31.9-.1-31.9-.3c0-.1 14.3-.3 31.9-.3l31.9.3z" class="B"/><path d="M329.2 367.3H211.5c-2.8 0-5.1-2.3-5.1-5.1v-.2c0-2.8 2.3-5.1 5.1-5.1h117.6c2.8 0 5.1 2.3 5.1 5.1v.2c0 2.8-2.2 5.1-5 5.1z" class="E"/><path d="M269.2 367.3h-57.6c-2.8 0-5.1-2.3-5.1-5.1v-.2c0-2.8 2.3-5.1 5.1-5.1h57.6c2.8 0 5.1 2.3 5.1 5.1v.2c0 2.8-2.3 5.1-5.1 5.1z" class="C"/><path d="M485.2 445.6c0 .1-105.3.3-235.2.3s-235.2-.1-235.2-.3c0-.1 105.3-.3 235.2-.3l235.2.3z" class="B"/><path d="M198.4 434.2l2.9 11 32.2-.3s-4.4-3.3-20.6-3.1l-1.6-7.6h-12.9z" class="F"/><g class="C"><path d="M163.3 309.9l-24.1 2.3-9.8 2.8c-4.2 1.2-8 3.4-11.2 6.4l-31.6 30.3-5.8-47.1-15.8 1.3 2.6 60.7c2.4 7.4 9.2 12.6 17.2 12.6 4.7 0 9.3-2 12.7-5.2l22.5-21.2-2.2 27.9-7.7 17.4 55.2 31.2s6.5-32.1 10-54.3c2.8-18 4.3-57.1 4.3-57.1l-16.3-8z"/><path d="M178.1 317.2s12.2 4.5 15.2 14.1c2.6 8.5 11.4 56.2 11.4 56.2l8.7 50.5-18.2.7-20.9-86.1 3.8-35.4z"/></g><path d="M117.3 379.5c-.1 0 .7-9.7 1.8-21.6s2.2-21.6 2.3-21.5c.1 0-.7 9.7-1.8 21.6l-2.3 21.5zm40.3-23.8s0 .2-.2.5c-.1.4-.3.8-.6 1.3-.2.6-.5 1.3-1 2-.4.8-.8 1.7-1.5 2.6l-.9 1.5c-.3.5-.7 1-1.1 1.5-.7 1.1-1.6 2.2-2.6 3.3-1.9 2.2-4.2 4.5-6.9 6.6s-5.4 3.8-8 5.2l-3.8 1.7-1.8.7-1.7.6c-1 .4-2 .6-2.9.8l-2.2.5c-.6.1-1 .2-1.4.2-.3 0-.5.1-.5 0 0 0 .2-.1.5-.2l1.4-.3c.6-.1 1.3-.3 2.2-.6l2.8-.9 1.6-.6c.6-.2 1.1-.5 1.7-.7 1.2-.5 2.4-1.1 3.7-1.8 2.6-1.4 5.3-3.1 7.9-5.2s4.9-4.4 6.8-6.5l2.6-3.2 1.1-1.5.9-1.5c.6-.9 1.1-1.8 1.5-2.6s.8-1.4 1-2c.3-.5.5-.9.6-1.3.7.1.7-.1.8-.1z" class="D"/><path d="M123.8 384.4c-1.8-.5-2.7-2.7-2.2-4.4.5-1.8 1.9-3.1 3.6-3.9s3.5-1.1 5.3-1.6c7.7-1.9 14.9-5.9 20.5-11.5.5-.5 1.3-1.1 1.9-.7.9.5.3 1.8-.3 2.6-7.8 9-18 15.9-29.3 19.7" opacity=".2"/><path d="M178.9 373s-.2-.4-.4-1l-.8-2.9-2.3-9.5-2-9.6-.5-2.9c-.1-.7-.1-1.1-.1-1.1l.3 1 .7 2.9 2.1 9.5 2.2 9.5c.3 1.1.5 2.1.6 2.9.2.8.3 1.2.2 1.2zM67.8 310.5c-.1 0-.4-1.1-.5-2.4s-.1-2.4.1-2.4c.1 0 .4 1.1.5 2.4l-.1 2.4zm4.6.1c-.1 0-.3-1.1-.4-2.5s0-2.6.1-2.6.3 1.1.4 2.5c.1 1.5 0 2.6-.1 2.6zm4.6-.3c-.1 0-.3-1.3-.4-2.8-.1-1.6 0-2.8.1-2.9.1 0 .3 1.3.4 2.8.1 1.6 0 2.9-.1 2.9zm8.9 48.6c-.1 0-.1-1.9.2-4.2.2-2.3.5-4.1.7-4.1.1 0 .1 1.9-.2 4.2l-.7 4.1zm112.2 74.6c.1 0 .5 1.1.7 2.5s.3 2.6.2 2.6-.5-1.1-.7-2.5-.3-2.6-.2-2.6zm6 0c.1 0 .4 1 .6 2.3s.3 2.4.1 2.4c-.1 0-.4-1-.6-2.3-.2-1.4-.2-2.4-.1-2.4zm5.7-.6c.1 0 .4 1.2.6 2.6l.3 2.6c-.1 0-.6-1.1-.8-2.6-.3-1.4-.3-2.6-.1-2.6zm-21.9-109.8c0 .1-1.3 0-3.2.4-2 .4-4.6 1.4-6.9 3.4s-3.7 4.5-4.3 6.4c-.7 1.9-.8 3.2-.9 3.1v-.9c.1-.6.2-1.4.5-2.4a14.6 14.6 0 0 1 4.3-6.7c2.4-2.1 5.2-3.1 7.2-3.4 1-.2 1.8-.2 2.4-.2l.9.3z" class="D"/><path d="M195.4 343.6c0 .1-1.1.6-3 1.3l-7.5 2.6-7.6 2.1-3.2.7c0-.1 1.2-.4 3.1-1l7.5-2.3 7.5-2.4 3.2-1zm7.7 34.8c0 .1-1.2.4-3.1.8l-7.6 1.7-7.7 1.5-3.2.5c0-.1 1.2-.4 3.1-.8l7.6-1.7 7.7-1.5 3.2-.5zm8.7 43.6c0 .1-1.1.1-3 .2l-7.2.3-7.2.5-3 .2c0-.1 1.1-.3 3-.6 1.8-.3 4.4-.5 7.2-.7s5.4-.2 7.3-.1l2.9.2zm-80.1-40.9c0 .1-.8-.3-2.1-.9l-9.8-4.6c-1.3-.6-2-1-2-1.1s.8.2 2.1.7l5 2.2 4.8 2.5c1.3.6 2 1.1 2 1.2zm40.2 6.8s-.4-.1-1.2-.4l-3.1-1.4c-2.7-1.2-6.3-2.7-10.4-4.4l-13.8-5.2c-.8-.3-1.2-.5-1.2-.5l1.2.3c.8.2 1.9.6 3.3 1 2.8.9 6.5 2.2 10.6 3.9 4.1 1.6 7.8 3.3 10.4 4.5 1.3.6 2.4 1.1 3.1 1.5s1.1.7 1.1.7zm3.1-28.4h-.6c-.4-.1-1-.1-1.6-.2l-5.9-.9-19.4-3-19.4-2.7-5.9-.8-1.6-.2c-.4-.1-.6-.1-.6-.1h.6c.4 0 1 .1 1.6.1l5.9.6 19.4 2.5c7.6 1.1 14.4 2.3 19.3 3.2l5.8 1.1c.6.1 1.2.2 1.6.3.7 0 .8.1.8.1zm-2.2-30c0 .1-10.8-1.4-24.2-3.3l-24.1-3.9c0-.1 10.8 1.4 24.2 3.3l24.1 3.9zm-56.7 26.2c-.1 0-.6-1.2-1.5-3.2l-3.5-7.9-3.6-7.9-1.4-3.3.5.8c.3.5.7 1.3 1.2 2.3l3.7 7.8 3.4 8 .9 2.5.3.9zm-21.5 21.1c-.1 0-1.5-6-3.1-13.5s-2.7-13.6-2.6-13.6 1.5 6 3.1 13.5l2.6 13.6zM85.7 344c0 .1-4.2 1.2-9.4 2.3l-9.5 1.8c0-.1 4.2-1.2 9.4-2.3l9.5-1.8zm-3.2-27.4c0 .1-.9.3-2.5.5-1.5.3-3.7.6-6 .8l-6.1.5c-1.6.1-2.5.1-2.5 0s.9-.2 2.5-.4l12-1.4h2.6z" fill="#fafafa"/><path d="M90.6 269.1c.3.6 7.8 39.2 7.8 39.2l-17.7.8-6.9-33.2 16.8-6.8z" class="C"/><path d="M98.4 308.3l2.1-.9-7.7-38-2.4-.2zm-14.9-30.7c.1.5-.3 1-.8 1-.5.1-1-.3-1-.8-.1-.5.3-1 .8-1 .5-.1 1 .3 1 .8z" class="B"/><path d="M79.9 304.7l-.3-5.1 7.6-3.1-2.9-7c-1.4-3.3-5.4-4.6-8.5-2.9l-3 1.6c-2.2 1.2-3.7 3.2-4.3 5.6-1 4.1-1.8 12.7-1.8 12.3" class="F"/><path d="M59.6 433.3l-32.4 9.1c-1.9.7-1.6 7.5 1.4 7.4 1.4-.1 23.9.8 26.7.7 2.8-.2 11.4-3.6 11.4-3.6l-7.1-13.6z" class="E"/><g class="D"><path d="M46.7 445.2c-.2 0-.4-1.6-1.4-3.3s-2.3-2.7-2.2-2.9c.1-.1 1.6.8 2.7 2.6 1 1.9 1 3.6.9 3.6zm3.2-1.4c-.2 0-.5-1.4-1.3-3.1-.8-1.6-1.8-2.8-1.7-2.9s1.3.9 2.2 2.6c.9 1.8.9 3.3.8 3.4zm3.1-.9c-.2 0 0-1.6-.7-3.3s-1.8-2.8-1.7-2.9 1.5.8 2.2 2.7.3 3.6.2 3.5z"/><path d="M52.4 438.9c-.1 0-.3-.9-.3-2.3 0-.7.1-1.6.3-2.5.1-.5.3-1 .5-1.4.1-.2.2-.5.5-.8s.8-.2 1.1.1c.3.2.4.6.4.9v.8c0 .5-.1 1-.2 1.5-.2 1-.6 1.7-1 2.4-.7 1.3-1.4 1.9-1.4 1.9-.1 0 .5-.8 1.1-2 .3-.6.6-1.4.8-2.3.1-.4.1-.9.2-1.4 0-.5 0-1.1-.3-1.3-.1-.1-.3-.1-.4 0s-.3.3-.3.5l-.5 1.4c-.2.9-.4 1.7-.4 2.4-.2 1.2 0 2.1-.1 2.1z"/><path d="M52.4 438.6c0-.1.7-.3 2-.3.6 0 1.4.1 2.2.3.4.1.8.2 1.3.5.4.2.9.8.7 1.4-.1.6-.6 1-1.1 1.1s-1 .1-1.4 0c-.9-.2-1.5-.6-2-1-1-.8-1.5-1.4-1.4-1.4.1-.1.6.4 1.7 1.1.5.3 1.1.7 1.9.8.4.1.8.1 1.2 0s.7-.4.8-.7-.1-.7-.5-.9c-.3-.2-.7-.3-1.1-.4-.8-.2-1.5-.3-2.1-.4-1.4-.1-2.1 0-2.2-.1zm-10.5 7c-.2 0 0-1.3-.6-2.8s-1.6-2.3-1.5-2.4 1.4.6 2 2.2.2 3 .1 3zm21.7 1.4l-1.2.6c-.8.3-2 .7-3.5 1.1-3 .7-7.2 1.2-11.9 1.1l-11.9-.4c-1.4-.1-2.7-.1-3.6-.2s-1.3-.1-1.3-.1.5-.1 1.3-.1h3.6l11.9.2c4.6 0 8.8-.3 11.8-1 3-.5 4.8-1.3 4.8-1.2z"/><path d="M64.5 447.7c0 .1-.9-.4-2.3-1.1-1.4-.6-3.6-1.3-5.9-1-2.3.4-4 1.9-5.1 3s-1.7 1.9-1.8 1.8c0 0 .5-.9 1.5-2.1a9.95 9.95 0 0 1 2.1-1.9c.9-.6 2-1.2 3.2-1.4 2.5-.4 4.7.5 6.1 1.2 1.5.8 2.2 1.5 2.2 1.5z"/></g><path d="M92.7 424.8l30.5 20.1c1.6 1.2-.2 6.9-3 5.9-1.3-.5-26-7.3-28.7-8.4-2.7-1-9.8-6.9-9.8-6.9l11-10.7z" class="E"/><g class="D"><path d="M101.4 440c-.1 0 .4-1.7 2-3.2 1.6-1.4 3.3-1.8 3.3-1.7.1.1-1.5.7-3 2.1s-2.2 2.9-2.3 2.8zm-2.6-2.4c-.1 0 .4-1.5 1.8-2.9 1.3-1.4 2.8-2 2.9-1.9s-1.2.9-2.5 2.2c-1.4 1.4-2.1 2.7-2.2 2.6zm-2.7-1.7c-.1 0 0-1.7 1.3-3.2 1.3-1.6 2.9-2.1 2.9-1.9.1.1-1.3.8-2.5 2.3-1.2 1.3-1.5 2.9-1.7 2.8z"/><path d="M97.9 432.3c-.1 0 .3-.8.7-2.2.2-.7.3-1.5.3-2.4v-1.5c0-.2-.1-.5-.2-.6s-.2-.2-.4-.1c-.3.1-.5.7-.7 1.2l-.3 1.4c-.1.9 0 1.8.1 2.5.2 1.4.5 2.2.4 2.3-.1 0-.5-.8-.8-2.2-.1-.7-.3-1.6-.2-2.6 0-.5.1-1 .3-1.5l.3-.8c.1-.3.3-.6.7-.7.3-.2.8-.1 1 .3.2.3.2.6.2.9v1.5c-.1 1-.3 1.8-.5 2.5-.4 1.2-.9 2-.9 2z"/><path d="M97.9 431.9c0 .1-.7-.3-1.9-.6-.6-.1-1.3-.3-2.1-.3-.4 0-.8 0-1.2.1s-.7.3-.7.7.2.7.5.9.7.3 1.1.4c.8.1 1.5-.1 2.1-.2 1.2-.3 1.9-.6 1.9-.6 0 .1-.6.5-1.8.9-.6.2-1.4.4-2.2.3-.4 0-.9-.1-1.3-.4s-.8-.8-.7-1.4c0-.6.6-1.1 1.1-1.1.5-.1.9-.1 1.4-.1.8.1 1.6.2 2.2.4 1 .5 1.6 1 1.6 1zm18.5 17.8s-.5-.3-.7-1.1-.1-2.1.6-3.2c.3-.6.7-1 1-1.5.3-.4.7-.8 1-1.1s.7-.4.9-.4.4.1.4.1c0 .1-.5 0-1.1.6-.3.3-.6.6-.8 1.1-.3.4-.6.9-.9 1.4-.6 1-.8 2.1-.6 2.9 0 .7.3 1.1.2 1.2z"/><path d="M105.9 441.8c-.1 0-.1-1.5 1-2.8 1.1-1.4 2.6-1.7 2.6-1.5.1.1-1.2.6-2.2 1.9-1 1.1-1.3 2.4-1.4 2.4zm-21.2-5.2s.5.3 1.3.9 2 1.4 3.6 2.2c1.6.9 3.5 1.7 5.8 2.6l7.4 2.4 13.6 4 4.1 1.3 1.5.5-1.5-.3-4.1-1.1-13.6-3.8-7.4-2.4-5.8-2.7-3.6-2.4-1.3-1.2z"/><path d="M83.6 436.9c0-.1.9-.4 2.5-.7 1.6-.2 3.9-.4 6.2.8 1.1.6 2 1.4 2.6 2.3s1.1 1.7 1.4 2.5c.6 1.5.9 2.4.8 2.4s-.5-.9-1.2-2.3-1.8-3.4-3.9-4.4c-2.1-1.1-4.4-1-5.9-.9l-2.5.3z"/></g><path d="M161.7 272l1.9 38.9c.3 6.6-4.9 12.2-11.6 12.2h0c-6.2 0-11.3-4.9-11.6-11-.1-2.9-.3-5.4-.3-5.7 0 0-9.9-.4-11.1-10.2-.6-4.7-1-14.5-1.2-23.4-.3-9.5 6.8-17.7 16.3-18.7l.9-.1c10.2-.6 16.4 7.8 16.7 18z" class="F"/><path fill="#eb996e" d="M140.1 306.2s6.2-.2 12.3-5c0 0-2.2 7.4-12.1 7.6l-.2-2.6z"/><path d="M130.9 278.8c.1.7.7 1.3 1.5 1.3s1.4-.7 1.3-1.4-.7-1.3-1.5-1.3c-.8.1-1.4.7-1.3 1.4zm-.5-1.5c.2.2 1.2-.7 2.7-.9s2.7.5 2.8.3c.1-.1-.1-.4-.7-.7-.5-.3-1.4-.5-2.3-.4s-1.7.5-2.1.9-.5.7-.4.8zm15.2.3c.1.7.7 1.3 1.5 1.3s1.4-.7 1.3-1.4-.7-1.3-1.5-1.3-1.3.6-1.3 1.4zm-.4-1.6c.2.2 1.2-.7 2.7-.9s2.7.5 2.8.3c.1-.1-.1-.4-.7-.7-.5-.3-1.4-.5-2.3-.4s-1.7.5-2.1.9c-.4.3-.5.7-.4.8zm-4.2 11.7c0-.1-1-.1-2.5-.2-.4 0-.8 0-.9-.3s0-.7.1-1.2l.8-3 1.7-7.9c-.2 0-1.2 3.4-2.3 7.8l-.8 3.1c-.1.5-.3 1 0 1.5.1.3.4.5.7.5h.7c1.5-.1 2.5-.2 2.5-.3zm4.5.6c-.2 0-.1 1.6-1.3 3-1.3 1.3-3 1.3-3 1.6 0 .1.4.3 1.2.2.7-.1 1.7-.4 2.5-1.2s1-1.8 1-2.5c-.1-.8-.3-1.2-.4-1.1zm-1.4-18.2c.2.4 1.7 0 3.5.1 1.8 0 3.3.3 3.5-.1.1-.2-.2-.5-.8-.9-.6-.3-1.6-.6-2.6-.6a5.86 5.86 0 0 0-2.6.6c-.7.4-1 .7-1 .9zm-13.6 2.8c.3.3 1.3-.2 2.5-.3 1.2-.2 2.3 0 2.5-.4.1-.2-.1-.5-.6-.8s-1.3-.5-2.1-.3c-.9.1-1.6.5-2 .9s-.5.7-.3.9z" class="D"/><path d="M161.7 279.3c.2-.1 6.5-2.7 7 4s-6.3 5.8-6.3 5.7c-.1-.2-.7-9.7-.7-9.7z" class="F"/><path fill="#eb996e" d="M164.2 286.3s.1.1.3.1c.2.1.5.1.9-.1.7-.3 1.2-1.5 1.1-2.7 0-.6-.2-1.2-.5-1.6-.2-.5-.6-.8-.9-.8-.4-.1-.6.2-.7.4s0 .3-.1.3c0 0-.2-.1-.1-.4a.76.76 0 0 1 .2-.4c.2-.1.4-.2.6-.2.5 0 1 .4 1.3.9s.5 1.2.6 1.8c.1 1.4-.5 2.7-1.5 3-.5.2-.9 0-1.1-.1-.1-.1-.1-.2-.1-.2z"/><g class="D"><path d="M165.4 278.7c-1-.1-2.7 1-3 2s-.3 2.1-.6 3.1-1.2 2-2.3 1.8c-.7-.1-1.3-.7-1.6-1.4s-.3-1.4-.3-2.2c0-3.2.4-6.3.1-9.5-.2-3.2-1-6.4-3-8.9-1.9-2.5-5.2-4.1-8.3-3.5-2.1.4-3.8 1.7-5.9 2.2-2.4.6-5.1 0-7-1.5-.2-.2-1.4-.8-1.4-.8 0-.2 0-1.6.5-2.1 3.7-4.2 10.9-6.1 16.5-5.3s11 4 13.9 8.8c3 4.9 3.1 12 2.4 17.3M56.1 433l75.2-48.4c3-1 10.1-5.7 17.2-3.7s13.6 8.4 16.8 17.7c3.2 9.4 3.4 30.3 3.4 30.3s-5.7 16.5-16.8 20c-.9.3-1.9.5-2.9.7-13.5 2.7-27.3-3.5-34.9-15.1l-1.6-2.5-48 17.1-8.4-16.1z"/><path d="M31.5 377.7s-8.8 3.2-8.9 13.1c-.1 19 38.3 39.9 38.3 39.9l51.1-33.9v-3.6c0 .1-65.7-23.6-80.5-15.5z"/></g><g fill="#455a64"><path d="M145.4 420s-.1.1-.4.2-.7.3-1.2.5l-4.6 1.8-17 6.4-25.6 9.4-32 11.3-.2.1-.1-.2-5.6-10.8-2.9-5.5-.1-.2.2-.1 55.1-35 16.5-10.4 4.5-2.8 1.2-.7s.4-.2.4-.2-.1.1-.4.3-.7.4-1.1.8l-4.4 2.9-16.5 10.6-55 35.1.1-.3 2.9 5.5 5.6 10.8-.3-.1 32-11.2 25.6-9.3 21.7-8c.5-.2.9-.3 1.2-.4.3-.5.4-.5.4-.5z"/><path d="M86.2 413.9s-.5-.3-1.3-.9l-3.5-2.6-11.2-9.1c-4.3-3.7-8.1-7.1-10.7-9.7-1.3-1.3-2.4-2.3-3.1-3.1-.7-.7-1.1-1.2-1.1-1.2s.5.3 1.2 1c.8.8 1.9 1.7 3.2 2.9 2.7 2.5 6.5 5.9 10.8 9.6l11.1 9.3c1.4 1.1 2.5 2.1 3.4 2.8l1.2 1zm-40.3-29.1c0-.1 2.3-.4 4.9.4 2.7.8 4.5 2.2 4.4 2.3s-1.9-1.1-4.5-1.8-4.8-.7-4.8-.9z"/><path d="M50.3 381.8c0-.1 1.7.6 3 2.3 1.4 1.7 1.7 3.4 1.6 3.4-.1.1-.7-1.5-2-3.1-1.2-1.5-2.7-2.4-2.6-2.6z"/></g><path d="M28.7 441.9c0-.1.6-.2 1.3.4s1.3 1.7 1.5 3a5.64 5.64 0 0 1-.5 3.3c-.4.8-.8 1.1-.8 1.1-.1 0 .2-.5.5-1.2a6.09 6.09 0 0 0 .3-3.1c-.2-1.2-.7-2.2-1.2-2.8-.6-.6-1.2-.6-1.1-.7z" class="D"/><path d="M415.4 395.2c-.1 0-.3-22.9-.4-51.3l.1-51.3c.1 0 .3 22.9.4 51.3l-.1 51.3zm15.5-57.4s0 .2-.2.5a11.64 11.64 0 0 0-.6 1.5c-.1.3-.3.7-.5 1.1-.1.4-.3.8-.5 1.3s-.3 1-.5 1.5-.3 1.1-.5 1.7c-.8 2.4-1.4 5.3-2 8.5-.5 3.3-.9 6.9-1.1 10.7-.3 7.6.1 14.5.6 19.5.2 2.5.5 4.5.6 5.9.1.7.1 1.2.2 1.6v.6s-.1-.2-.1-.5c-.1-.4-.2-.9-.3-1.6l-.8-5.9c-.6-5-1-11.9-.7-19.6.2-3.8.6-7.5 1.1-10.7.6-3.3 1.3-6.2 2.1-8.6.2-.6.4-1.2.6-1.7l.6-1.5c.2-.5.3-.9.5-1.3s.3-.7.5-1.1c.3-.6.5-1.1.7-1.5.2-.2.3-.4.3-.4zm-1.8-18.6s-.1.3-.2.8c-.2.5-.4 1.2-.7 2.1-.2.5-.3 1-.5 1.5l-.6 1.9-1.3 4.5-.7 2.7-.7 2.9-1.3 6.4c-.8 4.6-1.4 9.6-1.9 14.9-.4 5.3-.6 10.4-.7 15 0 4.6 0 8.8.2 12.3l.3 4.7.3 3.6c.1.9.1 1.7.2 2.2v.8s-.1-.3-.1-.8a40.14 40.14 0 0 1-.3-2.2c-.1-1-.2-2.2-.3-3.6s-.3-3-.3-4.7c-.2-3.5-.3-7.7-.3-12.3s.2-9.7.7-15.1c.5-5.3 1.2-10.4 2-15 .5-2.3.8-4.4 1.3-6.4.2-1 .5-2 .7-2.9.3-.9.5-1.8.7-2.7.4-1.7.9-3.2 1.4-4.5a18.88 18.88 0 0 1 .6-1.8 11.64 11.64 0 0 1 .6-1.5c.3-.9.6-1.6.8-2.1 0-.4.1-.7.1-.7zM411 399.3v-.3c0-.2 0-.5-.1-.8 0-.7-.1-1.7-.2-3L410 384c-.6-9.4-1.5-22.5-3.1-36.8-.8-7.2-1.8-14-2.7-20.1l-1.5-8.7-1.5-7.6-1.4-6.2-1.1-4.7c-.3-1.3-.6-2.2-.7-3-.1-.3-.1-.6-.2-.8 0-.2-.1-.3 0-.3 0 0 0 .1.1.3s.1.4.2.8c.2.7.5 1.7.8 2.9.4 1.3.8 2.8 1.2 4.7.4 1.8 1 3.9 1.5 6.2s1.1 4.8 1.6 7.6c.6 2.7 1 5.7 1.6 8.7 1 6.2 2 13 2.8 20.2 1.6 14.4 2.4 27.4 2.9 36.8.3 4.7.4 8.5.5 11.2 0 1.3.1 2.3.1 3v.8c-.1.2-.1.3-.1.3z" class="B"/><path d="M414.8 303.8c-.3-3.3-3.6-5.7-6.9-5.7s-6.3 1.9-8.3 4.5-3.1 5.7-4 8.9c-2.2 7.7-3.4 15.7-2.5 23.6s4.2 15.7 9.8 21.3c.9.9 2.1 1.8 3.4 1.5.7-.1 1.3-.6 1.8-1.1 11.2-10.1 17.6-25.2 17.2-40.2-.1-3-.5-6.1-2.1-8.6-1.7-2.6-5.6-5.2-8.4-4.2m-24.4-26.1l-4.6 8.3c-.1.2-.2.4-.5.4-.2 0-.4-.2-.6-.4l-12.2-18.7 2.8-1.6 15.1 12z" class="C"/><path d="M390.4 277.7l-4.6 8.3c-.1.2-.2.4-.5.4-.2 0-.4-.2-.6-.4l-12.2-18.7 2.8-1.6 15.1 12z" opacity=".2"/><path d="M415.1 292.7l-41.5-24.5c-.4-.2-.9-.5-1-1-.2-.6.3-1.2.7-1.7 5.7-5.9 14-9.3 22.2-8.7s16 5.3 20 12.5 4.2 16.6-.4 23.4" class="C"/><g class="B"><path d="M379.6 260.4s.2 0 .5-.1c.4 0 .9-.1 1.6-.1 1.4 0 3.3.1 5.8.5 2.4.4 5.2 1.2 8.2 2.5s6 3.2 8.8 5.7 5 5.4 6.6 8.2 2.7 5.5 3.3 7.9.9 4.3 1 5.7c.1.7.1 1.2.1 1.6v.5l-.3-2.1c-.2-1.3-.5-3.3-1.2-5.6-1.3-4.6-4.4-10.8-9.8-15.8-5.5-5-12-7.4-16.7-8.2-2.4-.4-4.3-.6-5.7-.6-1.5 0-2.2 0-2.2-.1z"/><path d="M409.5 275.8c0 .1-.8.4-2.1 1l-5.2 1.8-5.3 1.5c-1.4.3-2.2.5-2.3.4 0-.1.8-.3 2.2-.8l10.6-3.4 2.1-.5zm-6.6-17.5c.1 0 .4 2.1.5 4.6.1 2.6-.1 4.7-.3 4.6-.1 0-.2-2.1-.2-4.6v-4.6zm-29.7 9.5c0-.1 1.1-.5 3-1.1l7.4-2 7.5-1.6 3.2-.4c0 .1-1.2.3-3.1.8l-7.5 1.7-7.5 1.9c-1.7.5-2.9.8-3 .7z"/></g><path d="M398 296.1c-3.6-2.7-7.3-3.2-11.8-3.1-4.5.2-8.8 1.5-12.9 3.3-7 3.1-13.6 7.6-17.7 14-4.2 6.4-5.6 14.8-2.5 21.8.3.7.7 1.4 1.4 1.7s1.6.1 2.3-.2c8-2.6 16-5.2 23.3-9.3s14-9.7 17.9-17.1c.9-1.8 1.7-3.7 1.9-5.7 0-1.9-.5-4-1.9-5.4" class="C"/><g class="B"><path d="M398 295.2s-.2.1-.6.2-1 .3-1.7.6c-.4.1-.8.3-1.2.4-.4.2-.9.4-1.4.5l-3.4 1.4-2 .9c-.7.3-1.4.7-2.1 1.1l-4.5 2.5c-3 1.9-6.3 4.2-9.4 7s-5.8 5.7-8.1 8.5c-1.1 1.4-2.2 2.8-3.1 4.1-.5.7-.9 1.3-1.3 1.9s-.8 1.2-1.1 1.8c-.7 1.1-1.3 2.3-1.8 3.2-.3.5-.5.9-.7 1.3s-.4.8-.6 1.1l-.8 1.6c-.2.4-.3.5-.3.5s.1-.2.2-.6c.2-.4.4-1 .7-1.6.2-.4.3-.7.5-1.2.2-.4.4-.9.7-1.4.5-1 1-2.1 1.8-3.2.4-.6.7-1.2 1.1-1.8l1.3-1.9c.9-1.4 2-2.7 3.1-4.1 2.3-2.8 5-5.8 8.2-8.5 3.2-2.8 6.4-5.1 9.5-7 1.6-.9 3-1.8 4.5-2.5.7-.4 1.4-.7 2.1-1s1.3-.6 2-.9c1.2-.6 2.4-1 3.4-1.3.5-.2 1-.4 1.4-.5s.9-.3 1.2-.4l1.7-.5c.5-.1.7-.2.7-.2zm-27.8 15.1c0 .1-3.8 1.4-8.7 2.8l-8.8 2.3c0-.1 3.8-1.4 8.7-2.8l8.8-2.3z"/><path d="M369.8 329.5c-.1 0-.1-1-.2-2.7v-6.5l.3-6.5c.1-1.7.3-2.7.3-2.7.1 0 .1 1 0 2.7l-.4 13c.1 1.6.1 2.7 0 2.7zm16.4-8.4c-.1 0-.6-4.7-1-10.5s-.6-10.5-.5-10.5.6 4.7 1 10.5.6 10.5.5 10.5z"/><path d="M365.8 299.6c0-.1 1.1-.1 2.8-.1l6.7.1 6.7.3 2.8.3c0 .1-1.1.1-2.8.1s-4.1-.1-6.7-.1l-6.7-.3c-1.8-.1-2.8-.2-2.8-.3zm39 59s0-.2-.1-.6c0-.4 0-1-.1-1.6-.1-1.4-.1-3.5 0-6 0-2.5.2-5.5.5-8.9.3-3.3.8-7 1.5-10.8s1.5-7.4 2.4-10.6 1.8-6.1 2.6-8.5 1.5-4.3 2.1-5.6c.3-.6.5-1.1.6-1.5.1-.3.2-.5.3-.5 0 0 0 .2-.2.5-.1.4-.3.9-.5 1.5-.5 1.3-1.2 3.3-1.9 5.7-.8 2.4-1.6 5.3-2.5 8.5a174.11 174.11 0 0 0-2.3 10.6c-.7 3.8-1.1 7.4-1.5 10.8-.3 3.3-.5 6.3-.6 8.9-.1 2.5-.1 4.6-.1 6v1.6c-.2.3-.2.5-.2.5z"/><path d="M407 330.3l-1.7 1.8-4.3 4-4.6 3.8-2 1.4c0-.1.7-.7 1.8-1.7l4.5-3.9 4.4-3.9c1.1-1 1.8-1.6 1.9-1.5zm13.1 10.5c-.1 0-.7-.9-1.8-2.4l-4.1-6-4.2-5.9-1.7-2.5c.1 0 .8.8 2 2.3l4.3 5.8 4 6.1 1.5 2.6zm-6.9-33.2c.1.1-4.3 3.1-9.7 6.6-5.5 3.5-9.9 6.3-10 6.1-.1-.1 4.3-3.1 9.7-6.6 5.5-3.5 10-6.2 10-6.1z"/><path d="M425.5 320.8c-.1.1-3-2.6-6.6-6.1l-6.2-6.5c.1-.1 3 2.6 6.6 6.1l6.2 6.5z"/></g><path d="M428.6 320.6l3.7-.3c2.7-.2 5.2-1 7.6-2.3l3.5-1.8c4.6-1.9 9.8-1.5 14.8-1.8 8.1-.4 16.2-2.5 23.5-6 .4-.2.8-.5 1-.9.8-1.4-.7-2.6-1.9-3.4-6.3-3.9-12.7-7.8-19.9-9.8-7.2-1.9-15.3-1.6-21.4 2.6-7.1 4.9-9.7 15.1-10.9 23.7" class="C"/><g class="B"><path d="M482.8 307l-9-4.5c-2.8-1.3-6.2-2.8-10.1-3.9s-8.5-1.7-13.1-1.1c-4.7.6-8.9 2.4-12 5.1s-4.9 6-6.2 8.8-2.1 5.2-2.7 6.8l-.7 1.9c-.2.4-.2.7-.3.6 0 0 0-.2.2-.7.1-.5.3-1.1.6-1.9.5-1.7 1.3-4.1 2.6-6.9s3.1-6.2 6.3-9c3.1-2.8 7.5-4.7 12.2-5.3 4.8-.6 9.4 0 13.3 1.1 4 1.1 7.4 2.7 10.2 4 2.8 1.4 5 2.6 6.5 3.5.7.4 1.3.8 1.7 1 .3.4.5.5.5.5z"/><path d="M473.8 311.8c-.1.1-5-3.1-10.9-7.1-6-4-10.7-7.4-10.7-7.5.1-.1 5 3.1 10.9 7.1l10.7 7.5zm-4.7-15c0 .1-1.7.6-3.8.8s-3.9.1-3.9-.1c0-.1 1.7-.2 3.9-.4l3.8-.3zm-21.9-3.9c.1.1-.6 1.5-1.6 3.2s-1.9 3-2 3c-.1-.1.6-1.5 1.6-3.2 1-1.8 1.9-3.1 2-3zm4.4 21.8c0 .1-.9-.4-2.4-1.3l-5.4-3.6-5.1-3.9-2-1.7c0-.1.9.5 2.2 1.5l5.2 3.8 5.3 3.7 2.2 1.5z"/></g><path d="M434.1 336.5c-3.6-.9-7.8 2.5-8.6 6.1-.7 3.6.6 7.3 2.2 10.7 3.5 7.4 8.4 14.2 14.8 19.3s14.4 8.4 22.6 8.3c-1.5-7 .4-14.3-.4-21.5a27.84 27.84 0 0 0-8.1-16.6c-4.4-4.4-10.4-7.2-16.6-7.9-2.3-.2-5-.5-5.9 1.6" class="C"/><g class="B"><path d="M465.1 380.9s-.2-.1-.5-.2l-1.3-.9c-1.1-.9-2.4-2.5-3.5-4.7l-1.8-3.6-1.9-4.2c-.7-1.5-1.4-3-2.4-4.5-.9-1.5-2-3-3.2-4.4-2.4-2.9-5.1-5.4-7.3-7.7-2.3-2.4-4.2-4.6-5.6-6.7s-2.3-3.9-2.7-5.2c-.2-.7-.4-1.2-.5-1.5-.1-.4-.1-.5-.1-.5s.2.7.8 2c.5 1.3 1.4 3.1 2.8 5.1s3.3 4.3 5.6 6.6 4.9 4.8 7.4 7.7a37.18 37.18 0 0 1 3.3 4.5c.9 1.5 1.7 3.1 2.4 4.6s1.3 2.9 1.9 4.3c.6 1.3 1.2 2.5 1.8 3.6 1.1 2.2 2.3 3.8 3.3 4.7.8.6 1.6 1 1.5 1z"/><path d="M446.7 375.1c-.1 0 0-.9.3-2.4l1.4-5.7 1.8-5.6c.5-1.4.9-2.2 1-2.2s-.2.9-.6 2.3l-1.7 5.6-1.5 5.6-.7 2.4zm17.7-17.2c0 .1-1-.2-2.5-.6l-6-1.5-6.1-1.2-2.5-.6c0-.1 1 0 2.6.2s3.8.6 6.1 1.1a54.86 54.86 0 0 1 6 1.6l2.4 1zm-31 5c-.1 0 .1-1.1.4-2.8l1.5-6.6 1.9-6.5 1-2.6c.1 0-.2 1.1-.7 2.7l-1.8 6.5-1.6 6.6-.7 2.7zm22.9-20c0 .1-4.5-.2-10-.8s-9.9-1.2-9.9-1.3 4.5.2 10 .8c5.4.6 9.9 1.1 9.9 1.3zm-73.2 44.5h69.8v9.6h-69.8z"/><path d="M453 397.1h-70v-9.8h70v9.8zm-69.8-.2h69.5v-9.3h-69.5v9.3z"/><path d="M389.6 393.8l10 49.5h37.2l9.7-46.3z"/><path d="M389.6 438.6l5.3 7.4h45.2l6.4-7.4z"/></g></svg>