<svg xmlns="http://www.w3.org/2000/svg" xmlns:xlink="http://www.w3.org/1999/xlink" viewBox="0 0 500 500"><style><![CDATA[.B{fill:#263238}.C{fill:#1a164e}.D{fill:#ffbe9d}.E{fill:#eb996e}.F{fill:#f8db01}.G{fill:#46327a}]]></style><path d="M438.1 124.8h0c-17.5-28.4-46.6-48-79.7-52.5-12.9-1.7-26-1.3-38.7 1.3-37.9 8-70.9 36.3-84.5 72.5-8 21.3-10.3 45.9-25.5 62.8-19.9 22-53.6 22.7-83.2 21.8s-63.4-.1-83.1 22C31 266.6 27 286.3 28 304.8c2.6 49.1 37.3 93 81.3 114.8s95.9 23.8 144.1 14.2c67.5-13.4 131.8-50.4 170.4-107.4 36.8-54.3 47.4-127.4 21.6-187.4-2.1-4.9-4.5-9.6-7.3-14.2z" class="F"/><path d="M470.2 454.6c0 .1-98.6.3-220.2.3-121.7 0-220.2-.1-220.2-.3 0-.1 98.6-.3 220.2-.3l220.2.3z" class="C"/><path d="M298.4 454.5l-133.9-.6c-16.1-.1-29.1-13.5-29-30.1L137 78.9c.1-16.6 13.2-29.9 29.3-29.8l133.9.6c16.1.1 29.1 13.5 29 30.1l-1.5 344.9c-.1 16.5-13.2 29.9-29.3 29.8z" class="B"/><path fill="#fafafa" d="M302.8 61.1l-26.7-.1c-3.6 0-6.5 3-6.5 6.8v4.9c0 3.8-2.9 6.8-6.5 6.8l-52.2-.2c-3.6 0-6.5-3.1-6.5-6.8v-4.9c0-3.8-2.9-6.8-6.5-6.8h-9.4l-23.5-.3c-11.6-.1-21.1 9.3-21.2 21l-1.4 337.9c0 11.6 9.3 21.1 21 21.2l137.8.6c11.6.1 21.1-9.3 21.2-21l1.4-337.9c0-11.7-9.3-21.1-21-21.2z"/><path d="M272 155.8l-35.8-1h-36.5c-4.8 0-8.7 4-8.7 9v24.7c0 17.2 3.9 34.2 11.9 49.2 6.7 12.6 17.2 25.7 33.2 33.9 14.8-5.5 25.8-20.3 32.5-33 8-15 11.9-32 11.9-49.2v-24.7c.2-4.8-3.7-8.9-8.5-8.9z" class="G"/><path fill="#fff" d="M235 213.7l-13.2-10.9 4.4-5.4 8 6.6 13.1-15 5.3 4.6z"/><path d="M272 155.8l-35.8-1h-36.5c-4.8 0-8.7 4-8.7 9v24.7c0 17.2 3.9 34.2 11.9 49.2 6.7 12.6 17.2 25.7 33.2 33.9 14.8-5.5 25.8-20.3 32.5-33 8-15 11.9-32 11.9-49.2v-24.7c.2-4.8-3.7-8.9-8.5-8.9zm-1.2 35.6c0 13.6-3.1 27.1-9.4 38.9-5.3 10-13.2 20.3-25.9 26.9-12.7-6.5-20.3-16.8-25.6-26.9-6.3-11.9-9.4-25.4-9.4-38.9v-19.6c0-3.9 3.1-7.1 6.8-7.1H264c3.8 0 6.8 3.2 6.8 7.1v19.6z" opacity=".3"/><path d="M365.4 259.8c14.8.4 29.8.8 44.1 4.6s28.1 11.4 36.6 23.5c9.4 13.4 11.2 30.4 12.2 46.7 1.6 27 1.4 54.1-1.3 81.1-1.3 13.6-6.2 26.3-18.9 31.5-15.3 6.2-35.8 0-35.8 0" class="C"/><g fill="#455a64"><path d="M405.1 443.9h8.5c2.7 0 6.1 0 10-.5 1-.2 2-.3 3-.5l1.5-.3c.5-.1 1-.3 1.6-.5 1.1-.3 2.1-.7 3.2-1.1 1.1-.5 2.2-.9 3.2-1.6 2.1-1.2 4.2-2.8 5.9-4.8 1.8-2 3.2-4.4 3.9-7.2 1.4-5.6 2-11.8 2.2-18.2.2-6.5.1-13.3.2-20.4l.1-21.9-.1-21.9c-.2-7.1-.8-13.9-1.9-20.3-2.2-12.8-6.6-23.9-12.4-31.8-2.9-4-6-7.1-8.8-9.8s-5.4-4.8-7.5-6.6l-4.9-4.1c-.5-.5-1-.8-1.3-1.1-.3-.2-.4-.4-.4-.4s.2.1.5.3.7.6 1.3 1l4.9 4c2.1 1.7 4.7 3.9 7.6 6.6 2.8 2.7 6 5.8 8.9 9.8 5.9 8 10.4 19.1 12.6 32 1.1 6.4 1.7 13.2 1.9 20.3.3 7.1.2 14.4.1 21.9l-.1 21.9-.2 20.4c-.2 6.5-.9 12.7-2.3 18.3-.8 2.8-2.2 5.3-4 7.4-1.8 2-3.9 3.6-6.1 4.8-1.1.6-2.2 1.1-3.2 1.6-1.1.4-2.2.8-3.2 1.1-.5.2-1.1.3-1.6.5l-1.6.3c-1 .3-2 .4-3 .5-3.9.5-7.3.5-10 .4h-7.9c-.4-.1-.6-.1-.6-.1z"/><path d="M448.7 370.7c0-.1 2.3-.8 5.2-.9s5.3.3 5.3.4c0 .2-2.4-.1-5.2.1l-5.3.4z"/></g><path fill="#e0e0e0" d="M384.7 260.6h1.5l4.3.2c3.7.4 9.2 1.1 15.6 3.3l2.4.9c.4.2.8.3 1.3.5l1.2.6c.8.4 1.7.8 2.6 1.2s1.7.9 2.6 1.4c3.5 1.8 7.1 4.2 10.6 6.9s7 5.9 10.2 9.6 6.1 7.9 8.3 12.6c4.5 9.3 6.4 19.1 7.4 28 .9 8.9 1 16.9 1 23.7l.1 16c.1 1.9.1 3.3.1 4.3v1.1c0-.3 0-.7-.1-1.1-.1-1-.1-2.5-.2-4.3-.2-3.8-.2-9.2-.3-16-.1-6.7-.2-14.8-1.1-23.6-1-8.8-3-18.5-7.4-27.8-2.2-4.6-5-8.8-8.2-12.4a82.41 82.41 0 0 0-10.1-9.6c-3.5-2.7-7-5.1-10.5-6.9-.9-.5-1.7-1-2.6-1.4s-1.7-.8-2.5-1.2l-1.2-.6c-.4-.2-.8-.3-1.2-.5l-2.4-.9c-6.3-2.3-11.8-3-15.5-3.5-1.9-.2-3.3-.2-4.3-.3-.5 0-.8-.1-1.1-.1-.4-.1-.5-.1-.5-.1z"/><path d="M375.5 260.5s3.6-9.6 16.6-7.8c0 0 5.8-.3 6.8 2.9 0 0-12-3-17.2 5.3l-6.2-.4z" class="B"/><path d="M412.3 272.2h-7.6s-1.5-20-19.8-19.3c0 .1 22.8-7.6 27.4 19.3z" class="C"/><path d="M291 454.3s-2.1-6.8-1.7-9.7 4.3-5.5 4.3-5.5l-4.2-109.7s-.5-48 24.8-62.9l15.2-3.8 37.4-2.2c1.2.4 45.1 16.9 51.2 23.4l-19 96.7 4.6 49.1c.5 4.2 3.6 24.9 3.6 24.9l-116.2-.3z" class="G"/><path d="M402.9 423.2c-.4 2.7-1.4 5.9-3.9 6.7-2.6.8-5.3.6-8 .1-9.4-1.7-18-6.1-26.4-10.4-15.8-8.1-31.8-16.3-45.4-27.7-1.9-1.6-4-4.1-2.8-6.3 1.3-2.5 5.1-1.7 7.7-.5 26.7 12.4 52 25.8 78.8 38.1" opacity=".3"/><path d="M308.6 269.5s-16.7 5.6-22.1 21.1c-6 17.1-9.9 50.4-9.9 50.4l16.5 2.1 15.5-73.6zm109.3 14.4s9 11.8 13.3 26.1c4.4 14.3 6.9 55.9 6.9 55.9l-45-.6-2.4-36.6s-4.5-61 27.2-44.8z" class="G"/><path d="M282.4 305.6s.3-.5 1.2-1.2c.9-.6 2.6-1.3 4.7-.9 2.2.3 4.3 2 7.1 3.1 1.4.5 3 .9 4.6.6 1.6-.4 3.1-1.5 4.6-2.7.8-.6 1.6-1.2 2.5-1.6s2.1-.6 3.1-.1c1 .4 1.8 1.3 2.4 2.2l1.8 2.8c.6.9 1.5 1.6 2.5 2 1 .3 2.2.3 3.3 0s2.2-.8 3.3-1.4l3.1-2c1.1-.7 2.2-1.3 3.5-1.7s2.7-.5 4 0c1.3.4 2.4 1.2 3.5 2.1l3.1 2.7c1.1.8 2.2 1.5 3.6 1.7 1.3.3 2.7.1 4-.4 2.6-1 4.9-2.7 7.5-4.2 1.3-.7 2.6-1.4 4.1-1.6 1.4-.3 3-.2 4.3.3 2.7 1.1 4.7 3.1 7.2 4.3.6.3 1.2.5 1.9.7.6.1 1.3.2 1.9.1 1.3-.1 2.5-.5 3.7-1.1 2.4-1.1 4.5-2.6 7-3.4 1.2-.4 2.5-.6 3.8-.3 1.3.2 2.4.9 3.3 1.7 1.8 1.5 3.3 3.5 5.4 4.1 1 .3 2.1.3 3.1.1s2-.6 3-.9c1.9-.7 4-1.4 5.9-.9 1 .2 1.8.7 2.5 1.3l2 1.7c.6.6 1.3 1.1 2 1.4.7.4 1.4.6 2.2.7 1.5.2 2.9 0 4.1-.4s2.2-1 3.1-1.6c1.7-1.2 2.9-2.4 3.7-3.2l.9-.9-.9.9c-.8.8-1.9 2-3.6 3.3-.9.6-1.9 1.2-3.1 1.7-1.2.4-2.7.7-4.2.5a6.76 6.76 0 0 1-2.3-.7 9.51 9.51 0 0 1-2-1.5c-1.3-1.1-2.6-2.5-4.4-2.9s-3.8.3-5.7 1c-1 .3-2 .7-3.1.9s-2.2.3-3.4-.1c-1.1-.3-2.1-1-3-1.8l-2.6-2.4c-.9-.7-1.9-1.4-3.1-1.6s-2.4-.1-3.5.3c-2.3.8-4.5 2.3-6.9 3.4-1.2.6-2.5 1-3.9 1.1-.7 0-1.4 0-2.1-.1-.7-.2-1.4-.4-2-.7-2.5-1.2-4.5-3.3-7.1-4.3-1.3-.5-2.7-.6-4.1-.3s-2.7.9-3.9 1.6c-2.5 1.4-4.8 3.2-7.5 4.2-1.3.5-2.8.7-4.3.4-1.4-.2-2.7-1-3.8-1.8-2.2-1.7-3.9-3.9-6.4-4.7-1.2-.4-2.5-.3-3.7 0-1.2.4-2.3 1-3.4 1.6l-3.1 2c-1.1.6-2.2 1.1-3.4 1.4s-2.4.4-3.6 0c-1.2-.3-2.1-1.2-2.8-2.1s-1.2-1.9-1.8-2.8-1.3-1.7-2.2-2c-.9-.4-1.9-.3-2.8.1s-1.7.9-2.4 1.5c-1.5 1.1-3 2.3-4.7 2.7s-3.4-.1-4.8-.6c-2.8-1.1-4.9-2.8-7-3.2s-3.7.2-4.6.8-1.3 1.1-1.3 1.1zm-5.3 27h.4c.3 0 .7.1 1.3.1 1.1.1 2.8.5 4.9-.1l3.6-.7 4.2-.7c1.5-.2 3.2-.2 4.9.4 1.7.5 3.3 1.4 5.2 2 1.8.6 3.9.7 5.9.2s4-1.4 6.2-2.2c2.1-.8 4.6-1.4 7-.7s4.4 2.5 6.8 3.1c.6.1 1.2.2 1.8.1s1.2-.2 1.8-.4c1.2-.4 2.4-1 3.7-1.5s2.8-.7 4.1-.1c1.4.5 2.4 1.5 3.5 2.3.6.4 1.1.8 1.7 1.1s1.3.4 2 .4c1.4-.1 2.7-.6 4-1.2s2.6-1.3 4.1-1.6c.7-.2 1.5-.3 2.3-.2s1.5.4 2.2.7c1.4.7 2.5 1.7 3.7 2.5.6.4 1.2.8 1.9 1l1 .3.5.1h.5c1.4 0 2.8-.4 4.1-.9l4-1.4c1.3-.4 2.8-.7 4.2-.3 1.4.3 2.6 1.2 3.6 2.1s1.9 1.9 2.9 2.6 2.3 1.1 3.5 1 2.4-.5 3.5-1.1c1.1-.5 2.2-1.2 3.2-1.8 2.1-1.2 4.4-2.2 6.8-2 2.4.3 4.3 1.6 6 2.8s3.3 2.5 5 3.4c1.7.8 3.5 1.3 5.2 1.4s3.4-.1 4.9-.4c3-.7 5.3-2 7-3.4s2.6-2.8 3.3-3.7l.6-1.1c.1-.3.2-.4.2-.4s-.1.1-.2.4-.3.7-.6 1.2c-.6 1-1.5 2.4-3.2 3.8s-4 2.8-7.1 3.5c-1.5.3-3.2.5-4.9.4-1.8-.1-3.6-.6-5.4-1.4s-3.4-2.1-5.1-3.4c-1.7-1.2-3.6-2.5-5.8-2.7-2.2-.3-4.4.8-6.5 1.9l-3.2 1.8a9.36 9.36 0 0 1-3.7 1.1c-1.3.1-2.7-.3-3.8-1.1s-2-1.8-3-2.7-2-1.7-3.3-2-2.6-.1-4 .3l-3.9 1.4c-1.3.5-2.8.9-4.3.9h-.6l-.6-.1-1.1-.3a12.81 12.81 0 0 1-2-1.1c-1.2-.8-2.3-1.8-3.6-2.5-.6-.3-1.3-.6-2-.7s-1.4 0-2.1.1c-1.4.3-2.7 1-4 1.6s-2.7 1.2-4.2 1.2c-.7 0-1.5-.1-2.2-.4s-1.3-.7-1.8-1.1c-1.1-.8-2.1-1.8-3.4-2.3-1.2-.5-2.6-.3-3.8.1s-2.4 1-3.7 1.5c-.6.2-1.3.4-2 .5s-1.4 0-2-.1c-2.6-.7-4.5-2.5-6.8-3.1s-4.7-.1-6.8.7l-6.3 2.2c-2.1.6-4.2.5-6.1-.2-1.9-.6-3.5-1.5-5.1-2s-3.3-.5-4.8-.4l-7.8 1.3-1.5.3c-.5.1-.9 0-1.4 0l-2.1-.3c-.5-.1-1-.1-1.3-.2 0 .2-.1.2-.1.2zm16.6 23.6h.3c.2 0 .5.1.9.1l3.3.4c2.9.4 7 1.3 12.2 1.7 2.6.2 5.4.2 8.5-.2 1.5-.1 3.1-.3 4.8 0 .8.1 1.7.3 2.4.7.8.4 1.5.9 2.2 1.4 1.4 1.1 2.7 2.3 4.3 2.8.8.3 1.7.2 2.6 0s1.7-.6 2.5-1c.9-.4 1.7-.8 2.7-.9 1-.2 2.1.1 2.9.6 1.7 1 2.9 2.8 4.6 3.5 1.8.8 3.8.3 5.6-.2s3.7-1.3 5.6-1.3a6.71 6.71 0 0 1 2.8.6c.9.4 1.6 1 2.3 1.6 1.4 1.2 2.6 2.5 4.1 3.2s3.2.5 4.7 0 3-1.2 4.5-1.6c1.5-.3 3.1-.4 4.5.3.7.4 1.2.9 1.5 1.5s.5 1.3.7 1.9.5 1.2.9 1.6.9.7 1.4.9c1.1.4 2.2.3 3.2 0s1.8-.8 2.4-1.5c.6-.6 1.1-1.3 1.4-1.9.7-1.3 1.1-2.3 1.4-3 .1-.3.2-.6.3-.8s.1-.3.1-.3 0 .1-.1.3-.2.5-.3.8c-.3.7-.6 1.8-1.3 3.1-.4.6-.8 1.3-1.4 2s-1.4 1.2-2.5 1.6c-1 .3-2.2.4-3.4.1-.6-.2-1.1-.5-1.6-1s-.7-1.1-1-1.7c-.2-.6-.4-1.3-.7-1.8a3.16 3.16 0 0 0-1.4-1.4c-1.2-.6-2.7-.6-4.2-.3s-2.9 1.1-4.4 1.6c-.8.3-1.6.5-2.5.5s-1.8-.1-2.6-.5c-1.6-.8-2.9-2.1-4.2-3.2-.7-.6-1.4-1.1-2.2-1.5s-1.7-.5-2.6-.5c-1.8 0-3.6.7-5.5 1.3-.9.3-1.9.5-2.9.6s-2.1 0-3-.4c-2-.9-3.1-2.6-4.7-3.6-.8-.5-1.7-.7-2.6-.6s-1.8.5-2.6.9-1.7.8-2.6 1.1a4.47 4.47 0 0 1-2.8 0c-1.8-.6-3.1-1.9-4.5-2.9-.7-.5-1.3-1-2.1-1.4-.7-.4-1.5-.6-2.3-.7-1.6-.2-3.2-.1-4.7 0-3 .3-5.9.3-8.5.1-5.2-.5-9.3-1.4-12.2-1.9l-3.3-.5c-.4-.1-.6-.1-.9-.1.1-.1 0-.1 0-.1zm-1.4 66.7s.1 0 .3-.1.5-.2.9-.3l3.4-1.2c1.5-.5 3.3-1.1 5.5-1.3 1.1-.1 2.3.2 3.5.6s2.4.9 3.8 1.1c1.3.1 2.7-.3 4.1-.9s2.8-1.4 4.4-1.8 3.4-.1 5.1.3l5.1 1.6c1.7.5 3.6.9 5.4.5s3.5-1.4 5.4-2.1c.9-.4 1.9-.7 3-.7s2.2.2 3.1.8c1.8 1.1 3.1 2.9 5.1 3.6.9.3 2 .3 3 .1s1.9-.7 2.9-1.1c.9-.4 1.9-.9 2.9-1.1 1-.3 2.1-.4 3.1-.1s1.8 1 2.5 1.7l2 2c1.4 1.3 3.4 1.5 5.1 1.1 1.8-.3 3.4-1 5.1-1.5.9-.2 1.7-.4 2.6-.4s1.8.2 2.5.6c.8.4 1.3 1 1.8 1.7s.8 1.4 1.2 2c.7 1.3 1.6 2.5 2.9 2.9s2.6.1 3.7-.4 2-1.3 2.7-2.1c1.4-1.7 2.1-3.4 2.9-4.8.7-1.4 1.4-2.4 1.9-3l.8-.9s-.3.3-.8 1-1.1 1.7-1.8 3.1-1.4 3.2-2.8 4.9c-.7.8-1.7 1.6-2.8 2.2s-2.6.9-4 .4c-1.4-.4-2.4-1.8-3.1-3.1-.8-1.3-1.5-2.8-2.9-3.5-1.4-.8-3.1-.6-4.7-.1l-5.2 1.5c-.9.2-1.9.3-2.9.1-.5 0-.9-.3-1.4-.4-.4-.2-.9-.5-1.2-.8-.8-.6-1.4-1.4-2.1-2.1s-1.4-1.3-2.3-1.6-1.9-.2-2.8.1-1.9.7-2.8 1.1-1.9.9-3 1.1c-1 .3-2.2.3-3.3-.1-2.1-.8-3.4-2.6-5.1-3.6-.8-.5-1.8-.8-2.8-.7-1 0-1.9.3-2.8.7-1.8.7-3.6 1.7-5.5 2.1-2 .4-3.9 0-5.7-.5l-5.1-1.6c-1.7-.4-3.3-.7-4.9-.3-1.6.3-2.9 1.1-4.3 1.7s-2.9 1.1-4.3.9-2.7-.7-3.8-1.1c-1.2-.4-2.3-.7-3.4-.6-2.2.2-4 .8-5.5 1.2l-3.4 1.1c-.4.1-.7.2-.9.3-.2-.2-.3-.2-.3-.2zm56.2-24.8s-.2.1-.6.4l-1.8.8c-1.6.6-4 1.1-7.1.7-.7-.1-1.5-.3-2.3-.5l-2.4-.9c-.8-.3-1.7-.6-2.5-.5-.9.1-1.7.5-2.5 1.1l-2.5 1.8c-.5.3-1 .5-1.5.7-.3.1-.6.1-.8.1h-.8c-2.3-.3-4.1-1.8-6.1-2.8-1-.5-2.1-.9-3.1-.8h-.4c-.1 0-.2.1-.4.1-.2.1-.5.2-.7.3-.4.3-.8.6-1.2 1-.7.8-1.3 1.7-2.2 2.3-.4.3-.9.6-1.5.7-.5.1-1.1 0-1.6-.2-1-.5-1.6-1.3-2.1-2.1s-1-1.5-1.6-2.2c-1.2-1.2-2.8-1.8-4.3-1.7-1.5 0-2.7.8-3.6 1.4-.9.7-1.6 1.5-2.1 2.2-.9 1.4-.7 2.4-.8 2.4 0 0-.1-.2 0-.7 0-.4.2-1.1.7-1.8.4-.7 1.1-1.5 2.1-2.3.9-.7 2.2-1.5 3.8-1.6 1.5-.1 3.3.4 4.6 1.8.6.7 1.1 1.4 1.6 2.2.5.7 1.1 1.5 1.9 1.9s1.8.2 2.6-.4 1.4-1.5 2.1-2.3c.4-.4.8-.8 1.3-1.1.3-.2.5-.3.8-.4.1 0 .3-.1.4-.1l.4-.1c1.2-.1 2.4.3 3.4.8 2 1 3.8 2.5 5.9 2.8 1 .1 2-.1 2.9-.7.9-.5 1.6-1.2 2.5-1.8.8-.6 1.7-1.1 2.7-1.1 1-.1 1.9.2 2.7.6s1.6.7 2.3 1c.8.3 1.5.4 2.2.6 2.9.5 5.4 0 6.9-.6 1.9-.5 2.7-1 2.7-1zm-55.2 51.5s.1 0 .3.1c.1 0 .2.1.4.1.1 0 .3 0 .5.1.8.1 2-.1 3.3-.8 1.4-.6 2.9-1.7 5.1-2.3.5-.1 1.1-.1 1.7-.1.6.1 1.2.3 1.8.6 1.1.6 2.1 1.5 3.2 2.3s2.4 1.5 3.8 1.4 2.8-.9 4.3-1.6c.7-.3 1.5-.6 2.4-.8s1.7-.1 2.6.1c1.7.3 3.4 1.1 5.1 1.5 1.7.5 3.6.5 5.4.1s3.6-1.1 5.5-1.8c1.8-.7 3.8-1.4 5.8-1.7 2.1-.3 4.2.1 6.2 1l5.6 2.7c1.8.8 3.9 1.1 5.7.5 3.7-1.1 6.5-4.1 10-5.3 1.7-.6 3.7-.6 5.3 0 1.7.5 3.1 1.4 4.5 2.3s2.6 1.8 3.9 2.5 2.6 1.3 3.9 1.6c2.7.6 5.2.3 7.2-.3 2.1-.6 3.7-1.6 4.9-2.5 2.4-1.9 3.1-3.5 3.2-3.5 0 0 0 .1-.2.3-.1.2-.3.5-.5.8-.5.6-1.2 1.6-2.4 2.6a13.29 13.29 0 0 1-4.9 2.6c-2.1.6-4.7 1-7.4.4a12.43 12.43 0 0 1-4-1.6c-1.3-.7-2.6-1.6-3.9-2.5-1.4-.9-2.8-1.7-4.4-2.2s-3.4-.6-5.1 0-3.2 1.6-4.8 2.6-3.2 2.1-5.2 2.7-4.1.2-6-.5c-1.9-.8-3.7-1.9-5.6-2.7-1.9-.9-3.9-1.2-5.9-.9-2 .2-3.9.9-5.7 1.6s-3.7 1.4-5.5 1.8c-1.9.4-3.8.4-5.6-.1s-3.4-1.2-5-1.5c-.8-.2-1.7-.2-2.4-.1-.8.1-1.5.4-2.3.7-1.5.6-2.9 1.4-4.4 1.6-1.6.1-3-.6-4.1-1.5-1.1-.8-2.1-1.7-3.2-2.3-.5-.3-1.1-.5-1.6-.6-.6-.1-1.1 0-1.6.1-2.1.5-3.7 1.6-5.1 2.2-1.4.7-2.6.9-3.4.7-.2 0-.4-.1-.5-.1-.1-.1-.3-.1-.4-.1-.4-.2-.5-.2-.5-.2zm2.5-172s.3.4 1 .9 1.8 1.2 3.4 1.5c1.6.4 3.6.3 6 .1l3.8-.2c1.3 0 2.8.2 4.2.8s2.7 1.4 4.1 2.2c.7.4 1.4.7 2.2 1 .8.2 1.6.4 2.5.4 1.7.1 3.5-.3 5.3-.6s3.8-.7 5.8-.4c2 .2 3.9 1.3 5.6 2.3 1.7 1.1 3.5 2.2 5.6 2.5 1 .1 2.1 0 3.1-.2 1-.3 2-.7 3-1.1 2-.9 3.9-2.1 6.2-2.6 1.1-.3 2.3-.4 3.4-.2a9.58 9.58 0 0 1 3.2 1.2c1.9 1.1 3.6 2.5 5.5 3.4s4 1.1 6 .7c2-.3 3.9-.9 5.8-1.5s3.7-1.1 5.6-1.4c1.9-.2 3.7-.1 5.4.3 3.4.8 6.4 2.3 9.1 3.4 2.7 1.2 5.4 1.4 7.7 1.2s4.3-.8 5.8-1.5c3.1-1.4 4-3.1 4.1-3 0 0-.2.4-.9 1-.6.6-1.7 1.4-3.2 2.2-1.5.7-3.5 1.3-5.9 1.6-1.2.1-2.5.1-3.8 0s-2.7-.6-4.1-1.1c-2.8-1-5.7-2.5-9.1-3.3-1.7-.4-3.5-.5-5.3-.3s-3.6.8-5.5 1.4-3.8 1.2-5.9 1.5c-2 .3-4.3.2-6.3-.8-2-.9-3.7-2.4-5.6-3.4-.9-.5-2-1-3-1.1-1.1-.2-2.2-.1-3.2.2-2.2.5-4.1 1.7-6.1 2.6-1 .5-2 .9-3.1 1.2s-2.2.4-3.3.2c-2.2-.3-4.1-1.5-5.8-2.6s-3.5-2.1-5.4-2.3c-3.8-.4-7.5 1.2-11 1-.9 0-1.8-.2-2.6-.4-.8-.3-1.6-.6-2.3-1-1.4-.8-2.7-1.6-4.1-2.2-2.7-1.1-5.5-.7-7.8-.6-2.3.2-4.4.2-6.1-.2-1.6-.4-2.8-1-3.5-1.6l-.5-1.2z" fill="#fafafa"/><path d="M370.8 289.2l14.1 9.8c-4.5 11.1-.3 26.6 3.6 39.2 1.5 4.9 6.5 10 6.3 15.2-.2 5.1 4.1 13.9-.9 15.2-3.3.9-6.9-.3-9.6-2.3s-4.8-4.9-6.6-7.8c-10-16.1-14.6-46.8-6.9-69.3z" opacity=".3"/><path d="M296.5 441.1a1.75 1.75 0 0 0 .5.1l1.5.3 5.6 1.1c4.7.9 11.2 2 18.5 3 7.2 1 13.8 1.7 18.6 2.1l5.7.5c.6.1 1.1.1 1.5.1s.5.1.5.1h-.5c-.4 0-.9 0-1.5-.1-1.3-.1-3.3-.2-5.7-.3-4.8-.3-11.4-1-18.6-2-7.3-1-13.8-2.2-18.5-3.2l-5.5-1.2c-.6-.2-1.1-.3-1.5-.4-.5 0-.6-.1-.6-.1zm21.9-2.6s.3 0 .8.2c.5.1 1.3.4 2.4.6 2.1.5 5.1 1 8.8 1.1 3.8.2 8.3-.1 13.1-1.2s10-3.1 14.9-6.1c4.8-3.1 8.9-6.8 12-10.7s5.3-7.8 6.8-11.3a52.95 52.95 0 0 0 2.9-8.4c.3-1 .4-1.8.5-2.4.1-.5.2-.8.2-.8s0 .3-.1.8-.2 1.4-.4 2.4c-.4 2.1-1.2 5-2.7 8.5a50.24 50.24 0 0 1-6.8 11.4c-3.1 3.9-7.2 7.8-12.1 10.9-4.9 3-10.2 5-15.1 6.1s-9.5 1.3-13.2 1.1a48.88 48.88 0 0 1-8.9-1.3c-1-.2-1.8-.5-2.3-.7-.5-.1-.8-.2-.8-.2zm8.9-175.8v2.8c0 1.8 0 4.4.8 7.5.4 1.5 1 3.2 2.2 4.7 1.1 1.5 2.6 2.8 4.5 3.8 1.8 1 3.9 1.7 6.2 2.2 2.2.5 4.6.7 7 .7 4.8-.1 9.4-1.4 13-3.7 3.6-2.2 6-5.3 7.5-8.1 1.4-2.8 1.9-5.4 1.9-7.2.1-1.8-.1-2.8-.1-2.8s.1.2.1.7c.1.5.1 1.2.1 2.1 0 1.8-.4 4.5-1.8 7.4s-3.9 6.1-7.5 8.3c-3.6 2.3-8.3 3.7-13.2 3.8-2.5.1-4.9-.2-7.1-.7-2.3-.5-4.4-1.2-6.3-2.3-1.9-1-3.5-2.4-4.6-4-1.1-1.5-1.8-3.3-2.2-4.8-.7-3.2-.6-5.8-.6-7.6 0-.9.1-1.6.1-2.1v-.7z" class="B"/><path d="M321.2 264.4s-24.3.9-30.1 25.2c-6.7 28.1-2.7 59.2 5.8 74.7l.4-27.7c.3-19.2 4.9-38.1 13.5-55.3l10.4-16.9z" class="C"/><path d="M292.6 344.3s0-.3-.1-.8l-.1-2.4v-3.9l.2-5.1.2-3 .3-3.2.9-7c.8-4.9 1.9-10.3 3.5-15.9s3.5-10.7 5.4-15.4c1-2.3 1.9-4.5 2.9-6.5.5-1 .9-2 1.4-2.9l1.4-2.6c.9-1.7 1.8-3.1 2.5-4.4s1.4-2.4 2-3.3l1.3-2c.3-.5.5-.7.5-.7s-.1.3-.4.7c-.3.5-.7 1.2-1.3 2.1s-1.2 2-1.9 3.3-1.6 2.8-2.4 4.5c-.4.8-.9 1.7-1.4 2.6s-.9 1.9-1.4 2.9c-1 2-1.9 4.2-2.9 6.5-1.9 4.6-3.7 9.8-5.3 15.3-1.5 5.5-2.7 10.9-3.5 15.8-.4 2.5-.7 4.8-.9 7-.1 1.1-.3 2.2-.3 3.2-.1 1-.1 2-.2 3-.2 1.9-.2 3.6-.2 5.1-.1 1.5-.1 2.8-.1 3.8v2.4c-.1.6-.1.9-.1.9zm11.1-73.7s-.1.2-.3.7-.5 1.1-.9 1.8l-3.3 6.8-2 4.8-1 2.7-1 2.9c-1.3 4-2.6 8.4-3.5 13.1-1.9 9.5-2.3 18.3-2.3 24.6 0 3.2.1 5.7.2 7.5 0 .8.1 1.5.1 2v.7s-.1-.2-.1-.7-.1-1.2-.2-2c-.2-1.8-.3-4.3-.3-7.5-.1-6.3.2-15.2 2.1-24.7 1-4.8 2.2-9.2 3.6-13.2.4-1 .7-2 1-2.9s.7-1.8 1.1-2.7c.7-1.7 1.4-3.3 2.1-4.8 1.4-2.9 2.5-5.2 3.4-6.7.4-.7.8-1.3 1-1.8l.3-.6z" class="B"/><path d="M399.8 273.8s-16.3 44.5-4.3 82l.7 13.3s-9.2-.6-16.2-13.8-9.2-26.8-11.6-46.3c-2.4-19.6 8.4-44.5 8.4-44.5s19 4.1 23 9.3z" class="C"/><g class="B"><path d="M396.6 368s-.1 0-.2-.1c-.2-.1-.4-.2-.7-.4-.6-.4-1.4-.9-2.3-1.9-1.9-1.8-3.9-5.1-5.2-9.6-.7-2.2-1.2-4.7-1.6-7.4-.5-2.7-.8-5.6-1.2-8.6-.7-6.1-1-12.8-.9-19.9s.8-13.8 1.7-19.9 2.1-11.5 3.4-15.9c1.3-4.5 2.9-7.9 4.2-10.1.6-1.1 1.2-2 1.6-2.5.2-.3.3-.5.5-.6l.2-.2s0 .1-.1.2c-.1.2-.2.4-.4.7a23.18 23.18 0 0 0-1.5 2.6c-1.2 2.3-2.8 5.7-4 10.1-1.3 4.4-2.4 9.8-3.3 15.9-.9 6-1.5 12.7-1.7 19.8-.2 7 .2 13.8.8 19.8.3 3 .7 5.9 1.1 8.6s.9 5.2 1.5 7.4c1.2 4.5 3.2 7.7 5 9.6 1.8 1.8 3.1 2.3 3.1 2.4z"/><path d="M396 367.6s-.1 0-.3-.1-.5-.2-.8-.3c-.7-.3-1.6-.8-2.7-1.7-2.3-1.7-5-4.8-7.4-9.1-2.4-4.4-5.1-9.7-7.2-16-2.1-6.2-3.8-13.3-4.7-20.9s-.9-14.9-.3-21.4c.5-6.6 1.9-12.4 3.2-17.2.7-2.4 1.3-4.6 2-6.4.7-1.9 1.2-3.5 1.8-4.7s1-2.2 1.3-2.9c.1-.3.3-.6.4-.8s.1-.3.1-.3 0 .1-.1.3-.2.5-.3.8c-.3.7-.7 1.7-1.2 3-.6 1.3-1.1 2.9-1.7 4.8-.7 1.8-1.3 4-2 6.4-1.2 4.8-2.5 10.6-3 17.2-.6 6.5-.6 13.8.3 21.3s2.6 14.6 4.7 20.8c2 6.3 4.7 11.6 7 15.9 2.4 4.3 5 7.4 7.2 9.1 1.1.9 2 1.4 2.7 1.7.3.2.6.3.7.4.2 0 .3.1.3.1z"/></g><path d="M301.4 354.2l-11.5-21.3h-35.1l-1.2 2.1 29.8 49.4L317 386z" class="F"/><path d="M435.2 365.9v37.2c0 6.8-3.1 13.2-8.3 17.5h0c-6.4 5.2-15.2 6.5-22.8 3.4l-81.9-36.3 8-27.3 65.9 21.7-.1-16.9 39.2.7z" class="D"/><path d="M300.3 356.3L288.7 335h-35.1l28.6 51.5 33.7 1.7z" class="C"/><g class="D"><path d="M333.4 363.4l-5.6-6.9c-3.7-4.5-9.2-7.2-15-7.2H308l-3.3 3.7s-23.7 1-24.6 4v1.5l20.3 1.4s-17.3-.1-18.3 0c-1.1 0-4.8-.3-4.7 1.7.1 1.7 2 3 5 3.4 1.2.2 16.2 1.5 16.2 1.5l-16.5-.2c-1.8 0-1.6 3-.5 3.3.9.3 22 6.4 22 6.4s-3.5 2.4-6.4 2.2-7.9-3.9-8.9-2.2c-1 1.8-.8 2.8-.2 3.2s7.4 3.9 9.7 4.5 20.8 3.6 20.8 3.6l6.7 1.1 8.1-25zm-74.9-20.1s-3.7 1.3-1.8 6c2.7 6.9 7.4 11.8 7.4 11.8s-.7 2.4 1.5 4.2c0 0-2.6.6-1 5 0 0-1.8 4.6 3.1 6.5 0 0-1.3 3.7 3.4 5.5s9.3-1.3 9.3-1.3l-21.9-37.7z"/><use xlink:href="#B"/><use xlink:href="#B" x="1.3" y="5.6"/><use xlink:href="#B" x="3.2" y="11.3"/></g><path d="M266 365.6c.1-.1 2.4.7 5.4 1.5l5.4 1.5c0 .1-2.5-.2-5.5-1-3.1-.9-5.4-1.9-5.3-2zm-.6 4.9c.1-.1 2.7.8 6.1 1.7l6.1 1.8c0 .1-2.8-.3-6.2-1.3-3.5-1-6.1-2.1-6-2.2zm2.1 6.3c0-.1 2.6.4 5.7 1.2l5.6 1.7c0 .1-2.6-.4-5.7-1.2l-5.6-1.7zm-4.3-16.7c.1-.1 3 .9 6.7 1.8l6.8 1.7c0 .1-.8 0-2-.2-1.3-.2-3-.5-4.8-1-1.9-.5-3.5-1-4.7-1.5-1.3-.4-2-.8-2-.8zm33.4-6.8c0-.1 3.7-.3 8.3-.3l8.3.2c0 .1-3.7.3-8.3.3-4.5.1-8.3 0-8.3-.2z" class="E"/><path d="M271.5 344c.8.6 1.9.5 2.5-.3s.5-1.9-.3-2.5-1.9-.5-2.5.3c-.6.7-.5 1.8.3 2.5z" class="F"/><path d="M391.8 381.2a4.53 4.53 0 0 0 .8.1l2.1.5c1.8.6 4.2 1.6 6.6 3.2s4.2 3.5 5.3 5c.6.7 1 1.4 1.3 1.8l.4.7c-.1 0-.7-.9-1.9-2.3s-3-3.2-5.3-4.8-4.6-2.7-6.4-3.3l-2.9-.9z" class="E"/><path d="M347.1 282.6h0c-10.8-.9-19-10.2-18.4-21l.8-14.5s-16.3-2.5-16.5-18.8 2.6-53.7 2.6-53.7h0c18.9-8.1 40.6-5.4 56.9 7.2l2.4 1.9-6.2 80.5c-.8 11-10.5 19.3-21.6 18.4z" class="D"/><path d="M329.4 247s10.3.8 21.2-6c0 0-5 11.7-21.3 10.3l.1-4.3z" class="E"/><path d="M319.6 200.2c0 1.2 1 2.3 2.2 2.3 1.3.1 2.4-.9 2.4-2.1s-1-2.3-2.2-2.3c-1.3-.1-2.4.9-2.4 2.1zm-.9-2.6c.3.3 2.1-1 4.6-1s4.3 1.3 4.6 1c.1-.1-.2-.7-1-1.3s-2.1-1.1-3.7-1.1-2.9.6-3.6 1.2c-.8.5-1.1 1.1-.9 1.2zm24.5 3.2c0 1.2 1 2.3 2.2 2.3 1.3.1 2.4-.9 2.4-2.1s-1-2.3-2.2-2.3c-1.3-.1-2.4.9-2.4 2.1zm.1-2.7c.3.3 2.1-1 4.6-1s4.3 1.3 4.6 1c.1-.1-.2-.7-1-1.3s-2.1-1.1-3.7-1.1-2.9.6-3.6 1.2c-.8.5-1.1 1-.9 1.2zm-9.1 18.5c0-.1-1.5-.4-4.1-.7-.6-.1-1.2-.2-1.4-.6-.2-.5.1-1.2.4-1.9l1.9-4.9c2.6-6.9 4.5-12.6 4.2-12.7s-2.6 5.4-5.3 12.4l-1.8 4.9c-.2.7-.7 1.6-.3 2.5a1.44 1.44 0 0 0 1.1.9c.4.1.8.1 1.1.2 2.6.1 4.2.1 4.2-.1zm7.3 1.8c-.4 0-.4 2.7-2.7 4.6s-5.2 1.6-5.2 2c0 .2.6.5 1.9.6 1.2 0 3-.3 4.4-1.5s2-2.8 2.1-3.9c0-1.2-.3-1.9-.5-1.8zm1.1-30.1c.2.7 2.7.4 5.7.7 2.9.3 5.3 1.2 5.7.5.2-.3-.2-.9-1.2-1.6-.9-.7-2.5-1.3-4.2-1.5-1.8-.2-3.4.1-4.4.5-1.1.5-1.7 1-1.6 1.4zm-23 2.1c.4.6 2.2 0 4.2 0 2.1-.1 3.8.4 4.2-.2.2-.3-.1-.9-.9-1.4s-2-1-3.4-.9c-1.4 0-2.7.6-3.4 1.1s-.9 1.1-.7 1.4z" class="B"/><path d="M372.9 200.6c.3-.1 11.2-3.3 10.8 7.8s-11.5 8.5-11.5 8.2c0-.4.7-16 .7-16z" class="D"/><path d="M375.8 212.4c.1 0 .2.1.5.3s.9.3 1.4.1c1.2-.4 2.2-2.2 2.4-4.2a5.21 5.21 0 0 0-.5-2.8c-.3-.8-.8-1.4-1.4-1.5-.6-.2-1 .2-1.2.5s-.1.5-.2.5c0 0-.2-.2-.1-.7.1-.2.2-.5.5-.7a1.39 1.39 0 0 1 1.1-.2c.9.1 1.6.9 2 1.8s.6 2 .6 3.1c-.1 2.2-1.4 4.3-3 4.7-.8.2-1.4-.1-1.8-.4-.3-.2-.4-.4-.3-.5z" class="E"/><path d="M309.3 160.6c2.4-4.7 7-8.1 12.1-9.1s10.7.5 14.6 4c2.5-4.9 7.5-8.4 12.9-9.2 5.4-.7 11.2 1.4 14.8 5.6 3.1 3.5 4.7 8.3 8.4 11.3 3.2 2.6 7.5 3.4 10.6 6 3.5 2.8 5.3 7.7 4.4 12.1s-4.4 8.2-8.7 9.4c3.5 6.3.2 15.3-6.5 17.9l-1.6-.7c-6.2-6.8-7.6-17.4-3.4-25.6h-.6c-2.1 1.2-4.6 1.8-7.1 1.6-3.9-.2-7.6-2.3-9.9-5.5-4.4 3.2-10.8 3.5-15.5.7-.7-.4-1.5-1-2.3-1.1-1-.1-2 .4-2.9.9-2.4 1.2-5.2 2-7.9 1.6-2.5-.4-4.9-1.9-5.9-4.2h-.2c-3.1-.6-5.7-3.2-6.5-6.3-.8-3.2-.2-6.5 1.2-9.4z" class="B"/><defs ><path id="B" d="M266 360.7c3.3.9 7 1.6 10.1 2.8 1 .4 2 .4 2.7 1.3s.8 2.2.1 3c-.7.7-1.8.7-2.7.5-3.6-.4-7-1.7-10.3-2.9"/></defs></svg>