<svg xmlns="http://www.w3.org/2000/svg" xmlns:xlink="http://www.w3.org/1999/xlink" viewBox="0 0 500 500"><g fill="#f8db01"><path d="M456.5 167.6l-2-4.3c-16-34.9-49.6-59-87.9-61.7-5.4-.4-10.8-.3-16.2.1-35.9 3.1-69.6 25.6-86.3 57.5-9.8 18.8-14.7 41.2-30.7 55.1-20.8 18.1-52.1 15-79.3 10.8-27.3-4.2-58.5-7.3-79.3 10.9-13 11.4-18.8 29.2-20 46.4-3.1 45.7 24 90.1 62.2 115.3 38.3 25.1 86 32.8 131.6 29.3 63.9-4.8 127.5-31.7 169.6-80.1 42.1-48.2 59.9-118.9 38.3-179.3z"/><circle transform="matrix(.9195 -.393 .393 .9195 -39.6201 62.2503)" cx="132.2" cy="127.9" r="43.3"/></g><path fill="#ffbe9d" d="M312.5 216.3c-2.6-4-4.4-20.3-7.8-19.4-4.4 1.2 1.8 18.5 2.2 20.1.4 1.5-1.9 2.2-2.2.7-.4-2.1-5.3-22.5-9.6-20.9-2.4.9-.8 5.2-.8 5.2s6.9 19.8 4.9 20.5c-2.1.7-6-10.9-7.4-15-1.3-3.9-3.4-5.1-4.8-3.2-1.6 2 2.2 13.7 3.4 17.7s4.7 14.8-1.4 10.7c-6.1-4-12.2-4.9-14.1-4-1.8.9-1.1 3.7 1.1 4.1 1.8.3 4.7 1.7 6.8 2.9 1.7.9 3.2 2.3 4.7 3.6 1.1.9 2.9 2.9 4.6 5.9 2 3.5 5.4 6 9.3 6.9h0l1.8 7.5 20.8-7.7-3.5-14.1c-2.7-10.8-2.9-18.5-3.5-25.2-1-10.7-2.4-10.6-3.6-10.2-2.5.8 1.7 17.7-.9 13.9z"/><path d="M316.3 230c0 .1-1.2.4-2.7 1.5-1.6 1.1-3.4 3.1-4.3 6-.2.8-.4 1.5-.4 2.2v.4l-.3-.1c-2.2-1-4.3-1.4-5.7-1.5l-2.4-.2s.9-.2 2.4-.2c1.5.1 3.7.4 5.9 1.4l-.4.2.4-2.4c.5-1.5 1.2-2.7 2-3.8.8-1 1.8-1.8 2.6-2.3.8-.6 1.6-.8 2.1-1s.8-.2.8-.2zm1.2 15.8c.1.1-1.9 1.7-4.8 2.9s-5.4 1.5-5.4 1.4c0-.2 2.4-.7 5.2-1.8l5-2.5z" fill="#eb996e"/><path fill="#46327a" d="M323.5 350.1c-4.6-.4-8.9-2.3-12.4-5.2l-33.5-28.4.3 32.7 6.6.5-1.9 24.3H178.8v-.6c-6.4-5.4-10.3-13.6-11.7-22.6-2.5-16.2-3.5-42.6-5.7-61.2-1.6-13.1 1.3-30.1 13-36.3l9-3.6 28.4-11.2 36.5 1.7 24.3 6.8c6.8 2.6 12.6 10.7 16.7 16.6l20.3 28.2c-.2-4.6-8.6-32.4-9.2-33.7l24.8-10.2s25.6 56.9 22.1 81.4c-2.9 20.6-23.8 20.8-23.8 20.8z"/><path fill="#fff" d="M275.1 304.5c0-.1 2.3.2 5.8-.4 3.5-.5 8.4-2 12.4-5.3s6.1-7.5 7-10.5c.9-3.1.7-5.1.9-5.1 0 0 .1.5.1 1.4s-.1 2.2-.5 3.8c-.7 3.2-2.8 7.5-7 11-4.2 3.4-9.3 4.9-12.9 5.3-1.8.2-3.3.2-4.3.1-.9-.1-1.5-.2-1.5-.3z"/><path d="M277.8 349.7c.2 0 .5-13.8.6-30.7l-.2-30.8c-.2 0-.5 13.8-.6 30.7l.2 30.8zm-87.3 10.1c-.1 0 .2-1.4 1.1-3.3.9-2 2.7-4.5 5.2-6.7 2.6-2.2 5.3-3.5 7.4-4.1s3.4-.7 3.5-.6c0 .1-1.3.4-3.3 1.2s-4.6 2.1-7.1 4.2c-2.4 2.1-4.2 4.5-5.3 6.3l-1.5 3z" fill="#1a164e"/><path d="M202.7 314.4s.1 0 .4.2.7.3 1.1.6a43.36 43.36 0 0 0 4.4 1.9c3.9 1.4 10.1 2.7 17.5 1.5 7.3-1.2 15.8-5.5 21.7-13.5 2.9-3.9 5.2-8.8 5.7-14.1.3-2.6 0-5.4-.8-8-.9-2.6-2.4-5-4.5-6.9s-4.6-3.2-7.3-3.6-5.5.3-7.3 2.1c-.9.9-1.4 2.1-1.4 3.3s.5 2.4 1.2 3.4c1.5 2 4 3 6.3 3.3 4.9.7 9.6-.2 13.6-1.9s7.3-4.3 9.7-7.2 3.8-6 4.7-8.8 1.1-5.4 1.2-7.5c0-2.1-.2-3.7-.3-4.8-.1-.5-.2-.9-.2-1.2s-.1-.4-.1-.4.9 2.2 1 6.5c0 2.1-.2 4.7-1.1 7.6-.8 2.9-2.3 6.1-4.7 9.1s-5.7 5.7-9.8 7.5-9 2.7-14 2.1c-2.5-.4-5.2-1.3-6.9-3.6-.8-1.1-1.4-2.5-1.4-3.9s.6-2.9 1.7-3.9c2.1-2 5.2-2.7 8-2.3 2.9.4 5.6 1.8 7.8 3.8s3.8 4.5 4.7 7.2 1.1 5.6.9 8.3c-.5 5.5-2.9 10.5-5.9 14.5-6.1 8.1-14.8 12.5-22.2 13.6-7.6 1.2-13.8-.3-17.7-1.8-4.1-1.7-6-3.1-6-3.1zm-40.8-16s.3-.5 1-1.3 1.8-1.8 3.4-2.9c3-2.3 8-4.3 13.8-4.9 2.9-.3 5.7-.2 8.1.3 2.5.5 4.6 1.3 6.3 2.2s3 1.7 3.8 2.3 1.3 1 1.3 1.1c-.1.1-2-1.3-5.3-2.8-3.3-1.6-8.4-2.9-14-2.2-5.6.5-10.5 2.4-13.5 4.5-3.3 2.1-4.8 3.9-4.9 3.7zm10-42.7c.1-.1 1.6 1.9 5 3.7 1.7.9 3.9 1.6 6.4 1.9s5.3 0 8-1.1 4.9-2.9 6.5-4.9 2.6-4 3.2-5.9c1.2-3.7.8-6.2 1-6.2 0 0 .2.6.2 1.7a18.01 18.01 0 0 1-.6 4.6c-.5 1.9-1.5 4.1-3.2 6.2-1.6 2.1-3.9 4-6.8 5.2-2.8 1.2-5.8 1.4-8.4 1.1s-4.9-1.1-6.6-2.1-3-2-3.7-2.8-1.1-1.4-1-1.4zm53 86.6s0-.4.1-1.2c.2-.8.4-1.9 1.1-3.2 1.3-2.7 4.4-6 9.3-8.1 4.9-2.2 11.6-2.6 18.3-.7 3.3 1 7.1 2.2 9.5 5.4 1.2 1.6 1.6 3.9.7 5.9-.9 1.9-2.6 3.3-4.4 4.2a15.59 15.59 0 0 1-5.9 1.5c-2 0-4.1-.5-5.7-1.8s-2.4-3.3-2.5-5.1c-.1-1.9.2-3.7.8-5.4 2.7-6.7 8-10.9 12.8-13 4.9-2.1 9.3-2.4 12.3-2.1s4.5.9 4.5.9c0 .1-1.6-.4-4.5-.6s-7.2.2-12 2.3c-2.4 1.1-4.8 2.6-7 4.7s-4.1 4.8-5.4 8c-.6 1.6-.9 3.3-.8 5.1.1 1.7.9 3.4 2.3 4.6 1.4 1.1 3.3 1.6 5.1 1.6 1.9 0 3.8-.5 5.5-1.4s3.3-2.1 4.1-3.8.5-3.6-.6-5c-1.1-1.5-2.6-2.5-4.2-3.3s-3.3-1.3-4.9-1.8c-6.6-2-13.1-1.6-17.9.5-4.9 1.9-7.9 5.1-9.3 7.7-1.1 2.4-1.2 4.1-1.3 4.1zM164.5 330l.8-.3c.5-.2 1.2-.4 2.2-.6 1.9-.5 4.8-1.1 8.5-.9 1.8.1 3.8.6 5.8 1.4 2 .9 3.9 2.2 5.4 4.2 1.4 2 2.3 4.6 2.1 7.3-.1 1.3-.5 2.7-1.2 3.9s-1.8 2.3-3.3 2.7c-1.4.4-3.1.2-4.2-.8-1.1-1.1-1.4-2.6-1.5-3.9-.1-2.7.5-5.2 1.5-7.4 2-4.5 5.7-7.4 9.1-8.6 3.4-1.3 6.5-1.2 8.5-.8 1 .2 1.8.4 2.3.6s.8.3.7.3c0 .1-1.1-.3-3-.6-2-.2-4.9-.2-8.2 1.1s-6.7 4.1-8.6 8.4c-.9 2.1-1.5 4.6-1.4 7.1.1 1.2.3 2.5 1.2 3.3.8.8 2.2 1 3.4.6s2.2-1.3 2.8-2.4c.7-1.1 1-2.3 1.1-3.5.2-2.5-.6-4.9-1.9-6.7-1.3-1.9-3.2-3.2-5-4-1.9-.9-3.8-1.3-5.5-1.5-3.5-.3-6.4.2-8.4.6-2.1.3-3.2.6-3.2.5z" fill="#fff"/><path fill="#1a164e" d="M319 334.8s-.2-.1-.4-.4c-.3-.2-.6-.6-1.1-1.1-.9-1-2.1-2.6-3.3-4.8-1.1-2.2-2.2-4.9-2.9-8.1s-1.1-6.7-1.2-10.5c-.2-3.7 0-7.3-.1-10.5s-.5-6.1-.9-8.5l-1-5.7a19.71 19.71 0 0 0-.3-1.5c-.1-.4-.1-.5-.1-.5s.1.2.2.5.2.9.4 1.5c.3 1.3.8 3.3 1.2 5.7s.9 5.3 1 8.5 0 6.8.2 10.5c.1 3.7.5 7.2 1.2 10.4.7 3.1 1.7 5.9 2.8 8 1.1 2.2 2.2 3.8 3.1 4.8a18.03 18.03 0 0 0 1.2 1.7z"/><path d="M314 328.7c.1.2-3 1.5-6.2 4s-5.1 5.2-5.3 5.1c-.1 0 .4-.8 1.2-1.8.8-1.1 2.1-2.4 3.7-3.7s3.2-2.2 4.4-2.8c1.3-.6 2.1-.8 2.2-.8zm29.4-30.3l-1.4.5-3.7 1.3c-3.1 1.2-7.4 3.1-11.6 5.9-4.3 2.8-7.6 6.1-10.1 8.2-1.3 1.1-2.5 1.8-3.4 2.1-.5.1-.8.2-1.1.2h-.4c0-.1.5 0 1.4-.3s2-1.1 3.2-2.1c2.5-2.2 5.8-5.5 10.1-8.4s8.6-4.7 11.8-5.8c1.6-.6 2.9-.9 3.8-1.2.8-.3 1.3-.4 1.4-.4zm-10.2-30.6s-.4.1-1.1.2l-2.9.4-9.6 1.8-9.4 2.5-3.8 1.4.9-.6 2.7-1.2c2.4-.9 5.7-1.8 9.5-2.6l9.7-1.6 3-.3c.6-.1 1-.1 1 0z" fill="#fff"/><path fill="#263238" d="M264.7 142.4c-6.3-1.7-12.7 4.1-19.1 3.1-3.9-.6-7-3.6-10.5-5.5-5.3-2.7-12.6-2.9-17.8-.1-5.2 2.9-8.5 5.9-9 11.8-4.9-2.6-12.8 3.7-15.3 9.7s-1.6 12 .1 18.2c3 10.7 8.2 20.8 15.1 29.6.6.8 1.6 1.6 2.5 1.2.6-.3.8-1.1.9-1.8.7-5.8-.2-11.6-.9-17.4s-1.1-11.7.5-17.3 5.8-10.8 11.5-12.1c4.2-1 8.6.2 12.4 2.2s7.2 4.7 10.9 7c3.6 2.3 7.7 4.2 12 4.2s8.8-2.1 10.5-6.1c1.7-3.9-.5-9.4-4.8-10.2 3.8-.5 7.1-3.9 7.4-7.8.1-3.8-2.6-7.7-6.4-8.7z"/><path fill="#ffbe9d" d="M202.1 181.1l8.4 64.7c1.4 11 11.8 18.6 22.7 16.6h0c10.2-1.8 17.1-11.4 15.8-21.6l-1.2-9.4s16.3-3.7 15.3-20.1c-.5-8-2.7-24.3-4.9-39-2.4-15.8-16.5-27.1-32.5-26l-1.6.1c-17 2.1-24.7 17.8-22 34.7z"/><path fill="#eb996e" d="M247.8 231.1s-10.3 1.6-21.9-4.6c0 0 5.9 11.5 22.2 8.9l-.3-4.3z"/><g fill="#263238"><path d="M252.1 184c.1 1.2-.8 2.4-2.1 2.5-1.3.2-2.4-.7-2.6-2-.1-1.2.8-2.4 2.1-2.5s2.4.8 2.6 2z"/><use xlink:href="#B"/><path d="M227.7 185.7c.1 1.2-.8 2.4-2.1 2.5-1.3.2-2.4-.7-2.6-1.9-.1-1.2.8-2.4 2.1-2.5 1.4-.2 2.5.6 2.6 1.9z"/><use xlink:href="#B" x="-24.8" y="2.2"/><path d="M240.9 200.8c0-.1 1.5-.5 4.1-1 .6-.1 1.2-.3 1.3-.7.1-.5-.2-1.2-.6-1.9l-2.2-4.8c-3.1-6.8-5.4-12.4-5.2-12.6.3-.1 3 5.3 6.2 12.1l2.2 4.8c.3.7.8 1.5.5 2.5-.1.5-.6.9-1 1-.4.2-.8.2-1.1.2-2.6.4-4.2.6-4.2.4zm-7.3 2.3c.4-.1.6 2.7 3.1 4.5s5.4 1.3 5.4 1.7c0 .2-.6.6-1.8.7s-3-.1-4.5-1.2-2.2-2.6-2.4-3.8c-.3-1.2 0-1.9.2-1.9zm-3.2-30.3c-.2.7-2.7.6-5.7 1.1s-5.3 1.5-5.7.9c-.2-.3.2-1 1.1-1.7s2.4-1.5 4.2-1.8 3.4-.1 4.5.2c1.1.4 1.7.9 1.6 1.3zm23.4.5c-.4.6-2.2.1-4.3.2-2.1 0-3.8.7-4.3.1-.2-.3 0-.9.8-1.5.7-.6 2-1.1 3.4-1.2s2.7.4 3.5.9c.8.6 1.1 1.2.9 1.5z"/></g><path fill="#ffbe9d" d="M204.3 193.2c-.3-.1-11.5-2.6-10.4 8.7 1.1 11.2 12.2 7.8 12.1 7.4 0-.3-1.7-16.1-1.7-16.1z"/><path fill="#eb996e" d="M202.2 205.4c-.1 0-.2.2-.5.3-.3.2-.9.3-1.5.2-1.2-.3-2.4-2.1-2.7-4.1-.1-1 0-2 .3-2.9s.7-1.5 1.3-1.6c.6-.2 1 .1 1.2.4s.1.5.2.5c0 0 .2-.2.1-.7-.1-.2-.2-.5-.5-.7a1.39 1.39 0 0 0-1.1-.2c-.9.1-1.6 1-1.9 1.9-.4.9-.5 2.1-.4 3.2.3 2.3 1.7 4.3 3.3 4.6.8.1 1.4-.2 1.8-.5.4-.1.4-.4.4-.4z"/><path fill="#263238" d="M261.4 168.6c-7.1 2.4-15.4 1.2-21.4-3.3-4.2-3.1-7.7-7.8-12.8-9-3.4-.8-7.1.2-10.1 2.1s-5.3 4.7-7.3 7.7c3.8 8.1 2.3 17.6.7 26.4-.2 1-.4 2-1.1 2.7-1.3 1.1-3.3.5-4.5-.7-2-1.8-2.9-4.5-3.6-7.1-1.5-5.9-2.1-12.2-1.2-18.2.9-6.1 3.4-12 7.6-16.5 5.2-5.7 12.7-8.9 20.4-9.4 7.7-.4 15.3 1.9 21.8 6.1 3 1.9 5.8 4.3 7.5 7.5"/><path d="M269.7 146.1s.1.3 0 1c-.1.6-.5 1.6-1.4 2.4-.9.9-2.4 1.5-4.1 1.7-.9.1-1.8.1-2.8 0s-2.1-.4-3-1.1-1.6-1.8-1.6-3.1 1-2.5 2.2-3c.6-.3 1.3-.4 2-.4s1.4.3 2 .7c1.2.9 1.8 2.3 1.9 3.8s-.5 3.1-1.5 4.2c-1 1.2-2.4 2.1-3.9 2.6-3.1 1.1-6.5.7-9.7-.4s-6-2.8-8.7-4.4-5.2-3.2-7.9-4.3c-2.6-1.1-5.3-1.6-7.9-1.3-2.5.2-4.8 1.1-6.6 2.2-3.7 2.2-5.8 5.2-7 7.3-.6 1-1 1.9-1.3 2.5s-.4.9-.4.9 0-.1.1-.2c.1-.2.1-.4.2-.7.2-.6.6-1.5 1.2-2.5 1.2-2.1 3.2-5.2 7-7.5 1.9-1.1 4.2-2.1 6.8-2.3 2.6-.3 5.4.2 8.1 1.3s5.3 2.7 8 4.3 5.4 3.3 8.6 4.4c3.1 1.1 6.4 1.4 9.3.4 1.4-.5 2.7-1.3 3.7-2.4s1.5-2.5 1.4-3.9-.7-2.7-1.7-3.5-2.4-.8-3.5-.3-1.9 1.5-1.9 2.6.6 2.1 1.4 2.8 1.8 1 2.8 1.1 1.9.1 2.7 0c1.7-.2 3.1-.7 4-1.5s1.3-1.7 1.4-2.3c.1-.8.1-1.1.1-1.1zm-78.2 25.2c0-.1 1.3.6 3.5.7 1.1 0 2.4-.1 3.7-.7 1.3-.5 2.7-1.3 4.1-2.3 2.6-2.1 4-4.9 4.5-7s.4-3.5.5-3.5c0 0 .1.3.1 1 0 .6 0 1.5-.2 2.7-.4 2.2-1.8 5.2-4.6 7.4-1.4 1-2.8 1.9-4.2 2.4s-2.8.7-3.9.6-2-.4-2.6-.6l-.9-.7zm1.1 8.1c0-.1 1.3.1 3.5-.2 2.1-.3 5-1.1 7.6-3.1s4.2-4.5 4.9-6.5c.8-2 1-3.3 1.1-3.3 0 0 0 .3-.1.9s-.3 1.5-.6 2.5c-.7 2-2.3 4.8-5 6.8s-5.7 2.9-7.9 3c-1.1.1-2 0-2.6 0s-.9-.1-.9-.1z" fill="#455a64"/><path d="M222.8 194c-.1 0-.3-.1-.3-.2 0-.2 0-.3.2-.4.1 0 .3.1.3.2 0 .2-.1.4-.2.4zm4.7-1.4c-.1 0-.3-.1-.4-.3s0-.4.2-.4c.1 0 .3.1.4.3 0 .2 0 .4-.2.4zm3.3-.3c-.2 0-.3-.1-.4-.4 0-.2 0-.5.2-.5s.3.1.4.4c0 .2-.1.5-.2.5zm-5.5 4.6c-.2 0-.3-.1-.3-.2s.1-.2.3-.2.3.1.3.2-.1.2-.3.2zm4.4-1.3c-.2 0-.3-.1-.3-.3s.1-.3.2-.4c.2 0 .3.1.3.3.1.2 0 .3-.2.4zm22.9-4.4a.76.76 0 0 1-.4-.2c0-.2 0-.3.2-.4a.76.76 0 0 1 .4.2c0 .2-.1.4-.2.4zm3.2-.5c-.2 0-.3-.1-.3-.3s.1-.4.2-.4c.2 0 .3.1.3.3.1.2 0 .4-.2.4zm-6.1.8c-.1 0-.3 0-.3-.2 0-.1.1-.3.2-.3s.3 0 .3.2c0 .1-.1.3-.2.3zm2.6 3.1c-.1.1-.3 0-.4-.2s0-.3.1-.4.3 0 .4.2.1.4-.1.4zm2.8-.7c-.2 0-.3-.2-.2-.3 0-.1.2-.2.3-.2.2 0 .3.2.2.3 0 .1-.2.2-.3.2z" fill="#eb996e"/><path fill="#ffbe9d" d="M284.2 352.8l-1.9 21.1h10l8.8-.1c3.3.4 8.5.4 10.1.3.3 0 .4-.1.5-.1 0 0 .8-.1 1.5-.4h0c.9-.3 1.8-.9 1.7-1.9-.4-3-2.2-3.3-2.2-3.3s-.3 0-.9-.1l-.1-.3c1.4 0 2.5 0 3.1-.1.3 0 .4-.1.5-.1 0 0 3.5-.4 3.3-2.3-.4-3-2.2-3.3-2.2-3.3s-1.2-.1-2.9-.2c1.4 0 2.6 0 3.2-.1.3 0 .4-.1.5-.1 0 0 3.5-.4 3.3-2.3-.4-3-2.2-3.3-2.2-3.3s-1-.1-2.4-.2c1.1 0 2.1 0 2.6-.1.3 0 .4-.1.5-.1 0 0 3.5-.4 3.3-2.3-.4-3-2.2-3.3-2.2-3.3l-9.4-.6s-4.3-3.9-6-3.7c-2.6.3-17.4 5.8-17.4 5.8l-3.1 1.1z"/><path d="M303 367.8c0 .2 2.2.4 4.9.5s4.9 0 4.9-.2-2.2-.4-4.9-.5-4.9 0-4.9.2zm-.1-6c0 .2 3.1.4 7 .6l7.1-.1c0-.2-3.1-.4-7-.6s-7.1-.1-7.1.1zm.5-6.1c0 .2 3.1.4 7 .6l7.1-.1c0-.2-3.1-.4-7-.6-3.9-.1-7-.1-7.1.1zm8.8-5.8c0 .1-.9.1-2.2.2l-10.8.4h-2.3c0-.1.8-.2 2.2-.3l5.4-.3h5.4c1.4-.1 2.3 0 2.3 0z" fill="#eb996e"/><path fill="#1a164e" d="M284.5 349.7h-.3c-.3 0-.6 0-1-.1-.9-.1-2.2-.1-3.9-.2l-14.3-.9-47.3-2.7-9.9-.4h-.2v-.2c-.2-4-.5-7.9-.8-11.7l-.9-10.8-1.6-18-1.1-12c-.1-1.4-.2-2.5-.3-3.2 0-.3 0-.6-.1-.8v-.3s0 .1.1.3c0 .2.1.5.1.8l.4 3.2 1.2 12 2.7 28.8c.3 3.8.7 7.7.8 11.7l-.2-.3 9.9.4 47.3 2.9 14.3 1c1.7.1 3 .2 3.9.3.4 0 .8.1 1 .1.1.1.2.1.2.1z"/><path fill="#fff" d="M214.6 374l-.5-1.1c-.2-.4-.3-.8-.5-1.3-.1-.5-.4-1.1-.5-1.8l-.4-2.2-.2-2.6c0-1.8.2-3.8.6-5.9.5-2 1.2-3.9 2-5.6.4-.8.8-1.6 1.3-2.2.4-.7.9-1.3 1.3-1.8.4-.6.8-1 1.2-1.4l1-1 .9-.8c.1.1-1.2 1.2-2.8 3.4-.4.5-.8 1.2-1.2 1.8l-1.2 2.2c-.7 1.6-1.4 3.5-1.9 5.5-.4 2-.6 4-.6 5.8l.1 2.5.3 2.2 1.1 4.3z"/><path fill="#263238" d="M349.8 373H155.4v60.1c0 12.6 10.2 22.9 22.8 22.9l149 .1c12.6 0 22.8-10.2 22.8-22.9l-.2-60.2z"/><path fill="#1a164e" d="M324.3 47l-142.8-.1c-17.2 0-31.1 13.9-31.1 31.1l-.1 357.9c0 17.2 13.9 31.1 31.1 31.1l142.8.1c17.2 0 31.1-13.9 31.1-31.1l.1-357.9c-.1-17.2-14-31.1-31.1-31.1zm21.5 383.8c0 12-9.8 21.8-21.8 21.8l-142.5-.1c-12 0-21.8-9.8-21.8-21.8l.1-349.4c0-12 9.8-21.8 21.8-21.8h33.9c3.7 0 6.7 3.1 6.7 7v5c0 3.9 3 7 6.7 7h54c3.7 0 6.7-3.1 6.7-7v-5c0-3.9 3-7 6.7-7H324c12 0 21.8 9.8 21.8 21.8v349.5z"/><path d="M208.2 421.1v-15.3h3.7v6.1h6v-6.1h3.7v15.3h-3.7V415h-6v6.1h-3.7zm18.3 0v-15.3h10.6v3h-7v3.1h6.4v3h-6.4v3.1h7v3h-10.6zm15.4 0v-15.3h3.7v12.3h6.4v3h-10.1zm14 0v-15.3h3.7v12.3h6.4v3h-10.1zm28.1-7.7c0 1.7-.3 3.1-1 4.3s-1.5 2.1-2.6 2.7-2.3.9-3.7.9-2.6-.3-3.7-.9-2-1.5-2.6-2.7a9.41 9.41 0 0 1-1-4.3c0-1.7.3-3.1 1-4.3.6-1.2 1.5-2.1 2.6-2.7s2.3-.9 3.7-.9 2.6.3 3.7.9 2 1.5 2.6 2.7a9.41 9.41 0 0 1 1 4.3zm-3.8 0c0-1-.1-1.8-.4-2.5s-.7-1.2-1.2-1.6-1.2-.5-1.9-.5-1.4.2-1.9.5c-.5.4-.9.9-1.2 1.6s-.4 1.5-.4 2.5.1 1.8.4 2.5.7 1.2 1.2 1.6 1.2.5 1.9.5 1.4-.2 1.9-.5c.5-.4.9-.9 1.2-1.6a8.15 8.15 0 0 0 .4-2.5zm10.2 7.9c-.5 0-1-.2-1.4-.6s-.6-.8-.6-1.4c0-.5.2-1 .6-1.4s.8-.6 1.4-.6c.5 0 1 .2 1.4.6s.6.8.6 1.4a1.69 1.69 0 0 1-.3 1c-.2.3-.4.5-.7.7a1.93 1.93 0 0 1-1 .3zm1.9-15.5l-.3 10.6h-3.1l-.3-10.6h3.7z" fill="#fff"/><defs ><path id="B" d="M255.2 180.5c-.3.3-2.1-.9-4.7-.7-2.5.1-4.3 1.6-4.6 1.3-.1-.1.1-.7.9-1.3s2.1-1.3 3.6-1.4c1.6-.1 2.9.4 3.7.9 1 .5 1.3 1.1 1.1 1.2z"/></defs></svg>