<svg xmlns="http://www.w3.org/2000/svg" viewBox="0 0 500 500"><style><![CDATA[.B{fill:#263238}.C{fill:#1a164e}.D{fill:#46327a}.E{fill:#ffbe9d}.F{fill:#eb996e}.G{fill:#455a64}]]></style><path fill="#f8db01" d="M446.4 103.7l-2.7-4.4C421.5 63.2 381 41.7 338.7 45c-4.8.4-9.6 1.1-14.4 2.1-38 8-71.1 36.4-84.8 72.8-8.1 21.4-10.3 46-25.6 63-19.9 22.1-53.7 22.8-83.5 21.9-29.7-.9-63.6-.1-83.4 22-12.4 13.9-16.4 33.6-15.4 52.2 2.7 49.3 37.4 93.3 81.6 115.2s96.2 23.9 144.6 14.2c67.8-13.5 132.2-50.5 171-107.8 38.7-57.2 48.5-135.1 17.6-196.9z"/><g class="C"><path d="M481.4 471.3c0 .1-103.6.3-231.4.3s-231.4-.1-231.4-.3c0-.1 103.6-.3 231.4-.3l231.4.3z"/><path d="M76.2 442c1-4.1-1.7-8.3-4.7-11.3-3.1-3-6.7-5.6-8.3-9.6-2.6-6.4.8-14.7-3.6-20.1-2.6-3.1-7.2-4.2-9.5-7.5-1.2-1.8-1.6-3.9-2.1-6-2.5-10.6-7.8-20.5-15.4-28.4-.5 9.5 1.7 19 6.1 27.4 1.8 3.4 4 6.6 4.6 10.4 1 6.1-2.4 12.4-.9 18.4 1.8 6.8 9.5 11.4 9.9 18.4.3 6-4.8 11.2-4.4 17.2.2 2.5 1.4 4.9 2.7 7.1 4.7 7.6 11.5 12.9 21.7 12.7l12.7.3-8.8-29z"/></g><path d="M89.8 471.4c8.2-4.9 10.5-19.8 7-28.7s-9.5-17-10.5-26.5c-.8-7.3 1.6-14.8-.1-22-2.4-9.6-11.8-17.1-11.8-27 0-5.6 3.2-10.8 2.9-16.4-.3-6.8-5.6-12.2-8.9-18.2-5-9.2-5.4-20-7.2-30.3s-5.8-21.3-15-26.3c-1.3 8.8-3.6 14.8-2.8 26.6.3 4.3 5.3 12.4 6 21.7l1.1 16.7c.4 5.4.7 11 2.7 16 1.5 3.9 3.9 7.4 5.1 11.4 2.1 7.6-.6 15.8 1.2 23.4 1.5 6.5 6 12 6.9 18.6 1.3 9.2-4.6 18.9-1.5 27.7 1.5 4.4 5.2 7.9 6.2 12.4.8 3.5 0 7.2.7 10.7 1.2 5.7 12 10 17.8 9.6" class="D"/><path d="M48.6 284.6s.1.2.1.5l.3 1.4 1 5.5c.5 2.4 1.8 5 2.9 8.3a124.33 124.33 0 0 1 3.2 11.3c1 4.2 1.8 8.9 2.7 13.9s1.8 10.4 4.3 15.5c1.2 2.6 2.5 5.2 3.5 8.1s1.5 5.9 1.8 9c.5 6.2 1.3 12.6 2.5 19.1l7.2 36.5 10.2 49.9c.5 2.3.8 4.2 1.1 5.5.1.6.2 1.1.3 1.4a1.75 1.75 0 0 1 .1.5s-.1-.2-.1-.5c-.1-.4-.2-.8-.3-1.4l-1.2-5.4-4.3-20-6.3-29.8-7.3-36.5c-1.2-6.5-2.1-12.9-2.5-19.1-.3-3.1-.8-6.1-1.8-8.9s-2.3-5.4-3.5-8c-2.5-5.2-3.4-10.7-4.3-15.7l-2.6-13.9c-.9-4.2-2-8-3.1-11.2-1-3.3-2.3-6-2.7-8.4l-.9-5.5c-.1-.6-.1-1.1-.2-1.4-.1-.5-.2-.7-.1-.7z" class="C"/><path d="M357.2 416.3c2.5 1.1 4.4 3.4 5.3 6s1 5.4.7 8.2c-.6 5.3-3.6 10.7-6.9 14.9-4.5-3.9-5.5-10.7-5.8-14.2-.4-5.4 2-15.7 6.7-14.9m4.3 37.9c-.7-3 .5-6.3 2.8-8.3s5.5-2.9 8.6-2.7c1.4.1 3 .5 3.8 1.7.8 1.1.7 2.6.1 3.8s-1.7 2.1-2.8 2.8c-3.9 2.4-8.1 4-12.5 2.7" class="D"/><g class="C"><path d="M355.8 470.5s0-.4.2-1.1l.5-2.9c.5-2.5 1.1-6 3-9.4s4.5-5.9 6.8-7.2c1.1-.6 2.1-1 2.8-1.2.3-.1.6-.2.8-.2s.3-.1.3 0-1.5.4-3.7 1.7c-2.1 1.3-4.7 3.8-6.6 7.1-1.9 3.4-2.5 6.8-3.1 9.3l-.7 2.9-.3 1z"/><path d="M356 424.3a1.75 1.75 0 0 0 .1.5c0 .4 0 .8.1 1.4l.2 5 .2 16.6a356.11 356.11 0 0 1-.4 16.6l-.2 5c0 .6-.1 1-.1 1.4 0 .3 0 .5-.1.5v-1.9l.1-5 .2-16.6-.1-16.6-.1-5v-1.4c0-.3.1-.5.1-.5z"/></g><path d="M353.8 457.4c-1-6.4-5.3-12.2-11.2-15-1.5-.7-3.4-1.2-4.7-.1-1.2 1.1-1 3.1-.4 4.7 2.5 6.4 9.2 11 16.1 10.9" class="D"/><path d="M343.3 447.4a7.86 7.86 0 0 0 .9.4c.3.1.7.3 1.1.6s.9.5 1.4.9c.5.3 1 .7 1.6 1.2.6.4 1.1 1 1.7 1.5 1.1 1.1 2.2 2.5 3.2 4.1.9 1.6 1.6 3.2 2.1 4.7l.5 2.2c.2.7.2 1.3.3 1.9s.1 1.1.1 1.6v1.2c0 .7-.1 1-.1 1-.1 0 .1-1.5-.2-3.8-.1-.6-.1-1.2-.3-1.9a8.3 8.3 0 0 0-.6-2.1c-.5-1.5-1.2-3.1-2.1-4.6s-2-2.9-3.1-4c-.5-.6-1.1-1.1-1.6-1.5-.5-.5-1-.8-1.5-1.2l-3.4-2.2zm-86.2 23.9l-143.4-.7c-17.2-.1-31.2-14.1-31.1-31.4l1.5-359.5c.1-17.3 14.1-31.2 31.4-31.1l143.4.7c17.2.1 31.2 14.1 31.1 31.4l-1.5 359.5c-.1 17.2-14.2 31.2-31.4 31.1z" class="C"/><path fill="#fff" d="M258.7 61.8l-27.8-.1c-3.7 0-6.8 3.1-6.8 7v5c0 3.9-3.1 7-6.8 7l-54.2-.3c-3.7 0-6.7-3.2-6.7-7.1v-5c0-3.9-3-7.1-6.7-7.1h-9.8l-24.3-.1c-12.1-.1-21.9 9.7-22 21.8l-1.5 350.9c-.1 12.1 9.7 21.9 21.8 22l143.1.7c12.1.1 21.9-9.7 22-21.8l1.5-350.9c0-12.1-9.7-22-21.8-22z"/><circle transform="matrix(.2226 -.9749 .9749 .2226 -111.5286 391.0393)" fill="#f8db01" cx="189.4" cy="265.5" r="55.1"/><path d="M194.5 289.2h-10.7c-1 0-1.7.9-1.4 1.9.9 2.8 3.6 4.8 6.7 4.8s5.8-2 6.7-4.8c.4-1-.3-1.9-1.3-1.9zm21.4-8.3l-7.3-6v-17.2c0-9.2-6.4-16.9-15-19v-2.1c0-2.5-2.1-4.6-4.6-4.6s-4.6 2.1-4.6 4.6v2.1c-8.6 2.1-15.1 9.8-15.1 19v17.1l-6.6 6.2c-1.4 2 .1 4.6 2.7 4.6h47.9c2.7 0 4.2-2.8 2.6-4.7zm213.3 150.2l7.3 21.1s23.9-.3 25.7 3.5l-40.5 15.6-12.7-32.5 20.2-7.7z" class="D"/><path d="M423.3 455.3c-.7.5-.9 1.6-.4 2.3s1.6.9 2.3.4 1-1.8.4-2.5-1.9-.8-2.4-.2m-1.5 16l-1.2-3.3 39.2-13.7s2.1.1 2.4 1.4l-40.4 15.6z" class="C"/><path d="M437.1 451.8c.1.2-.9.7-1.6 1.7-.8 1-.9 2-1.1 2s-.4-1.3.5-2.5 2.1-1.4 2.2-1.2zm4.9.1c.1.2-.6.8-1 1.9s-.2 2.1-.4 2.1c-.2.1-.8-1-.3-2.4.5-1.3 1.6-1.8 1.7-1.6zm4.4 4.1c-.2.1-.8-.8-.7-2 .1-1.3.8-2.1 1-1.9.2.1-.2.9-.3 2-.1 1 .2 1.8 0 1.9zm-11.5-8.9c0 .2-1 .3-2.1.8s-1.8 1.2-2 1.1.4-1.2 1.7-1.7c1.2-.6 2.4-.4 2.4-.2z" class="B"/><path d="M275.2 423.5l-.5.6-8.8 11.4-10.9 7.4 14.5 28h16s-1.2-3.8-8.9-5.8l-.5-15.4 13.8-15.2" class="D"/><path d="M255.1 442.9l14.5 28h16l-1.8-2.4-13-.7-13.4-26.5z" class="C"/><path d="M276.7 458.1c-.1.2-1-.4-2.3-.3-1.2 0-2.1.5-2.3.4s.8-1.1 2.3-1.1c1.5-.1 2.4.8 2.3 1zm-.3-3.9c-.2.1-.9-.8-2.1-1.1-1.3-.3-2.3.3-2.4.2s.1-.3.6-.6c.4-.2 1.2-.4 2-.3.8.2 1.4.6 1.7 1 .2.5.3.8.2.8zm.1-4.8c-.2.1-.7-.8-1.8-1.2s-2.1 0-2.2-.2c0-.1.2-.3.6-.5s1.1-.2 1.8 0 1.2.7 1.4 1.1c.3.4.3.7.2.8zm4.3-3.8c-.2.1-.6-.8-1.6-1.5s-2-.7-2-.9c-.1-.2 1.2-.5 2.4.4 1.2.7 1.4 1.9 1.2 2z" class="B"/><path d="M267.9 442.4c0 1-.8 1.9-1.9 1.9-1 0-1.9-.8-1.9-1.9 0-1 .8-1.9 1.9-1.9 1 .1 1.9.9 1.9 1.9z" class="C"/><g class="B"><path d="M359.1 296.2c3.8 1.4-14.3 75.9-14.3 75.9l-54.7 65.7-18.2-15.7 40.9-62.9 12.8-101.3 29.5 1.6 4 36.7z"/><path d="M384.2 257.9c.5 1.4 30.9 106.1 30.9 106.1l16.8 71.4-22 7.2s-28.9-66.8-32.3-78C374.2 353.3 366 337 366 337l-16-42.3s-25.6-14.1-23.7-38l57.9 1.2z"/><path d="M434.6 440.5l-1.3-8.6-26.5 8.6 3.1 9.1z"/></g><path d="M326.5 257.9s.1.3.1.8l.3 2.5c.3 2.2.7 5.3 1.8 9.3.6 1.9 1.3 4.1 2.5 6.2 1.1 2.2 2.7 4.3 4.6 6.4 3.8 4.2 9.2 7.9 15.4 11.1h.1v.1c1 3.8 2.3 7.7 3.7 11.8s3 8.3 4.6 12.6l10.6 27.2 14.7 36.7 12.5 29.8 8.5 20.1 2.2 5.5c.2.6.4 1.1.5 1.4s.2.5.2.5-.1-.2-.2-.5-.3-.8-.6-1.4c-.5-1.3-1.3-3.1-2.3-5.5l-8.6-20-12.6-29.7c-4.7-11.2-9.5-23.7-14.7-36.7l-10.6-27.2-4.6-12.6c-1.4-4.1-2.7-8-3.7-11.8l.1.1c-6.3-3.2-11.6-7-15.5-11.2-1.9-2.1-3.5-4.3-4.7-6.5s-1.9-4.3-2.5-6.3c-1.1-4-1.4-7.2-1.6-9.3-.1-1.1-.2-1.9-.2-2.5v-.9zm44.9 41.3s-.2.2-.7.4-1.3.5-2.3.5c-2 .2-4.8-.5-7.2-2.5-2.3-2-3.6-4.5-4.4-6.3-.4-.9-.6-1.6-.8-2.2-.2-.5-.2-.8-.2-.8.1 0 .5 1.1 1.3 2.8s2.2 4.1 4.4 6 4.9 2.6 6.8 2.5c1.9.2 3-.5 3.1-.4zM325.9 363c-.1.1-2.5-1.7-6.1-2.9s-6.6-1.1-6.6-1.3c0-.1.8-.2 2-.1s3 .3 4.8.9 3.4 1.4 4.4 2.1 1.6 1.3 1.5 1.3zM433 432c0 .1-5.8 2.2-13 4.6s-13.1 4.3-13.2 4.1c0-.1 5.8-2.2 13-4.6 7.3-2.4 13.2-4.3 13.2-4.1z" class="G"/><path d="M266.3 428.2l4.9-8.5 21.4 18.1-6.6 7.2z" class="B"/><path d="M292.6 437.8s-.3-.2-.9-.7l-2.3-2-7.6-6.4-7.6-6.3-2.3-2c-.5-.5-.8-.7-.8-.8l.9.6c.6.4 1.4 1.1 2.4 1.8l7.7 6.2 7.5 6.5 2.2 2.1.8 1z" class="G"/><path d="M372 98c.9-3.4 3.5-5.1 6.8-6.2s7.2-.5 10.1 1.6c1.9 1.4 3.4 3.5 5.6 4.3 3.7 1.3 8-1.5 11.5.2 2.1 1 3.3 3.5 2.7 5.8-.6 2.2-2.8 3.9-5.1 3.8 2.4.9 3.1 4.3 1.7 6.4s-4.3 2.9-6.8 2.5c-2.5-.5-4.7-2-6.6-3.7s-3.6-3.6-5.6-5.2-4.5-2.7-7-2.6c-3.5.2-6.4 2.8-8 5.9-1.5 3.1-1.9 6.6-2.1 10.1s-.3 7-1.3 10.3c-.1.4-.3.8-.7.9-.6.2-1-.4-1.3-.9a51.99 51.99 0 0 1-5.8-18.9c-.4-3.8-.3-7.5 1.8-10.7 2.2-3.3 7.5-5.7 10.1-3.6" class="B"/><path d="M365.3 114l-1.8 38.7c-.3 6.6.6 16.3 11 16.3h0c9.1-.7 11.7-9.1 12-15.3.1-2.9.2-5.3.3-5.6 0 0 9.9-.5 11.1-10.2.6-4.7.9-14.5 1.1-23.3.2-9.5-6.9-17.6-16.3-18.6l-.9-.1c-10.1-.5-16.3 7.9-16.5 18.1z" class="E"/><path d="M386.9 148s-6.2-.2-12.3-5c0 0 2.3 7.3 12.1 7.5l.2-2.5z" class="F"/><path d="M395.6 120.8c-.1.7-.7 1.3-1.5 1.3s-1.4-.7-1.3-1.4.7-1.3 1.5-1.3c.7 0 1.3.7 1.3 1.4zm.9-1.7c-.2.2-1.2-.7-2.7-.9s-2.7.5-2.8.3c-.1-.1.1-.4.7-.7.5-.3 1.3-.5 2.3-.4.9.1 1.7.5 2.1.9s.5.8.4.8zm-15.7.6c-.1.7-.7 1.3-1.5 1.3s-1.4-.7-1.3-1.4.7-1.3 1.5-1.3c.8.1 1.4.7 1.3 1.4zm1-1.9c-.2.2-1.2-.7-2.7-.9s-2.7.5-2.8.3c-.1-.1.1-.4.7-.7.5-.3 1.3-.5 2.3-.4.9.1 1.7.5 2.1.9.3.4.5.8.4.8zm4.2 11.7c0-.1.9-.1 2.5-.2.4 0 .8 0 .8-.3.1-.3 0-.7-.1-1.2l-.8-3-1.7-7.9c.2 0 1.2 3.4 2.4 7.7l.8 3c.1.4.3 1 0 1.5-.1.3-.4.5-.7.5h-.7c-1.5.1-2.5 0-2.5-.1zm-3.2-17.5c-.2.4-1.7 0-3.4.1-1.8 0-3.3.4-3.4 0-.1-.2.2-.5.8-.9.6-.3 1.6-.6 2.6-.6a5.86 5.86 0 0 1 2.6.6c.6.3.9.6.8.8zm13.6 2.7c-.3.3-1.3-.2-2.5-.3-1.2-.2-2.3 0-2.5-.4-.1-.2.1-.5.6-.8s1.3-.5 2.1-.3c.8.1 1.6.5 1.9.9.4.4.6.8.4.9z" class="B"/><path d="M365.4 121.3c-.2-.1-6.5-2.7-7 4s6.3 5.8 6.3 5.6c.1-.2.7-9.6.7-9.6z" class="E"/><path d="M362.9 128.2s-.1.1-.3.1c-.2.1-.5.1-.9 0-.7-.3-1.2-1.5-1.1-2.7 0-.6.2-1.2.4-1.6.2-.5.6-.8.9-.8.4-.1.6.2.7.4s0 .3.1.3c0 0 .2-.1.1-.4a.76.76 0 0 0-.2-.4c-.2-.1-.4-.2-.6-.2-.5 0-1 .4-1.3.9s-.5 1.1-.5 1.8c-.1 1.3.5 2.7 1.5 3 .5.2.9 0 1.1-.1.1-.1.1-.3.1-.3z" class="F"/><path d="M401.4 112.8c-4.4.7-9.1-.9-12.2-4.1-2.2-2.3-3.7-5.3-6.5-6.6-1.9-.8-4.2-.6-6.1.2s-3.6 2.2-5 3.7c1.4 5.2-.5 10.5-2.3 15.5-.2.6-.4 1.1-.9 1.5-.9.5-2-.1-2.6-.9-1-1.3-1.2-2.9-1.3-4.5-.3-3.6 0-7.3 1.2-10.8s3.2-6.6 6.1-8.9c3.6-2.8 8.4-3.9 12.9-3.4 4.5.6 8.8 2.7 12.1 5.8 1.5 1.4 2.9 3.1 3.6 5.1" class="B"/><path d="M386.5 133.8c-.2.6-.5 1.2-.9 1.7s-1 .9-1.6.9c-.7 0-1.3-.4-1.7-.9-.4-.6-.5-1.3-.5-1.9s.3-1.3.9-1.4c.3 0 .5.1.7.2l3.2 1.3" class="F"/><path d="M385.2 136.4c0-.1-.7.2-1.7-.2-.5-.2-1-.6-1.3-1.2s-.3-1.4 0-2.1c.1-.2.2-.3.3-.5.1-.1.1-.1.2-.1s.3.1.5.2.4.1.5.2l1.8.7c1 .4 1.7.6 1.7.5s-.6-.4-1.6-.9l-1.8-.8c-.2-.1-.3-.2-.5-.2-.2-.1-.3-.2-.6-.2-.1 0-.3-.1-.5 0s-.3.2-.4.3c-.1.2-.3.4-.4.6-.4.9-.3 1.8.1 2.6.4.7 1.1 1.1 1.6 1.3.6.2 1.1.1 1.4.1.6-.2.7-.3.7-.3z" class="B"/><path d="M418 187.5L399.6 227c-1.8 3.8-5.3 6.3-9.4 6.9h0c-5.3.7-10.5-2.2-12.6-7.2l-13.8-31.6 24-28.3 2.3 33.9 15.2-21.5 12.7 8.3z" class="D"/><path d="M384.7 214.1c-.1-.1.9-3.2 2.4-7l2.9-6.8c.1.1-.9 3.2-2.4 7l-2.9 6.8z" class="B"/><path d="M384.2 257.9l4.3-4.8c1.5-1.7 2.2-3.9 2-6.1l-2.3-5.8 3.1-68.9c.3-5.6.2-13.6-5-15.9l-22.6-6.7s-15.4 3.3-19.1 11.4c-2.9 6.3-7.3 49.1-7.3 49.1l-6.5 17.4c-.8 3.4-5.7 22.6-6 27l.9 3.3h58.5z" class="D"/><path d="M388.3 241.2v-5.3l.1-13.7.9-12.8 1.3-22.5.6-6.8.2-1.8s.1-.6.1-.6v.6c0 .5-.1 1.1-.1 1.9l-.4 6.8-1.1 22.5-.9 12.8-.3 13.7-.1 3.9c0 .4 0 .8-.1 1-.2.1-.2.3-.2.3z" class="B"/><path d="M347.4 271.5l20.5-7.1-17.7-47.7 12.1-41.4c1.8-7.1-1.4-17.2-8.5-19-.3-.1-.9-2.6-1.2-2.5-2.8 1.2-9.8 5.9-12.7 10.6-2.2 3.6-3.8 7.6-4.7 11.7l-7.4 31.6a31.94 31.94 0 0 0 1.4 18.6l18.2 45.2z" class="D"/><g class="B"><path d="M328 223s0 .1.1.2c.1.2.2.4.3.7.3.6.6 1.5 1.1 2.6l4 10 13.8 34.9-.3-.1 20.7-7.1.1.5c-.2-.1-.4-.4-.5-.7l-.2-.5c-.1-.4-.3-.7-.4-1.1l-.9-2.2-1.7-4.6-14.5-38.7v-.2l6.9-29.9 2-8.4.5-2.2c.1-.2.1-.4.1-.6 0-.1.1-.2.1-.2v.2c0 .1-.1.3-.1.6l-.5 2.2-1.8 8.4-6.7 29.9 14.6 38.7 1.7 4.6.9 2.2c.1.4.3.7.4 1.1l.2.5v.3l.1.2.1.3-20.8 7.1-.2.1-.1-.2-13.6-35-3.8-10-1-2.7c-.1-.3-.2-.5-.2-.7-.4-.1-.4-.2-.4-.2z"/><path d="M338.9 218.1s.5-.5 1.4-1 2.3-1 3.9-1.3c1.6-.2 3.1-.1 4.1.2 1 .2 1.6.5 1.6.6 0 .2-2.5-.7-5.6-.2-3.2.4-5.4 1.9-5.4 1.7z"/></g><path d="M393.5 195.9l1.7 36.1c-1.8 1.3-4.2 1.9-7 2 .1-1.1 1.9-33.2 1.9-33.2l3.4-4.9z" opacity=".3"/><path d="M391.3 166.9s-.1.1-.4.3c-.3.1-.7.4-1.2.6-1 .5-2.7 1.1-4.7 1.5-4.1.8-10 .8-16.1-1.1-6.1-1.8-10.9-5.3-13.9-8.2-1.5-1.5-2.5-2.8-3.2-3.7-.4-.5-.6-.8-.8-1.1s-.2-.4-.2-.4l1.1 1.4a31 31 0 0 0 3.3 3.6c3 2.8 7.7 6.2 13.8 8 6 1.8 11.8 1.9 15.9 1.2 2-.4 3.6-.9 4.7-1.3 1.1-.6 1.7-.9 1.7-.8zm-35.1 19.8h-1c-.6 0-1.5-.2-2.7-.4-2.2-.4-5.3-1.4-8.3-3.1s-5.4-3.8-6.9-5.5c-.8-.8-1.4-1.5-1.7-2-.4-.5-.6-.8-.5-.8.1-.1.9 1 2.5 2.6s4 3.6 6.9 5.3c3 1.7 5.9 2.7 8.1 3.2l3.6.7zm33.1 9.2s-.4.2-1.3.5c-.8.3-2.1.6-3.6 1-1.5.3-3.4.6-5.5.8-2.1.1-4.4.1-6.8-.1-4.8-.5-9.1-1.8-12-3-1.5-.6-2.6-1.1-3.4-1.5s-1.2-.6-1.2-.7c0 0 .5.1 1.3.5.8.3 2 .8 3.5 1.3 3 1.1 7.2 2.3 11.9 2.8 2.4.2 4.7.3 6.7.2 2.1-.1 3.9-.4 5.5-.7 3.1-.6 4.9-1.2 4.9-1.1zm-1.3 27.3l-1.4.6-1.7.6-2.3.7-2.8.6c-1 .2-2.1.3-3.3.4-2.3.2-4.9.2-7.6 0-2.7-.3-5.2-.8-7.5-1.4-1.1-.3-2.2-.7-3.1-1.1l-2.7-1.1c-.8-.3-1.5-.8-2.1-1.1l-1.6-.9c-.8-.5-1.3-.8-1.3-.9 0 0 .5.2 1.4.7l1.6.8 2.1 1 2.7 1.1c1 .4 2 .7 3.1 1 2.2.6 4.7 1.1 7.4 1.4a63.6 63.6 0 0 0 7.5.1l3.3-.4c1-.1 2-.3 2.8-.5l2.3-.6 1.7-.5c1-.4 1.5-.6 1.5-.5zm16.5-4.3c0 .1-1.1-.1-2.7-.6s-3.8-1.5-5.9-3c-2.2-1.5-3.9-3.1-5-4.4s-1.6-2.2-1.6-2.2c.1-.1.7.8 1.9 2s2.9 2.8 5 4.2 4.2 2.4 5.8 3l2.5 1zm8.5-21c0 .1-.9-.1-2.4-.7-1.4-.5-3.3-1.5-5.2-2.8-1.9-1.4-3.4-2.8-4.4-4s-1.5-2-1.4-2c.1-.1 2.4 2.9 6.1 5.6 3.8 2.7 7.4 3.8 7.3 3.9zM350.4 211s-.3.1-.9.2-1.4.2-2.5.2c-2.1.1-5.1-.1-8.2-.9s-5.8-2.1-7.6-3.2l-2.1-1.4-.7-.6c.1-.1 1.1.7 2.9 1.7s4.5 2.2 7.6 3.1c3.1.8 6 1.1 8.1 1.1l3.4-.2zm2.2 15.4c0 .1-1.2.1-3.2.3-1.9.2-4.6.8-7.3 1.9-2.7 1.2-5 2.7-6.5 3.9l-2.4 2.1.5-.7c.4-.4.9-1 1.7-1.6 1.5-1.3 3.7-2.9 6.5-4.1s5.5-1.7 7.5-1.8c1-.1 1.8-.1 2.3 0 .6-.1.9-.1.9 0zm10.8 26.7c0 .1-1.3-.1-3.3-.1-1 0-2.2.1-3.6.3-1.3.2-2.8.6-4.2 1.1-1.5.6-2.8 1.2-3.9 1.9s-2.1 1.4-2.9 2.1c-1.6 1.3-2.4 2.3-2.4 2.3l.5-.7c.4-.5.9-1.1 1.7-1.8s1.7-1.5 2.9-2.2 2.5-1.4 4-2c1.5-.5 3-.9 4.3-1.1 1.4-.2 2.6-.3 3.7-.2 1 0 1.9.1 2.4.2l.8.2zm-26.7-7.2c0 .1-2.3 0-5-.3s-5-.7-4.9-.9c0-.1 2.3 0 5 .3l4.9.9z" fill="#fafafa"/><path d="M329.6 232.4c.4 5.4.7 8.6 2.4 13.7 1 3.3-2.5 8.5 1.6 11.8h8l-11.2-28.6" opacity=".3"/><path d="M387 241.9s-.2.3-.6.7-1 1-1.9 1.6c-.8.6-1.9 1.3-3.1 1.9s-2.7 1.2-4.2 1.6-3.1.6-4.4.7c-1.4.1-2.6 0-3.7-.1-1-.1-1.9-.3-2.4-.5l-.9-.3c0-.1 1.3.2 3.3.4 1 .1 2.2.1 3.6 0 1.3-.1 2.8-.3 4.3-.7s2.9-.9 4.1-1.5 2.3-1.2 3.1-1.8l2.8-2z" class="B"/><path fill="#fafafa" d="M376.4 247.5c0 .1-.7.5-1.9.9-1.2.5-3 .9-5 1.1-2 .1-3.9 0-5.2-.2s-2.1-.5-2.1-.5c0-.2 3.2.5 7.2.2 3.9-.2 6.9-1.6 7-1.5z"/><g class="E"><path d="M422.4 169.6l9.8-.7s2.1 2.7.4 4.8-5 7.7-5 7.7l-7.7 1.1-3.1 5.5-11.6-7.5 5.3-10.5 8.5-7.5 5.4.1 3 3.6s-3.3 1.6-4.9-1l-2.6.5v1.5c.1 1.5 1.2 2.5 2.5 2.4z"/><path d="M432.1 169.3l6.7-1.9s1.5-.2 2.2.8l.2.7-8.2 3.5-.9-3.1z"/></g><path d="M417.5 176.6c-.1 0 .3-.6.9-1.5s1.4-2.1 1.6-3.6c.1-.8 0-1.5-.2-2.1l-.3-1c-.1-.3 0-.7 0-.9.2-1.1.4-1.7.5-1.7s0 .7-.1 1.7c-.1.5 0 1 .3 1.7s.4 1.5.3 2.3c-.2 1.7-1.2 3-1.8 3.8-.7.9-1.1 1.4-1.2 1.3z" class="F"/><path d="M444.7 161.3c.1.2 1 2.3 1 2.3l-27.1 13.5-1.4-2.5 27.5-13.3z" class="C"/><path d="M427.6 181c.7-.5.5-1.7-.1-2.3s-1.5-.8-2.3-1c-1.4-.3-2.7-.5-4.1-.5-.5 0-.9.1-1.3.3s-.7.7-.6 1.1c.1.5.7.9 1.2 1.1 1.4.5 2.9.9 4.4 1.1" class="E"/><path d="M424.7 180.9c0 .1-1 0-2.7-.4-.4-.1-.8-.2-1.3-.4s-1-.3-1.5-.7c-.2-.2-.4-.6-.4-.9 0-.4.2-.7.5-.9.5-.5 1.3-.5 1.9-.6 1.3 0 2.5.2 3.6.4 1 .2 2.1.4 2.8 1.1.7.6.7 1.5.6 1.9-.2.5-.5.6-.5.6s.2-.2.3-.6 0-1.1-.6-1.6-1.5-.7-2.6-.9-2.2-.4-3.5-.4c-.6 0-1.2.1-1.6.4s-.4.8-.1 1.1.8.5 1.3.7c.4.2.9.3 1.3.4 1.5.6 2.5.7 2.5.8z" class="F"/><path d="M430.9 175.7l-5.8-2.4c-.7-.3-1.5-.6-2.2-.4s-1.3 1.1-.9 1.7c.1.2.4.4.6.5l6.2 3.8" class="E"/><path d="M428.8 178.9c0 .1-1-.4-2.5-1.3l-2.6-1.5-1.5-.9c-.3-.2-.6-.5-.6-.9s.1-.8.4-1.1.6-.5 1-.6.7 0 1 0c.6.2 1.2.4 1.7.7l2.8 1.2 2.5 1.2c0 .1-1-.3-2.6-.9-.8-.3-1.8-.6-2.8-1.1-.5-.2-1.1-.5-1.6-.6-.6-.1-1.1-.1-1.5.4a1.08 1.08 0 0 0-.3.7c0 .2.2.4.4.6l1.5.9 2.5 1.6c1.4.9 2.2 1.5 2.2 1.6z" class="F"/><path d="M433 172.5l-5.9-2.1c-.7-.3-1.5-.5-2.2-.3s-1.3 1.2-.8 1.8c.2.2.4.3.6.5l6.5 3.4" class="E"/><path d="M431.2 175.6c0 .1-1-.4-2.5-1.1l-2.7-1.3c-.5-.3-1-.5-1.6-.8-.3-.2-.6-.4-.7-.9-.1-.4.1-.8.3-1.1s.6-.5.9-.6c.4-.1.7-.1 1 0 .7.1 1.2.4 1.7.5l2.8 1.1c1.6.6 2.6 1.1 2.5 1.1 0 .1-1-.2-2.7-.8l-2.8-1a9.83 9.83 0 0 0-1.6-.5c-.6-.1-1.1 0-1.5.5-.9 1.1.9 1.5 1.8 2.1l2.6 1.4 2.5 1.4z" class="F"/><path d="M432.6 162c-.1 0 .1-.6.7-1.3s1.6-1.7 2.9-2.2c1.4-.5 2.7-.5 3.6-.3s1.4.5 1.4.6-.6-.1-1.5-.2-2.1-.1-3.4.4-2.2 1.3-2.8 1.9-.9 1.1-.9 1.1zm-2.4-1.2s.2-.9 1.1-1.9c.9-1.1 2.5-2.3 4.6-2.8 2.1-.6 4-.4 5.4-.1s2.1.7 2.1.8-.8-.2-2.2-.4c-1.3-.2-3.2-.3-5.2.2s-3.5 1.6-4.4 2.6c-.9.8-1.3 1.6-1.4 1.6zm-3.3-1.1s.1-.3.4-.7.7-1 1.4-1.7c1.3-1.3 3.4-2.9 6.1-3.8 2.7-.8 5.4-.7 7.2-.4.9.2 1.6.4 2.1.6s.7.3.7.4-1.1-.3-2.9-.6-4.3-.3-7 .5c-2.6.8-4.7 2.3-6 3.5l-2 2.2zm-2.4-1.2s.1-.4.3-.9c.3-.6.7-1.4 1.5-2.3.7-.9 1.8-1.8 3.1-2.6s2.8-1.5 4.5-2.1c3.3-1.2 6.7-1.1 8.9-.6 1.1.2 2 .5 2.6.7s.9.4.9.4c0 .1-1.4-.4-3.6-.8s-5.4-.4-8.7.7-6 2.8-7.5 4.5-1.9 3.1-2 3z" class="B"/><path d="M368.8 273.2c-2-.7-1.8.7-1.1 2.4-3.9 2.5-8.1 5.5-12.7 5.5l-4.9-10.9 13.8-4.7.3.7c.4.4 1.9 1.8 4.5 3.6.8.6 1.7 1 2.7 1.2 1.2.3 2.7.6 3.7.6 1.1-.1 1.8 1.2 1 1.9-.7.6-3.9 1-7.3-.3z" class="E"/><path d="M369.2 274.5s-.6.7-1.7 1.7-2.9 2.2-4.9 3.2c-2.1 1-4.1 1.6-5.5 1.9-1.5.3-2.4.3-2.4.3 0-.2 3.7-.6 7.7-2.6 4-2.1 6.7-4.7 6.8-4.5z" class="G"/></svg>