<svg xmlns="http://www.w3.org/2000/svg" xmlns:xlink="http://www.w3.org/1999/xlink" viewBox="0 0 500 500"><style><![CDATA[.B{fill:#263238}.C{fill:#46327a}.D{fill:#eb996e}.E{fill:#f8db01}.F{fill:#455a64}.G{fill:#ffbe9d}.H{fill:#fafafa}.I{fill:#1a164e}]]></style><path d="M426.6 154l-2.3-3.8c-19.5-31.8-54.9-51-92.1-48.6-4.8.3-9.6.9-14.3 1.9-33.9 7.2-63.3 32.5-75.6 64.8-7.2 19-9.2 41-22.8 56.1-17.7 19.7-47.9 20.3-74.4 19.5s-56.6-.1-74.3 19.6c-11.1 12.4-14.6 30-13.7 46.5 2.4 43.9 33.3 83.1 72.7 102.6s85.7 21.2 128.8 12.7c60.4-12 117.8-45 152.3-96 34.6-50.9 43.3-120.3 15.7-175.3z" class="E"/><g class="I"><path d="M467.1 441.7c0 .1-100.6.3-224.6.3-124.1 0-224.7-.1-224.7-.3 0-.1 100.6-.3 224.7-.3l224.6.3z"/><path d="M316.2 442.4l-136.7-.6c-16.4-.1-29.7-13.5-29.6-29.9l1.4-342.7c.1-16.5 13.5-29.7 29.9-29.7l136.8.6c16.4.1 29.7 13.5 29.6 29.9l-1.4 342.7c-.1 16.5-13.5 29.8-30 29.7z"/></g><path fill="#fff" d="M317.8 51.9l-26.5-.1c-3.6 0-6.4 3-6.5 6.7v4.8c0 3.7-2.9 6.7-6.5 6.7l-51.7-.2c-3.6 0-6.4-3-6.4-6.8v-4.8c0-3.7-2.9-6.7-6.4-6.8h-9.3l-23.2-.1c-11.5-.1-20.9 9.2-21 20.8L159 406.6c0 11.5 9.2 20.9 20.8 20.9l136.4.6c11.5.1 20.9-9.2 21-20.8l1.4-334.5c0-11.4-9.3-20.8-20.8-20.9z"/><circle cx="251.8" cy="168.1" r="46.6" class="E"/><path d="M293.3 132.1c1.1 1 2.8.9 3.8-.2l5-5.5c1-1.1.9-2.8-.2-3.8l-11.4-10.2c-1.1-1-2.8-.9-3.8.2l-5 5.5c-1 1.1-.9 2.8.2 3.8l1.1 1-4.6 4.6c-6-3.9-13-6.5-20.4-7.4v-5.9h2c1.1 0 2-.6 2.5-1.5h3.5c1.6 0 2.9-1.3 2.9-2.9V100c0-1.6-1.3-2.9-2.9-2.9h-27.4c-1.6 0-2.9 1.3-2.9 2.9v9.7c0 1.6 1.3 2.9 2.9 2.9h3.3c.5.9 1.4 1.5 2.5 1.5h1.8v6c-7.2.9-13.9 3.4-19.7 7l-5.1-5.1 1.1-1c1.1-1 1.2-2.7.2-3.8l-5-5.5c-1-1.1-2.7-1.2-3.8-.2l-11.4 10.3c-1.1 1-1.2 2.7-.2 3.8l5 5.5c1 1.1 2.7 1.2 3.8.2l1.5-1.4 4.6 4.6c-8.3 8.6-13.4 20.3-13.4 33.1 0 26.5 21.7 48 48.3 48s48.3-21.5 48.3-48a47.76 47.76 0 0 0-13-32.8l4.3-4.3 1.6 1.6zm-3.2 32.4h-5.8v4.8h5.9c-.2 3.8-.9 7.5-2.1 10.9l-5.5-2.5-2 4.4 5.6 2.5c-2.6 5.2-6.4 9.6-11 13.1l-3.5-5.3-4.1 2.6 3.5 5.3c-5 2.8-10.7 4.6-16.7 4.9v-5.8h-4.9v5.8a35.81 35.81 0 0 1-13.9-3.7l3.1-5.5-4.3-2.3-3 5.4c-4.8-3.1-8.9-7.3-11.8-12.3l5.3-2.8-2.3-4.3-5.2 2.8c-1.8-4.1-2.9-8.6-3.1-13.4h5.6v-4.8h-5.5c.3-3.7 1.2-7.3 2.5-10.6l4.8 2.1 2-4.4-4.7-2.1c2.7-4.9 6.4-9.1 10.9-12.3l2.7 4.1 4.1-2.6-2.7-4.1c4.7-2.6 10-4.2 15.7-4.6v5.5h4.9V130c4.8.3 9.4 1.4 13.6 3.3l-2.4 4.4 4.3 2.3 2.5-4.4c4.7 2.9 8.8 6.9 11.8 11.5l-4.7 2.5 2.3 4.3 4.8-2.6c1.6 4.1 2.9 8.5 3.3 13.2zm-37.9-26.7h-.2l-.4 13.5h.6c6.2 0 11.6 3.5 14.3 8.6l11.8-6.5c-5-9.3-14.8-15.6-26.1-15.6zm-7.5 21.4c0-1.5-.6-2.3-1.9-2.3l-6.4 5 1.9 1.9 3.2-2.5V177h-3.7v2.4h10.6V177h-3.7v-17.8zm12.2-2.3c-2.5 0-4.5 1.1-5.9 3.4-1.4 2.2-2.1 4.9-2.1 8.1s.7 5.9 2.1 8.1 3.4 3.4 5.9 3.4c2.6 0 4.6-1.1 6-3.4 1.4-2.2 2.1-4.9 2.1-8.1s-.7-5.9-2.1-8.1c-1.4-2.3-3.4-3.4-6-3.4zm3.7 17.9c-.8 1.6-2 2.5-3.7 2.5-1.6 0-2.8-.8-3.6-2.5s-1.2-3.8-1.2-6.4.4-4.8 1.2-6.4 2-2.5 3.7-2.5c1.6 0 2.8.8 3.6 2.5.8 1.6 1.2 3.8 1.2 6.4s-.4 4.7-1.2 6.4z" class="C"/><path d="M434.5 394.4l16.2 22s27.8-9.1 31.2-5.3l-41.5 33-26.7-33.2 20.8-16.5z" class="E"/><path d="M436.8 424.1c-.6.9-.5 2.2.4 2.9.8.7 2.2.5 2.9-.3.6-.9.5-2.5-.4-3.1s-2.5-.3-2.9.7" class="C"/><g class="B"><path d="M478.8 409.4c.1.1-9 7.1-20.4 15.5L437.7 440c-.1-.1 9-7.1 20.4-15.5l20.7-15.1zm-27.6 6.2c.2.2-.8 1.1-1.3 2.6-.5 1.4-.3 2.7-.6 2.8-.2.1-.9-1.4-.3-3.1.6-1.8 2.1-2.5 2.2-2.3zm5.8-1.6c.2.2-.4 1.2-.4 2.6s.5 2.5.3 2.6c-.2.2-1.3-.9-1.2-2.7 0-1.7 1.1-2.7 1.3-2.5zm6.6 3.2c-.2.2-1.2-.6-1.6-2.1s.2-2.7.5-2.6c.2.1.1 1.2.4 2.4s.9 2.1.7 2.3zm-16.7-6.2c.1.3-1.1.7-2.2 1.7s-1.7 2.1-1.9 2 0-1.5 1.3-2.7c1.3-1.1 2.8-1.2 2.8-1zm-2.9-5.2c.1.1-.6.8-2.1 1.7-.7.4-1.7.8-2.7 1.1l-1.7.3c-.3 0-.6.1-1 0-.4 0-1-.5-1-1s.2-.9.5-1.2.6-.4.9-.5c.6-.3 1.1-.4 1.7-.6 1.1-.3 2.1-.3 2.9-.3 1.7.1 2.6.6 2.6.7s-1-.1-2.6-.1c-.8 0-1.7.1-2.7.4-.5.1-1 .3-1.5.6-.5.2-.9.5-.9.8 0 .1 0 .1.2.2h.7l1.6-.2c1-.2 1.9-.5 2.6-.8 1.6-.6 2.4-1.2 2.5-1.1z"/><path d="M443.9 406.3c0 .1-1-.3-2.2-1.6-.6-.6-1.1-1.5-1.5-2.5-.2-.5-.4-1.1-.5-1.7s-.2-1.4.5-2.1c.4-.3 1-.3 1.3-.1a2.76 2.76 0 0 1 .8.6c.5.4.8.9 1.1 1.4a5.55 5.55 0 0 1 .8 2.9c0 1.7-.6 2.7-.7 2.6-.1 0 .2-1 0-2.5-.1-.8-.4-1.7-.9-2.5-.3-.4-.6-.8-1-1.2s-.9-.6-1-.4c-.2.2-.3.8-.2 1.3s.2 1.1.4 1.5c.3 1 .8 1.8 1.3 2.4 1.1 1.2 1.9 1.8 1.8 1.9z"/></g><path d="M397.6 424.6s9.5 3.3 18.3 3c8.3-.2 26.3 3.2 25 13.9-1.4 11.9-25.3 6.1-34.6 3l-18.4-5.9 9.7-14z" class="E"/><g class="B"><path d="M417.6 442.5c.1 0 .9-1.8 1.7-4 .8-2.3 1.4-4.1 1.2-4.2-.1 0-.9 1.8-1.7 4-.8 2.3-1.4 4.2-1.2 4.2zm-3.4-.2c.1 0 .7-1.8 1.3-4.2l.9-4.3c-.1 0-.7 1.8-1.3 4.2l-.9 4.3zm-3-1.6c.1 0 .6-1.6 1.1-3.6s.8-3.7.7-3.8c-.1 0-.6 1.6-1.1 3.6-.5 2.1-.8 3.7-.7 3.8zm-4.9-1.9c.1.1 1-1.2 1.6-3 .7-1.8.9-3.3.8-3.4-.1 0-.5 1.4-1.2 3.2l-1.2 3.2zm-.5-4.5s-.4-.2-1.3-.2c-.8-.1-2-.1-3.5.3-.4.1-.7.2-1.1.4s-.7.6-.8 1.1c-.1 1.1.9 2 2 1.9s2-.8 2.7-1.5c.8-.8 1.4-1.7 1.8-2.8.8-2.2.7-4.5-.3-6.3-.2-.2-.4-.4-.7-.5s-.6 0-.8.2c-.4.3-.6.8-.8 1.2-.2.9-.3 1.7-.2 2.4.2 1.5.8 2.6 1.3 3.3.3.3.5.6.6.7.2.1.3.2.3.2s-.3-.3-.7-1-1-1.8-1.1-3.2c-.1-.7 0-1.5.2-2.3.1-.4.3-.8.6-1s.7-.1.9.3c.9 1.6 1 3.9.2 5.9-.4 1-1 1.9-1.7 2.7-.7.7-1.6 1.3-2.5 1.4s-1.7-.7-1.6-1.4c0-.4.3-.7.6-.9s.7-.3 1-.4c1.4-.4 2.6-.4 3.4-.4l1.5-.1z"/><path d="M389 437.2s.1 0 .2.1c.2.1.4.2.7.3.7.2 1.6.6 2.7 1l10.2 3.4c4.3 1.4 9.5 3 15.3 4.5 2.9.7 6 1.5 9.3 1.6 1.6.1 3.3 0 5-.3.8-.2 1.7-.4 2.5-.8s1.6-.8 2.3-1.4h0c.3-.3.7-.5 1-.9 1.2-1.5 1.5-3.4 1.1-5.2-.3-1.8-1.4-3.3-2.6-4.4-1.2-1.2-2.7-2-4.2-2.7-.7-.3-1.5-.7-2.2-.9-.8-.2-1.5-.5-2.2-.7-6-1.7-11.6-1.9-16.2-2.4-2.3-.2-4.4-.5-6.2-.9s-3.3-.8-4.6-1.1c-.6-.2-1.2-.4-1.6-.6-.5-.2-.8-.4-1.2-.5-.3-.1-.5-.2-.7-.3s-.2-.1-.3-.1c0 0 .1.1.2.1.2.1.4.2.7.3s.7.3 1.2.5a27.68 27.68 0 0 0 1.6.6c1.2.4 2.8.8 4.6 1.2s3.9.7 6.2 1c4.6.6 10.2.8 16.1 2.5.7.2 1.5.5 2.2.7.7.3 1.4.6 2.2.9 1.4.7 2.8 1.5 4 2.7 1.2 1.1 2.2 2.5 2.5 4.2.3 1.6 0 3.5-1 4.8-.3.3-.6.6-.9.8h0c-.6.6-1.3 1-2.1 1.3s-1.6.6-2.4.7c-1.6.3-3.3.4-4.9.3-3.2-.1-6.3-.8-9.2-1.6-5.8-1.5-11-3.1-15.3-4.4s-7.8-2.5-10.2-3.3l-2.8-.9c-.3-.1-.5-.2-.7-.2-.2.2-.3.1-.3.1z"/><path d="M423.8 447.3c.1 0 .2-.9.5-2.5l1.3-5.9 2.4-8.2c-.1 0-.5.8-1 2.3-.6 1.4-1.2 3.5-1.8 5.8s-1 4.4-1.2 5.9l-.2 2.6zm14.5-1s.3-.3.8-.9 1.1-1.6 1.5-2.9c.2-.7.4-1.4.3-2.2s-.3-1.7-.6-2.5c-.7-1.7-1.9-3.4-3.5-4.7-1.6-1.4-3.5-2.3-5.2-2.9-1.8-.6-3.4-1-4.8-1.2-1.4-.3-2.5-.4-3.3-.5l-1.2-.2h1.2l3.3.4c1.4.2 3.1.5 4.9 1.1s3.7 1.5 5.4 2.9 3 3.1 3.7 4.9c.3.9.5 1.8.6 2.7 0 .9-.2 1.7-.4 2.3-.5 1.4-1.2 2.3-1.7 2.9-.6.6-1 .8-1 .8zm-38.4-22.8s-25.1-38.9-31.4-40.9c-6.4-1.9-17.6-3.5-27.2 0-9.5 3.5-37 15.1-37 15.1l-17.3 5.8c-15.1 5-26.4 17.9-29.3 33.6h0s21.9 18 38.4 14.8 61.6-23.4 61.6-23.4h0c4.8 2.9 12.7 4.1 16.3 5.6 10.1 4.3 15.5 5.5 15.5 5.5h0l10.4-16.1z"/></g><path d="M370.5 422.6c0 .1-1.1.6-3 1.5l-7.2 3.5-7.3 3.4-3.1 1.2c0-.1 1.1-.6 3-1.5l7.2-3.5 7.3-3.4 3.1-1.2zm7.3-17c-.1 0-.5-1.4-1.3-3.5-.8-2.2-2.1-5.1-3.9-8.1s-3.8-5.5-5.3-7.3l-2.5-2.8s.3.2.8.6 1.2 1.1 2 1.9c1.6 1.7 3.6 4.2 5.4 7.2s3.1 6 3.8 8.2c.4 1.1.6 2 .8 2.6.2.9.2 1.2.2 1.2zm-6.6 5.4c.1 0-.3 1.8-1.9 3.3s-3.4 1.9-3.4 1.7c-.1-.1 1.6-.7 3.1-2.1 1.4-1.4 2.1-3 2.2-2.9z" class="F"/><path d="M445.6 402.2s-53.3-78.9-57.4-81.2c-1.9-1-4.9-1.3-7.7-1.3-3.7 0-7.2 1.2-10.1 3.5L323.3 368l-13.8 30.1 29.3 15.8 42.4-40.4 40.2 49.7 24.2-21z" class="B"/><path d="M375.1 388.7s-.2-.2-.5-.6-.8-1-1.4-1.6c-1.3-1.3-3.4-3.2-6.6-4.4-1.6-.6-3.4-1-5.4-.9s-4.1.5-6.2 1.1-4.3 1.5-6.7 2.3l-32.1 11.3-7.6 2.6-2.1.7s-.7.2-.7.2.2-.1.7-.3l2-.8 7.6-2.8 25-9 7.1-2.5 6.7-2.3c2.2-.6 4.3-1.1 6.3-1.1 2-.1 3.9.4 5.5 1 3.2 1.3 5.3 3.2 6.6 4.6l1.4 1.7c.3.6.5.8.4.8z" class="F"/><path d="M355.6 355l61.8-19.6c3.8-1.2 6.1-5.2 5.2-9.1l-1.7-7.7-52.4 2.7-44.3-31.4c-2.7-1.9-5.9-3.2-9.2-3.8l-8.8-1.4-28-6.3-29.1 28.6c-2.5 2.4-3.9 5.7-4 9.1l-1.4 35.6c-.2 5.4 0 10.8.6 16.1l5.8 50.7s1.6 26.1 12.9 22.1c0 0 12.7-24.4 27.2-33.2 14.5-8.9 34.9-16 34.9-16l-3.2-48.4.4-10.3 33.3 22.3z" class="C"/><path d="M355.6 355l61.8-19.6c3.9-1.2 6.1-5.2 5.2-9.1l-1.7-7.7-52.4 2.7-44.3-31.4c-2.7-1.9-5.9-3.2-9.2-3.8l-8.8-1.4-28-6.3-29.2 28.4c-2.5 2.4-3.9 5.7-4 9.1l-1.4 35.6c-.2 5.4 0 10.8.6 16.1l5.8 50.7s1.6 26.1 12.9 22.1c0 0 12.3-23.8 26.2-32.6 13.4-8.5 35.9-16.6 35.9-16.6l-3.1-48.7.3-10 33.4 22.5z" opacity=".4"/><path d="M306.4 322.9c-.1-.1.6-1.8 1.7-3.9s2.1-3.7 2.2-3.7c.1.1-.6 1.8-1.7 3.9s-2.1 3.8-2.2 3.7zm25.6-13.8c-.1.1-2.2-1.2-4.7-2.9s-4.5-3.2-4.4-3.4c.1-.1 2.2 1.2 4.7 2.9l4.4 3.4zm9 16c0 .1-1.9.4-4.2.6-2.4.2-4.3.2-4.3.1s1.9-.4 4.2-.6c2.4-.2 4.3-.2 4.3-.1zm10.9 14.1c-.1 0-.5-2.3-.7-5.1-.3-2.8-.4-5.1-.2-5.1.1 0 .5 2.3.7 5.1.3 2.8.4 5.1.2 5.1zm21-9.7c.1.1-1.6 1.7-3.8 3.5l-4.2 3.1c-.1-.1 1.6-1.7 3.8-3.5s4.1-3.2 4.2-3.1zm39.9 5.3c-.1.1-1.8-1.2-3.8-3s-3.5-3.3-3.4-3.4 1.8 1.2 3.8 3 3.5 3.3 3.4 3.4zm-121.1-24.5c-.1-.1 1.7-1.6 4-3.4l4.3-3c.1.1-1.7 1.6-4 3.4s-4.2 3.1-4.3 3zm-22.5 9c-.1.1-1.4-1-2.9-2.4s-2.6-2.6-2.5-2.7 1.4 1 2.9 2.4 2.6 2.6 2.5 2.7zm2.9-20.2c0 .1-2.4 1-5.5 1.8-3.1.9-5.6 1.5-5.7 1.3 0-.1 2.4-1 5.5-1.8l5.7-1.3zm12.2 30.7c-.1 0 0-2 .4-4.4.3-2.4.7-4.4.9-4.3.1 0 0 2-.4 4.4-.3 2.3-.7 4.3-.9 4.3zm35.9-37.3c0 .1-2.3 0-5-.3-2.8-.3-5-.7-5-.8s2.3 0 5 .3c2.8.3 5 .7 5 .8zm-8.8 54.8c-.1-.1.6-2.2 1.7-4.7 1.1-2.6 2-4.6 2.2-4.5.1.1-.6 2.2-1.7 4.7l-2.2 4.5zm-14.3 6.8c-.1.1-1.4-2.3-3.2-5l-3.3-5c.1-.1 1.9 1.9 3.7 4.7 1.9 2.8 2.9 5.3 2.8 5.3zm-35.7-9c-.1.1-2.2-1-4.2-3.1-2.1-2.1-3.2-4.1-3.1-4.2s1.4 1.8 3.5 3.8l3.8 3.5zm-2.9 17.2c.1.1-1.5 1-3.5 1.9l-3.8 1.5c-.1-.1 1.5-1 3.5-1.9l3.8-1.5zm13.6 4.2c-.1-.1.7-2.3 1.9-5l2.3-4.7c.1.1-.7 2.3-1.9 5-1.1 2.6-2.2 4.7-2.3 4.7zm-3.8 21.6c-.1.1-1.5-1.9-3.3-4.3l-3.3-4.2c.1-.1 1.9 1.5 3.7 3.9s3 4.6 2.9 4.6zm22.7-10.2c.1 0 .3 2.4.7 5.3l.7 5.3c-.1 0-.8-2.3-1.2-5.3-.4-2.8-.3-5.3-.2-5.3zm-6.3 21.9c.1.1-1.3 2-3 4.5l-3 4.4c-.1-.1.9-2.3 2.6-4.7 1.7-2.5 3.3-4.3 3.4-4.2zm22.3-18.5c-.1.1-1.3-2.4-2.6-5.6-1.3-3.1-2.3-5.7-2.1-5.8.1-.1 1.3 2.4 2.6 5.6l2.1 5.8zm14.1.1c.1.1-1.1 2.1-2.7 4.5l-3.1 4.2c-.1-.1 1.1-2.1 2.7-4.5l3.1-4.2zm-1.3-19.3c0 .1-1.2 0-2.6-.4-1.4-.3-2.5-.7-2.5-.9 0-.1 1.2 0 2.6.4s2.6.8 2.5.9zm-56.2 50.7c-.1.1-1.9-1.4-3.9-3.5-2.1-2-3.7-3.7-3.6-3.8s1.9 1.4 3.9 3.5c2.1 1.9 3.7 3.7 3.6 3.8zm-1.2 11.3c.1.1-1.3 1.6-3.1 3.2-1.8 1.7-3.4 3-3.5 2.8-.1-.1 1.3-1.6 3.1-3.2l3.5-2.8z" class="H"/><path d="M337.5 223.6c-4.1-2.5-9.8.3-14.2-1.8-2.6-1.3-4.2-4-6.3-6-3.2-3-8.3-4.7-12.6-3.7s-7.2 2.4-8.8 6.5c-2.9-2.9-9.8 0-12.8 3.7s-3.6 8.1-3.7 12.9c-.1 8.2 1.5 16.4 4.6 24 .3.7.8 1.5 1.5 1.3.5-.1.8-.6 1-1.1 1.7-3.9 2.3-8.2 3-12.5.7-4.2 1.6-8.5 3.9-12.1s6.3-6.4 10.6-6.2c3.2.2 6 2 8.3 4.1 2.3 2.2 4.1 4.8 6.2 7.2s4.6 4.5 7.6 5.4 6.7.3 8.7-2.1 1.6-6.8-1.3-8.2c2.8.4 5.8-1.3 6.8-4 1.1-2.6 0-5.9-2.5-7.4z" class="B"/><path d="M305.4 291.9l1.8-9s12.3.7 15-11.1c1.3-5.7 3.1-17.7 4.5-28.6 1.6-11.7-6.1-22.6-17.6-25.1l-1.1-.2c-12.5-2-21.2 7.5-22.8 20.1l-9.3 48.1c-1.6 8.1 3.7 15.9 11.8 17.5h0c8.2 1.7 16.1-3.6 17.7-11.7z" class="G"/><path d="M307.2 282.9s-7.6-1-14.5-7.8c0 0 1.8 9.3 13.9 10.8l.6-3z" class="D"/><path d="M307.2 235.7c-.3.5-2.1-.2-4.3-.4-2.2-.3-4.1 0-4.2-.5-.1-.2.3-.6 1.1-1 .8-.3 2-.5 3.3-.4s2.4.6 3.2 1.1c.7.5 1 1 .9 1.2zm16.2 7.4c-.4.3-1.6-.4-3.1-.7-1.5-.4-2.8-.3-3-.8-.1-.2.2-.6.9-.9.6-.3 1.6-.4 2.7-.1 1 .3 1.8.8 2.3 1.4.3.5.4 1 .2 1.1zm-1.7 8.4c-.2.9-1.1 1.5-2 1.4-.9-.2-1.6-1-1.4-1.9s1.1-1.5 2-1.4 1.6 1 1.4 1.9zm1.3-3c-.3.2-1.3-1.1-3.2-1.4-1.8-.4-3.4.2-3.5 0-.1-.1.2-.5.9-.8s1.7-.5 2.9-.2c1.1.3 2 .9 2.5 1.4.4.5.5 1 .4 1zm-19.2-.6c-.2.9-1.1 1.5-2 1.4-.9-.2-1.6-1-1.4-1.9s1.1-1.5 2-1.4 1.5 1 1.4 1.9zm1.2-2.9c-.3.2-1.3-1.1-3.2-1.4-1.8-.4-3.4.2-3.5 0-.1-.1.2-.5.9-.8s1.7-.5 2.9-.2c1.1.3 2 .9 2.5 1.4.4.5.5.9.4 1zm3.6 14.9c0-.1 1.2-.1 3.1.1.5.1.9.1 1.1-.2s.1-.9 0-1.4l-.6-3.8-1.1-9.9c.2 0 1.1 4.4 1.9 9.8l.5 3.9c.1.6.2 1.2-.2 1.9-.2.3-.6.5-.9.5s-.6 0-.8-.1l-3-.8zm-5.6.1c.3 0-.1 2 1.3 3.8s3.5 2 3.5 2.3c0 .1-.6.3-1.4.1-.9-.2-2.1-.7-2.9-1.8s-1-2.3-.9-3.2c-.1-.8.3-1.2.4-1.2z" class="B"/><path d="M284.3 247c-.2-.1-7.6-4.2-9.1 4s7 8 7.1 7.8c0-.3 2-11.8 2-11.8z" class="G"/><path d="M280.3 255.2s-.2.1-.4.1c-.3.1-.7.1-1.1-.2-.8-.5-1.3-2-1-3.5.1-.7.4-1.4.8-2s.8-.9 1.3-.9.7.3.8.5 0 .4 0 .4.2-.1.2-.5c0-.2-.1-.4-.2-.6-.2-.2-.4-.3-.7-.4-.6-.1-1.3.4-1.7 1s-.8 1.3-.9 2.2c-.3 1.7.3 3.4 1.4 3.9.5.3 1.1.2 1.3 0 .2.2.2 0 .2 0z" class="D"/><path d="M329.8 241.4c-5.5.3-11.1-2.4-14.5-6.7-2.4-3.1-3.8-7.1-7.2-9-2.3-1.3-5.1-1.3-7.6-.6s-4.7 2.2-6.7 3.9c1 6.5-2 12.9-5 18.8-.3.7-.7 1.4-1.4 1.7-1.1.5-2.4-.4-3.1-1.4-1-1.7-1.1-3.8-1-5.8.2-4.5 1-9 2.9-13.1s4.9-7.7 8.7-10.1c4.8-2.9 10.8-3.7 16.3-2.4s10.5 4.5 14.1 8.8c1.7 2 3.2 4.3 3.7 6.8" class="B"/><path d="M340.3 227.2s0 .3-.2.7-.7 1-1.5 1.4-2 .6-3.3.3a8.93 8.93 0 0 1-2-.6c-.7-.3-1.4-.7-1.9-1.4s-.8-1.6-.5-2.5 1.2-1.6 2.2-1.7c.5-.1 1 0 1.5.1.5.2.9.5 1.3.9.7.9.8 2 .6 3.1s-1 2.1-1.9 2.7c-1 .6-2.1 1-3.3 1-2.4.1-4.8-.8-6.8-2.3-2-1.4-3.7-3.2-5.2-4.9s-3-3.4-4.7-4.7c-1.6-1.3-3.5-2.2-5.3-2.6s-3.6-.2-5.1.2c-3.1.8-5.2 2.5-6.4 3.7l-1.4 1.5c-.3.4-.5.6-.5.5 0 0 0-.1.1-.2s.2-.2.3-.4c.3-.4.7-.9 1.4-1.6 1.3-1.3 3.3-3 6.5-3.9 1.6-.4 3.4-.6 5.3-.2 1.9.3 3.8 1.3 5.4 2.6 1.7 1.3 3.2 3 4.7 4.7s3.2 3.5 5.1 4.9c2 1.4 4.2 2.3 6.5 2.2 1.1-.1 2.2-.4 3.1-1s1.6-1.5 1.8-2.5.1-2-.5-2.8-1.5-1.1-2.4-.9c-.9.1-1.7.7-1.9 1.4-.2.8 0 1.6.4 2.2s1.1 1 1.7 1.3 1.3.5 1.9.6c1.2.2 2.3.1 3.1-.3s1.3-.9 1.5-1.3c.3 0 .4-.2.4-.2zm-60.5 1.7c.1-.1.8.7 2.3 1.2.8.2 1.7.4 2.8.3s2.2-.4 3.4-.8c2.3-.9 3.9-2.7 4.7-4 .8-1.4 1-2.4 1.1-2.4 0 0 0 .3-.1.7s-.3 1.1-.7 1.8c-.8 1.5-2.4 3.3-4.8 4.3-1.2.5-2.4.7-3.5.8a6.59 6.59 0 0 1-2.9-.4c-.8-.3-1.4-.7-1.7-1-.4-.3-.6-.5-.6-.5zm-.9 5.9c0-.1.9.3 2.5.6 1.5.3 3.8.2 6-.6 2.2-.9 3.9-2.4 4.8-3.6 1-1.2 1.4-2.1 1.4-2.1s0 .2-.2.7c-.2.4-.5 1-1 1.6-.9 1.3-2.6 2.9-4.9 3.8s-4.6.8-6.2.5c-.8-.2-1.4-.4-1.8-.6-.4-.1-.6-.3-.6-.3z" class="F"/><path d="M425.8 297.1l-2.5-.8c-.4-.1-.9-.2-1.3-.1-2.8.6-13.7 3.1-17.8 4.1-1.1.3-2 1-2.5 2l-16.8 34.9a2.46 2.46 0 0 0 .5 2.7h0l40.4-42.8z" class="B"/><path d="M425.8 297.1l-18.4 37.2-22 5.9 18.8-36.7c.4-.8 1.2-1.4 2.1-1.6l19.5-4.8z" class="I"/><path d="M427.4 313.2c-.4-.6 3.8-20.2 2.6-20.7s-1.8-.3-2.6.9-5.6 12.7-5.6 12.7l-2.1-.8c-.6-.2-1.2-.3-1.8-.2-3.2.5-13.7 2-13.6 2.4 0 0-.2 4 3.5 3.2l-5.2 1.6s-1.8 3 1.4 3.5h3.6l-5.6 1.1s.6 3.1 2.6 3.3 7.5-.6 7.5-.6l1.3 2.8-5.9 11.8 9.9-3.3s5.3-2.7 4.9-5.4c0 0 3.8-2.2 3.8-5.2-.2.1 3.6-4 1.3-7.1z" class="G"/><path d="M425.1 312.6c-.1.1-.9-.6-2.3-1.5-.7-.4-1.6-.9-2.6-1.3s-2.2-.7-3.5-.7c-2.5 0-4.8.5-6.5.9l-2.7.6c0-.1.9-.5 2.6-1 1.6-.5 3.9-1 6.6-1.1 1.3 0 2.6.3 3.6.8 1.1.4 1.9 1 2.7 1.4 1.5 1 2.2 1.8 2.1 1.9zm-3.6 4.9c-.1 0-.5-.8-1.5-1.7-.5-.5-1.2-1-2-1.2s-1.9-.2-2.9-.1c-2.1.3-4 .8-5.4 1.1s-2.3.4-2.2.3c-.1-.1.8-.3 2.2-.7 1.4-.3 3.2-.9 5.4-1.2 1.1-.1 2.2-.1 3.1.1 1 .3 1.6.9 2.1 1.4 1 1.1 1.3 2 1.2 2zm5.6-4.6c-.1 0-.3-.6-.8-1.7-.4-1-1.1-2.5-2.3-3.6s-2.8-1.6-3.8-2c-1.1-.3-1.8-.5-1.7-.6 0-.1.7 0 1.8.2 1.1.3 2.7.7 4.1 1.9 1.3 1.3 1.9 2.8 2.3 3.9.4 1.2.5 1.9.4 1.9z" class="D"/><path d="M367.3 329l16.1-16.9 13.3-4.7 4.1 1.6 9.6-1.9c1.5-.3 2.7 1.4 1.8 2.7l-.3.3c-.9.5-13.5 4.5-13.5 4.5l16.2-1.3s1.7.8.3 2.1-6.8 2.8-10.4 3.5c-1.8.4-6.3 2.5-6.3 2.5s13.4 2.3 13.3 3.3.1 1.5-1 1.6c-1.2.1-12.5-.3-14.2.1-1.7.5-7.7 8.6-11 10.3-3.2 1.7-6.5 0-6.5 0l-3 3.2-7.4-10.3" class="G"/><g class="D"><path d="M368.5 329.7s.1.1.1.2c.1.1.2.3.4.5.3.5.8 1.1 1.5 2l5.5 7.6h-.2l3-3.2s.1-.1.2 0h0c1.3.6 3 .9 4.6.6.8-.2 1.6-.5 2.3-1a16.8 16.8 0 0 0 2.1-1.8c1.4-1.3 2.7-2.8 4.1-4.3l2.2-2.3 1.2-1.1.3-.2.4-.2c.3-.1.6-.1.9-.1 2.2-.2 4.5-.1 6.8-.1l3.6.1h1.8c.6 0 1.3.1 1.7-.1.2-.1.2-.3.2-.6v-.7c0 .1 0 0 0 0-.4-.3-1.1-.5-1.7-.7-1.2-.4-2.4-.6-3.7-.9l-7.7-1.5c-.1 0-.2-.2-.2-.3s.1-.2.1-.2l4.2-1.9c.7-.3 1.5-.6 2.3-.7l2.3-.5 4.6-1.3c.8-.3 1.5-.5 2.2-.9l1-.6c.3-.2.5-.5.5-.8s-.3-.7-.7-.9h.1l-16.2 1.3c-.1 0-.3-.1-.3-.2s.1-.2.2-.3l7.3-2.4 3.5-1.2 1.7-.6.8-.3c.1-.1.2-.1.3-.2s.1-.2.2-.3c.2-.5.2-1-.1-1.4s-.8-.7-1.3-.7l-3.4.6-6.5 1.3h-.1l-4.1-1.6h.1l-13.3 4.7h.1l-15.1 15.6-.8.8c.2-.2.5-.5.8-.9l3.1-3.4 11.8-12.4h.1l13.3-4.8h.1l4.1 1.6h-.1l6.5-1.3 3.4-.6c.7 0 1.3.3 1.7.9.4.5.5 1.3.2 1.9-.1.1-.2.3-.3.4s-.3.2-.5.3l-.9.3-1.7.6-3.5 1.2-7.3 2.4-.1-.5 16.3-1.3c.3.1.5.3.7.5s.3.5.3.9c0 .6-.4.9-.7 1.2s-.7.5-1.1.7c-.7.4-1.5.7-2.3.9l-4.6 1.3-2.3.5c-.7.1-1.5.4-2.2.7l-4.2 1.9-.1-.5 7.7 1.5 3.7.9c.6.2 1.2.3 1.8.7.1.1.2.1.2.4v.8c0 .2 0 .3-.1.5s-.2.4-.4.5c-.7.3-1.3.2-1.9.2h-1.8c-1.2 0-2.4 0-3.6-.1-2.3 0-4.6-.1-6.8.1-.3 0-.5.1-.8.1l-.3.1-.3.2c-.4.3-.8.7-1.2 1-.8.7-1.5 1.5-2.2 2.3l-4.1 4.3a16.8 16.8 0 0 1-2.1 1.8c-.8.5-1.6.9-2.5 1.1-1.7.4-3.4 0-4.9-.7h.2l-3 3.2c0 .1-.1.1-.2 0h0l-5.4-7.6-1.4-2c-.1-.2-.3-.4-.4-.5.3-.4.3-.5.3-.5z"/><path d="M388.4 312.8c0-.1.9-.4 2.5-1l6.4-2.2 1.9-.4 7.9-1.5 3.3-.5c0 .1-1.2.4-3.2.8l-7.9 1.7c-.7.1-1.3.3-1.9.4h0l-6.4 2.1c-1.6.5-2.6.7-2.6.6z"/></g><use xlink:href="#B" class="C"/><use xlink:href="#B" opacity=".4"/><path d="M284.7 318.2s.2.2.7.6l2 1.7 7.5 6.4 27.4 23.6h-.2l44.6-25.6.1-.1.1.1c3.5 1.9 6.8 4.5 9 8s3.3 8 2.2 12.2v.1l-.1.1-12.3 9.7-22.4 17.7c-6 5.4-13.3 9-20.7 10.3-3.7.6-7.5.7-11-.1-3.5-.9-6.7-2.3-9.7-4-6-3.3-11-7.3-15.6-11.1l-12.6-10.7-22.8-19.4c-.5-.5-1-.8-1.2-1.1-.3-.2-.4-.4-.4-.4s.2.1.4.3c.3.2.7.6 1.3 1l4.9 4.1 18.1 15.2 12.7 10.6c4.6 3.8 9.6 7.8 15.6 11 3 1.6 6.2 3 9.6 3.9 3.4.8 7.1.7 10.8.1 7.3-1.4 14.5-4.9 20.5-10.2h0l22.4-17.7 12.3-9.7-.1.1c.5-2 .5-4.1.2-6.1-.4-2-1.2-3.9-2.3-5.6-2.2-3.4-5.4-6-8.9-7.9h.2l-44.7 25.5-.1.1-.1-.1-27.2-23.7-7.4-6.5c-.8-.7-1.5-1.3-1.9-1.7-.7-.4-.9-.7-.9-.7z" class="B"/><path d="M264.4 334.9c-.1 0-.4-2.2-.6-4.9s-.2-4.9-.1-4.9.4 2.2.6 4.9.3 4.9.1 4.9zm22.3 3.9c-.1.1-2.4-1.1-5.2-2.6l-4.9-3.1c.1-.1 2.4 1.1 5.2 2.6l4.9 3.1zm3 13.5c0 .1-2.3.3-5.2.2-2.9 0-5.2-.1-5.2-.3 0-.1 2.3-.3 5.2-.2 2.9 0 5.2.2 5.2.3zm13.2 5.5c-.1 0-.2-2.2-.1-4.9l.4-4.9c.1 0 .2 2.2.1 4.9l-.4 4.9zm17.5 14c0 .1-2.2 0-4.9-.2l-4.9-.7c0-.1 2.2 0 4.9.2s4.9.5 4.9.7zm14.2-8c-.1 0 .2-2.3.7-5.1l1.3-5c.1 0-.2 2.3-.7 5.1l-1.3 5zm23.8-17.2c0 .1-2.6-.2-5.7-.7s-5.6-1.1-5.6-1.2 2.6.2 5.7.7 5.7 1.1 5.6 1.2zm7.4-5.7c-.1 0 0-2 .2-4.5l.7-4.4c.1 0 0 2-.2 4.5-.2 2.4-.6 4.4-.7 4.4z" class="H"/><path d="M276.7 312.4c-.1.1-1.6-1.1-4.5-1.8s-7.2-1-11.5.3c-2.2.6-4.1 1.7-5.6 2.9s-2.6 2.7-3.5 3.9-1.5 2.3-2 3-.7 1.1-.8 1.1l.6-1.2 1.8-3.1s1.9-2.7 3.5-4.1c1.5-1.3 3.5-2.4 5.8-3.1 4.5-1.3 8.9-1 11.8-.2 1.5.4 2.6 1 3.3 1.4.4.2.6.4.8.5.2.3.3.4.3.4zm47-6.1v1.7l-.3 4.7-.6 15.7-.4 15.7-.2 4.8-.1 1.7s-.1-.6-.1-1.7v-4.8c0-4 .1-9.6.3-15.7s.5-11.7.8-15.7l.4-4.7c.1-1.1.2-1.7.2-1.7zm-4.5-16.2c.1 0 .6.5 1.2 1.5.7 1 1.5 2.4 2.2 4.2.7 1.7 1 3.3 1.2 4.5s.2 1.9.1 1.9c-.2 0-.5-2.9-1.8-6.3-1.3-3.3-3-5.7-2.9-5.8z" class="B"/><path d="M81.9 437.1s-9.8 2.1-18.5.8c-8.2-1.2-26.5 0-26.5 10.8 0 12 24.4 9.1 34 7.1l19-3.6-8-15.1z" class="E"/><g class="B"><path d="M60 452.5c-.1 0-.7-1.8-1.2-4.2-.5-2.3-.8-4.3-.7-4.3s.7 1.8 1.2 4.2c.5 2.3.8 4.3.7 4.3zm3.3.1c-.1 0-.5-1.9-.8-4.3l-.4-4.4c.1 0 .5 1.9.8 4.3.4 2.5.6 4.4.4 4.4zm3.2-1.2c-.1 0-.4-1.7-.7-3.7-.3-2.1-.4-3.8-.2-3.8.1 0 .4 1.7.7 3.7.3 2.1.4 3.8.2 3.8zm5.1-1.3c-.1 0-.8-1.4-1.3-3.2-.5-1.9-.5-3.4-.4-3.4s.4 1.5.8 3.3l.9 3.3zm1.1-4.4s.5-.1 1.3-.1 2 .2 3.4.7c.4.1.7.3 1.1.6.3.3.6.7.7 1.2 0 1.1-1.2 1.8-2.2 1.6-1.1-.2-1.9-1-2.6-1.8-.7-.9-1.2-1.9-1.4-3-.5-2.2-.1-4.6 1.1-6.2.2-.2.4-.4.7-.4.3-.1.6.1.8.3.4.4.5.9.6 1.3.1.9.1 1.7-.1 2.4-.4 1.5-1.1 2.5-1.6 3.1-.3.3-.5.5-.7.6s-.3.2-.3.2l.9-.9c.5-.6 1.2-1.6 1.5-3 .2-.7.2-1.5.1-2.3-.1-.4-.2-.8-.5-1.1s-.7-.2-.9.2c-1.1 1.5-1.5 3.7-.9 5.8.3 1.1.7 2 1.3 2.8s1.4 1.5 2.3 1.7c.8.2 1.8-.4 1.7-1.2 0-.4-.2-.7-.5-.9s-.6-.4-.9-.5c-1.3-.5-2.5-.7-3.3-.8-1.2-.3-1.6-.2-1.6-.3z"/><path d="M88.9 450.6s-.1 0-.2.1c-.2 0-.4.1-.7.2-.7.2-1.6.4-2.8.6l-10.5 2.2c-4.4.9-9.7 1.8-15.7 2.6-3 .4-6.1.8-9.4.5a21.1 21.1 0 0 1-4.9-.9c-.8-.3-1.6-.6-2.4-1.1-.8-.4-1.5-.9-2.1-1.7h0c-.3-.3-.6-.6-.8-1-1-1.6-1-3.6-.5-5.3s1.8-3.1 3.1-4.1c1.4-1 2.9-1.7 4.5-2.2.8-.2 1.5-.5 2.3-.7s1.5-.4 2.3-.5c6.1-1 11.7-.5 16.3-.5 2.3 0 4.4 0 6.3-.1 1.8-.1 3.4-.3 4.7-.6.6-.1 1.2-.3 1.7-.4s.9-.2 1.2-.3.6-.2.7-.2c.2 0 .3-.1.3-.1s-.1 0-.2.1c-.2.1-.4.1-.7.3-.3.1-.7.2-1.2.4-.5.1-1.1.2-1.7.4-1.3.3-2.9.5-4.7.7-1.8.1-4 .2-6.3.2-4.6 0-10.2-.4-16.3.6-.8.1-1.5.3-2.3.5s-1.5.4-2.3.7c-1.5.5-3 1.2-4.3 2.2s-2.5 2.3-3 3.9-.5 3.4.5 4.9a2.36 2.36 0 0 0 .8.9h0c.5.6 1.2 1.1 1.9 1.5s1.5.7 2.3 1c1.6.5 3.2.8 4.8.9 3.2.3 6.4-.1 9.3-.4 5.9-.8 11.2-1.7 15.7-2.5l10.5-2c1.2-.2 2.2-.4 2.9-.6.3-.1.5-.1.7-.1l.2-.1z"/><path d="M53.2 456.4c-.1 0-.1-1-.2-2.5l-.6-6-1-6-.4-2.5c.1 0 .4.9.8 2.4s.8 3.6 1.1 6l.5 6-.2 2.6z"/></g><path opacity=".4" d="M78.9 437.6l6.2 15.5 4.8-.9-9.2-15.1z"/><path d="M147 399.3l13.6-30.4-7.9-26.1c-2.4-7.9-1.8-16.4 1.6-23.9l13.3-28.4 9.2-4.8 21.9-3.8c.8.3 29.1 11.7 29.1 11.7l6.3 7.8-22.5 65.6s15.3 33.4 13.3 48.7L147 399.3z" class="C"/><path d="M208.8 334.2l-5.1 19.8c-.3 1.2-.7 2.5-1.8 3.2-.7.5-1.6.5-2.5.6l-24.8 1.2c-1.4.1-2.8.1-4.1.6s-2.5 1.4-3 2.8c-.7 2.1.8 4.3 2.2 6 12.4 14.7 32.8 24 51.9 26.2l-10-28.7L215 349l-6.2-14.8z" opacity=".3"/><path d="M173 347.6h.4c.3 0 .6.1 1 .1l3.8.5c3.2.4 7.7.8 12.6 1.1s9.4.3 12.6.3c1.6 0 2.9 0 3.8-.1h1c-.3 0-.6 0-1 .1-.9 0-2.2.1-3.8.1-3.2.1-7.7 0-12.7-.2-4.9-.3-9.4-.7-12.6-1.1l-3.8-.5c-.4-.1-.8-.1-1-.2-.1-.1-.3-.1-.3-.1zm-20.5-13.9h.6c.4 0 .9.1 1.6.1l6 .5c5.1.4 12.1.8 19.8 1.2l19.8.5c-5.1 0-12.1-.2-19.8-.5s-14.7-.8-19.8-1.2l-6-.5c-.7-.1-1.2-.1-1.6-.2-.4.1-.6.1-.6.1zm5.2-12h.5c.4 0 .9.1 1.5.1l5.5.4 18.1 1c7.1.3 13.5.4 18.1.4h0c-4.6 0-11-.1-18.1-.4l-18.1-1-5.5-.4c-.6-.1-1.1-.1-1.5-.1-.4.1-.5 0-.5 0zm3.2-10.3h4.5l4.5.2h-4.5l-4.5-.2zm37.3-5.1h.7c.5 0 1.1 0 1.8-.1l12-.2h1.8c-.5 0-1.1 0-1.8.1l-12 .2h-2.5zm-48.7 87.4h.7c.5 0 1.2 0 2 .1l7.4.2c6.2.2 14.9.3 24.4.3s18.2-.3 24.4-.5l7.4-.3c.9 0 1.5-.1 2-.1h0c-.5 0-1.2.1-2 .1-1.7.1-4.3.2-7.4.3l-24.4.5c-9.5 0-18.2-.1-24.4-.3l-7.4-.3c-.9 0-1.5-.1-2-.1-.4.1-.7.1-.7.1zm6-12.2l30.1.7 30.1.8-30.1-.7-30.1-.8zm5.1-12.6h2l5.6.1 18.5.5 18.5.9 5.6.4c.6.1 1.1.1 1.5.1.3 0 .5.1.5.1h-.5c-.4 0-.9-.1-1.5-.1l-5.6-.4c-4.7-.3-11.2-.6-18.5-.9l-18.5-.6c-2.3-.1-4.2-.1-5.6-.1h-2z" class="H"/><path d="M171 289.4s-19 4.2-21.3 24.7l-2.3 20.9 8.1 2.5 15.5-48.1z" class="C"/><path d="M153.2 341.3s-.1-.1-.1-.3c-.1-.2-.2-.5-.3-.9-.2-.8-.5-2-.7-3.6-.2-3.1.4-7.4 2.4-11.7.5-1.1 1.1-2.1 1.6-3 .6-1 1.1-1.9 1.6-2.8 1-1.8 1.7-3.5 2.1-4.9.5-1.5.8-2.6 1.1-3.5.1-.4.2-.7.3-.9s.1-.3.1-.3 0 .1-.1.3c-.1.3-.1.6-.2 1-.2.8-.5 2-1 3.5s-1.1 3.2-2.1 5l-1.6 2.8c-.6 1-1.1 1.9-1.6 3-2 4.2-2.6 8.5-2.5 11.5.1 1.5.3 2.7.6 3.6.3.8.4 1.2.4 1.2z" class="B"/><path d="M155 300.3l7-.3 7-.1c0 .1-3.1.1-7 .3l-7 .1zm-5.2 15.8h.3c.3 0 .6.1.9.1.8.1 1.9.2 3.1.2 1.2.1 2.3.1 3.1.1h.9-1c-.8 0-1.9 0-3.1-.1l-3.1-.3c-.4 0-.7-.1-.9-.1-.1.1-.2.1-.2.1z" class="H"/><path d="M234 301.5c3.8 4.1 4.7 10.5 4.7 17.4v35.4l-30.3-.6.9-31.6" class="C"/><path d="M237.8 354.5h-2.2c-1.5 0-3.6 0-6.2-.1l-21-.3v-.2l.1-2.5.9-29.3c0-.8.1-1.4.1-1.9v-.5 2.4l-.1 6.8-.6 22.5-.1 2.5-.2-.2 20.8.5 6.2.2c.7 0 1.3 0 1.7.1h.4c.1-.1.2-.1.2 0z" class="B"/><path d="M209.5 330.2h.3c.2 0 .5 0 .8.1.8.1 1.8.1 3 .2l9.9.6 9.9.3c-2.5 0-6-.1-9.9-.2l-9.9-.6-3-.3c-.3 0-.6-.1-.8-.1h-.3zm.7-12.7s1.4-.5 3.7-1.1c4.7-1.2 5.4-1.2 9.2-1.5a58.37 58.37 0 0 1 9.4 0l3.8.5h-.3c-.2 0-.5-.1-.8-.1l-2.8-.3c-2.4-.2-5.7-.3-9.3 0s-6.9.9-9.2 1.5l-2.7.7c-.3.1-.5.2-.7.2-.2.1-.3.1-.3.1z" class="H"/><path d="M153.1 341.9l-8.1-14.8h-24.4l-.7 1.4 20.6 34.4 23.4 1.1z" class="B"/><path d="M152.3 343.3l-8-14.8h-24.4l19.8 35.9 23.4 1.1z" class="I"/><path fill="#ebebeb" d="M132.2 334.8c.5.4 1.3.3 1.7-.2s.3-1.3-.2-1.7-1.3-.3-1.7.2-.3 1.2.2 1.7z"/><g class="G"><path d="M236.2 354.5V376c0 4.7-1.9 9.2-5 12.2h0c-3.9 3.6-9.2 4.6-13.9 2.4l-49.7-25.3 4.9-19 40 15.1.4-7.2 23.3.3z"/><path d="M175.3 348.3l-3.9-4.8c-2.5-3.2-6.4-5-10.4-5h-3.4l-2.3 2.6s-16.5.7-17.1 2.8v1.1l14.1.9h-12.7c-.8 0-3.4-.2-3.3 1.2 0 1.2 1.4 2.1 3.5 2.4.9.1 11.3 1 11.3 1l-11.5-.1c-1.3 0-1.1 2.1-.4 2.3.6.2 15.3 4.5 15.3 4.5s-2.5 1.7-4.5 1.5c-2-.1-5.5-2.7-6.2-1.5s-.6 1.9-.1 2.2c.4.3 5.2 2.7 6.8 3.2 1.6.4 14.5 2.5 14.5 2.5l4.7.8 5.6-17.6zm-52-14s-2.6.9-1.3 4.2a27.79 27.79 0 0 0 5.2 8.2s-.5 1.7 1 2.9c0 0-1.8.5-.7 3.5 0 0-1.2 3.2 2.1 4.5 0 0-.9 2.6 2.4 3.8s6.4-.9 6.4-.9l-15.1-26.2z"/><use xlink:href="#C"/><use xlink:href="#C" x="1" y="3.9"/><use xlink:href="#C" x="2.3" y="7.9"/></g><path d="M128.4 349.8c0-.1 1.7.5 3.7 1l3.7 1c0 .1-1.8-.1-3.8-.7-2-.5-3.6-1.2-3.6-1.3zm-.4 3.4c0-.1 1.9.5 4.2 1.2l4.2 1.3c0 .1-2-.2-4.3-.9s-4.1-1.5-4.1-1.6zm1.5 4.4c0-.1 1.8.3 4 .8s3.9 1.1 3.9 1.2-1.8-.3-4-.8l-3.9-1.2zm-3-11.6c0-.1 2.1.6 4.7 1.3l4.7 1.2s-.6 0-1.4-.1c-.9-.1-2.1-.4-3.4-.7s-2.5-.7-3.3-1c-.8-.5-1.3-.7-1.3-.7zm23.3-4.7c0-.1 2.6-.2 5.8-.2l5.8.2c0 .1-2.6.2-5.8.2l-5.8-.2zm68.4 33c-.1 0 0-.8 0-2.2 0-.7-.1-1.4-.3-2.3s-.5-1.8-.9-2.7-.9-1.8-1.4-2.5-1-1.3-1.5-1.8c-.9-1-1.6-1.5-1.6-1.5s.2.1.5.3.7.6 1.2 1c.5.5 1 1.1 1.5 1.8s1 1.6 1.4 2.5c.4 1 .7 1.9.9 2.8s.3 1.7.3 2.4 0 1.2-.1 1.6v.6z" class="D"/><g class="B"><path d="M165.6 281.2c-.1 0 .3-.7.1-1.9-.1-.6-.4-1.3-.9-2s-1.2-1.4-2-2.2-1.7-1.7-2.4-2.8c-.7-1.2-1.2-2.5-1.4-4.1-.2-1.5-.1-3.2.5-4.7.5-1.6 1.3-3.1 2.1-4.6s1.5-3 1.9-4.5.5-3 .1-4.4c-.8-2.8-2.4-5-3.2-7.1-.9-2.1-1-4-.7-5.3.1-.6.4-1.1.5-1.4.2-.3.3-.4.3-.4.1 0-.4.6-.6 1.8s-.1 3 .9 5c.9 2 2.6 4.1 3.4 7.1.4 1.5.4 3.2-.1 4.8-.4 1.6-1.2 3.1-2 4.6l-2.1 4.4c-.5 1.5-.6 3-.5 4.4.2 1.4.6 2.7 1.3 3.8.6 1.1 1.5 2 2.3 2.8s1.5 1.5 2 2.3.7 1.6.8 2.2 0 1.2-.2 1.5c0 .6-.1.7-.1.7zm38.7-13.4c1 2.4 3.5 4 6.2 4 2.6 0 5.1-1.5 6.6-3.6 1.5-2.2 1.9-4.9 1.4-7.5-.2-1.2-.6-2.3-.5-3.5.2-1.7 1.4-3 1.8-4.7.7-2.9-1.4-6-4.2-7.2s-6-.8-8.9 0"/><path d="M162 234c-2.7 2.7-1.7 6.2-.4 8.6 1.2 2.4 2.7 4.8 2.8 7.5 0 2.8-1.5 5.3-2.2 7.9-1 3.3-.7 7 .8 10.2 1.1 2.4 2.8 4.4 3.9 6.8s1.5 5.4 0 7.5c1.4-.2 2.7-1.3 3.3-2.6s.8-2.8.8-4.3c-.1-5.6-2.8-11-2.1-16.5.4-3.2 1.9-6.3 1.7-9.5s-2.1-6.1-3.5-9-2.2-6.6-.4-9.3"/><path d="M168.6 223.4c-3.3.4-6.5 2.1-8.1 5s-1 7 1.7 8.9c2.6 1.8 6.2 1.2 8.8-.5 1.9-1.2 3.5-3.1 4.3-5.3.7-2.2.4-4.7-1-6.6-1.4-1.8-4-2.7-6.2-1.9"/><path d="M165.9 223.1c1.4-4 5-7 9-8.4s8.4-1.4 12.6-.6 8.2 2.3 12.1 3.8c2.9 1.1 5.8 2.2 8.2 4.2 2.3 2 3.9 4.7 5 7.6 2 5.4 2.1 9.3-.3 14.6-1 2.3-.2 4.8-1.1 7.2-.9 2.3-5.1 5.1-3.8 7.2"/></g><path d="M205.6 284.8l-1.9-54.7c-.1-2.3-1.9-4.1-4.2-4.3l-23.7-4.6c-7.5-.4-12 9.1-12.1 16.7-.1 8.4.2 18.6 1.5 24.8 2.7 12.4 12.4 13.5 12.4 13.5l.5 9.2h-.7l-2.9 1.5s-4.1 25.7 10.8 23.5c5.9-.9 28.5-22.2 28.5-22.2l-8.2-3.4z" class="G"/><g class="B"><path d="M167.1 246.2c0 .9.7 1.5 1.6 1.5s1.6-.7 1.6-1.5c0-.9-.7-1.5-1.6-1.5s-1.7.7-1.6 1.5z"/><use xlink:href="#D"/><path d="M183.4 245.3c0 .9.7 1.5 1.6 1.5s1.6-.7 1.6-1.5c0-.9-.7-1.5-1.6-1.5-.9-.1-1.6.6-1.6 1.5z"/><use xlink:href="#D" x="17.1" y="0.2"/><path d="M177.7 255.6c0-.1-1.1-.2-2.8-.4-.4 0-.9-.1-1-.4s0-.8.2-1.3l1.1-3.4 2.5-9c-.2-.1-1.6 3.9-3.2 8.7l-1.1 3.5c-.1.5-.4 1.1-.1 1.7.1.3.5.5.8.6s.5.1.8.1l2.8-.1z"/></g><path d="M177.6 276.1s8.5.1 16.5-5.4c0 0-3.8 8.8-16.4 8.4l-.1-3z" class="D"/><path d="M182.3 237.4c.2.5 1.9.1 4 .3 2 .1 3.7.6 4 .2.1-.2-.2-.6-.9-1.1-.7-.4-1.8-.8-3-.9s-2.3.2-3.1.5c-.8.4-1.1.8-1 1zm-15.7.6c.3.4 1.5-.1 2.9-.2s2.7.1 2.9-.3c.1-.2-.1-.6-.7-.9-.5-.3-1.4-.6-2.4-.5s-1.8.5-2.3.9c-.4.4-.5.8-.4 1z" class="B"/><path d="M178.7 259.5c.5-.8 1.5-1.3 2.5-1.2.7 0 1.4.3 1.9.9.5.5.6 1.4.2 1.9-.4.6-1.3.8-2.1.6s-1.5-.6-2.1-1.1c-.2-.1-.4-.3-.5-.5-.1-.1-.1-.4.1-.6" class="D"/><path d="M182.6 256.5c-.3 0-.2 1.8-1.6 3.1s-3.3 1.2-3.3 1.5c0 .1.4.3 1.2.3s1.9-.3 2.8-1.1 1.2-1.8 1.2-2.6-.2-1.2-.3-1.2zm-16.9-30c.8 3.9 7.1 4.2 11 3.2 2.8 3.2 7.3 4.9 11.5 4.2.6-.1 1.2-.2 1.7 0 .6.2 1 .7 1.4 1.2 1.8 2.1 4.3 3.5 7.1 3.9.8 3.9 4.1 7.2 8.1 7.8 0 0 1.3-.7.5-5.7-.7-5-.8-15.6-.8-15.6l-14.1-5.5-16.6-2.1s-11.2 1.9-9.8 8.6z" class="B"/><g class="F"><path d="M212.3 244.9c-.1 0 0-1.4-1.1-3.5-.5-1-1.3-2.2-2.6-3.1-1.3-1-3-1.7-5-1.8h-.2l-.1-.2c-.6-2-1.7-4.1-3.6-5.6-1.8-1.4-4.7-2-6.9-.8l-.4.2-.2-.4c-.1-.1-.1-.3-.2-.4-1.5-3.5-5.1-5.7-8.4-5.8-.8 0-1.6.1-2.4.2s-1.7.3-2.5 0c-.8-.2-1.4-.8-1.9-1.3s-1-1-1.5-1.3c-2.1-1.4-4.4-1.2-5.7-.8-1.4.4-2 1-2 .9 0 0 .1-.2.4-.4s.8-.6 1.5-.8c1.3-.5 3.7-.8 6.1.6 1.2.7 2 2.1 3.3 2.5 1.3.3 3-.4 4.8-.3 3.5.1 7.4 2.3 9.1 6.2.1.2.1.3.2.5l-.5-.2c2.6-1.5 5.7-.7 7.7.9s3.1 3.9 3.7 5.9l-.3-.2c2.1.1 3.9.9 5.2 2 1.3 1 2.2 2.3 2.6 3.4.5 1.1.7 2 .7 2.7.2.5.2.9.2.9zm-22.4-12.1s-.3.2-1 .4a8.36 8.36 0 0 1-3 .3c-2.5 0-6.2-1.1-8.8-4.1l.5.1c-.1.1-.3.1-.4.2-1.8.9-3.9 1.1-5.6.8s-3.2-1-4.2-1.9c-1-.8-1.7-1.7-2-2.3-.4-.6-.5-1-.4-1 .1-.1.8 1.5 2.8 2.9 1 .7 2.4 1.4 4 1.6s3.5 0 5.2-.8c.1-.1.3-.1.4-.2l.3-.1.2.2c2.4 2.8 5.9 3.9 8.3 4.1 2.2.2 3.6-.3 3.7-.2zm-7.5-7c0 .2-1.8.2-3.9.8s-3.6 1.6-3.8 1.4c-.1-.1 1.3-1.5 3.5-2.2 2.3-.6 4.2-.2 4.2 0zm-4.8-.1c-.2.1-.8-.4-1.7-.9-.8-.5-1.6-.9-1.5-1.1s1-.1 1.9.5c1 .5 1.5 1.3 1.3 1.5z"/><path d="M197.5 231.9c-.1.2-1.7-.2-3.7 0s-3.5.8-3.6.6 1.4-1.2 3.6-1.4 3.8.6 3.7.8zm3.9 6.5c0 .2-2.4.4-5.1-.4-2.8-.8-4.7-2.3-4.5-2.4.1-.2 2.1.9 4.8 1.7 2.5.7 4.8.8 4.8 1.1zm8.8 4.3c-.2.2-1.4-1.1-3.4-1.6-2-.6-3.7-.2-3.7-.4-.1-.2 1.7-.9 3.9-.3 2.3.6 3.4 2.2 3.2 2.3zm-1.3-18c-.1 0-.2-.4-.7-1.1-.5-.6-1.4-1.4-2.7-2.1-2.6-1.3-6.7-2-11.1-1.8s-8.4 1.3-11.2 2.1c-2.8.9-4.5 1.5-4.6 1.4 0 0 .4-.3 1.1-.6.8-.3 1.9-.8 3.2-1.3 2.8-1 6.8-2.2 11.3-2.4s8.7.7 11.4 2.1c1.3.7 2.2 1.6 2.6 2.4.7.8.8 1.3.7 1.3zm1.4 6.7c-.1.1-.5-1.5-2.1-3.4s-4.5-4-8.2-4.8-7.2-.5-9.7-.2l-4.1.5c0-.1 1.5-.6 4-1s6.1-.9 10 0 6.9 3.1 8.4 5.2c.8 1 1.2 2 1.5 2.7.2.6.3 1 .2 1zm-46.6 7.9c0 .1-1.2-.2-2.4-1.6-1.2-1.3-2.5-3.8-1.9-6.7.6-2.8 2.8-4.7 4.4-5.4 1.7-.7 2.9-.6 2.9-.5s-1.1.2-2.6 1-3.4 2.5-3.9 5 .5 4.9 1.6 6.2c.9 1.4 2 1.9 1.9 2z"/></g><g class="B"><path d="M215.9 256.1c-.1-.1 1.2-.8 3-2.1.9-.7 1.9-1.6 2.5-2.9.7-1.3.9-2.9.2-4.4-.6-1.5-1.9-2.6-3.2-3.1a6.26 6.26 0 0 0-3.8-.2c-2.2.5-3.2 1.5-3.3 1.4 0 0 .2-.3.7-.7s1.3-.9 2.5-1.2c1.1-.3 2.6-.4 4.1.1s2.9 1.8 3.7 3.5.5 3.7-.3 5c-.8 1.4-1.9 2.3-2.8 3-1 .7-1.8 1.1-2.4 1.4-.5.1-.8.3-.9.2z"/><path d="M216.5 256.2s.3.4.6 1.1l1.2 3.1c.4 1.4.8 3 .8 4.9s-.4 4-1.7 5.9a7.86 7.86 0 0 1-5.2 3.3c-2 .3-3.8-.6-4.7-1.6-1-1.1-1.4-2.3-1.5-3.1s.1-1.2.2-1.2 0 .4.1 1.2c.1.7.6 1.8 1.5 2.7 1 .9 2.5 1.6 4.3 1.3a7.41 7.41 0 0 0 4.7-3c1.2-1.7 1.6-3.7 1.6-5.5s-.3-3.4-.6-4.8l-1.3-4.3zm-19.4-23.5c-1.6 3.1-.4 6.9 1.2 10s3.6 6.2 3.8 9.6c.2 5.8-5 11-4.3 16.8.4 3.4 3.2 6.5 6.6 7.2-2.8-1.9-3-5.9-2-9.1 1.1-3.2 6.2-11.5 6.9-14.7 2.5-10.9 1.4-12.2-2.4-16"/></g><path d="M207.6 240.5c0 .1-.8.3-2 .1s-3-.8-4.4-2.1-2.2-3-2.5-4.2-.2-2-.1-2 .2.7.6 1.9c.4 1.1 1.2 2.6 2.5 3.8a10.07 10.07 0 0 0 4 2.2c1.1.1 1.9.2 1.9.3zm-4.5 32.4s-.1-.1-.4-.2c-.2-.2-.6-.5-.9-1-.7-.9-1.5-2.5-1.5-4.6 0-1 .3-2.2.8-3.3.6-1.1 1.5-2 2.4-3s1.8-2 2.4-3.3.8-2.7.8-4.2c-.1-1.5-.5-2.9-1.2-4.1s-1.6-2.3-2.4-3.3c-1.7-2-3.1-4.1-4-5.9-.8-1.9-1.1-3.5-1.2-4.7 0-1.1.1-1.8.1-1.8.2 0-.2 2.6 1.5 6.2.9 1.8 2.2 3.7 4 5.7.9 1 1.8 2.1 2.5 3.4.8 1.3 1.2 2.8 1.3 4.4s-.2 3.2-.9 4.5c-.6 1.4-1.6 2.5-2.5 3.5s-1.8 1.8-2.4 2.8-.8 2-.9 3c-.1 2 .6 3.5 1.2 4.4.8 1.1 1.3 1.5 1.3 1.5zm5.8-32.8s.3.2.8.7 1.1 1.3 1.6 2.4c1 2.2 1.5 5.7.4 9.3s-3.2 6.3-4.7 8.1c-1.6 1.8-2.7 2.8-2.7 2.7-.1-.1.9-1.2 2.3-3.1s3.3-4.6 4.4-7.9c1-3.4.7-6.7-.2-8.9s-2-3.2-1.9-3.3zM107.1 414.7c-.1.1-7.9-5.6-17.4-12.7l-17.2-13.1c.1-.1 7.9 5.6 17.4 12.7l17.2 13.1z" class="F"/><path d="M223.6 415.8L200 396.4c-2.6-14.5-15.9-25.3-31.4-23.9h0c-5.8.5-11.4 2.8-15.9 6.5L139 389.7l-70.3-19.5c-6.8-1.9-14.1-.8-20 3l-.3.2c-8.7 5.6-12.9 16.1-10.6 26.2h0c1.5 6.4 5.5 12 11.1 15.4l32.6 19.8L80 436l9.9 16.3 20.3-6.3 42.8-5.7-8.3-4.9 1.9-.6c15.8 13.5 35.1 19.7 59.1 9.2 11.9-5.6 19.2-18.9 17.9-28.2z" class="B"/><g class="F"><path d="M183.1 413.6l-.2.2c-.2.1-.3.3-.6.5-.6.4-1.3 1.1-2.3 1.8l-1.7 1.3c-.6.5-1.3.9-2.1 1.5-.8.5-1.6 1.1-2.4 1.7l-1.3.9-1.4.9-6.5 3.7-3.7 1.9-4 1.9c-5.5 2.5-11.7 5.1-18.4 7.3-13.3 4.6-25.5 7.9-34.3 10.5-2.2.6-4.2 1.3-5.9 1.8s-3.2 1-4.5 1.4l-2.8.9c-.3.1-.5.2-.7.2s-.3.1-.3.1.1 0 .2-.1c.2-.1.4-.2.7-.3.7-.2 1.6-.6 2.8-1l4.4-1.5c1.7-.6 3.7-1.2 5.9-1.9 8.8-2.7 21-6.1 34.3-10.7 6.6-2.3 12.8-4.8 18.3-7.3 1.4-.6 2.7-1.3 4-1.9s2.5-1.3 3.7-1.9c2.4-1.2 4.6-2.5 6.5-3.7.5-.3 1-.6 1.4-.9.5-.3.9-.6 1.3-.9l2.4-1.6c.8-.5 1.5-1 2.1-1.4.6-.5 1.2-.9 1.7-1.3 1-.8 1.8-1.3 2.4-1.8.3-.2.5-.3.6-.5.3.3.4.2.4.2z"/><path d="M184.9 421.2s-.2.2-.7.4l-2.1.8c-1.8.7-4.3 1.4-7.1 2.1-2.8.6-5.5.9-7.3 1-.9.1-1.7.1-2.2.1h-.8c0-.1 1.2-.2 3-.4 1.9-.2 4.5-.6 7.3-1.2s5.3-1.3 7.1-1.9l2.8-.9zm-35.1-39.5c.1.1-15.5 12.3-34.7 27.3l-35 26.9c-.1-.1 15.5-12.3 34.7-27.3l35-26.9zm55.9 52.5v-1.9l-.2-5.3c-.2-4.5-.8-10.7-2-17.4a145.94 145.94 0 0 0-4.4-17c-.7-2.1-1.3-3.8-1.8-5-.2-.5-.4-1-.5-1.4-.1-.3-.2-.5-.1-.5 0 0 .1.1.2.4.2.4.3.8.6 1.3.5 1.2 1.2 2.9 1.9 5 1.5 4.2 3.3 10.2 4.6 17s1.8 13 1.9 17.5c.1 2.3.1 4.1 0 5.3 0 .6 0 1.1-.1 1.5-.1.3-.1.5-.1.5zm-60-.3s.1 0 .2.1.3.3.6.5l2.1 1.8c1.9 1.5 4.7 3.7 8.5 5.7 3.8 2.1 8.6 4.1 14.2 5.4.7.2 1.4.3 2.1.4s1.5.3 2.2.4c1.5.2 3 .4 4.6.4 3.1.2 6.4.1 9.6-.3l2.4-.3c.8-.2 1.6-.3 2.4-.5 1.6-.3 3.1-.8 4.6-1.2 3-1 5.7-2.2 8.2-3.6 5-2.8 8.8-6.6 11.1-10.2 2.4-3.6 3.6-7 4.1-9.4.3-1.2.4-2.1.5-2.8 0-.3.1-.5.1-.7v-.2.9c0 .6-.2 1.6-.4 2.8-.5 2.4-1.6 5.8-4 9.5s-6.2 7.5-11.2 10.4c-2.5 1.5-5.3 2.7-8.3 3.7-1.5.5-3 .9-4.6 1.3-.8.2-1.6.3-2.4.5l-2.5.3c-3.3.4-6.6.5-9.7.3-1.6 0-3.1-.3-4.6-.5-.7-.1-1.5-.3-2.2-.4s-1.5-.3-2.2-.4c-5.6-1.3-10.5-3.4-14.3-5.5s-6.6-4.3-8.5-5.9c-.9-.8-1.6-1.5-2.1-1.9l-.5-.5c.1 0 0 0 0-.1z"/></g><path d="M156.9 438.8c-4.1-2.2-8.7-.9-12.6.4-2.6.9-5.3 2.3-8 1.5-1.9-.5-3.3-2.1-4.8-3.4-5.9-5.4-14-8.4-22.1-7.9-2.3.1-4.5 1.1-6.1 2.7-4 4.4-1 10 2.6 13.7 6.4 6.5 15 10.6 24 11.6 7.5.8 17.8-.3 25.4-3.5 4.7-2 7.1-7.5 4.6-12-.6-1.3-1.7-2.4-3-3.1z" class="E"/><path d="M156.9 442.2c-4.1-2.2-8.7-.9-12.6.4-2.6.9-5.3 2.3-8 1.5-1.9-.5-3.3-2.1-4.8-3.4-5.9-5.4-14-8.4-22.1-7.9-2.3.1-4.5 1.1-6.1 2.7a7.35 7.35 0 0 0-1.7 3.1c.6 2.6 2.4 5.2 4.3 7.2 6.4 6.5 15 10.6 24 11.6 7.5.8 17.8-.3 25.4-3.5 2.8-1.2 4.8-3.7 5.4-6.4-.2-.7-.4-1.4-.8-2.1-.6-1.3-1.7-2.4-3-3.2z" opacity=".4"/><g class="B"><path d="M160.8 447.4c-.1 0-.1-1-1-2.4-.5-.7-1.2-1.5-2.2-2.1-1-.7-2.3-1.3-3.8-1.4-3-.4-6.6.9-10.5 2-1.9.5-4.1 1.3-6.4 1-1.1-.1-2.3-.5-3.3-1.1s-1.9-1.3-2.8-2.1c-3.4-3.3-7.4-5.4-11.2-6.7-1.9-.6-3.8-1.1-5.6-1.3s-3.5-.3-5 0c-1.5.2-2.8.7-3.8 1.3s-1.8 1.3-2.4 2c-1.1 1.3-1.5 2.2-1.5 2.2s.3-.9 1.3-2.3c.5-.7 1.3-1.4 2.4-2.1s2.4-1.2 3.9-1.5 3.3-.3 5.1 0a25.76 25.76 0 0 1 5.7 1.3c2 .6 3.9 1.5 5.9 2.6 1 .6 1.9 1.1 2.9 1.9.9.7 1.8 1.5 2.7 2.3s1.8 1.5 2.7 2.1c1 .6 2 .9 3.1 1.1 2.1.3 4.2-.4 6.2-1 3.9-1 7.5-2.3 10.7-1.9 3.2.5 5.2 2.4 6.1 3.9a4.85 4.85 0 0 1 .8 1.9v.3zm-50.9-1c0-.1.8-.6 2.1-1.5 1.3-.8 3.3-1.9 5.4-2.9l5.7-2.3 2.5-.7c0 .1-.9.4-2.3 1.1l-5.6 2.5-5.5 2.7c-1.4.8-2.2 1.2-2.3 1.1zm1.5 4.1c-.1-.1 3.5-2 8-4.2l8.2-3.7c0 .1-3.5 2-8 4.2l-8.2 3.7z"/><path d="M128.3 452.3c-.1.1-4.4-2.5-9.8-5.8-5.3-3.3-9.5-6.2-9.5-6.3.1-.1 4.4 2.5 9.8 5.8 5.4 3.4 9.6 6.2 9.5 6.3zm2.5-4.2c0 .1-.9-.5-2.1-1.4l-5-3.6-5.1-3.5-2.1-1.5c0-.1.9.4 2.3 1.2l5.2 3.3 5 3.7 1.8 1.8z"/></g><defs ><path id="B" d="M278.7 313l43.4 37.6 44.7-25.6s14.1 7.5 11.1 19.9l-39.5 31.3c-11.4 9.1-27.5 9.3-39.3.6L284 365.6 249.6 337s-5.6-18.3 6.7-23.9c12.4-5.7 22.4-.1 22.4-.1z"/><path id="C" d="M128.4 346.4l7 1.9c.7.3 1.4.3 1.9.9s.6 1.5 0 2.1c-.5.5-1.2.5-1.9.4-2.5-.3-4.8-1.1-7.2-2"/><path id="D" d="M166.2 242.2c.2.2 1.4-.8 3.1-.9s3 .7 3.2.5c.1-.1-.1-.5-.7-.8-.6-.4-1.5-.7-2.6-.6s-2 .5-2.5.9c-.4.4-.6.8-.5.9z"/></defs></svg>