<svg xmlns="http://www.w3.org/2000/svg" xmlns:xlink="http://www.w3.org/1999/xlink" viewBox="0 0 500 500"><style><![CDATA[.B{fill:#263238}.C{fill:#46327a}.D{fill:#fff}.E{opacity:.4}.F{opacity:.5}.G{fill:#fafafa}.H{fill:#1a164e}.I{fill:#ffaf9e}]]></style><path fill="#f8db01" d="M353.8 392.9c22.8-8.5 44.8-29.8 58.9-49.7 38.2-54 48.4-96 44.7-149.5-2.2-31.7-14.9-62.8-38.2-84.6C399.6 90.8 369.9 85 343.9 92s-47.9 26-61.1 49.4c-10.9 19.2-17.7 42.9-36.9 53.7-15.9 9-35.9 6.2-53.3.3s-34-14.5-52.2-16.8c-40.2-5-79.9 25.6-91 64.5-11.2 38.9 3.3 82.5 31.3 111.7 16.6 17.4 37.3 30.2 59.8 38.8 21.3 8.2 44 12.4 66.9 12.8 35.9.9 113.3.6 146.4-13.5"/><path d="M476.4 459.8c0 .1-101.4.3-226.4.3-125.1 0-226.4-.1-226.4-.3s101.4-.3 226.4-.3l226.4.3z" class="B"/><path d="M364.7 55l-2 3.7-3.6 2 3.6 2 2 3.6 2-3.6 3.6-2-3.6-2zm71.5 216.3l-2 3.6-3.7 2 3.7 2 2 3.7 2-3.7 3.6-2-3.6-2zM114 66.4l-1.9 3.6-3.7 2 3.7 2 1.9 3.6 2-3.6 3.7-2-3.7-2zm295.9 104.1l-1.2 2.2-2.3 1.3 2.3 1.2 1.2 2.2 1.2-2.2 2.3-1.2-2.3-1.3zm-162.6-63.6l-1.2 2.3-2.2 1.2 2.2 1.2 1.2 2.3 1.2-2.3 2.3-1.2-2.3-1.2zm-69.8 57.7l-1.1 2-2 1.1 2 1.1 1.1 2 1.1-2 2-1.1-2-1.1zm-59.9 114.7l-1.1 2-2 1.1 2 1.1 1.1 2 1.1-2 1.9-1.1-1.9-1.1z" class="C"/><path d="M133.6 280.5c-.1 2.6-3.5 6-2.4 8.3 1.9 4.3.8 9.5-1.7 13.5s-6.1 7.1-9.7 10.2c.2-6.3-.4-12.6-1.6-18.7-.4-1.9-1-4.1-2.8-4.9-2.3-1.1-5.2.5-7.5-.5-2.5-1.1-3-4.5-5.1-6.2-1.9-1.6-4.7-1.4-7-.6s-4.5 2.1-6.9 2.6-5.3.1-6.6-2c-.8-1.3-.2-.5-1-1.8 0 0-4.7.2-6.3-5.3 0 0-2.2-6 2.7-8.7 0 0 1.1-10.9 12.1-6 3.1 1.4 6.9-3.1 9.9-1.6 2.6 1.3 3.3 4.9 5.9 6.2 2.9 1.5 6.4-.7 9.6-.9 4.2-.2 8.1 3.8 7.9 8 0 0 .5-2.2 4.1-1.2 3.6.9 6.7 4.7 6.4 9.6z" class="B"/><path fill="#ffbf9d" d="M129 298.1c0-1.2-.1-2.5-.7-3.6-.5-.9-2.2-3-4.1-3.2l.3-11.2c0-2.3-1.7-4.3-4-4.5l-22-2.3c-7.6-.8-14.3 4.9-14.8 12.5-.5 8.5-.8 18.8.2 25.1 2 12.7 11.7 14.3 11.7 14.3l-.2 8.9c-.4 9.4 6.7 15.1 14 15.1 7.4 0 14-6.3 13.8-15.6l.7-28.6a4.94 4.94 0 0 0 3.2-1.6c1.3-1.4 1.8-3.4 1.9-5.3z"/><path d="M88.6 292.6a1.58 1.58 0 0 0 1.6 1.6c.9 0 1.6-.6 1.7-1.5a1.58 1.58 0 0 0-1.6-1.6c-.9 0-1.6.6-1.7 1.5zm-2.7-1.5c.2.2 1.4-.7 3.2-.7 1.7 0 3 .9 3.2.7.1-.1-.1-.5-.7-.9s-1.5-.8-2.6-.8-2 .4-2.5.8-.7.8-.6.9zm19.6 1.8a1.58 1.58 0 0 0 1.6 1.6c.9 0 1.6-.6 1.7-1.5a1.58 1.58 0 0 0-1.6-1.6 1.73 1.73 0 0 0-1.7 1.5zm-2.3-1.5c.2.2 1.4-.7 3.2-.7 1.7 0 3 .9 3.2.7.1-.1-.1-.5-.7-.9s-1.5-.8-2.6-.8-2 .4-2.5.8c-.6.4-.7.8-.6.9zm-6.4 13c0-.1-1.1-.3-2.8-.5-.4 0-.9-.1-.9-.4-.1-.3.1-.8.3-1.3l1.3-3.4 3-8.9c-.2-.1-1.8 3.8-3.7 8.6l-1.3 3.4c-.2.5-.5 1.1-.2 1.8a1.21 1.21 0 0 0 .7.7c.3.1.5.1.8.1l2.8-.1z" class="B"/><path fill="#ff9a6c" d="M95.6 325.1s8.5.6 17-4.5c0 0-4.4 9.5-17.1 8.4l.1-3.9z"/><path d="M102.4 288.4c.2.5 1.9.3 4 .5s3.7.8 4 .4c.1-.2-.2-.7-.8-1.1-.7-.5-1.7-.9-3-1-1.2-.1-2.4.1-3.1.4-.8.2-1.2.5-1.1.8zM85.7 287c.3.4 1.5 0 3 0 1.5-.1 2.7.3 3-.1.1-.2-.1-.6-.6-1s-1.4-.7-2.4-.7-1.9.4-2.4.8c-.6.4-.8.8-.6 1z" class="B"/><path d="M97.2 314.3s.1-.3.5-.5.9-.4 1.6-.4c.6 0 1.2.2 1.6.4s.5.4.5.5c-.1.1-.9-.5-2-.5-1.3 0-2.1.6-2.2.5zm25.9-12.9c0-.1.5-.1 1.2-.6.7-.4 1.5-1.4 1.5-2.6s-.7-2.3-1.3-2.7c-.7-.5-1.2-.4-1.2-.5 0 0 .6-.3 1.4.2.8.4 1.6 1.6 1.6 3 0 .7-.2 1.3-.6 1.8-.3.5-.8.8-1.1 1-1 .5-1.6.5-1.5.4z" fill="#ff9a6c"/><path d="M81.3 270.2c-2.1 5.5 2.8 9.5 6.6 10.3 5.3 1.2 11-2.1 14.6-.7 2.7 1.1 5.3 3.2 8.1 2.7 1.4-.2 2.8-1 4.1-.6 1.7.5 2.4 2.6 2.4 4.4-.1 2.2-.8 4.4-.5 6.6s2.3 4.5 4.4 3.9 3.4-2.6 3.6-4.8c.3-3.1-.3-6.7-.2-9.8.1-2.7.1-5.7-1.6-7.8s-4.7-2.7-7.3-3a196.75 196.75 0 0 0-34.3-1.8" class="B"/><path d="M74.6 271.4s-.1-.2-.1-.6 0-1 .3-1.6c.3-.7.9-1.4 1.9-1.8a3.21 3.21 0 0 1 1.7-.2l1.8.3c.6 0 1.3-.1 1.9-.4s1.2-.8 1.7-1.3l1.8-1.5c.7-.5 1.5-.9 2.3-1 1.7-.3 3.6.1 5.3.9s3.2 2.1 4.7 3.4c1.5 1.2 3 2.5 4.7 3.2.8.3 1.7.5 2.6.4s1.7-.4 2.4-.8c1.5-.8 2.9-1.7 4.4-2 1.5-.4 3-.4 4.3-.1s2.3.9 3.1 1.7c.7.7 1.2 1.5 1.5 2.2s.3 1.3.3 1.6v.5c-.1 0 .1-.8-.4-2.2-.3-.7-.7-1.4-1.5-2.1-.7-.7-1.8-1.3-3-1.5-1.2-.3-2.7-.2-4.1.2-1.5.4-2.8 1.3-4.3 2-.8.4-1.6.7-2.5.8s-1.9-.1-2.8-.4c-1.8-.7-3.3-2-4.8-3.2-1.5-1.3-3-2.5-4.6-3.3s-3.4-1.2-5.1-.9-2.9 1.4-4 2.4c-.6.5-1.2 1-1.8 1.3s-1.4.5-2 .4c-.7 0-1.3-.2-1.8-.3-.6-.1-1.1 0-1.6.1-.9.4-1.5 1.1-1.9 1.7a3.73 3.73 0 0 0-.4 1.6c0 .3.1.5 0 .5zm6.2 8.8s-.2.1-.6 0-.9-.3-1.3-.9-.5-1.5-.3-2.5.6-2.1 1.3-3.1 1.8-1.9 3.2-2.4a7.21 7.21 0 0 1 4.6-.1c1.6.5 3 1.5 4.5 2.5 1.4 1 2.9 2.1 4.7 2.6s3.6.3 5.2-.3c1.7-.6 3.1-1.4 4.5-2.2l4.1-2.2c1.3-.6 2.7-1 3.9-1 2.5-.1 4.5.8 5.4 1.8.5.5.8 1 .9 1.3s.2.5.2.5c-.1 0-.2-.8-1.2-1.7s-2.9-1.8-5.3-1.7c-1.2.1-2.5.5-3.8 1-1.3.6-2.6 1.4-4 2.2s-2.9 1.7-4.6 2.2c-1.7.6-3.6.9-5.5.3-1.9-.5-3.4-1.7-4.8-2.7s-2.8-2-4.3-2.5-3.1-.4-4.4.1-2.4 1.3-3.1 2.3-1.1 2-1.3 2.9-.1 1.8.2 2.4.8.8 1.2.9c.4.3.6.3.6.3zm48.6 21.2s.3-.4.7-1.1.9-1.9.9-3.4c0-.7 0-1.6-.3-2.4-.2-.8-.7-1.7-1.3-2.5l-1.8-2.6c-.6-.9-1.1-2.1-1-3.3 0-1.2.6-2.3 1.1-3.3s.9-2 .9-2.9c0-2-1.1-3.6-2.3-4.4-1.3-.8-2.6-.8-3.4-.7s-1.3.4-1.3.3c0 0 .1-.1.3-.2s.5-.2.9-.3c.8-.2 2.2-.2 3.6.6s2.6 2.5 2.6 4.6c0 1.1-.4 2.1-.9 3.1s-1 2-1 3.1.4 2.2 1 3.1l1.8 2.6c.6.8 1 1.7 1.3 2.6s.3 1.8.3 2.5c-.1 1.6-.6 2.7-1.1 3.5-.2.4-.4.6-.6.8-.3.2-.4.3-.4.3z" fill="#455a64"/><g class="B"><path d="M96.1 292.1c-.1 0 0-.7-.3-2-.3-1.2-1.1-3-3-4.4-.9-.7-2.1-1.3-3.4-1.5s-2.8-.2-4.2.4c-.7.2-1.4.6-2 1.1s-1.2 1-1.7 1.7c-1 1.3-1.5 3-1.5 4.7s.6 3.4 1.5 4.7c.5.7 1 1.2 1.7 1.7.6.5 1.3.8 2 1.1 1.4.5 2.9.6 4.2.4s2.5-.8 3.4-1.5c1.8-1.4 2.7-3.2 3-4.4.3-1.3.3-2 .3-2s.1.7-.2 2-1.1 3.1-3 4.6c-.9.7-2.1 1.3-3.5 1.6-1.4.2-2.9.2-4.4-.3-.7-.3-1.5-.6-2.1-1.1a7.69 7.69 0 0 1-1.8-1.8c-1-1.4-1.6-3.1-1.6-4.9s.6-3.6 1.6-4.9a7.69 7.69 0 0 1 1.8-1.8c.7-.5 1.4-.9 2.1-1.1 1.5-.6 3-.6 4.4-.3s2.6.9 3.5 1.6c1.9 1.5 2.7 3.3 3 4.6.3 1.1.2 1.8.2 1.8zm18.7 0c-.1 0 0-.7-.3-2-.3-1.2-1.1-3-3-4.4-.9-.7-2.1-1.3-3.4-1.5s-2.8-.2-4.2.4c-.7.2-1.4.6-2 1.1s-1.2 1-1.7 1.7c-1 1.3-1.5 3-1.5 4.7s.6 3.4 1.5 4.7c.5.7 1 1.2 1.7 1.7.6.5 1.3.8 2 1.1 1.4.5 2.9.6 4.2.4s2.5-.8 3.4-1.5c1.8-1.4 2.7-3.2 3-4.4.3-1.3.2-2 .3-2 0 0 .1.7-.2 2s-1.1 3.1-3 4.6c-.9.7-2.1 1.3-3.5 1.6-1.4.2-2.9.2-4.4-.3-.7-.3-1.5-.6-2.1-1.1a7.69 7.69 0 0 1-1.8-1.8c-1-1.4-1.6-3.1-1.6-4.9s.6-3.6 1.6-4.9a7.69 7.69 0 0 1 1.8-1.8c.7-.5 1.4-.9 2.1-1.1 1.5-.6 3-.6 4.4-.3s2.6.9 3.5 1.6c1.9 1.5 2.7 3.3 3 4.6.3 1.1.2 1.8.2 1.8z"/><path d="M98.9 290.7h0c0 .1 0 .1 0 0h0c-.2.2-.7.2-1.3.2-.8 0-1.5-.1-1.5-.2s.7-.2 1.5-.2c.5 0 1.1.1 1.3.2h0zm25.7 1.8c0 .1-2.2 0-5-.2l-5-.6c0-.1 2.2 0 5 .2l5 .6zM104.1 304s.2.5.1 1.3-.6 1.9-1.6 2.7-2.2 1-2.9 1c-.8 0-1.3-.3-1.2-.3 0-.1.5.1 1.2 0 .7 0 1.8-.3 2.7-1s1.3-1.7 1.5-2.4c.2-.8.1-1.3.2-1.3zm-31.5 57v3.9l.1 10.6c0 8.9-.3 21.2-1 34.8l-1.9 34.8-.5 10.5c-.1 1.2-.1 2.2-.1 2.9v.7-.7c0-.7 0-1.6.1-2.9l.4-10.5 1.8-34.8c.7-13.6 1-25.9 1.1-34.8l.1-10.6v-3.6c-.1-.2-.1-.3-.1-.3z"/></g><path d="M149.4 347.3c-4.3-4.9-12.6-5.7-16.3-3s-5.8 7.2-6.1 11.8c-.4 4.6.8 9.1 2.5 13.3 2.8 6.8 6.9 12.2 13.1 19.2l15.9 20.8-30.6 29.9 12.7 20 26-21 21.5-22.8" class="C"/><path d="M38.6 411.6s.6-.4 1.6-.8c1.1-.4 2.6-.7 4.4-.6 1.7.1 3.3.6 4.3 1.1s1.6.9 1.6 1-.6-.3-1.7-.7c-1-.4-2.5-.8-4.2-.9s-3.2.2-4.3.5c-1 .1-1.6.4-1.7.4z" class="B"/><path d="M153.5 352h0c-10.7-14.1-22.2-13-28.1-13.1v-6.2c-4.3 0-10.2 3.9-13.3 6.7l-3 4.2c-1.6-4.6-5.2-8.2-9.9-9.7-2.8-.9-5.1-1.1-5.1-1.1v5.6c-14.4.4-22 4.3-31.6 15.4-.5.6-1.5 1.5-2.6 2.7h0l-28.4 33.3c-5.8 6.4-11.1 15.3-9.9 23.8h0c1.4 9.7 7 16 17.8 23.3l29.9 19.4-.1 3.3h71.3s48.3-35.7 49.5-48.9c.9-10.6-15.8-32.7-36.5-58.7zm-83 75.7l-20.9-15.6 22.6-23.4-1.7 39zM139 429l-.6-11.5 3-30.3c6 6.8 17 20.4 17 22.4L139 429z" class="C"/><g class="B"><path d="M125.4 338.9l-.5.9-1.6 2.5c-1.4 2.1-3.5 4.8-6.3 7.5l-2 1.9-.3.3v-.5c0-1.5-.4-3-1-4.1-.6-1.2-1.3-2.1-2-2.8s-1.3-1.2-1.8-1.3-.8.2-.8.1c0 0 .2-.3.8-.3.6.1 1.3.6 2 1.2.7.7 1.5 1.6 2.1 2.8s1 2.7 1.1 4.3l-.3-.1c.7-.6 1.3-1.3 2-1.9 2.7-2.7 4.8-5.4 6.3-7.4l1.8-2.4.5-.7z"/><path d="M94.1 338.2s.2.2.6.7c.4.6 1 1.3 1.6 2.1l5.1 7 1.3 1.8-.4.1c.5-1.3.9-2.6 1.6-3.7.6-1.1 1.5-1.8 2.3-2.3.8-.4 1.6-.6 2.1-.6s.8.1.8.1h-.8c-.5 0-1.2.2-1.9.7-.8.4-1.5 1.2-2.1 2.2s-1.1 2.3-1.5 3.6l-.1.4-.2-.3-1.3-1.8-5-7.1-1.5-2.2c-.4-.4-.6-.7-.6-.7z"/></g><path d="M109.1 343.5c2.4 2.4 3.6 6.4 3.1 9.8-.2 1.2-.3 2.7.8 3.1.8.3 1.6-.2 2.2-.7 4.6-3.7 8.5-8.4 11.2-13.7.2-.4.5-.9.4-1.4 0-.5-.4-1-.9-.9-.3 0-.6.3-.8.6l-10.3 11.6c.1-2.2-.5-4.3-1.8-5.9-1.4-1.7-2.8-3.3-3.9-2.5" opacity=".1"/><path d="M139.6 458.1s-.1-.1-.2-.3l-.7-1-2.4-3.8-8.4-13.2-.1-.1.1-.1 23.7-23.4 4.9-4.8c.6-.5 1-1 1.4-1.3.3-.3.5-.4.5-.4s-.1.2-.4.5l-1.3 1.4-21 21-7.5 7.4v-.2l8.2 13.3 2.3 3.8c.3.4.5.8.6 1 .2.1.3.2.3.2zm-8.8-111.2s0 .1-.1.2-.2.3-.4.4l-1.4 1.7c-1.1 1.5-2.5 3.9-3 7.3-.5 3.3 0 7.4 1.8 11.5.9 2 2 4.1 3.5 6l4.7 5.8c6.4 8.1 11.9 15.6 16 21l4.8 6.4c.5.7 1 1.3 1.3 1.7.1.2.2.3.3.5.1.1.1.2.1.2s-.1 0-.1-.1c-.1-.1-.2-.3-.4-.4-.3-.4-.8-1-1.4-1.7l-4.9-6.3-16.1-20.9-4.7-5.9c-1.5-1.9-2.6-4-3.5-6.1-1.8-4.1-2.3-8.3-1.7-11.7s2.1-5.8 3.2-7.3c.6-.7 1.1-1.3 1.4-1.6l.4-.4c.2-.2.2-.3.2-.3z" class="B"/><path d="M157.6 357.2l-1.2.6c-.7.4-1.8 1.1-2.8 2.2-1.1 1.1-2.1 2.5-3.2 4.2s-2.1 3.7-3.5 5.5c-1.4 1.9-3.2 3.3-5.1 4.2-1.8.9-3.7 1.2-5.2 1.3s-2.8-.1-3.6-.3c-.4-.1-.7-.2-.9-.3s-.3-.1-.3-.1c0-.1 1.8.7 4.9.5 1.5-.1 3.3-.5 5.1-1.4s3.5-2.3 4.9-4.1 2.5-3.8 3.6-5.5 2.2-3.2 3.3-4.3 2.2-1.7 3-2.1l.9-.4h.1zM138.7 427h-.2c-.1 0-.3-.1-.5-.1-.2-.1-.5-.1-.9-.2-.3-.1-.8-.1-1.2-.1-1.8-.2-4.5.1-7.7 1l-5 1.8-5.6 2.7c-2 .9-4.1 1.8-6.4 2.4-1.2.3-2.4.5-3.6.6s-2.5 0-3.8-.3c-2.5-.5-4.8-1.6-6.8-2.8s-3.9-2.6-5.6-3.9c-3.5-2.6-6.8-4.8-9.9-5.7-1.6-.5-3-.7-4.3-.7s-2.4.2-3.3.4c-1.8.5-2.6 1.1-2.6 1.1l.2-.1c.1-.1.3-.2.5-.3.4-.2 1.1-.6 2-.8.9-.3 2-.5 3.3-.5s2.8.2 4.4.7c3.2.9 6.6 3.1 10.1 5.7 1.8 1.3 3.6 2.7 5.6 3.9s4.3 2.3 6.7 2.8c1.2.2 2.4.3 3.7.3 1.2-.1 2.4-.3 3.5-.6 2.3-.6 4.4-1.5 6.4-2.4s3.8-1.9 5.6-2.7 3.5-1.4 5.1-1.8c3.2-.9 5.9-1.1 7.8-.9 1.5.1 2.5.5 2.5.5zm-78.6-7s0 .1.1.3c0 .2.1.4.1.8.1.7.1 1.7-.1 2.9a9.97 9.97 0 0 1-1.7 4.1c-.9 1.4-2.4 2.5-4.1 3.5l-4.5 2.7c-1.3.9-2.4 2-3.1 3s-.9 2-.9 2.7.1 1.1.1 1.1 0-.1-.1-.3-.1-.4-.1-.8c0-.7.1-1.8.8-2.8.7-1.1 1.8-2.1 3.1-3.1s2.9-1.8 4.6-2.8c1.6-1 3.1-2 4-3.4.9-1.3 1.4-2.7 1.7-3.9.2-1.2.3-2.2.3-2.9-.2-.7-.2-1.1-.2-1.1zM180 387.1c0 .1-2 .1-4.7 1.5-1.4.7-2.9 1.7-4.2 3.2-.7.7-1.3 1.6-1.8 2.6l-1.4 3.1c-.5 1.1-1.2 2.1-2.1 2.8s-1.9 1.2-2.8 1.6c-2 .7-3.9.7-5.4.7l-3.6-.4c-.9-.1-1.3-.2-1.3-.3 0 0 .5 0 1.3.1.9.1 2.1.3 3.6.3s3.4 0 5.3-.7 3.8-2 4.7-4.2l1.4-3.1c.5-1 1.2-1.9 1.9-2.6 1.4-1.5 3-2.6 4.4-3.2 1.4-.7 2.6-1 3.5-1.1.4-.1.8-.1 1-.1.1-.2.2-.2.2-.2zm-39.5 6.7s-.1 0-.2.1c-.1 0-.3.1-.5.1l-2.1.4c-1.8.3-4.5.6-7.8.6-3.3-.1-7.3-.5-11.5-1.9-2.1-.7-4.2-1.8-6.2-2.9-2.1-1.1-4.2-2.4-6.6-3.2-1.2-.4-2.4-.7-3.6-.8s-2.4-.1-3.6.2c-2.3.4-4.4 1.3-6.4 2.3-3.9 2-7.1 4.3-10 5.9s-5.5 2.5-7.3 2.9c-.9.2-1.6.2-2.1.2H72c.1 0 .3 0 .6-.1.5-.1 1.2-.1 2.1-.3 1.8-.4 4.3-1.3 7.2-2.9s6.1-3.9 10-6c2-1 4.1-1.9 6.5-2.4 1.2-.2 2.4-.3 3.7-.2 1.2.1 2.5.4 3.7.8 2.4.9 4.6 2.1 6.7 3.3s4.1 2.2 6.2 2.9c4.1 1.5 8.1 1.9 11.4 2s6-.2 7.8-.4c.9-.1 1.6-.2 2.1-.3.2 0 .4-.1.5-.1v-.2zm-77.6 4.6c-.1 0 .2-.5 0-1.2-.2-.8-1.1-1.7-2.5-2-.7-.2-1.5-.3-2.3-.5s-1.8-.5-2.5-1.2c-.8-.7-1.3-1.6-1.8-2.5-.4-1-.7-2.1-.9-3.2a15.83 15.83 0 0 0-.9-3.1c-.4-1-.9-1.8-1.5-2.6a11.01 11.01 0 0 0-3.8-3.2c-1.3-.7-2.4-1-3.2-1.1-.8-.2-1.2-.2-1.2-.2h.3c.2 0 .5 0 .9.1.8.1 2 .4 3.3 1s2.8 1.7 4 3.3c.6.8 1.1 1.7 1.6 2.6.4 1 .7 2.1.9 3.2a15.83 15.83 0 0 0 .9 3.1c.4.9.9 1.8 1.6 2.4s1.6.9 2.4 1.1 1.6.3 2.3.6c1.4.4 2.4 1.4 2.6 2.3.1.4.1.7 0 1-.2 0-.2.1-.2.1zm62.7-40.7c0 .1-.8-.6-2.3-.9-.8-.2-1.8-.3-2.9 0-1.1.2-2.4.6-3.7 1.2l-4.3 2.2c-1.5.8-3.2 1.6-5.1 2.1s-4 .5-6.1.2a23.9 23.9 0 0 1-6.2-2.1c-4.1-2-7.4-4.6-10.7-6.7-3.2-2.1-6.4-3.6-9.3-4.2-2.8-.7-5.3-.5-6.8-.1-1.6.4-2.4.8-2.4.8s.8-.5 2.4-.9 4-.7 6.9 0c2.9.6 6.1 2.1 9.4 4.2s6.7 4.7 10.7 6.6c2 1 4.1 1.7 6.1 2 2.1.3 4.1.3 5.9-.2 1.9-.5 3.5-1.3 5-2.1s2.9-1.6 4.3-2.1c1.3-.6 2.6-1 3.8-1.2s2.2-.1 3 .1 1.4.5 1.8.7c.3.2.5.3.5.4z" class="G"/><path fill="#ffbf9d" d="M121.1 458.5c.8.4-.1 0 2.2 1.1H136l2.6-2.1-9.3-15.3c-1.1.5-6.1 1.3-7.7 1.8-1.4.5-2.9.7-4.3.7-1.6 0-3.6-.1-4.9-.4-.1 0-.2-.1-.3-.1-.2-.1-.5-.1-.7-.1-1.4-.1-2.5 1.3-1.7 2.5s4.5 2.7 9.3 2.5h.2c4.2 0 .3 3.5-2.1 5.6-.9.7-1.4 1.9-1.2 3 .1.4.2.8.6 1 1 .8 4.6-.2 4.6-.2z"/><path d="M69.3 456.6v-.9l.1-2.5 1.7-40 1-30.7.2-9.3.1-2.5v-.7 3.2l-.1 9.3c-.1 7.9-.4 18.7-.9 30.7L70 443.9l-.5 9.3c-.1 1.1-.1 1.9-.2 2.5 0 .3 0 .5-.1.7.1.1.1.2.1.2zm34.5 1.5v-.3c0-.2 0-.5-.1-.9-.1-.8-.1-1.9-.2-3.3l-.3-5.3-.2-7-.1-8.5v-4.7l.1-5c.2-6.9.6-14.4 1.1-22.3l3.4-40.5 1.1-12.3c.1-1.4.2-2.5.3-3.3 0-.4.1-.7.1-.9v-.3 1.2c0 .8-.1 1.9-.2 3.3l-.9 12.3-3.3 40.5c-.6 7.9-.9 15.5-1.1 22.3 0 1.7-.1 3.4-.1 5s0 3.2-.1 4.7c-.1 3.1 0 5.9 0 8.5s.1 4.9.2 7a75.99 75.99 0 0 0 .2 5.3c.1 1.4.1 2.6.2 3.3v.9c0 .2 0 .3-.1.3zm5.9-78.2s.4-.2.9.2a1.53 1.53 0 0 1 .4 1c0 .5-.5.8-1 .9s-1-.1-1.2-.5-.1-.8 0-1.1c.4-.6.9-.6.9-.5s-.4.2-.6.6c-.1.2-.1.5 0 .8a.76.76 0 0 0 .8.3c.3-.1.6-.3.7-.6s-.1-.6-.2-.7c-.3-.4-.7-.4-.7-.4zm-2.2 35.6s.4-.2.9.2a1.53 1.53 0 0 1 .4 1c0 .5-.5.8-1 .9s-1-.1-1.2-.5-.1-.8 0-1.1c.3-.6.8-.5.9-.5 0 .1-.4.2-.6.6-.1.2-.1.5 0 .8a.76.76 0 0 0 .8.3c.3-.1.6-.3.7-.6s-.1-.6-.2-.7c-.4-.4-.7-.3-.7-.4z" class="B"/><path d="M164.4 440s-.4 0-1.1-.1-1.7-.4-2.8-.9c-2.3-1-5.2-3.1-7.2-6.4-1-1.7-1.5-3.4-2-5-.5-1.5-1.1-2.9-1.8-3.9s-1.4-1.7-2-2c-.6-.4-.9-.5-.9-.5s.1 0 .3.1.4.2.7.3c.6.3 1.4 1 2.2 2s1.4 2.4 1.9 3.9 1 3.3 2 4.9c1.9 3.2 4.7 5.3 6.9 6.3 2.3 1.1 3.9 1.2 3.8 1.3z" class="G"/><g class="H"><path d="M245.8 459.6l-13.5-39.2 6.2-37.6c1.8-10.1 2.8-19.1.1-24.2-7.3-13.6-16.1-14.8-28.1-17.9-2.5-.6-21.3-1.3-23.4-.8-16.4 1.8-26.8 10.5-32.5 24.6l-6.2 25.1-8.6 26.2c-1.6 3.2-4.3 5.4-7.5 6.1l-33 11.3.3 6.5-.3 8.7 43.9-8.2c8.8-1.7 17.8-4.9 20.3-13.4l4.7-14c2.3 5.9 4.8 11.4 4.8 11.4l-3.2 35.3 76 .1z"/><path d="M234.5 390l-12.6 42c-1.9 6.5-7 11.6-13.5 13.6l-52.2 13.9-6.9-18 47.2-17.6 11.6-42s2.7-23.5 23.9-22.3"/></g><g class="B"><path d="M232 359.5h-2.5c-1.6.1-4.1.3-7 1.4-1.4.6-3 1.4-4.5 2.5s-3 2.6-4.3 4.4c-2.6 3.6-4.7 8.4-5.5 13.9h0l-11.5 42v.1h-.1l-47.2 17.6.1-.3c.4 1 .8 2.1 1.2 3.2l5.7 14.8-.2-.1 44.9-11.9c1.7-.5 3.4-.9 5.1-1.3.8-.2 1.7-.4 2.5-.7l2.3-.9c3-1.4 5.6-3.5 7.5-5.9 1-1.2 1.7-2.5 2.4-3.9.6-1.4 1.1-2.8 1.5-4.1l2.4-8 7.2-23.9 2-6.4.5-1.7c.1-.4.2-.6.2-.6s0 .2-.2.6c-.1.4-.3.9-.5 1.7-.4 1.5-1.1 3.7-1.9 6.5l-7.1 23.9c-.8 2.5-1.5 5.2-2.4 8-.4 1.4-.8 2.8-1.5 4.2-.6 1.4-1.4 2.7-2.4 4-1.9 2.5-4.5 4.6-7.6 6-.8.3-1.6.7-2.4.9s-1.6.4-2.5.7c-1.7.4-3.4.9-5.1 1.4l-44.9 12h-.2l-.1-.2-5.7-14.8-1.2-3.2-.1-.2.2-.1 47.4-17.5-.1.1 11.6-42c.9-5.6 3-10.4 5.6-14 1.3-1.8 2.8-3.3 4.4-4.4 1.5-1.1 3.1-2 4.6-2.5 2.9-1.1 5.4-1.3 7-1.4.8-.1 1.4 0 1.9 0a1.75 1.75 0 0 0 .5.1z"/><path d="M199.1 414.4h-.6c-.4 0-1-.1-1.7-.2-1.4-.3-3.3-1.1-5-2.6s-2.7-3.2-3.2-4.6l-.3-.9c-.1-.3-.1-.5-.2-.7-.1-.4-.1-.6-.1-.6.1 0 .2.9.8 2.2s1.6 3 3.2 4.4 3.4 2.3 4.8 2.6l2.3.4zm-31-31.9s-.1.5-.4 1.2l-1.3 3.3c-1 2.8-2.5 6.8-2.6 11.4-.1 2.3.3 4.5.9 6.3a21.51 21.51 0 0 0 2.2 4.8c.8 1.3 1.5 2.3 2 3s.8 1 .8 1.1c0 0-.1-.1-.3-.2-.2-.2-.4-.4-.6-.7-.5-.6-1.3-1.6-2.1-2.9s-1.6-2.9-2.3-4.8c-.6-1.9-1-4.1-.9-6.5.2-4.7 1.7-8.7 2.8-11.5l1.4-3.3c.2-.8.4-1.2.4-1.2zm33 46.9c-.1 0-.5-1.7-1.9-3.3s-3-2.3-2.9-2.4c0 0 .4.1 1.1.4.6.3 1.4.9 2.2 1.7.7.8 1.2 1.7 1.4 2.4.1.8.2 1.2.1 1.2z"/></g><path fill="#b78876" d="M150.3 443.9s-14.9 1.3-14.7 11l18.6-.9-3.9-10.1z"/><path d="M174.4 281.2c-1.4 6.6-2.7 13.2-3.9 19.9-1.6 8.4-3 17.2-.6 25.4 1.3 4.5 3.7 8.6 6.1 12.7 1.3 2.3 2.8 4.7 5.2 5.8 3.2 1.6 7.3.3 9.8-2.2 2.6-2.5 3.9-6 4.8-9.5 1.7-6.8 2.1-13.8 2.4-20.8.3-7.1.4-14.3-1.5-21-2-6.8-6.4-13.2-13-15.9m-8.3.3c1.9-1.5 4.2-2.3 6.5-2.4 1.9-3.9 6.4-5.6 10.7-6.5 6.2-1.2 5.6-1.4 11.4 1.2s14 9.8 15.1 16c1 5.8 2.7 10.5 5.2 15.8 1.6 3.3 4.7 5.6 6.5 8.7 2 3.4 2.3 7.8.8 11.4s-4.7 6.7-4.4 10.6c.2 2.2.1 3.9 1 5.9 3 7 1.6 16.4-4.9 20.4-6.5 4.1-15.8 2.6-20.8-3.1-4.3-5-5.2-12.2-4.7-18.8.4-6.6 1.9-13.2 1.5-19.8m-16.4 144.1l-.1-2.3-33.7-3.6-14.8-42.4-63.2-1.4 19.1 49.7h92.7z" class="B"/><path d="M106.2 435.2c.9 1.6 2.9 2.1 4.5 1.2s2.1-2.9 1.2-4.5-2.9-2.1-4.5-1.2-2.1 3-1.2 4.5z" class="D"/><path fill="#b78876" d="M198.2 357.1c7.6 0 14.4-6.5 14.2-16.1l1.4-54.8c0-2.4-1.7-4.4-4.1-4.6l-22.6-2.4c-7.8-.8-14.7 5-15.2 12.8-.5 8.7-.9 19.3.2 25.8 2.1 13 12 14.7 12 14.7l-.2 9.1c-.4 9.6 6.8 15.5 14.3 15.5h0z"/><g class="B"><path d="M176.9 299.1c0 .9.7 1.6 1.6 1.7.9 0 1.7-.6 1.7-1.5s-.7-1.6-1.6-1.7-1.6.6-1.7 1.5zm-2.7-1.6c.2.2 1.5-.7 3.3-.7s3.1.9 3.3.7c.1-.1-.1-.5-.7-.9s-1.5-.8-2.6-.8-2.1.4-2.6.8c-.6.4-.8.8-.7.9zm20.1 1.9c0 .9.7 1.6 1.6 1.7.9 0 1.7-.6 1.7-1.5s-.7-1.6-1.6-1.7-1.7.6-1.7 1.5zm-2.5-1.5c.2.2 1.5-.7 3.3-.7s3.1.9 3.3.7c.1-.1-.1-.5-.7-.9s-1.5-.8-2.6-.8-2.1.4-2.6.8c-.6.4-.8.8-.7.9z"/><path d="M185.3 311.2c0-.1-1.1-.3-2.9-.5-.5 0-.9-.1-1-.5-.1-.3.1-.8.3-1.4l1.4-3.5 3-9.1c-.2-.1-1.9 3.9-3.8 8.9l-1.3 3.5c-.2.5-.5 1.1-.2 1.8.1.3.5.6.8.7s.6.1.8.1c1.8.1 2.9.1 2.9 0z"/></g><path d="M184.1 332.4s8.8.6 17.4-4.7c0 0-4.2 8.9-17.3 7.7l-.1-3zm2-16.9c.6-.9 1.8-1.3 2.9-1.2.8.1 1.6.5 2 1.1.5.6.6 1.5.1 2.1-.5.7-1.5.8-2.4.6s-1.6-.8-2.3-1.4c-.2-.2-.4-.3-.5-.5 0-.2 0-.4.2-.7" fill="#aa6550"/><path d="M190.6 312.4c-.3 0-.3 1.9-2 3.3s-3.7 1.2-3.8 1.4c0 .1.5.4 1.3.4.9 0 2.1-.2 3.1-1.1 1-.8 1.5-2 1.5-2.8.3-.7 0-1.2-.1-1.2zm.4-17.7c.2.5 2 .3 4.1.5s3.8.8 4.1.4c.1-.2-.2-.7-.9-1.1-.7-.5-1.8-.9-3-1.1-1.3-.1-2.4.1-3.2.4-.7.3-1.1.7-1.1.9zm-16.2-2.4c.3.4 1.6 0 3 0 1.5-.1 2.7.3 3-.2.1-.2-.1-.6-.6-1s-1.5-.7-2.5-.7-1.9.4-2.4.8c-.4.5-.6.9-.5 1.1zm-2.7-2.5c4.9-2.8 9.7-5.5 12.7-10.2 1.7 4.8 5 7.1 9.4 9.7 4.4 2.5 9.3 4 14.1 5.5-2.5 2.4-2.8 6.2-2.2 9.6s1.9 6.6 2.1 10c.3 4.6-1.4 9-1.5 13.6-.1 6.3 2.6 12.2 5.3 17.8l11.8-6.9-1.7-30.6.1-21.6-18.3-17-23.2 2.5-8.6 17.6z" class="B"/><path d="M169.5 354.1c6 6 5.3 16.8 11.9 22.2 4 3.3 9.9 3.6 14.8 1.9s9.1-5 12.9-8.6 7.4-7.4 11.7-10.3c4.2-2.8 11.4-4.5 12.4-9.5.7-3.6-3.1-8-3.8-11.6-1.1-5.8 5.1-10.2 6.1-16 2.1-11.6-4-25.1-10.4-35s-9.9-20.9-26-21.9c-14.4-.6-24.2 6.3-29 16.3-2.4 5-3 10.7-3.4 16.2-1.1 13-1.7 26.7 4.3 38.2 1.2 2.4 2.7 5.4 1 7.5-1.5 1.9-5 1.9-5.9 4.1-.9 2.5 1.6 4.6 3.4 6.5zm18-76.8c1.9-.1 7.7 0 14 8.5 3.8 5.1 3.8 13.3 3.7 20.5-.1 5.3 0 18.9 0 18.9s.8 17.1-5 18.6c-7.1 1.9-13.4.6-18.7-4.5s-8.4-12.2-9.6-19.5-1.9-14.7-.9-22c.6-4.3 2-9 4.4-12.7 4.8-7.1 12.1-7.8 12.1-7.8z" class="C"/><path d="M232 344.2c-4.8 2.6-8.1 6.4-11.9 10.2-3.9 3.8-8.2 7.5-13.5 8.8-5.3 1.4-11.7-.3-14.3-5 14.9 2.5 32.2-9.4 37.3-23.6 0 0-.6 2-.1 3.8.6 1.8 2.5 5.8 2.5 5.8zm-59.2-3.9c1 3.8 3.7 7.3 7.2 9.1.8.4 1.6.7 2.3 1.3s1 1.6.7 2.4c-.4.9-1.6 1.2-2.6.9s-1.7-1-2.4-1.7c-2.6-2.5-5.3-5-6-8.6 0 0 .8-.9.9-1.8 0-.7-.1-1.6-.1-1.6z" opacity=".3"/><path d="M228.5 337.5s-.1.2-.2.5c-.2.3-.4.7-.7 1.3-.6 1.1-1.7 2.7-3.1 4.5s-3.2 3.9-5.4 5.9-4.9 4.1-8.1 5.6c-1.6.7-3.2 1.3-4.8 1.7-1.6.5-3.1.8-4.6 1-3 .5-5.8.5-8 .3-2.3-.2-4.1-.6-5.3-1l-1.4-.5c-.3-.1-.5-.2-.5-.2l1.9.5a33.37 33.37 0 0 0 5.3.9c2.3.2 5 .1 8-.4 1.5-.2 3-.6 4.6-1l4.8-1.7c3.1-1.5 5.8-3.5 8-5.5s4-4.1 5.5-5.8l3.2-4.4c.4-.5.6-1 .8-1.2-.1-.3 0-.5 0-.5zm-36.6 14.7s-.3.1-.9.2-1.5.2-2.7.2c-2.2 0-5.4-.5-8.4-2.3s-5-4.4-6-6.4c-.5-1-.9-1.9-1-2.5-.2-.6-.3-.9-.2-1 .1 0 .4 1.3 1.5 3.3 1.1 1.9 3.1 4.4 6 6.1s6 2.3 8.2 2.4c2.1.3 3.5 0 3.5 0zm-3.1 19.7s.2-.1.5-.1c.3-.1.8-.1 1.3-.3 1.2-.2 2.8-.7 4.8-1.3 4-1.3 9.3-3.9 14.5-7.8 5.2-3.8 9.5-7.9 12.5-10.8 1.5-1.4 2.7-2.6 3.6-3.5.4-.4.7-.7 1-.9.2-.2.4-.3.4-.3s-.1.1-.3.4-.6.6-.9 1c-.8.9-2 2.1-3.5 3.6-3 3-7.2 7.1-12.5 10.9-5.2 3.8-10.6 6.4-14.7 7.7-2 .6-3.7 1-4.9 1.2-.6.1-1 .2-1.4.2-.2 0-.4.1-.4 0z" class="B"/><path d="M468.6 388.6l-28-33.1-.1.1-2.6-2.6c-9.7-11.2-17.4-15.1-32.3-15.3h0l-28.9.6c-5.4.4-17.6-1.9-28.8 13.1h0c-20.5 25.7-37 47.6-36.1 57.9 1.2 13.1 51 50.3 51 50.3l68.5-.1-.1-5.2 29.6-19.2c10.7-7.2 16.2-13.5 17.6-23 1.2-8.4-4.1-17.1-9.8-23.5zm-125.5 19.7c0-2 10.8-14.7 16.7-21.4l3.1 29.3-.6 11.4-19.2-19.3zm86.9 18l-1.7-38.5 22.3 23.1-20.6 15.4z" class="H"/><path fill="#e0e0e0" d="M405.3 443.1l-49.4 24.4c-1.7.8-3.7.1-4.6-1.6L335.6 434c-.8-1.7-.1-3.7 1.6-4.6l49.4-24.4c1.7-.8 3.7-.1 4.6 1.6l15.7 31.9c.8 1.7.1 3.8-1.6 4.6z"/><path d="M371 433.2a3.18 3.18 0 0 1 4.3 1c.9 1.4.4 3.4-1 4.3a3.18 3.18 0 0 1-4.3-1c-1-1.5-.5-3.4 1-4.3z" class="D"/><path d="M427.9 360.3v3.8l.1 10.4c0 8.8.4 21 1.1 34.4l1.8 34.4.4 10.4c0 1.2.1 2.2.1 2.8v.7-.7c0-.7-.1-1.6-.1-2.8l-.5-10.4-1.9-34.4c-.7-13.4-1-25.6-1-34.4l.1-10.4v-3.5c-.1-.2-.1-.3-.1-.3z" class="B"/><path d="M356.6 343c3.7-2.7 7.9-1.9 11.6.8 3.7 2.6 5.7 7.2 6.1 11.7s-.8 9-2.5 13.2c-2.8 6.7-6.8 12.1-12.9 19l-15.7 20.6 30.3 29.6-12.6 19.8-25.4-20.4c-8.7-7.3-16-14.8-21.5-22.5" class="H"/><path d="M314 414.7l.2.2c.1.2.3.4.5.7l2.1 2.7c1.9 2.4 4.8 5.7 8.8 9.7 2 2 4.3 4.1 6.8 6.3s5.4 4.5 8.4 6.9l20.2 16.2h-.3l12.5-19.8v.3l-15.6-15.3-14.8-14.4.1-.1 15.7-20.6c3.1-3.5 5.9-6.9 8.3-10.4s4.2-7.1 5.5-10.7 1.9-7.1 1.7-10.4-1.2-6.2-2.7-8.5-3.5-3.9-5.4-4.8c-1.9-1-3.8-1.3-5.2-1.2-1.5.1-2.5.6-3.2 1s-1 .6-1 .6l.2-.2c.2-.1.4-.3.7-.5.7-.4 1.7-.9 3.2-1s3.4.1 5.3 1.1 4 2.5 5.5 4.9c1.5 2.3 2.6 5.3 2.8 8.6s-.4 6.9-1.7 10.5-3.1 7.3-5.5 10.8-5.2 7-8.3 10.5h0l-15.7 20.6v-.3l14.7 14.3 15.7 15.4-.1.1-12.6 19.8-.1.2-.2-.1-20.1-16.2-8.4-6.9c-2.5-2.2-4.8-4.4-6.8-6.4-4-4-6.8-7.4-8.7-9.8l-2.1-2.8c-.2-.3-.4-.6-.5-.7.2-.2.1-.3.1-.3zm147.6-4.4c0 .1-.6-.2-1.6-.5s-2.4-.6-3.9-.5-2.9.5-3.8.9l-1.5.7s.5-.4 1.4-.9 2.3-1 3.9-1.1 3 .3 4 .6c.9.4 1.5.7 1.5.8z" class="B"/><path d="M379.6 456.7l-5.5 2.7c-2.7 1.4-6 1-8.4-.9l-3.5-2.8 9.5-15c1.1.5 5.7 1.1 7.3 1.7 1.4.5 2.8.7 4.3.7s3.5-.1 4.8-.4c.1 0 .2-.1.3-.1.2-.1.5-.1.7-.1 1.4-.1 2.4 1.3 1.7 2.4-.8 1.2-4.5 2.6-9.2 2.5h-.2c-4.2 0-.3 3.5 2.1 5.6.9.7 1.4 1.9 1.2 3-.1.4-.2.8-.6 1-.9.7-4.5-.3-4.5-.3zm12.8-105.2c-7.3 0-13.9-6.2-13.8-15.5l-1.3-52.8h.1c0-2.3 1.7-4.2 4-4.5l21.8-2.3c7.5-.8 14.1 4.8 14.6 12.4.5 8.4.8 18.6-.2 24.9-2 12.6-11.6 14.2-11.6 14.2l.2 8.8c.4 9.2-6.6 14.8-13.8 14.8h0z" fill="#b66851"/><g class="B"><path d="M412.9 295.6a1.58 1.58 0 0 1-1.6 1.6c-.9 0-1.6-.6-1.7-1.5a1.58 1.58 0 0 1 1.6-1.6c.9 0 1.6.6 1.7 1.5zm2.6-1.5c-.2.2-1.4-.7-3.2-.7-1.7 0-3 .9-3.2.7-.1-.1.1-.5.7-.9.5-.4 1.5-.8 2.6-.8s2 .4 2.5.8.7.8.6.9zm-19.4 1.8a1.58 1.58 0 0 1-1.6 1.6c-.9 0-1.6-.6-1.7-1.5a1.58 1.58 0 0 1 1.6-1.6c1 0 1.7.6 1.7 1.5zm2.4-1.5c-.2.2-1.4-.7-3.2-.7-1.7 0-3 .9-3.2.7-.1-.1.1-.5.7-.9.5-.4 1.5-.8 2.6-.8s2 .4 2.5.8.7.8.6.9z"/><path d="M404.8 307.2c0-.1 1.1-.3 2.8-.5.4 0 .9-.1.9-.4.1-.3-.1-.8-.3-1.3l-1.3-3.4-2.9-8.8c.2-.1 1.8 3.8 3.6 8.6l1.3 3.4c.2.5.5 1.1.2 1.7-.1.3-.4.6-.7.6-.3.1-.5.1-.8.1-1.7.1-2.8.1-2.8 0z"/></g><path fill="#a24f35" d="M406 327.8s-8.4.5-16.8-4.5c0 0 4.4 9.4 16.9 8.3l-.1-3.8z"/><path d="M399.3 291.4c-.2.5-1.9.2-3.9.5-2 .2-3.7.8-3.9.4-.1-.2.2-.6.8-1.1.7-.5 1.7-.9 2.9-1s2.3.1 3.1.4c.7.2 1 .5 1 .8zm15.6-2.3c-.3.4-1.5 0-2.9 0-1.4-.1-2.7.3-2.9-.1-.1-.2.1-.6.6-1s1.4-.7 2.4-.6a3.71 3.71 0 0 1 2.3.8c.5.3.6.7.5.9zm-37.5 6.1c2.1-.4 3.8.3 4.4 2.4.9 3.1.3 4.7.4 6.8l3.2-1c-.8-7.2 1-12.6.2-19.8 4.4 1.4 10.5-1.3 12.4-5.9 3.7 2.8 9.1 3.2 13.1.9 1.2 2.2 3.8 3 5.4 2.5 2.4-.7 4.9-4.1 5.6-6.5 1.2-4.3.6-10.5-2.9-13.4-3.5-2.8-10.6-2.1-13.3 1.4-1.1 1.4-1.2 4-2.9 4.4-1.5.3-3-.8-4.4-1.5-4.4-2.2-10.5.7-11.6 5.5-3.7-2.2-8.1-3.6-12.3-2.4-4.1 1.2-7.4 5.8-6 9.8.6 1.7 1.9 3.2 2 4.9.3 3.5-3.9 6.6-2.5 9.8.7 1.8 2.9 2.6 3.9 4.3 1.1 1.9.4 4.2.5 6.4.1 3.6 2 9 5.5 10" class="B"/><path fill="#b66851" d="M377.7 295.1c-1.3.1-1.9 1-2.4 1.9s-.7 2-.6 3.1c0 1.7.4 3.4 1.5 4.6s3 1.8 4.5 1.1"/><path fill="#a24f35" d="M379.9 303.1s-.5.2-1.2 0c-.4-.1-.8-.4-1.1-.8s-.5-1-.6-1.5c0-.6.1-1.2.3-1.6.2-.5.6-.8.9-1 .6-.4 1.2-.4 1.2-.4 0 .1-.4.1-1 .6a2.86 2.86 0 0 0-1 2.4c.1 1.1.7 1.8 1.4 2.1a3.86 3.86 0 0 0 1.1.2z"/><path d="M399.3 313.4c1.5 1.1 4.6.5 5.7-1.1a29.03 29.03 0 0 1-6.6-4.9c-.1 0-2.3 3.8.9 6z" class="G"/><path d="M385.1 367.9c3.5-4.9 7.4-12.1 9.1-15.4 3.3-6.3 2.7-6.6 1.9-6.9-2.1-.7-6.2 10.8-6.7 7.8s6.6-13.5 4.4-14.2c-2.9-.9-7 11.3-7.4 12.3s-1.9.4-1.4-.5c.6-1.3 6.7-14.8 3.8-15.7-1.6-.5-2.2 2.5-2.2 2.5s-4.8 13.1-6.1 12.6c-1.4-.5 1.2-8.3 2.2-10.8s.3-4.1-1.2-3.6c-1 .3-4.4 8.1-5.4 10.6-1 2.6-3.5 9.6-5.1 5 0-.1-.1-.1-.1-.2-1.4-4.5-4-7.6-5.3-7.9-1.3-.4-2.3 1.1-1.8 2.4l.3.6c.1.1.1.2.2.3.7 1.2 1.4 3 1.9 4.5.5 1.4.7 2.8.7 4.3 0 1.7.8 6.6.7 7.8" class="I"/><path d="M367.1 361.5l-19.2 38.1s-10.9-31.4-16.7-43.9c-2.2-4.8-6.7-8.1-11-10.3v-.1c-.3-.1-.6-.2-.9-.4-4.8-2.3-9.2-3.2-9.7-3.3-20.3-5.8-39.4-3.8-61.5 4 0 0-11.5 3.1-17 18.1-5 13.5-10.6 34.1-11.6 37.8-6.9 23.2 2.9 36.1 16.6 34.5 5.6-.9 10.4-5.5 12.6-7.4l7.2-6.8.2 5.3-8.1 32.5 83.2-.2-15-38.5 3.3-17.7 5.7 13.6c3.6 8.6 12 14.3 21.4 14.6 9.5.2 18.3-5.3 22.2-14l19.5-49-21.2-6.9z" class="C"/><g class="B"><path d="M266.8 409s-.2.4-.7 1.1l-2.2 2.8c-1.9 2.3-4.7 5.4-7.9 8.7s-6.3 6.1-8.5 8.1c-1.1 1-2.1 1.7-2.7 2.3-.7.5-1 .8-1.1.8 0 0 .3-.3 1-.9.6-.5 1.5-1.3 2.7-2.4 2.2-2 5.2-4.9 8.4-8.1 3.2-3.3 6-6.3 8-8.6 1-1.1 1.8-2.1 2.3-2.7.4-.7.7-1.1.7-1.1zm49.5 10.7v-.4c.1-.3.1-.8.2-1.3l.9-4.6c.7-3.9 1.7-9.3 2.5-15.3.2-1.5.4-3 .5-4.4.2-1.4.3-2.8.2-4.1-.1-2.6-.6-4.9-1-6.9l-1-4.6c-.1-.5-.2-1-.2-1.3v-.4s0 .2.1.4c.1.3.1.7.3 1.2l1.2 4.6c.5 1.9 1 4.3 1.1 6.9.1 1.3 0 2.7-.2 4.1s-.3 2.9-.5 4.4c-.8 6-1.8 11.4-2.7 15.3-.4 1.9-.7 3.5-1 4.6-.1.5-.2.9-.3 1.2 0 .4 0 .6-.1.6zm29.8-10.7c-.1 0 .2-2.1.7-4.7l1.1-4.6c.1 0-.2 2.1-.7 4.7l-1.1 4.6z"/><path d="M349.1 410.1c-.1 0-.5-2.4-.8-5.4l-.4-5.4c.1 0 .5 2.4.8 5.4l.4 5.4zm-61.4 49.3c-.1 0-.2-12.8-.2-28.5l.2-28.5c.1 0 .2 12.8.2 28.5l-.2 28.5z"/></g><path d="M318.9 378.8c3.9 7.5 7.3 14.9 7.6 23.3.2 6.6-2.4 12 .3 18-.1.1-2.4-5-3.5-7.5l-4-9.4 1.6-13.1c.2-1.9-2-11.3-2-11.3zm-96.5 38c0 3.7-2.3-8.6-.1-11.7 1.5-2.1 4.2-3.2 6.7-3.8s5.2-1 7.5-2.4c2.9-1.7 4.8-4.7 6.8-7.4 2.1-2.7 4.8-14.1 8.1-14.3v16.7c-7.9 5-16.3 10-25.1 14.1-.1-.1-3.9 2.9-3.9 8.8zm33.4 5c5.4-3.1 9.4-7.1 15.6-8.2 5.9-1 12 0 18-.4l-1-9.1-17.1-.2-15.5 17.9z" opacity=".2"/><g class="B"><path d="M251.3 376.9c.1 0 .2 3.7.2 8.3l-.2 8.3c-.1 0-.2-3.7-.2-8.3l.2-8.3zm-29 39.8s-.1-.6-.1-1.5.3-2.2.8-3.5c.6-1.3 1.3-2.3 1.9-3s1.1-1 1.1-.9c.1.1-1.6 1.6-2.7 4.1-.9 2.5-.8 4.8-1 4.8z"/><path d="M225.8 408s.5-.1 1.3-.5l3.3-1.4a140.68 140.68 0 0 0 10.6-5.5c4-2.4 7.5-4.7 10-6.5 1.2-.9 2.2-1.6 2.9-2.2.7-.5 1-.8 1-.9 0 0-.4.2-1.1.7-.8.5-1.8 1.2-3 2.1-2.5 1.7-6 4-10 6.4-4 2.3-7.8 4.3-10.5 5.6-1.3.6-2.4 1.2-3.3 1.6l-1.2.6zm104.4-102.3c-1.4-1.8-3.5-3.1-3.9-5.4-.5-2.9 2.4-5.7 1.8-8.6-.3-2-2.2-3.4-4.1-4.2s-3.9-1.2-5.7-2.2c-2.1-1.2-3.6-3.4-4.6-5.6-.3-.6-.5-1.3-.7-1.9-.2-1.4-.5-2.8-1-4.1-.1-.4-.1-.7-.2-1.1l.1.8c-.3-.7-.6-1.3-1-1.9-1.5-1.9-4.4-3-6.4-1.7l.9-.6c-2.3-5.8-7.9-10.2-14.2-11.1-1.2-.2-2.4-.2-3.6-.1-4.3-.2-10.5 1-13.1 2.7-3.3 2.1-6.8 5-8.4 8.6-.9 1.9-1.5 4.2-3.2 5.4-2.3 1.7-5.5 1.1-8.3 1.4-4.7.5-8.7 4.1-10.3 8.5s-.9 9.5 1.3 13.6c.5.9 1.1 2 .7 2.9-.3.7-1.1 1.2-1.8 1.6-1.8 1.1-3.5 2.6-4.3 4.5-.8 2-.5 4.5 1.1 5.9 1.3 1.1 3.2 1.3 4.9.7-.5 1.2-.7 2.5-.7 3.8 0 2.8 1.4 5.7 3.9 7s6 .6 7.4-1.8c0 3.5 2 7 5.1 8.6 3.1 1.7 7.1 1.5 10-.4 1.2-.8 2.4-1.8 3.8-1.6s2.2 1.6 3.1 2.6c2.5 2.6 6.9 3 10.2 1.4 3.3-1.5 5.8-4.5 7.6-7.7 1.2 1.8 3.5 2.9 5.7 2.6s4.1-1.9 4.8-4c2.9 3.8 8.8 4.9 12.9 2.4 2.8-1.7 4.5-4.8 4.8-8 2.6-.4 5-2.1 6.1-4.5a8.15 8.15 0 0 0-.7-8.5zm-79.9 2.5s0-.1 0 0c0-.1 0 0 0 0z"/></g><path d="M300.7 328.2s10.2-1.7 12.3-15c1-6.6.7-17.4.2-26.3-.5-8-7.5-13.9-15.5-13.1l-23 2.4c-2.4.3-4.2 2.3-4.2 4.7l2.4 57.7-7.3 1.7s17.8 39.8 22.2 39.3 21.8-38.1 21.8-38.1-3.7-1.2-9.2-2.3c-.2-5.9.3-11 .3-11z" class="I"/><path d="M308 294.1c0 .9-.7 1.7-1.6 1.7-.9.1-1.7-.6-1.8-1.5 0-.9.7-1.7 1.6-1.7s1.7.6 1.8 1.5zm2.8-1.5c-.2.2-1.5-.7-3.3-.7s-3.2.9-3.4.7c-.1-.1.1-.5.7-.9s1.6-.8 2.7-.8 2.1.4 2.7.9c.5.3.7.7.6.8zm-20.5 1.9c0 .9-.7 1.7-1.6 1.7-.9.1-1.7-.6-1.8-1.5 0-.9.7-1.7 1.6-1.7 1-.1 1.7.6 1.8 1.5zm2.5-1.6c-.2.2-1.5-.7-3.3-.7s-3.2.9-3.4.7c-.1-.1.1-.5.7-.9s1.6-.8 2.7-.8 2.1.4 2.7.9c.5.3.7.7.6.8zm6.6 13.6c0-.1 1.1-.3 3-.5.5 0 .9-.1 1-.5.1-.3-.1-.8-.3-1.4l-1.4-3.6-3.1-9.3c.2-.1 1.9 4 3.8 9l1.3 3.6c.2.5.5 1.1.2 1.8-.1.3-.5.6-.8.7s-.6.1-.8.1c-1.7.2-2.9.2-2.9.1z" class="B"/><path d="M300.7 328.2s-8.9.6-17.8-4.7c0 0 4.3 9.1 17.6 7.9l.2-3.2zm-6.5-18.8a3.79 3.79 0 0 1 1.3-.6c.5-.1 1 .1 1.2.6.1.2.1.3.2.5.3.4.8.2 1.3.4.7.2 1 1.1.7 1.8s-.9 1.1-1.6 1.4c-.9.4-1.9.5-2.8.4-.7-.1-1.4-.3-1.8-.9-.5-.7-.3-1.6.1-2.3s1.1-1.1 1.8-1.6" fill="#ff9582"/><g class="B"><path d="M294 307.8c.3 0 .3 2 2 3.4s3.8 1.2 3.8 1.5c0 .1-.5.4-1.4.4s-2.2-.3-3.2-1.1c-1-.9-1.5-2-1.6-2.8.1-1 .3-1.4.4-1.4zm-.4-18.1c-.2.5-2 .3-4.2.5s-3.9.8-4.2.4c-.1-.2.2-.7.9-1.2s1.8-.9 3.1-1.1c1.3-.1 2.5.1 3.3.4.8.4 1.2.8 1.1 1zm16.5-1.3c-.3.4-1.6 0-3.1 0-1.5-.1-2.8.3-3.1-.2-.1-.2.1-.6.6-1 .6-.4 1.5-.7 2.5-.7s1.9.4 2.5.8c.6.5.7.9.6 1.1zm-4.8-16.5c-1 4.7-3.9 8.9-8 11.5-4 2.6-9.1 3.4-13.8 2.3-.7 5.8-4.7 11.1-10.1 13.4 3.7 6.6 5.2 14.4 4.3 21.9-.4 3.2-1.3 6.6-3.7 8.7-3.7 3.3-9.9 2.5-13.4-1-3.4-3.3-4.6-8.5-3.6-13.1s3.9-8.7 7.5-11.7c-3.1-.5-5.7-2.9-6.6-5.9s0-6.4 2.3-8.6c1-1 2.4-1.7 3.1-2.9.7-1.1.9-2.5 1.4-3.8 1.2-3.3 4.2-5.7 7-7.8 2.4-1.8 5-3.7 8.1-3.7 1.6 0 3.2.6 4.8.3 2.2-.3 3.9-2 5.7-3.2 2.6-1.8 5.7-2.9 8.8-2.4s5.9 2.8 6.5 5.8"/><path d="M304.2 273.2c-.5 2.6.8 5.2 2.7 7s4.3 2.9 6.7 4c-.9-2.5-1.9-5-3.4-7.2-1.6-2.2-3.8-4-6.4-4.4m-38.3 92.5l.9 21.2 2.1 20.3 22.5-1-1.6-40z"/></g><path fill="#455a64" d="M262.2 365.1l.9 21.2 2.1 20.3 22.5-1-1.6-40.1z"/><path d="M260.1 409c6-.1 14.1-1.3 17.8-1.9 7-1.1 6.9-1.7 6.7-2.5-.7-2.1-12.3 1.5-10.2-.8 2.1-2.2 14.8-2.8 14-5-1-2.9-13.2 1.2-14.2 1.4-1 .3-1.4-1.3-.5-1.4 1.4-.3 15.8-3.5 14.9-6.3-.5-1.6-3.3-.3-3.3-.3s-13.3 4-13.7 2.6 7.3-4 10-4.7c2.6-.7 3.4-2.2 2.2-3.2-.8-.6-9.1 1.3-11.7 2.1-2.6.7-9.8 2.9-7.1-1 0-.1.1-.1.1-.2 2.8-3.8 3.7-7.7 3.2-9s-2.3-1.2-3 0l-.3.6c0 .1-.1.2-.1.3-.5 1.3-1.5 3-2.4 4.2-.8 1.2-1.8 2.3-3 3.1-1.4 1-4.8 4.6-5.8 5.3" class="I"/><path d="M254.9 391.3l11.9 17.7-19.6 20.1.7-32.5zM72.4 110.1s6-3.2 12.7 1.6c4.1 3 12.9 7.6 15.6 4.8l3.3-10.7s-6.7-1.2-12.1-5.5c-5.3-4.2-15.9-4-15.9-4l-3.6 13.8z" class="C"/><path d="M91.2 101.7c3.2 1.8 3.4 5.8 1.6 8-1.8 2.1-6 1.6-8.1-.2s-2.4-5-.6-7.2 4.7-2 7.1-.6z" class="D E"/><g class="C"><path d="M91.1 103.8c-.1.1-.3 0-.6-.1s-.8-.3-1.4-.4h-.9c-.3.1-.5.2-.7.4-.1.2-.2.5-.1.7s.3.4.8.6c.2.1.4.2.7.3a3.04 3.04 0 0 1 .7.5c.1.1.2.3.3.4.1.2.1.3.2.5.1.3 0 .7-.1 1s-.3.5-.6.7a1.08 1.08 0 0 1-.7.3c-.5.1-.9 0-1.3-.1s-.6-.3-.9-.4c-.2-.2-.4-.3-.5-.4-.3-.3-.4-.4-.3-.5 0-.1.3 0 .6.1s.8.4 1.4.4h.8c.3-.1.4-.2.5-.5v-.3c0-.1 0-.1-.1-.1 0-.1-.1-.1-.1-.1-.2-.2-.6-.4-1.1-.6a3.04 3.04 0 0 1-.7-.5c-.1-.1-.2-.2-.3-.4-.1-.1-.2-.3-.2-.5-.2-.7-.1-1.3.3-1.8s.9-.7 1.4-.8.9 0 1.2.1c.7.2 1.1.6 1.4.9.2.3.3.5.3.6z"/><path d="M89.1 101.5c.2.1-.3 1.8-1 4-.7 2.1-1.4 3.8-1.6 3.8-.2-.1.3-1.8 1-4s1.4-3.9 1.6-3.8zm.8.5c.2.1-.2 1.7-.9 3.6-.6 2-1.3 3.5-1.4 3.4-.2-.1.2-1.7.9-3.6.6-2 1.2-3.5 1.4-3.4z"/></g><path d="M102.8 106.5l-3.1 9.8h-.1c-4.8 1-10.9-3.2-14.9-6-.7-.5-1.4-.9-1.9-1.3-3.8-2.5-8.4-.7-8.7-.3l-.3-.1L76.9 98h.1c6.8-1 13 1.9 16.3 4.7 3 2.6 9.3 3.8 9.3 3.8h.2zm-3.4 9.4l2.9-9.2c-1.1-.2-6.5-1.4-9.3-3.9-3.2-2.7-9.2-5.6-15.8-4.6l-2.9 9.9c.4-.2.8-.3.9-.4 1-.3 4.6-1.1 7.8.9l1.9 1.3c3.9 2.8 9.9 6.9 14.5 6z" class="D F"/><path d="M202.7 57.9s1.6 9.8-8.2 16.9c-6 4.3-16.5 14.4-13.9 19.4l13.3 9.6s4.8-8.7 13.2-14.2c8.3-5.4 12.9-20.1 12.9-20.1l-17.3-11.6z" class="C"/><path d="M205.7 87.8c-4 3.5-9.7 2-11.8-1.5s.6-9 4.1-11.1 8.1-1 10.2 2.5c2.1 3.4.6 7.4-2.5 10.1z" class="D E"/><g class="C"><path d="M202.8 86.6c-.1-.1.1-.4.5-.8.3-.4.8-.9 1.2-1.7.2-.4.3-.8.4-1.2 0-.4-.1-.9-.3-1.1-.2-.3-.6-.5-1-.5-.3 0-.7.3-1.2.8l-.8.8c-.3.3-.6.5-1.1.7-.2.1-.5.2-.7.2h-.8c-.5-.1-.9-.3-1.3-.6-.3-.3-.6-.7-.7-1.1s-.1-.8-.1-1.2a3.8 3.8 0 0 1 .7-1.7c.3-.4.7-.7 1-1 .3-.2.6-.4.9-.5.5-.3.8-.3.9-.2s-.1.4-.4.8-.9 1-1.2 1.7c-.2.4-.3.8-.3 1.2s.1.7.4.9a.76.76 0 0 0 .4.2h.2c.1 0 .2 0 .3-.1.4-.2.8-.7 1.3-1.2.3-.3.6-.6 1-.8.2-.1.4-.2.7-.3.2-.1.5-.1.7-.1 1 0 1.9.5 2.4 1.2.5.8.5 1.6.4 2.3s-.4 1.2-.8 1.7c-.7.9-1.4 1.3-1.9 1.5-.4.2-.7.2-.8.1z"/><path d="M207 84.9c-.1.2-2.4-1.2-5.1-3.2-2.6-2-4.7-3.7-4.5-3.9.1-.2 2.4 1.2 5.1 3.2 2.6 2 4.6 3.7 4.5 3.9zm-1.1.9c-.1.2-2.2-1.1-4.6-2.9s-4.2-3.4-4.1-3.6 2.2 1.1 4.6 2.9 4.3 3.4 4.1 3.6z"/></g><path d="M193.7 101.6l-12.1-8.8v-.2c.9-7.1 9.5-13.6 15.2-17.9 1-.7 1.9-1.4 2.7-2.1 5.2-4.2 4.8-11.3 4.5-11.8l.3-.4 13.2 9.3v.2c-1.7 9.9-8.6 17.2-14 20.3-5 3-9.6 11-9.6 11.1l-.2.3zm-11.5-9l11.4 8.3c.8-1.4 5-8.3 9.7-11.1 5.3-3.1 12-10.1 13.8-19.8l-12.3-8.7a9.89 9.89 0 0 1 .1 1.5c-.1 1.6-.5 6.9-4.8 10.3-.8.6-1.7 1.3-2.7 2.1-5.8 4.2-14.3 10.5-15.2 17.4z" class="D F"/><path d="M365 108.2s-9.4 6.2-21.1-.7c-7.2-4.2-22.4-10.4-26.4-5.4l-3.8 18.1s11.1.9 20.6 7.1c9.4 6 26.7 4 26.7 4l4-23.1z" class="C"/><path d="M335.6 125c-5.5-2.5-6.5-9-3.8-12.8 2.6-3.8 9.6-3.5 13.4-.9s4.7 7.8 2.1 11.6c-2.7 3.8-7.5 4-11.7 2.1z" class="D E"/><g class="C"><path d="M335.4 121.5c.1-.1.4-.1 1 .1s1.4.4 2.3.5c.5 0 1 0 1.4-.2s.9-.5 1-.8c.2-.4.2-.9 0-1.2s-.6-.6-1.3-.9c-.4-.1-.7-.3-1.2-.4-.4-.2-.9-.4-1.3-.8-.2-.2-.4-.4-.5-.6-.2-.2-.3-.5-.3-.8-.1-.6-.1-1.1.1-1.6s.5-.9.8-1.2c.4-.3.8-.5 1.2-.6.8-.2 1.5-.2 2.1 0 .6.1 1.1.4 1.5.6s.7.4 1 .6c.5.4.7.7.6.8s-.4.1-1-.1-1.4-.5-2.3-.5c-.5 0-1 0-1.4.2s-.7.4-.8.8v.5c0 .1.1.2.1.2.1.1.1.2.2.2.3.3 1 .5 1.9.8.4.2.9.3 1.3.6.2.2.4.3.6.5a3.04 3.04 0 0 1 .5.7c.5 1 .3 2.2-.2 3-.6.9-1.4 1.3-2.2 1.5s-1.5.1-2.1 0c-1.2-.3-2-.8-2.4-1.2-.5-.3-.7-.6-.6-.7z"/><path d="M339.1 124.9c-.3-.1.2-3.1 1-6.7s1.7-6.5 2-6.5c.3.1-.2 3.1-1 6.7-.9 3.7-1.8 6.6-2 6.5zm-1.4-.6c-.3-.1.1-2.8.9-6.1.7-3.3 1.6-5.9 1.8-5.9.3.1-.1 2.8-.9 6.1-.7 3.3-1.6 5.9-1.8 5.9z"/></g><path d="M315.8 118.9l3.5-16.5h.2c7.7-2.4 18.4 3.5 25.4 7.4 1.2.7 2.4 1.3 3.4 1.8 6.7 3.5 13.9-.2 14.2-.8l.6.2-3.5 17.8h-.2c-11 2.8-21.6-1-27.4-5.1-5.4-3.8-15.8-4.8-15.9-4.8h-.3zm4-16l-3.3 15.5c1.9.2 10.8 1.3 15.8 4.9 5.6 4 15.9 7.7 26.7 5.1l3.3-16.7c-.6.3-1.3.6-1.5.7-1.6.7-7.4 2.6-12.9-.3-1-.5-2.2-1.2-3.4-1.8-6.8-3.8-17.2-9.5-24.7-7.4z" class="D F"/><use xlink:href="#B" class="C"/><path d="M432.6 102.2c-3.2-3.3-2-8.2.9-10.1s7.8.2 9.7 3.1 1.1 6.9-1.8 8.8c-2.9 2-6.4.8-8.8-1.8z" class="D E"/><g class="C"><path d="M433.5 99.7c.1-.1.3.1.7.4s.8.7 1.5 1c.3.1.7.3 1 .3.4 0 .7-.1.9-.3s.4-.6.4-.9-.3-.6-.7-1c-.2-.2-.5-.4-.7-.6s-.5-.5-.7-.9c-.1-.2-.2-.4-.2-.6v-.7c.1-.4.3-.8.5-1.1.3-.3.6-.5.9-.6.4-.1.7-.1 1-.1.6.1 1.1.3 1.5.6s.7.6.9.8c.2.3.4.5.5.7.2.4.3.7.2.7-.1.1-.3-.1-.7-.4s-.8-.7-1.5-1c-.3-.1-.7-.3-1-.2-.4 0-.6.1-.8.4-.1.1-.1.3-.1.4v.2c0 .1 0 .1.1.2.2.3.6.7 1.1 1.1.2.2.5.5.7.8l.3.6c.1.2.1.4.1.6 0 .9-.4 1.6-1 2.1s-1.4.5-1.9.4c-.6-.1-1.1-.3-1.4-.6-.8-.5-1.2-1.1-1.4-1.5-.2-.5-.3-.7-.2-.8z"/><path d="M435.1 103.2c-.2-.1 1-2.1 2.6-4.4s3-4.1 3.2-4-1 2.1-2.6 4.4-3 4.1-3.2 4z"/><use xlink:href="#C"/></g><path d="M420.4 92.4l7.1-10.7h.1c6.1.5 12 7.7 15.9 12.4.7.8 1.3 1.6 1.9 2.2 3.7 4.3 9.9 3.8 10.3 3.4l.3.3-7.5 11.6h-.1c-8.6-1.2-15-6.8-17.9-11.4-2.7-4.2-9.8-7.8-9.9-7.9l-.2.1zm7.3-10.2l-6.7 10c1.3.7 7.3 4 9.8 7.9 2.8 4.4 9.1 10 17.4 11.1l7-10.9c-.5.1-1.1.1-1.3.1-1.3 0-5.9-.2-9-3.8l-1.9-2.2c-3.7-4.6-9.4-11.6-15.3-12.2z" class="D F"/><use xlink:href="#B" x="-188" y="64.5" class="C"/><path d="M244.6 166.8c-3.2-3.3-2-8.2.9-10.1s7.8.2 9.7 3.1 1.1 6.9-1.8 8.8-6.4.7-8.8-1.8z" class="D E"/><g class="C"><path d="M245.5 164.3c.1-.1.3.1.7.4s.8.7 1.5 1c.3.1.7.3 1 .3.4 0 .7-.1.9-.3s.4-.6.4-.9-.3-.6-.7-1c-.2-.2-.5-.4-.7-.6s-.5-.5-.7-.9c-.1-.2-.2-.4-.2-.6v-.7c.1-.4.3-.8.5-1.1.3-.3.6-.5.9-.6.4-.1.7-.1 1-.1.6.1 1.1.3 1.5.6s.7.6.9.8c.2.3.4.5.5.7.2.4.3.7.2.7-.1.1-.3-.1-.7-.4s-.8-.7-1.5-1c-.3-.1-.7-.3-1-.2-.4 0-.6.1-.8.4-.1.1-.1.3-.1.4v.2c0 .1 0 .1.1.2.2.3.6.7 1.1 1.1.2.2.5.5.7.8l.3.6c.1.2.1.4.1.6 0 .9-.4 1.6-1 2.1s-1.4.5-1.9.4c-.6-.1-1.1-.3-1.4-.6-.8-.5-1.2-1.1-1.4-1.5-.2-.5-.3-.8-.2-.8z"/><path d="M247.1 167.8c-.2-.1 1-2.1 2.6-4.4s3-4.1 3.2-4-1 2.1-2.6 4.4-3.1 4.1-3.2 4z"/><use xlink:href="#C" x="-188" y="64.6"/></g><path d="M232.4 157l7.1-10.7h.1c6.1.5 12 7.7 15.9 12.4.7.8 1.3 1.6 1.9 2.2 3.7 4.3 9.9 3.8 10.3 3.4l.3.3-7.5 11.6h-.1c-8.6-1.2-15-6.8-17.9-11.4-2.7-4.2-9.8-7.8-9.9-7.9l-.2.1zm7.3-10.2l-6.7 10c1.3.7 7.3 4 9.8 7.9 2.8 4.4 9.1 10 17.4 11.1l7-10.9c-.5.1-1.1.1-1.3.1-1.3 0-5.9-.2-9-3.8L255 159c-3.7-4.6-9.4-11.6-15.3-12.2z" class="D F"/><path d="M132.5 179.4s-9.4 7.3-22.3 1.2c-8-3.8-24.5-8.9-28.3-3.3l-2.3 19.4s11.8 0 22.4 5.6c10.4 5.5 28.5 1.8 28.5 1.8l2-24.7z" class="C"/><path d="M103 199.8c-6-2.2-7.6-8.9-5.2-13.2 2.4-4.2 9.8-4.6 14-2.1 4.2 2.4 5.7 7.8 3.3 12.1-2.5 4.2-7.5 4.9-12.1 3.2z" class="D E"/><g class="C"><path d="M102.5 196.1c.1-.1.4-.1 1.1 0 .6.1 1.5.3 2.5.3.5 0 1-.1 1.5-.3s.9-.6 1-.9c.2-.4.1-1-.1-1.3s-.7-.6-1.5-.8c-.4-.1-.8-.2-1.3-.4s-.9-.3-1.4-.7l-.6-.6c-.2-.2-.3-.5-.4-.8a3.34 3.34 0 0 1-.1-1.7c.1-.5.4-1 .8-1.4s.8-.6 1.2-.8c.8-.3 1.6-.3 2.2-.2.7.1 1.2.3 1.6.5l1.1.6c.5.4.8.6.7.8-.1.1-.4.1-1.1 0-.6-.1-1.5-.4-2.5-.3-.5 0-1 .1-1.4.3s-.7.5-.7 1c0 .2 0 .4.1.6 0 .1.1.2.1.2l.2.2c.4.3 1.1.5 2 .7.4.1.9.3 1.4.6a3.04 3.04 0 0 1 .7.5c.2.2.4.4.6.7.6 1.1.6 2.3.1 3.2-.5 1-1.4 1.5-2.2 1.7s-1.5.3-2.2.2c-1.3-.2-2.1-.7-2.7-1-.5-.5-.8-.8-.7-.9z"/><path d="M106.7 199.5c-.3 0-.1-3.2.4-7.1s1.2-7 1.5-7 .1 3.2-.4 7.1c-.6 3.9-1.2 7-1.5 7zm-1.6-.6c-.3 0-.1-2.9.4-6.5.5-3.5 1.1-6.4 1.4-6.3.3 0 .1 2.9-.4 6.5-.5 3.5-1.1 6.3-1.4 6.3z"/></g><path d="M81.6 195.2l2.2-17.7.2-.1c7.9-3.2 19.7 2.1 27.5 5.5 1.3.6 2.6 1.2 3.7 1.6 7.4 3.1 14.6-1.5 14.9-2.1l.6.1-2.1 19.1-.2.1c-11.4 3.9-22.9.9-29.3-2.9-6-3.6-17.1-3.6-17.2-3.6h-.3zm2.8-17.2l-2.1 16.6c2 0 11.5.4 17.1 3.7 6.3 3.7 17.5 6.7 28.6 2.9l1.9-17.9c-.6.4-1.3.8-1.5.9-1.7.8-7.5 3.4-13.6.9-1.1-.5-2.4-1-3.7-1.6-7.5-3.3-19-8.5-26.7-5.5z" class="D F"/><path d="M192.3 207.4s-3.7 8.7-15 9.4c-7 .4-20.4 3.2-20.9 8.5l5.8 14.4s8.2-4.5 17.7-4.7c9.3-.1 20.5-9.6 20.5-9.6l-8.1-18z" class="C"/><path d="M179.6 232.8c-5 .8-8.7-3.3-8.6-7.2s5-6.9 8.9-6.8 6.9 3.3 6.9 7.1c-.2 3.9-3.4 6.3-7.2 6.9z" class="D E"/><g class="C"><path d="M177.8 230.4c0-.1.3-.2.7-.4.5-.2 1.2-.3 1.8-.7.3-.2.7-.5.9-.8s.4-.7.3-1c0-.3-.3-.7-.6-.9s-.7-.2-1.3 0c-.3.1-.6.2-1 .2-.4.1-.8.1-1.2.1-.2 0-.5-.1-.7-.2s-.4-.2-.6-.4c-.4-.3-.6-.7-.7-1.2-.1-.4-.1-.8 0-1.2s.3-.7.5-1c.4-.5 1-.8 1.5-1s.9-.3 1.3-.3h1c.5 0 .8.1.8.2s-.3.2-.7.4c-.5.2-1.2.3-1.8.7-.3.2-.7.5-.9.8s-.3.6-.2 1c.1.2.1.3.3.4.1 0 .1.1.2.1s.2 0 .3.1c.4 0 1-.1 1.7-.3.4-.1.8-.2 1.2-.1.2 0 .5 0 .7.1s.5.2.7.3c.8.5 1.3 1.4 1.3 2.2a2.85 2.85 0 0 1-.8 2c-.4.5-1 .8-1.4.9-1 .4-1.7.3-2.3.3-.7 0-1-.1-1-.3z"/><path d="M182 231.2c-.2.1-1.3-2.2-2.4-5.1s-1.9-5.3-1.6-5.4c.2-.1 1.3 2.2 2.4 5.1s1.8 5.3 1.6 5.4zm-1.3.2c-.2.1-1.2-2-2.2-4.6s-1.7-4.9-1.5-4.9c.2-.1 1.2 2 2.2 4.6 1.1 2.6 1.7 4.8 1.5 4.9z"/></g><path d="M163 237.8l-5.2-13.1.1-.1c4.3-5.2 14.5-6.1 21.2-6.7l3.2-.3c6.3-.7 9.6-6.6 9.6-7.2l.5-.1 5.9 14.1-.1.1c-6.4 7.1-15.6 9.4-21.5 9.2-5.5-.2-13.2 4-13.3 4l-.4.1zm-4.7-13l4.9 12.3c1.4-.7 8.2-4.1 13.3-4 5.8.2 14.7-2 21-8.9l-5.5-13.1c-.2.5-.6 1-.7 1.2-.8 1.2-3.9 5.2-9.1 5.8-.9.1-2 .2-3.2.3-6.5.6-16.5 1.4-20.7 6.4z" class="D F"/><path d="M354.9 238s-9.7-2.8-12-14.7c-1.4-7.4-6.2-21.3-11.9-21.1l-14.5 8.1s5.9 8.1 7.4 18.2c1.4 9.9 13 20.5 13 20.5l18-11z" class="C"/><path d="M326.1 227.9c-1.5-5.2 2.3-9.7 6.5-10.2 4.1-.5 8 4.4 8.5 8.5.4 4.1-2.5 7.8-6.7 8.3-4.1.5-7.1-2.6-8.3-6.6z" class="D E"/><g class="C"><path d="M328.4 225.7c.1 0 .3.3.5.7.2.5.5 1.2 1 1.9.3.3.6.6 1 .9.4.2.8.3 1.1.2.4-.1.7-.4.8-.7s.1-.8-.2-1.4c-.1-.3-.3-.7-.4-1-.1-.4-.2-.8-.2-1.3 0-.2 0-.5.1-.7s.2-.5.3-.7c.3-.4.7-.7 1.1-.9s.9-.2 1.3-.2c.4.1.8.2 1.1.4.6.4 1 .9 1.3 1.4s.4 1 .5 1.4.1.7.1 1c0 .6 0 .9-.2.9-.1 0-.3-.2-.5-.7s-.5-1.2-1-1.9c-.3-.3-.6-.6-.9-.8-.4-.2-.7-.2-1 0-.2.1-.3.2-.4.3 0 .1-.1.1-.1.2v.3c0 .4.3 1 .5 1.7.1.4.3.8.3 1.3v.7c0 .3-.1.5-.2.7-.4.9-1.3 1.5-2.2 1.7-.9.1-1.7-.2-2.3-.6s-.9-.9-1.2-1.4c-.5-1-.6-1.8-.6-2.4.2-.6.3-1 .4-1z"/><path d="M328.2 230.3c-.1-.2 2.2-1.7 5.1-3.3s5.4-2.7 5.6-2.5c.1.2-2.2 1.7-5.1 3.3-3 1.6-5.5 2.7-5.6 2.5zm-.4-1.4c-.1-.2 2-1.6 4.6-3 2.7-1.4 4.9-2.4 5.1-2.2.1.2-2 1.6-4.6 3-2.7 1.5-4.9 2.4-5.1 2.2z"/></g><path d="M318.6 211l13.3-7.4.1.1c6.2 3.9 8.5 14.6 10 21.6.3 1.2.5 2.4.7 3.4 1.6 6.6 8.3 9.3 9 9.2l.2.5-14.2 8.2-.1-.1c-8.4-5.8-12.1-15.3-12.7-21.6-.6-5.9-6.1-13.5-6.1-13.6l-.2-.3zm13.2-6.8l-12.5 6.9c1 1.4 5.5 8.1 6 13.6.6 6.2 4.2 15.4 12.3 21.1l13.2-7.6c-.6-.2-1.2-.5-1.4-.6-1.4-.7-6.1-3.5-7.4-8.9-.2-1-.5-2.1-.7-3.4-1.4-6.8-3.6-17.3-9.5-21.1z" class="D F"/><path d="M449.8 197.4s-.8 11.3-13.4 16.5c-7.8 3.2-21.9 11.6-20.4 17.9l12.2 14.1s7.5-8.3 18.3-12.2c10.6-3.8 19.5-18.9 19.5-18.9l-16.2-17.4z" class="C"/><path d="M445.3 231.3c-5.4 2.9-11.2-.3-12.6-4.8-1.4-4.4 3-9.8 7.4-11.3 4.4-1.4 9.2 1 10.6 5.4 1.4 4.5-1.3 8.5-5.4 10.7z" class="D E"/><g class="C"><path d="M442.4 229.3c-.1-.1.2-.4.7-.7.5-.4 1.2-.8 1.8-1.5.3-.3.6-.8.7-1.2.1-.5.2-1 0-1.3a1.59 1.59 0 0 0-1-.8c-.4-.1-.9.1-1.5.5l-1.1.7c-.4.2-.8.4-1.4.5-.3.1-.6.1-.8 0-.3 0-.6-.1-.8-.2-.5-.2-.9-.6-1.2-1s-.4-.9-.5-1.4c0-.5.1-.9.2-1.3.3-.8.8-1.3 1.3-1.7s1-.7 1.4-.8c.4-.2.8-.3 1.1-.4.6-.2 1-.2 1 0 .1.1-.2.4-.7.7-.5.4-1.2.8-1.8 1.5-.3.4-.6.8-.7 1.2-.1.5-.1.8.2 1.1.1.2.3.3.4.3h.5c.4-.1 1-.5 1.8-1 .4-.2.8-.5 1.3-.6.3-.1.5-.1.8-.2.3 0 .6 0 .9.1 1.1.2 2 1 2.3 2 .4 1 .2 1.9-.1 2.6s-.8 1.2-1.3 1.6c-1 .8-1.9 1.1-2.5 1.2-.6.2-1 .2-1 .1z"/><path d="M447.4 228.5c-.2.2-2.3-2-4.7-4.9s-4.2-5.3-4-5.5 2.3 2 4.8 4.9c2.3 2.8 4.1 5.3 3.9 5.5zm-1.4.7c-.2.2-2.2-1.8-4.3-4.4-2.2-2.6-3.8-4.9-3.6-5 .2-.2 2.2 1.8 4.3 4.4 2.2 2.5 3.8 4.8 3.6 5z"/></g><path d="M428.4 243.4l-11.1-12.9.1-.2c2.8-7.6 14-12.6 21.4-15.9l3.5-1.6c6.9-3.2 8.3-11.3 8-11.9l.5-.3 12.2 13.7-.1.2c-4.5 10.5-14 16.7-20.8 18.8-6.3 2-13.5 9.7-13.5 9.8l-.2.3zm-10.4-13l10.4 12.1c1.3-1.4 7.6-7.9 13.6-9.7 6.6-2 15.9-8.1 20.4-18.3L451 201.7c-.1.7-.3 1.4-.3 1.6-.5 1.7-2.4 7.5-8 10.1-1 .5-2.2 1-3.5 1.6-7.4 3.3-18.3 8.1-21.2 15.4z" class="D F"/><defs ><path id="B" d="M458.1 98.7s-8.4 1.7-14.7-6.4c-3.9-5-12.9-13.6-17.1-11.2l-7.8 11.7s7.6 3.8 12.6 10.8c4.9 6.9 17.7 10.4 17.7 10.4l9.3-15.3z"/><path id="C" d="M434.3 102.3c-.2-.1.9-1.9 2.3-4.1 1.5-2.1 2.8-3.7 2.9-3.6.2.1-.9 1.9-2.3 4.1-1.4 2.1-2.8 3.7-2.9 3.6z"/></defs></svg>