<svg xmlns="http://www.w3.org/2000/svg" viewBox="0 0 500 500"><style><![CDATA[.B{fill:#263238}.C{fill:#46327a}.D{fill:#b78876}.E{fill:#aa6550}.F{opacity:.4}.G{fill:#1a164e}.H{fill:#fafafa}]]></style><path fill="#f8db01" d="M443.7 173.6c-2-33.4-18.4-69.2-42-92.9-19.3-19.4-47.1-29.6-74.4-28-23.1 1.4-45.6 11.2-61.9 27.6-14.1 14.2-23.1 32.6-33.8 49.6s-24.4 33.5-43.3 40.2c-18.4 6.5-38.7 2.7-58.3 4-25.7 1.7-50.8 12.8-68.7 31.2C43.4 223.8 33 249.5 34 275.2c1 25.9 13.1 50.5 29.9 70.3.2.2.3.4.5.6 34.5 41.1 84.8 65.7 138.4 67.6l61.1 2.1c50.3 9.1 103.8-31.6 135.8-71.5 32.1-39.8 47.1-119.7 44-170.7z"/><path d="M471.4 463.8c0 .1-99.1.3-221.4.3s-221.4-.1-221.4-.3c0-.1 99.1-.3 221.4-.3l221.4.3z" class="G"/><path d="M189.4 118.9l6.6 93.2c1.1 15.2 13.7 27 29 27h0c16.8 0 30.1-14.2 29-31l-1.1-16.1s22.6-3.5 22.8-26.1c.2-13-2.1-42.6-4-65.3-1.3-15.3-14.1-27.1-29.5-27.1h-13.6c-23.6 1.5-41.3 22-39.2 45.4z" class="D"/><path d="M252.8 191.7s-14.3 1.2-29.4-8.4c0 0 7 16.2 29.5 14.2l-.1-5.8z" class="E"/><path d="M264.6 128c.1 1.7-1.3 3.2-3.1 3.3s-3.3-1.2-3.3-2.9c-.1-1.7 1.3-3.2 3.1-3.3s3.3 1.2 3.3 2.9zm3.1-4.6c-.4.4-2.8-1.4-6.3-1.4s-6 1.7-6.4 1.3c-.2-.2.2-.9 1.3-1.8 1.1-.8 3-1.6 5.1-1.6 2.2 0 4 .8 5 1.6 1.2.9 1.5 1.7 1.3 1.9zm-36.9 4.6c.1 1.7-1.3 3.2-3.1 3.3s-3.3-1.2-3.3-2.9c-.1-1.7 1.3-3.2 3.1-3.3 1.7-.1 3.2 1.2 3.3 2.9zm2.9-4c-.4.4-2.8-1.4-6.3-1.4s-6 1.7-6.4 1.3c-.2-.2.2-.9 1.3-1.8 1.1-.8 3-1.6 5.1-1.6 2.2 0 4 .8 5 1.6 1.1 1 1.5 1.7 1.3 1.9zm12.5 25.7c0-.2 2.1-.6 5.6-1 .9-.1 1.7-.3 1.9-.9s-.2-1.6-.6-2.6l-2.6-6.7c-3.6-9.6-6.3-17.5-5.9-17.6s3.6 7.5 7.3 17.1l2.5 6.8c.3 1 .9 2.1.5 3.5-.2.7-.9 1.1-1.5 1.3s-1.1.2-1.5.2c-3.5.1-5.6.1-5.7-.1zm-10.2 2.4c.6 0 .6 3.7 3.8 6.4s7.2 2.3 7.3 2.8c.1.2-.9.7-2.6.8s-4.1-.5-6.1-2.1-2.8-3.8-2.9-5.4.3-2.5.5-2.5zm-1.4-41.7c-.3.9-3.8.5-7.9 1-4.1.4-7.4 1.6-7.9.8-.2-.4.3-1.3 1.7-2.2 1.3-.9 3.4-1.8 5.9-2 2.4-.3 4.7.1 6.2.7 1.4.5 2.1 1.3 2 1.7zm31.9 2.9c-.6.8-3 0-5.9-.1s-5.3.5-5.9-.3c-.2-.4.1-1.2 1.2-1.9 1-.7 2.8-1.3 4.8-1.3 2 .1 3.7.8 4.7 1.6s1.3 1.6 1.1 2z" class="B"/><path d="M197 135.9c-.4-.2-15.5-4.6-15 10.8s15.9 11.7 15.9 11.3c-.1-.4-.9-22.1-.9-22.1z" class="D"/><path d="M192.9 152.3c-.1 0-.3.2-.7.4s-1.2.4-2 .1c-1.6-.5-3.1-3.1-3.3-5.9-.1-1.4.2-2.7.6-3.9.4-1.1 1.1-2 2-2.1.8-.2 1.4.3 1.6.7s.1.7.2.8c0 0 .3-.3.2-.9-.1-.3-.3-.7-.6-.9-.4-.3-.9-.4-1.5-.3-1.2.1-2.2 1.2-2.7 2.5-.6 1.2-.9 2.8-.8 4.3.2 3.1 1.9 6 4.1 6.5 1.1.2 2-.1 2.4-.5.5-.4.6-.8.5-.8z" class="E"/><path d="M188.4 135.3c2.4-.6 6.4 1.6 7.4 3.8s1.2 4.7 2.2 6.9 3.3 4.2 5.6 3.6c1.6-.4 2.8-1.9 3.2-3.5s.3-3.3 0-5c-.9-7.2-2.4-14.3-2.7-21.6s.7-14.8 4.6-21c3.8-6.2 10.8-10.7 18-10.1 4.8.4 9.2 2.9 14 3.6 5.6.8 11.6-1.2 15.7-5.2.5-.5 2.9-2.1 2.9-2.1 0-.4-.4-3.6-1.6-4.8-9.4-8.7-26.5-11.2-39-8-12.5 3.1-24.2 12-29.5 23.6-5.4 11.7-3.8 28-.8 39.8" class="B"/><path d="M271.9 97.3s-59.2-19-84.8 32.2c0 0-3.8-12.8-3.8-19.7 0-4.6 2.7-31.9 30.9-40.5-.1-.1 42.3-16.2 57.7 28z" class="C"/><path d="M221 98.5c2.1 3.4 5.8 5.7 9.8 6 4 .4 8-1.2 10.7-4.2 1.2 2.9 4.3 4.9 7.4 4.8 3.1-.2 6-2.5 6.9-5.5 1.7 1.7 3.5 3.4 5.8 4.2 2.2.8 5.1.5 6.6-1.4s1.1-4.8-.4-6.8-3.7-3.1-6-4c-7-2.9-14.8-4.4-22.3-3.4s-14.9 4.7-19.6 10.7" class="B"/><path d="M271.9 97.3s-6.7-8-18.8-8.5c-17.5-.8-50.1 9-66 40.7 0 0-3.8-12.8-3.8-19.7 0-4.6 2.7-31.9 30.9-40.5-.1-.1 42.3-16.2 57.7 28z" class="F"/><path d="M189.6 123.4c8.8-13.4 20.9-24.5 34.5-33s36.1-16.9 51.6-21c4.7-1.2 9.5-2.3 14.3-1.5 4.7.8 9.4 4 10.6 8.6 1.5 5.8-8.9 14.9-13.8 18.4s-14.8 8.7-14.8 8.7.1-10.8-17.2-13.1c-23.7-2.9-65.2 32.9-65.2 32.9z" class="C"/><path fill="#e0e0e0" d="M238.1 79.2s8.5-4.7 17.1-5.8c-1.8-1.3-2.7-1.9-4.6-2.8-4.4.9-8.8 2-13.3 4.5l.8 4.1z"/><path d="M286.1 211.5l-18.8-4.1-7.6-1.9-6.4-9.9s-3 17.6-14.4 27.1c-3.1 2.6-7.2 3.5-11.2 2.7-2.6-.5-5.6-1.2-7.8-1.8-.5-.1-1-.3-1.6-.5-8.3-3-15-9-19.3-16.7-2.5-4.5-4.7-9.1-3.9-10.8l-8.9 18.5-52.5 24.2-29.8 72.7 57.8 17.1 1.8 60-10.9 75.6 163.4.1-5.8-168.3" class="C"/><path d="M243.9 276.6h-1c-.7 0-1.7 0-2.9-.1l-10.4-.4h-.2v-.2l-.6-15.6-.9-27.5v-2.3s0 .2.1.6c0 .5.1 1 .1 1.7a261.28 261.28 0 0 1 .3 6.4l.9 21.1.5 15.6-.2-.2 10.4.6 2.9.2c.6 0 1 .1 1 .1zm-8.9-24.3s.2-.2.8-.3c.5-.1 1.4 0 2.2.6.4.3.8.7 1 1.2.3.5.4 1.2.3 1.8-.2 1.3-1.2 2.6-2.7 3s-3-.4-3.8-1.4c-.9-1-.9-2.3-.7-3.2a4.2 4.2 0 0 1 1.1-2c.4-.4.7-.5.7-.5s-.2.2-.5.6-.7 1-.9 1.9 0 2 .7 2.8c.7.9 2 1.5 3.3 1.2s2.1-1.5 2.3-2.6-.4-2.1-1.1-2.6-1.4-.7-1.9-.7l-.8.2zm-1.8-21.1s.2-.2.8-.4c.6-.1 1.5-.1 2.4.4.5.3 1 .6 1.3 1.2.4.5.6 1.2.5 2 0 1.4-1 3-2.6 3.5-1.7.5-3.3-.3-4.2-1.5-.4-.6-.7-1.3-.7-1.9s.1-1.2.3-1.7c.4-1 1.1-1.6 1.6-1.9s.8-.3.8-.3l-.7.5c-.4.3-1 .9-1.3 1.9-.3.9-.3 2.2.5 3.2s2.3 1.7 3.7 1.3 2.3-1.8 2.3-3.1c.1-1.3-.7-2.3-1.6-2.8-.8-.5-1.7-.6-2.2-.5-.6 0-.8.1-.9.1zm-5.3 80.7s.1 0 .3-.1.4-.2.7-.3c.7-.2 1.6-.6 2.8-1.2 2.4-1.2 5.7-3.2 9.2-6.5s7.1-7.8 10.5-13.1c3.5-5.3 7-11.3 10.3-17.9 6.6-13.1 11.3-25.5 14.6-34.5l3.8-10.7c.4-1.2.8-2.2 1-2.9.1-.3.2-.6.3-.8s.1-.3.1-.3 0 .1-.1.3-.1.5-.2.8a70.53 70.53 0 0 1-.9 2.9c-.8 2.6-2 6.2-3.6 10.8-3.2 9.1-7.8 21.5-14.5 34.6-3.3 6.5-6.8 12.6-10.3 17.9s-7.1 9.8-10.7 13.1c-3.5 3.3-6.9 5.3-9.4 6.5-1.2.5-2.2.9-2.9 1.1-.3.1-.6.2-.8.2-.1.1-.2.1-.2.1z" class="B"/><path d="M262.3 291.9c.4 0 10.4-.7 10.4-.7s-4.1 7.3-8.4 10h-8.7l6.7-9.3z" class="H"/><path d="M226.2 333.9s.2-.2.6-.4l1.7-1.2 6.1-4.4c5-3.8 11.7-9.6 18.8-16.1 3.6-3.3 7-6.3 9.9-9.3 3-2.9 5.4-5.8 7.3-8.3s3.2-4.7 4-6.3l1.2-2.4s-.1.2-.2.7c-.2.4-.4 1.1-.8 1.9-.8 1.6-2 3.9-3.9 6.4-1.9 2.6-4.3 5.5-7.3 8.4-3 3-6.4 6.1-9.9 9.4-7.1 6.5-13.8 12.2-18.9 16-2.5 1.9-4.7 3.3-6.2 4.3-.7.5-1.3.8-1.7 1.1-.5.1-.7.2-.7.2zM198.1 445s0-.1.1-.2c.1-.2.2-.4.4-.7l1.7-2.5c1.5-2.1 3.8-5.1 6.9-8.5l24.3-26.8 24.4-26.7 7.4-8c.9-.9 1.5-1.6 2-2.2.2-.2.4-.4.5-.6l.2-.2s0 .1-.2.2c-.1.2-.3.3-.5.6-.5.5-1.1 1.3-2 2.2l-7.3 8.2-24.3 26.8-24.4 26.7a122.32 122.32 0 0 0-7 8.4c-.8 1-1.4 1.9-1.8 2.4-.2.3-.3.5-.5.6.2.2.1.3.1.3z" class="B"/><path d="M284.8 211c.9 1.3 20.2 3.4 24.9 8.2 4.7 4.7 52 40.8 52 40.8L328 305.4l-21.7-4.8-21.5-89.6z" class="C"/><path d="M356 255.6l-37.7 47.5 9.8 2.2 33.6-45.4z" class="F"/><path d="M295.1 258.2s-.2-.6-.4-1.6l-.3-1.9-.3-2.5c-.1-.9-.2-2-.1-3.1l.1-3.5c.2-2.5.6-5.2 1.2-8 .7-2.8 1.6-5.4 2.6-7.6l1.6-3.2c.5-1 1.1-1.9 1.6-2.6l1.4-2.1c.4-.6.8-1.1 1.2-1.5l1.1-1.2s-.3.5-.9 1.3c-.3.4-.7.9-1.1 1.6l-1.4 2.1-1.5 2.6-1.5 3.1c-1 2.3-1.9 4.8-2.6 7.6s-1.1 5.4-1.3 7.9c-.1 1.2-.2 2.4-.1 3.5l.1 3c0 .9.1 1.8.2 2.5l.2 1.9c.2 1.1.3 1.7.2 1.7zm15.2 37.3c-.1.1-2-4.1-4.2-9.2-2.2-5.2-3.8-9.4-3.7-9.4.1-.1 2 4.1 4.2 9.2 2.1 5.1 3.8 9.3 3.7 9.4zm-148.6-33c-.1 0-.9-1.4-2.4-3.7s-3.8-5.2-6.8-8.1-6-5.1-8.3-6.6-3.8-2.2-3.8-2.3c0 0 .4.1 1.1.5.7.3 1.7.8 2.9 1.5 2.4 1.4 5.5 3.6 8.5 6.5s5.3 6 6.8 8.3c.7 1.2 1.3 2.1 1.6 2.8s.4 1.1.4 1.1z" class="B"/><path d="M103.9 311l2.4-5.7 63.9 17.4-2.6 7.1z" class="F"/><path d="M274.5 288.6h24.3v10l-31.1-.2s4.8-5.8 6.8-9.8z" class="H"/><path d="M187.7 216.2c.9 7.8 1.8 15.8 5.7 22.7 3.9 6.8 11.4 12.2 19.2 11.1 5.2-.8 9.6-4.2 13.1-8.1s6.5-8.3 10.3-11.8c2.4 2.4 4.9 4.9 7.8 6.7s6.3 3 9.7 2.6 5.3-1.8 6.3-5c-3.6 1.1-5.6 1-9.2.3-3.8-.7-7.5-2.3-10.9-5-2.1-1.7-2.9-4.2-5.6-4-2.5.1-4.4 2.1-6.1 4a69.09 69.09 0 0 1-8.7 8.4c-3 2.4-5.9 4-9.7 3.9-6.3-.1-11.4-5.1-14.9-10.3-3.2-4.8-5.6-10.2-7-15.8" opacity=".2"/><path d="M261.4 206.5s.1.2.1.6.1.9.2 1.6l.4 6c.1 5-.2 12-1.9 19.6v.4h-.2c-3.8.9-7.6.6-10.8-.3s-5.9-2.3-8-3.7c-2.1-1.5-3.5-2.9-4.4-4-.5-.5-.7-1-.9-1.3s-.3-.5-.3-.5c.1-.1 1.7 2.7 5.8 5.5 2 1.4 4.7 2.7 7.9 3.6 3.2.8 6.9 1.2 10.5.2l-.2.2v-.2c1.6-7.5 2-14.4 2-19.5a83.05 83.05 0 0 0-.2-5.9c0-.7-.1-1.2-.1-1.6.1-.5.1-.7.1-.7zM231 226.2l-.3.6c-.2.4-.6.9-1.1 1.6-1 1.3-2.7 3.1-4.9 5.2l-3.7 3.3-2.1 1.8c-.8.6-1.6 1.1-2.5 1.6-1.8 1-3.8 1.7-6 1.8-2.2.2-4.6-.3-6.6-1.5-2.1-1.1-3.7-2.7-5.2-4.4-1.5-1.6-2.8-3.3-3.9-4.9-2.3-3.3-3.9-6.5-5.1-9.3s-1.8-5.1-2.2-6.8c-.2-.8-.3-1.5-.4-1.9s-.1-.7-.1-.7.1.2.2.6l.5 1.9c.5 1.6 1.2 3.9 2.4 6.7 1.2 2.7 2.9 5.9 5.1 9.2 1.1 1.6 2.4 3.3 3.9 4.9 1.4 1.6 3.1 3.1 5 4.2 2 1.1 4.2 1.6 6.3 1.4s4.1-.8 5.8-1.7c.9-.5 1.7-1 2.4-1.5.7-.6 1.4-1.2 2.1-1.7 1.4-1.1 2.6-2.2 3.7-3.2 2.2-2 3.9-3.7 5-5 .5-.6.9-1.2 1.2-1.5.3-.5.5-.7.5-.7z" class="B"/><path d="M209.5 341.1l7.7-11.2s5.3-18.4 4.6-21-3.1-12.2-2.5-12.3 6.3-2.3 9.5 5.4c1.9 4.8 2.6 11.1 2.8 15.2.1 2.1 2.1 3.7 4.2 3.3 5.3-1.1 14.2-2.8 16.3-2.3 3.1.7 5.8 4.6 6.1 5.9s-1.8 4.3-1.8 4.3 2.6 1.3 3.4 3.3c.1.3.2.5.3.8.5 1.6.1 3.4-1.1 4.7l-.8.9s3.2.9 3.6 2.7c.4 1.9-.1 4.1-.1 4.1l-3 3.1s1.4 1.3 1.6 3-4.4 5.9-4.4 5.9l-19.6 7-7.8 2-19-24.8z" class="D"/><path d="M256.3 328.4c0 .1-3 .7-6.8 1.5l-6.8 1.3c0-.1.7-.3 1.9-.7l4.8-1.1 4.9-.8c1.2-.2 2-.2 2-.2zm1.8 9.7c0 .1-2.3 1-5.2 1.9l-5.3 1.4c0-.1 2.3-1 5.2-1.9 2.8-.9 5.2-1.5 5.3-1.4zm1.1 9.6c.1.1-2.4 1.3-5.5 2.7s-5.7 2.3-5.7 2.2c-.1-.1 2.4-1.3 5.5-2.7l5.7-2.2z" class="E"/><path d="M164.3 410.6l72.1-48.4-18.2-33-65.8 33.9 7.5-35.6-44.7-13.2-11.2 60.9c-1.7 27.1 20 48.9 46.2 41.8h0c5-1.4 9.8-3.5 14.1-6.4z" class="D"/><path d="M142.9 382.2s-.1-.3-.2-.9-.2-1.5-.2-2.6c-.1-2.2.4-5.2 1.9-8.2s3.7-5.2 5.4-6.4c.9-.6 1.6-1.1 2.2-1.3.5-.3.9-.4.9-.3s-1.2.7-2.8 2c-1.7 1.3-3.8 3.5-5.2 6.4s-1.9 5.9-2 8c-.2 1.9 0 3.3 0 3.3z" class="E"/><path d="M328.1 305.3c.5-.6 51.4 30.4 51.4 30.4l16.3 74.4 23.5 8.6s7.3-82.7 1.8-95.6c-5.6-12.9-62.1-59.2-62.1-59.2l-30.9 41.4z" class="D"/><path d="M390.5 330c.1.1-1.5 2.3-4.4 4.2s-5.6 2.4-5.6 2.3c-.1-.2 2.6-.9 5.3-2.7 2.8-1.9 4.6-3.9 4.7-3.8z" class="E"/><path d="M266.8 305.5l4 71.3 81.4-5.5-2.5-53.1-11.8-15.9z" class="G"/><path d="M248.3 378.4c.2 1.4 7.2 66 7.2 66l121.1-8.4 20.5-2.7-9.4-60.2-14.5-3.5-124.9 8.8z" class="C"/><path d="M373.1 369.6l-124.8 8.8c.2 1.4 7.2 66 7.2 66l126.1-8.8-8.5-66z" class="F"/><path d="M340 372.1l-69.2 4.7-4-71.3 71.1-3.2z" class="G"/><path d="M292.6 304.3l1.5 22 3.7-2.1 2 2.1 2.6-2.1 3.9 2.1v-22.6zm28.9 69.3l-4.7-53.5 46.2 12.7 4.5 37z" class="C"/><path d="M363 332.8s-.1.1-.3.4-.5.6-.9 1.1l-3.4 3.9-11.8 13.2-.2.2-.2-.2-6.3-6.6-16.5-17.4-4.9-5.3-1.3-1.5c-.3-.3-.4-.5-.4-.5s.2.1.5.5l1.4 1.4 5.1 5.2 16.6 17.3 6.3 6.6h-.4l15.5-16.9 1-1c.1-.3.2-.4.2-.4zm-25.9 9.9c.1.1-3.2 6.4-7.4 14.1l-7.8 13.9c-.1-.1 3.2-6.4 7.4-14.1l7.8-13.9zm29.3 27.1c-.1.1-3.3-5-7.2-11.4-3.8-6.4-6.8-11.6-6.7-11.7s3.3 5 7.2 11.4c3.8 6.4 6.8 11.6 6.7 11.7z" class="B"/><path d="M346.4 371.5l-3.1-34.1 29.5 8.2 2.8 23.5z" class="C"/><path fill="#fff" d="M346.4 371.5l-3.1-34.1 29.5 8.2 2.8 23.5z" class="F"/><path d="M372.8 345.6s-.2.3-.7.9c-.6.6-1.3 1.5-2.1 2.5l-7.5 8.5-.2.2-.2-.2-4-4.2-10.5-11.1-3.1-3.4-1.1-1.3s.5.4 1.2 1.2l3.2 3.3 10.6 11 4 4.2h-.4l7.6-8.3 2.3-2.4c.6-.7.9-1 .9-.9zm-16.5 6.3c.1.1-1.9 4.1-4.6 9s-4.9 8.9-5.1 8.8c-.1-.1 1.9-4.1 4.6-9 2.7-5 4.9-8.9 5.1-8.8zm18.6 17.2c-.1.1-2.2-3.2-4.6-7.2l-4.2-7.5c.1-.1 2.2 3.2 4.6 7.2l4.2 7.5z" class="B"/><path d="M365.1 344.1v2.8l4.3.5.2-2.1zm-15.2-13.9v4l8.1 1.3.4-3.1-8.5-2.2z" fill="#fff"/><path d="M318.3 393.6l-.4-20-16.2 1.1 1.7 20.3z" class="C"/><path d="M343.808 406.624l27.177-2.577 2.275 23.992-27.177 2.577z" class="H"/><path d="M373.2 428.1s0-.2-.1-.5c0-.3-.1-.8-.1-1.3l-.5-4.9-1.8-17.3.2.2-27.1 2.6c-.1.1.4-.5.2-.3h0v.8l.1.8c.1.5.1 1.1.2 1.6l.3 3.2.6 6.2 1.1 11.4-.3-.2 25.2-2.2c.6 0 1.1-.1 1.5-.1h.5s-.2 0-.5.1c-.4 0-.8.1-1.4.2l-5.5.6-19.7 2h-.2v-.2l-2-20.8c-.1-.5-.1-1.1-.2-1.6l-.1-.8v-.8c-.2.3.3-.4.2-.3l27.1-2.5h.2v.2l1.5 17.5.4 4.8c0 .5.1.9.1 1.3.1.2.1.3.1.3zm-4.4-18.3c0 .1-4.7.8-10.6 1.4s-10.6 1-10.7.9c0-.1 4.7-.8 10.6-1.4s10.7-1 10.7-.9zm-.1 4.1c0 .1-1.1.4-2.9.7-1.8.4-4.3.8-7.2 1.1l-7.2.6c-1.9.1-3 0-3 0 0-.1 1.1-.2 3-.3l7.2-.7 10.1-1.4zm1.1 8.9c0 .1-1.1.4-2.9.7-1.8.4-4.3.8-7.2 1.1l-7.2.6c-1.9.1-3 0-3 0 0-.1 1.1-.2 3-.3l7.2-.7 10.1-1.4zm-1.4-4.5c0 .1-4.4.9-9.9 1.7s-10 1.3-10 1.2 4.4-.9 9.9-1.7c5.6-.8 10-1.4 10-1.2z" class="B"/><path d="M392.4 455.5s22.3-14.8 24.1-22.3c1.7-7.6 2.8-14.4 2.8-14.4l-23.9-9.9 2.4 8.6s-8.6 5.1-9.4 11.3c-.6 4.1-11.6 11.1-11.6 11.1h0c-1.9-2.3-4.7-3.5-7.7-3.3l-9.3.7 6.3 14.2 26.3 4z" class="D"/><g class="E"><path d="M401.1 435.2s-.4.2-1.1.4l-3 .9c-1.2.4-2.5 1.2-3.9 2.3-1.3 1.1-2.9 2.3-4.8 3-3.8 1.6-7.6 1.5-10.1.8-.6-.2-1.2-.3-1.7-.6s-.7-.8-.6-1.2.3-.6.5-.7.3 0 .3 0-.1 0-.3.1c-.1.1-.3.3-.3.7 0 .3.2.7.6 1s1 .4 1.6.5c2.5.6 6.2.6 9.9-1 1.8-.7 3.3-1.9 4.7-2.9 1.4-1.1 2.8-1.9 4.1-2.2 1.3-.4 2.3-.5 3-.7.7-.3 1.1-.4 1.1-.4zm-15.4 11.5c0 .1-1.1-.6-3.1-1.4-1.9-.8-4.6-1.6-7.8-1.9-.8-.1-1.6-.1-2.3-.1h-.1l-.1-.1c-1.4-2.2-3-3.8-4.2-4.9l-2-1.7.6.3c.4.2.9.6 1.6 1.1 1.3 1 2.9 2.7 4.4 4.9l-.2-.1 2.3.1c3.2.3 6 1.2 7.8 2.1.9.4 1.7.9 2.2 1.2.6.2.9.4.9.5z"/><path d="M391.7 442.6c0 .1-1.5.7-3.3 1.7l-3.1 1.9c-.1-.1 1.1-1.4 2.9-2.4s3.5-1.3 3.5-1.2zm12.1-26.6c0 .2-1.6 0-3.3.4-1.8.5-3 1.4-3.1 1.2-.1-.1 1.1-1.3 3-1.7 1.9-.5 3.4 0 3.4.1z"/></g></svg>