<svg xmlns="http://www.w3.org/2000/svg" xmlns:xlink="http://www.w3.org/1999/xlink" viewBox="0 0 500 500"><style><![CDATA[.B{fill:#263238}.C{fill:#46327a}.D{fill:#ffbe9d}.E{fill:#fafafa}.F{fill:#eb996e}.G{fill:#b78876}.H{fill:#455a64}]]></style><path fill="#f8db01" d="M438.4 137.2c-10.2-20.8-26-39.5-47-49.2-36-16.7-80.6-3.2-109.8 23.7-15.5 14.3-28 32.3-46.1 43.1-30.7 18.3-70.5 12.1-103.3 26.3-29.7 12.8-50.8 42.4-55.7 74.4s5.7 65.5 26.1 90.5c20.5 25 50.2 41.8 81.8 48.9l37.4 1.1c36 1 72-5.2 105.2-19.2 32.9-13.8 62.6-34.4 85.2-61.9 40.2-48.8 54-120.8 26.2-177.7z"/><path fill="#1a164e" d="M461.9 437c0 .1-97.4.3-217.5.3-120.2 0-217.6-.1-217.6-.3 0-.1 97.4-.3 217.6-.3l217.5.3z"/><path d="M339.7 264c1.6 6-.5 12.8-5.2 16.9-3 2.7-7 4.3-9.8 7.2-3.6 3.8-4.6 9.7-3 14.7s5.5 9.1 10.2 11.3c6.4 3.1 14.4 2.8 20.6-.7 7.7-4.4 12.2-13.1 13.4-21.9 1.1-8.8-.7-17.7-3-26.3m74.3 154.1c8-1.3 15.5 1.1 23.4 2.9 2.1.5 4.4.9 6.5.3 3.4-.9 5.9-4.2 6.4-7.7.5-3-.3-6.2-2-8.8-.7-1.1-1.6-2.1-2.7-2.7-1.2-.7-2.5-.9-3.8-1-4.8-.5-9.7.6-14.1 2.7s-8.3 5.1-11.7 8.5c-1.8 1.7-1.3 3.6-2 5.8M275 290.2c-1.3-7.6-1.1-15.4.5-23 .8-3.7 1.9-7.3 4-10.5.7-1.1 1.7-2.2 2.9-2.8 1.7-.7 3.8-.1 5.2 1.2 1.8 1.7 2.5 4.3 2.5 6.7-.1 2.5-.9 4.8-1.8 7.1-3.2 8.1-8.1 14.7-13.3 21.3" class="B"/><path d="M430 319.1c1.8 1.3 42.1 87.9 42.1 87.9h0c-3.2-1.4-6.8-1.7-10.2-1l-2.2.6c-3.9 1-7.6 2.7-11 5l-11.5 7.8c-.9-.5-1.5-1.5-1.6-2.5v-.3L404.4 363l25.6-43.9z" class="C"/><path d="M279.1 181.3l10.7 60.9c3.5 8.2 43.7 57.9 43.7 57.9l-13.3 42.7-52.8-72.3c-4.9-5.2-7.6-12.2-7.4-19.4l2.1-65.1 17-4.7z" class="D"/><path d="M336.1 290.6l27.6 2.1 24.1 3.7s42.2 11.1 42.2 15.7c0 1.5-11.5 38.2-18 60.2-2.8 9.5-3.9 16.2-3.9 16.2L430 437H326.2v-44.5s-7-58.3-5.8-66.3 15.7-35.6 15.7-35.6z" class="C"/><path d="M266 156.7c.2-6.2.8-12.4 1.9-18.5.2-.9.5-1.9 1.4-2 1.1-.1 1.6 1.2 1.8 2.3 1 7.3.6 14.9-.9 22.1" class="F"/><g class="C"><path d="M278.3 285.7c11.8-10.6 12.2-28.9 11.2-43.5-.1-1.1-.2-2.3.5-3.1 1.1-1.6 3.9-1 5 .6s1 3.8.9 5.7c.6-1.7 3.2-1.7 4.4-.4s1.4 3.2 1.6 5c.1 1.6.3 3.3.4 4.9l34.6 33s1-3 3.5-1.3 4.2 5.4 4.2 5.4l-24.4 53.2-45.2-55c0-.1 1.4-2.8 3.3-4.5z"/><path d="M325.2 322.5c-3.5 4.7-6.4 9.9-7.9 15.5s-1.6 11.8.5 17.2c2.9 7.7 10.2 13.6 18.3 14.8"/></g><path d="M437.2 419.3l-1.3 17.7h25.6l6-31.3c-7.8-.4-15.5 2-21.7 6.8l-8.6 6.8z" class="D"/><g class="B"><path d="M290.3 281.8l.6-1.4 1.5-3.8 1.9-5.8c.6-2.2 1.1-4.7 1.5-7.3s.6-5.1.6-7.4l-.1-6.1-.4-4.1c-.1-1-.2-1.5-.1-1.5 0 0 .2.5.3 1.5.2 1 .4 2.4.6 4.1s.3 3.8.3 6.1-.2 4.8-.6 7.5c-.4 2.6-1 5.1-1.6 7.3s-1.3 4.2-2 5.8l-1.7 3.8c-.5.9-.7 1.3-.8 1.3zm7.6-9.3c-.1 0 .4-1 1.1-2.5a31.29 31.29 0 0 0 2-6.3c.6-2.5.8-4.8.9-6.5l.2-2.7c.1 0 .2 1 .2 2.8 0 1.7-.2 4.1-.8 6.6-.6 2.6-1.5 4.8-2.2 6.3-.8 1.5-1.4 2.4-1.4 2.3zm40.6 27.7c-.1 0 .3-.7.6-1.9s.2-2.9-.3-4.6c-.5-1.8-1.3-3.3-1.7-4.4-.5-1.1-.8-1.8-.7-1.9.1 0 .4.6 1 1.7s1.4 2.6 1.9 4.4.5 3.6.1 4.9c-.3 1.2-.9 1.8-.9 1.8zm-6 70.4l-.4-.2-1.2-.8-4.2-3.1c-1.7-1.4-3.7-3.1-5.6-5.4s-3.5-5.1-4.3-8.5c-.8-3.3-.9-6.6-.6-9.5s1-5.5 1.7-7.6l1.9-4.9.6-1.3c.1-.3.2-.4.2-.4l-.7 1.8-1.7 4.9c-.6 2.1-1.3 4.6-1.6 7.5s-.2 6.1.6 9.3 2.4 6 4.2 8.3c1.8 2.2 3.8 4 5.5 5.4l4.1 3.2 1.1.9.4.4zm56.6 9.9s-.1.1-.4.2-.7.2-1.3.3c-1.1.3-2.8.5-4.9.6-4.1.2-10.1-.8-15.6-4.2-5.4-3.5-8.9-8.4-10.5-12.2-.8-1.9-1.3-3.5-1.6-4.7-.1-.6-.2-1-.3-1.3 0-.3-.1-.5 0-.5a35.58 35.58 0 0 0 .5 1.7c.3 1.1.8 2.7 1.7 4.6 1.7 3.7 5.1 8.6 10.4 12s11.2 4.4 15.3 4.3c2.1 0 3.7-.2 4.9-.4 1.2-.3 1.8-.4 1.8-.4zm16 19.4c-.1 0 1.2-5.6 3-12.3 1.8-6.8 3.3-12.3 3.5-12.2.1 0-1.2 5.6-3 12.3l-3.5 12.2z"/><path d="M419 388.2c-.1.1-4.1-6.5-9-14.7l-8.5-14.9c.1-.1 4.1 6.5 9 14.7 4.8 8.1 8.7 14.8 8.5 14.9zm38.4 16.2c0 .1-1.5.2-3.7.8-1.1.3-2.5.7-3.9 1.3s-3 1.4-4.5 2.3c-1.5 1-2.9 2-4 3.1l-2.9 3-2.3 3s.1-.3.5-.9c.3-.6.9-1.4 1.6-2.3.7-1 1.7-2 2.8-3.1 1.2-1.1 2.5-2.2 4.1-3.1 1.5-1 3.1-1.7 4.6-2.3s2.8-1 4-1.2l2.8-.4c.5-.2.9-.2.9-.2zm4.9-6c0 .1-1.6-.1-4.2.1-1.3.1-2.8.4-4.4.8l-5.2 1.9c-1.7.9-3.3 1.9-4.6 3s-2.4 2.1-3.3 3.1c-1.7 1.9-2.5 3.3-2.6 3.3l.5-1 .7-1.1c.3-.4.6-.9 1.1-1.4.8-1 1.9-2.1 3.3-3.2 1.3-1.1 2.9-2.1 4.7-3.1 1.8-.9 3.6-1.5 5.3-1.9s3.2-.6 4.5-.7c.7-.1 1.2 0 1.8 0 .5 0 1 0 1.3.1.7 0 1.1 0 1.1.1z"/></g><path d="M355.6 360.8c-2.4 4.5-.4 9.9 1.8 14.5 1.7 3.5 3.5 7.1 6.6 9.6 3 2.4 7 3.5 10.8 3a14.08 14.08 0 0 0 9.6-5.9c-12.7.1-25-8.6-29.2-20.6m46.3-2.8c-1.8 4.3-.4 10.2 1.4 14.4 1.9 4.3 3.9 9 2.4 13.4-.3.8-.7 1.7-.6 2.5.1.9 1 1.7 1.8 1.3.4-.2.6-.8.8-1.2l4.3-12.8" opacity=".3"/><path d="M306.9 302.1c-.1 0 .3-3.6 1-8l1.5-7.9c.1 0-.3 3.6-1 8-.6 4.4-1.3 7.9-1.5 7.9zm-10.5-2.2c-.1.1-1.8-2.3-4.2-5.1l-4.4-4.9c.1-.1 2.4 1.8 4.8 4.6s3.9 5.3 3.8 5.4zm9-25.8c.1 0-.4.7-1.1 1.8l-3.2 4-3.5 3.8c-.9.9-1.5 1.5-1.6 1.4s2.1-2.5 4.7-5.5l4.7-5.5zm-3.5-12.6c-.1.1-.7-1.2-1.8-2.5s-2.3-2-2.2-2.2c.1-.1 1.4.5 2.6 1.8 1.2 1.5 1.5 2.9 1.4 2.9zm-9.1 7.8c0 .1-1.1.4-2.6.7-1.5.2-2.7.3-2.7.2s1.1-.4 2.6-.7 2.7-.3 2.7-.2zm23 11.1c-.2 0 .2-2.1-.3-4.7-.5-2.5-1.8-4.3-1.6-4.4.1-.1 1.6 1.6 2.1 4.3.6 2.7-.1 4.9-.2 4.8zm12.3 13.2c-.1.1-1.2-2-3.2-4.1-2-2-4.1-3.1-4-3.2 0-.1 2.3.8 4.4 2.9s2.9 4.4 2.8 4.4zm-19.7 23c0 .1-2 .9-4.6.8s-4.6-1-4.6-1.1c0-.2 2 .5 4.6.6 2.5 0 4.5-.5 4.6-.3zm9.2 4.7c-.1-.1.6-2.4 1.3-5.3l1.1-5.3c.1 0 .1 2.5-.6 5.4-.6 3-1.6 5.3-1.8 5.2zm20.3.8c-.1.1-2.1-1.9-4.4-4.4l-4-4.8c.1-.1 2.1 1.9 4.4 4.4l4 4.8zm9.4 23.4c-.1.1-1.6-1.2-3.3-3s-3-3.3-2.9-3.4 1.6 1.2 3.3 3 3 3.3 2.9 3.4zm-17.5 2.2c.1.1-1.6 1.6-4 3s-4.6 2.1-4.6 2c-.1-.1 2-1 4.4-2.4l4.2-2.6zm8 22.2c-.2 0 .4-2.7.7-6l.4-6c.1 0 .5 2.7.2 6-.3 3.5-1.1 6.1-1.3 6zm30.3-18.1c-.1.1-2.2-1.4-4.3-3.8s-3.3-4.7-3.2-4.8 1.5 2.1 3.6 4.5l3.9 4.1zm11.1 9.5c-.1-.1 1.4-2.2 3.1-4.8l3.1-4.8c.1.1-.9 2.4-2.6 5.1-1.8 2.6-3.5 4.6-3.6 4.5zm-1.6-23.1c0 .1-2.3-.4-5.1-1.1s-5-1.5-4.9-1.6c0-.1 2.3.4 5.1 1.1 2.7.7 4.9 1.5 4.9 1.6zm-8.1 40.6c-.1 0-.1-2.1 0-4.7l.5-4.7c.1 0 .1 2.1 0 4.7s-.3 4.7-.5 4.7zm7 13.9c-.1-.1.9-2.1 1.3-4.9s-.1-5.1.1-5.1c.1 0 .8 2.3.4 5.2s-1.7 4.9-1.8 4.8zm-18.1-3c-.1 0-.4-2.3.1-5.2.5-2.8 1.7-4.9 1.8-4.8s-.8 2.2-1.3 4.9-.4 5.1-.6 5.1zm-16.5 7c-.1.1-2.1-1.6-4.7-3.6l-4.6-3.7c.1-.1 2.4 1.3 5 3.3 2.5 2 4.4 3.9 4.3 4zm11.2-19.6c.1.1-2.6 1.7-5.9 3.4-3.3 1.8-6 3.1-6.1 2.9-.1-.1 2.6-1.7 5.9-3.4l6.1-2.9z" class="E"/><path d="M387.8 421.1s-.2.1-.6.2-1.1.2-1.9.3c-1.6.3-4 .5-7 .5s-6.5-.5-10.3-1.5-7.9-2.7-11.7-5.1c-3.9-2.4-7.1-5.4-9.7-8.3a44.62 44.62 0 0 1-5.9-8.7c-1.4-2.7-2.2-4.9-2.7-6.5-.3-.8-.4-1.4-.5-1.8s-.2-.6-.1-.7c0 0 .1.2.2.6s.3 1 .6 1.8c.5 1.6 1.4 3.8 2.8 6.4s3.3 5.6 5.9 8.5 5.8 5.8 9.6 8.2 7.8 4 11.6 5 7.3 1.5 10.2 1.6a45.24 45.24 0 0 0 7-.3c.8-.1 1.5-.2 1.9-.3.4.1.6.1.6.1z" class="B"/><path d="M357.9 415.9c-.1 0-.5-2.2.5-4.7.9-2.5 2.7-4 2.8-3.9s-1.4 1.6-2.3 4.1c-.9 2.4-.8 4.5-1 4.5zm-8.2-3.4c.1.1-1.4.9-2.6 2.5s-1.5 3.2-1.6 3.2-.1-1.8 1.2-3.5c1.2-1.8 3-2.3 3-2.2zm31.6 18.8c0 .1-2.3-.1-4.6-1.5s-3.5-3.4-3.4-3.5 1.4 1.6 3.7 3c2.2 1.5 4.4 1.9 4.3 2zm5-27.7c.1 0-.2 2.1-1.8 4s-3.6 2.5-3.6 2.4c-.1-.1 1.7-.9 3.2-2.8 1.5-1.7 2-3.6 2.2-3.6zm13.9 20.7c-.1-.1 1.2-1.8 2.4-4.1l2-4.3c.1 0-.3 2.2-1.6 4.5-1.1 2.4-2.7 4-2.8 3.9zm18.5 2.7c.1.1-1.8.9-3.6 2.4s-2.9 3.1-3.1 3c-.1-.1.8-1.9 2.7-3.4 2-1.6 4-2.1 4-2zm-14.1-23.7c-.2 0-1-2.9-2.9-6.1-1.8-3.3-3.9-5.5-3.7-5.6 0 0 .6.5 1.4 1.4s1.8 2.3 2.8 4c.9 1.7 1.6 3.2 2 4.4s.5 1.9.4 1.9zm2.8-29.7c0 .1-2.1.7-4.7 1.4l-4.9.9c0-.1 2.1-.7 4.7-1.4 2.7-.7 4.9-1.1 4.9-.9zm-8.5-8.9c-.1.1-1.5-1.5-3.1-3.5s-2.8-3.7-2.7-3.8 1.5 1.5 3.1 3.5 2.8 3.7 2.7 3.8zm21.1-5.4c0 .1-2.2 0-4.8-.6s-4.6-1.5-4.6-1.6c.1-.1 2.1.5 4.7 1.1l4.7 1.1zm14.9-.2c-.1-.1.7-1.9 1.5-4.2l1.5-4.2c.1 0-.2 2-1 4.3-.8 2.4-1.8 4.1-2 4.1zm-3.3 20.3c0 .1-2.1-.4-4.4-1.7s-3.7-2.9-3.6-3 1.7 1.3 3.9 2.6l4.1 2.1zm9.7-.6c-.1 0 .4-2.7 1.1-5.9s1.5-5.9 1.6-5.8c.1 0-.4 2.7-1.1 5.9s-1.4 5.8-1.6 5.8zm-8.1 22.7c-.1.1-1.7-1.9-3.5-4.4l-3.1-4.7c.1-.1 1.7 1.9 3.5 4.4l3.1 4.7zm13.9-8.7c-.1.1-1.1-1.7-2.5-3.8l-2.7-3.6c.1-.1 1.7 1.2 3.1 3.3 1.5 2.1 2.2 4 2.1 4.1zm13-2c-.1.1-1.4-1.9-3.2-4.2l-3.2-4.2c.1-.1 1.8 1.5 3.6 3.9s2.9 4.5 2.8 4.5zm-3.1 8.7c-.2 0-.1-1.7-1.2-3.4s-2.7-2.3-2.7-2.4.5 0 1.1.3a5.43 5.43 0 0 1 2 1.8c.6.9.9 1.9.9 2.6.1.6 0 1.1-.1 1.1zm-10.1 11.8c-.1 0-.1-.3-.1-.6-.1-.3-.3-.8-.7-1.1s-.9-.4-1.3-.4-.6.1-.6 0 .1-.3.6-.4c.4-.1 1.1-.1 1.7.3s.7 1.1.7 1.5c-.1.5-.3.7-.3.7zm-104.1 18.9c0 .1-2.6-.9-5-3.2-2.4-2.4-3.4-5-3.2-5 .1-.1 1.3 2.3 3.6 4.6s4.7 3.5 4.6 3.6z" class="E"/><path d="M279.2 182c-1.6-15.2-4.5-29.5-5.3-44.4 0-.7-.1-1.6-.7-2.1-.8-.6-2.1-.1-2.6.8s-.5 2-.5 3c0 7.9-1.3 15.8-4 23.3-1.7 4.8-4 9.5-5.3 14.5s1.1 6.7 3.4 11.3" class="D"/><path d="M228.1 121.8c-.1.1-5.7-4.5-12.6-10.2L203.3 101c.1-.1 5.7 4.5 12.6 10.2 6.8 5.7 12.3 10.5 12.2 10.6zm28.5-6.9c-.1 0-.7-8.9-1.3-19.9s-.9-19.9-.7-19.9c.1 0 .7 8.9 1.3 19.9s.9 19.9.7 19.9zm-18.1-6.3c-.1 0-1.9-5-3.9-11.3s-3.6-11.4-3.4-11.5c.1 0 1.9 5 3.9 11.3s3.5 11.4 3.4 11.5zm-16.2 22.5c-.1.1-3.5-1.3-7.7-3.3l-7.5-3.7c.1-.1 3.5 1.3 7.7 3.3l7.5 3.7zM196 119.7c0 .1-.8.2-1.9 0-1-.1-1.8-.3-1.8-.5 0-.1.8-.2 1.9 0 1 .1 1.8.3 1.8.5zm35.8-40.4c-.1 0-.3-.8-.3-1.8s.1-1.8.3-1.8c.1 0 .3.8.3 1.8-.1 1-.2 1.8-.3 1.8zM292 93.4c.1.1-4.5 5.4-10.3 11.8L271 116.7c-.1-.1 4.5-5.4 10.3-11.8L292 93.4zm7.3-7.3c.1.1-.4.8-1.2 1.6s-1.5 1.3-1.6 1.2.4-.8 1.2-1.6c.9-.7 1.5-1.3 1.6-1.2zm17.9 25.6l-1.4.8-3.8 2c-3.2 1.6-7.8 3.8-12.9 5.9s-9.9 3.8-13.3 5c-1.7.6-3.1 1-4.1 1.3s-1.5.4-1.5.4l1.5-.6c1-.4 2.4-.9 4-1.4 3.4-1.2 8.1-3 13.2-5.1s9.7-4.2 13-5.8c1.6-.7 2.9-1.4 3.9-1.8.8-.5 1.4-.7 1.4-.7zm-14.7 24.7c0 .1-1 .4-2.7.9s-4 1-6.6 1.4l-6.7.8-2.8.1c0-.1 1.1-.2 2.8-.4l6.6-1 6.6-1.3 2.8-.5zm13.3-2.5c0 .1-1.3.3-2.9.3s-2.9-.1-2.9-.3c0-.1 1.3-.3 2.9-.3s2.9.2 2.9.3z" fill="#1a164e"/><path d="M264.2 188.3c-4-3-6.1-8.3-5.3-13.2.5-3 2-5.7 3.2-8.5s2.1-5.9 1.4-8.9c-.3-1.1-.8-2.2-.8-3.4s.7-2.5 1.9-2.5c.9 0 1.6.6 2.2 1.3 1.9 2.4 3.5 9.5 2.5 14.7" class="D"/><path d="M269.3 167.8c-.1 0 .1-.8.2-2.3 0-1.5 0-3.6-.5-6.1-.3-1.3-.6-2.7-1.2-4.1-.3-.7-.6-1.4-1.1-2s-1.1-1.2-1.9-1.3-1.4.6-1.7 1.4-.1 1.7.2 2.6.6 1.8.7 2.8.1 2-.1 3c-.7 4.1-2.9 7.3-4 10.6-.6 1.6-.9 3.2-.9 4.7s.2 2.9.6 4.2c.8 2.5 2 4.2 3 5.3s1.6 1.5 1.6 1.6c0 0-.2-.1-.5-.3s-.8-.6-1.3-1.1c-1-1-2.4-2.8-3.2-5.3-.4-1.3-.7-2.7-.7-4.3s.3-3.2.9-4.9c1.1-3.3 3.2-6.6 3.9-10.5.2-1 .2-1.9.1-2.9-.1-.9-.4-1.8-.7-2.7s-.5-1.9-.1-2.9c.2-.5.4-.9.8-1.2s.9-.5 1.4-.5c1 .1 1.7.8 2.2 1.5s.9 1.4 1.2 2.2c.6 1.5.9 2.9 1.2 4.2.5 2.6.5 4.8.4 6.2-.1.7-.1 1.3-.2 1.7-.3.2-.3.4-.3.4z" class="F"/><path d="M400 249.1c.5 2.9 3.3 5.1 6.2 5.3s5.8-1.3 7.5-3.7 2.3-5.5 1.9-8.4c-.6-4.2-3.4-8.3-7.4-9.5-4.1-1.3-9.1 1-10.2 5.1l-4.7 6.5 6.7 4.7z" class="B"/><path d="M394.5 236.2c1.9-15.2-9.1-29-24.5-30.5-14.5-1.4-27.4 9.4-29.6 23.8-1.9 12.6-3.5 25.4-3.5 30 .2 14 8.4 19.4 11.7 21 .8.4 2.8.8 3.7.9h0c.1 0 .1.1.1.1l-3.1 16c-1.4 10.5 4.5 19.9 15 21.4s18.8-6.5 20.4-17.1l9.8-65.6z" class="D"/><path d="M342.8 237.7c.2.3 2.1-.7 4.4-.3 2.4.3 3.9 1.8 4.2 1.5.1-.1-.1-.7-.7-1.3-.7-.7-1.9-1.4-3.3-1.6-1.5-.2-2.8.2-3.6.6-.8.5-1.1 1-1 1.1zm21.1 4.6c.2.3 2.1-.7 4.4-.3 2.4.3 3.9 1.8 4.2 1.5.1-.1-.1-.7-.7-1.3-.7-.7-1.9-1.4-3.3-1.6-1.5-.2-2.8.2-3.6.6-.8.5-1.2 1-1 1.1zm-8.2 11.2c0-.1-1.4-.6-3.7-1.3-.6-.2-1.1-.4-1.2-.8-.1-.5.3-1.1.7-1.7l2.5-4.3c3.4-6.2 6-11.3 5.8-11.4-.3-.1-3.2 4.8-6.7 11l-2.4 4.4c-.3.7-.8 1.4-.7 2.3.1.5.5.9.9 1 .4.2.7.2 1 .3 2.3.4 3.7.6 3.8.5z" class="B"/><path d="M352.4 281.6s9 2.1 21.4-3.1c0 0-5.4 11.5-22.3 7.4l.9-4.3zm3.4-22.3c1-1 2.6-1.4 4.1-1 1 .3 2 .9 2.5 1.8s.5 2.1-.2 2.8c-.8.8-2.1.8-3.2.3s-1.9-1.4-2.8-2.2c-.2-.2-.5-.5-.6-.8s-.1-.7.1-.9" class="F"/><path d="M362.4 256.1c-.4-.1-.8 2.5-3.2 4-2.5 1.5-5.2.8-5.2 1.2-.1.2.5.6 1.7.8 1.1.2 2.8.1 4.3-.8s2.3-2.3 2.5-3.4c.3-1.1.1-1.8-.1-1.8zm3.1-21.5c.1.7 2.5.7 5.3 1.5 2.7.7 4.9 1.8 5.3 1.3.2-.3-.1-.9-.9-1.7s-2.2-1.6-3.8-2-3.2-.4-4.3-.1-1.7.7-1.6 1zm-20.3-4.2c.3.6 2 .3 4 .5s3.6.9 4 .4c.2-.2 0-.8-.6-1.4s-1.8-1.2-3.1-1.4c-1.4-.2-2.6.2-3.4.6-.7.5-1 1.1-.9 1.3zm-7.5-4c2.9 4.4 12.1 1.7 17.6-1.3 5.8 3.9 14 2.2 18-3.7 3.2 4 9.6 2.7 12-1.8 2.3-4.6 1-10.8-2.2-14.8s-7.9-6-12.6-6.9c-11-2-23.1 2.2-29.7 12.2-3.1 4.6-4.9 10.8-3.1 16.3" class="B"/><path d="M368.2 199.4c0 .2-2.6-.3-6.7.4-4 .7-9.7 2.8-13.9 7.5-4.1 4.8-6 10.4-6.7 14.5s-.2 6.7-.3 6.7-.2-.6-.4-1.8c-.1-1.2-.2-2.9.1-5 .5-4.2 2.3-10 6.6-15 4.4-4.9 10.3-7 14.5-7.5 2.1-.3 3.8-.2 5-.1s1.8.3 1.8.3zM353.3 220c-.1 0-.2-.5-.2-1.6-.1-1 0-2.5.4-4.3.8-3.5 3.4-8.4 8.3-11.4 5-2.9 10.5-2.8 14-1.7 1.8.5 3.1 1.2 4 1.7s1.3.9 1.3 1c-.1.2-1.9-1.2-5.4-2-3.4-.8-8.7-.8-13.4 1.9-4.7 2.8-7.2 7.4-8.1 10.8-1.1 3.3-.7 5.6-.9 5.6z" class="H"/><g class="B"><path d="M379.8 215.2c-.9 3.9-1.9 7.9-1.9 12 0 4 1 8.2 3.6 11.3 3.9 4.7 10.3 6.1 16.2 7.2 3.2-7.9 4.2-16.6 2.8-25-.7-4.1-2-8.3-4.9-11.2-4.2-4.3-11.4-5.2-16.5-2"/><path d="M383.1 234.6c-1.6 3.4-1.4 7.3-.9 11s1.5 7.3 1.4 11.1c0 3.7-1.2 7.7-4.1 10-.8.7-1.8 1.2-2.5 2s-1.1 2-.5 2.9 2.2.9 2.5-.1l-.2.3c-.6 1.1.1 2.5 1.4 2.5 2 0 4-1.1 5.3-2.6 1.9-2.2 2.7-5.2 3.2-8.1 1.5-8.8 1.2-18 3.7-26.6"/></g><path d="M349.2 292.5c1.4 6 5.4 11.3 10.9 14.2 5.4 2.9 12.1 3.3 17.9 1.1 5.2-2 9.4-5.9 13.4-9.7 1.4 8.6-1 17.9-6.4 24.7-5.5 6.9-13.9 11.2-22.7 11.8-6.6.4-13.7-1.6-17.9-6.8-2.9-3.6-4.1-8.4-4-13 0-4.6 1.2-9.2 2.6-13.6 1.2-3.8 3.1-8 6.9-9.1" class="C"/><path d="M396.6 246c4 2.2 6.1 6.6 6.9 11.1.8 4.4.4 9 .6 13.5s1.1 9.2 3.9 12.7c3 3.7 7.8 5.5 12 7.7 9.3 5 17 13.5 19.8 23.7s.3 22-7.4 29.3c-7 6.7-17.1 9-26.7 9-6.9 0-14.4-1.5-18.7-6.9-4.2-5.3-4-12.9-2.5-19.5s4.2-13.1 4.4-19.8c-1 4.2-2.8 8.2-5.3 11.7-.7 1-1.9 2.1-3 1.5-1.2-.6-.7-2.5-.2-3.7 8.3-18.4 5.4-55.6 10.3-75.9" class="B"/><path d="M389.8 243.9c.2-.1 9.9-1.9 8.7 7.6-1.2 9.6-10.6 6.3-10.6 6.1s1.9-13.7 1.9-13.7z" class="D"/><path d="M391.3 254.4s.2.1.4.3c.3.2.7.3 1.2.2 1.1-.2 2.1-1.7 2.4-3.4.1-.9.1-1.7-.2-2.4-.2-.7-.6-1.3-1.1-1.4-.5-.2-.9.1-1 .3-.2.3-.1.4-.2.5 0 0-.2-.2-.1-.6.1-.2.2-.4.5-.6s.6-.2 1-.1c.7.1 1.3.9 1.5 1.7.3.8.4 1.8.2 2.7-.3 1.9-1.5 3.6-3 3.8a1.72 1.72 0 0 1-1.5-.5c-.1-.3-.1-.5-.1-.5z" class="F"/><path d="M339.3 313.2c-.1 0 .6-1.2 1.6-3s2.5-4.3 3.5-7.3 1.2-5.9.9-7.9-.9-3.2-.8-3.3c0 0 .2.3.4.8a14.6 14.6 0 0 1 .7 2.4c.4 2.1.3 5.1-.7 8.1-1 3.1-2.5 5.6-3.6 7.3l-1.4 2.1-.6.8z" class="B"/><path d="M344.2 302.1c-.1 0-.4-.8-1.3-1.4-.8-.6-1.7-.6-1.7-.7s.2-.2.6-.2.9.1 1.4.5c.5.3.8.8.9 1.2.2.4.1.6.1.6zm6.1 0c-.1.1-.9-1.3-2.5-2.3-1.5-1-3.1-1.2-3.1-1.3s1.7-.2 3.4.9c1.8 1.1 2.4 2.7 2.2 2.7zm3.9 20.3c-.1 0 .1-1.9.6-4.1l1.1-4c.1 0-.1 1.9-.6 4.1-.4 2.2-.9 4-1.1 4zm15.6 3.1c-.1 0-.2-1.9-.1-4.3s.3-4.3.4-4.3.2 1.9.1 4.3l-.4 4.3z" class="E"/><path d="M51.3 369.9L35.9 437l32.6.1 15.1-59z" class="G"/><path d="M211.5 287.4c-3.1-4.2-6.7-8.1-8.3-13.1-.8-2.4-1.1-4.9-1.9-7.3s-2.4-4.7-4.7-5.5c-2.3-.9-4.1 0-5.6 1.7l-11.2 32.7 6.5 25.1c6.4-1.5 14.5-3.2 20.5-5.9s10-7 10.4-13.6c.2-5.1-2.6-9.9-5.7-14.1z" class="B"/><path d="M109.6 281.6s-38.9 16.9-43.8 24.6C61 313.8 45 368.3 45 368.3l41 12.1-.7 56.6h100.5l-.8-100-12.6-55.3s-22.2-1.4-24.2-2.4c-2.1-.9-38.6 2.3-38.6 2.3z" class="C"/><g class="G"><path d="M247.9 143c.3-2.3-1.3-4.8-.1-6.8.6-1.1 1.9-1.6 3.1-2.1.6-.2 1.3-.5 1.9-.5.7 0 1.4.4 1.6 1 .3.7-.2 1.5-.8 2.1-.5.5-1.2 1-1.5 1.7-.4 1 0 4 .4 4.9.7 1.6 3.1 8.9 3.3 10.7"/><path d="M239.6 143.8c.1-3.5 3-17.1 3.1-20.6 2.3.7 3.7 3.2 4.2 5.6s.2 4.9.6 7.3c.6 3.2 2.2 6.2 4 9 1.7 2.8 3.5 5.7 4.2 8.9.8 3.2 3.7 11.5 1.4 13.9m-18.1-.7l-13.9 66.1c-.5 3-52.7 48.5-52.7 48.5l10.3 41.2 68.1-66.5c4.9-5.2 7.6-12.2 7.4-19.4l-1.2-62-18-7.9z"/><path d="M236.6 144.2l2.4 23 18 7.9 1-9.6c.9-8.8-8.6-12.6-12.8-19-1.8-2.8-1.3-7.9-2.7-14.2-.2-.7-1.2-5.1-1.7-7.5-.3-1.3-1-2.5-2.2-3.2-.8-.5-1.7-.8-2.4 0-.7.7.4 22.6.4 22.6z"/><path d="M247.9 171c2-1.7 2.5-4.8 1.7-7.4s-2.5-4.7-4.2-6.8c-1.8-2-3.6-4-4.7-6.5-.8-1.7-1.1-3.6-2-5.3-.8-1.7-2.4-3.2-4.3-3.3 1.5 9.5 1.5 15 4.6 25.4"/></g><g fill="#7c5142"><path d="M236.3 152.6s-.1-.3-.2-.8c-.1-.6-.3-1.3-.5-2.2l-1.6-7.5-.1-.3h.3c1.2-.1 2.4.4 3.4 1.3 1.6 1.3 2.3 3.2 2.8 4.8s1 3.1 1.6 4.2 1.3 1.8 1.8 2.4l.6.9-.8-.8c-.5-.5-1.3-1.2-1.9-2.4-.7-1.1-1.2-2.6-1.7-4.2s-1.2-3.3-2.7-4.6c-.9-.8-2-1.2-3-1.1l.2-.3c1.2 6.1 2 10.6 1.8 10.6zm8.1-5.9c-.1 0-.9-4.2-1.7-9.4l-1.1-9.5c.1 0 .9 4.2 1.7 9.4l1.1 9.5z"/><path d="M250.1 147.5s.1.1.1.4h-.2c-.3-.8-1.1-3.4-1.8-6.5l-.9-5c-.2-1.3-.3-2.1-.2-2.1s.8 3.1 1.6 7l1.5 6.6h-.2c.1-.3.1-.4.1-.4zm3.5 12.7c-.1 0-.4-.5-1.2-1.3-.7-.8-1.9-1.7-3.3-2.4-1.5-.7-2.9-1-3.9-1.1-1.1-.1-1.7 0-1.7-.1s.6-.3 1.7-.3a9.38 9.38 0 0 1 4.2 1c1.5.7 2.7 1.8 3.4 2.6.6.9.9 1.6.8 1.6zm-13 8.8c-.1 0-.5-1-1.2-2.7l-2.1-6.9-1.3-7-.2-3c.1 0 .2 1.1.5 2.9l1.4 7c.6 2.7 1.4 5.1 1.9 6.9l1 2.8z"/></g><path d="M160.2 283c1.7-2.8 5.8-3.7 8.5-2l22.2-17.8c-2.4 12-4 28.7 1.4 39.7 0 0 6.8 12.6 17.5 10.7l-9.6 9.5-15.2 14" class="C"/><path d="M157.8 288.6c-.1 0 0-2.2 1.4-4.5s3.3-3.5 3.4-3.3c.1.1-1.6 1.4-2.9 3.6-1.4 2.1-1.8 4.2-1.9 4.2zm7.9 7.4s-.5-.8-.8-2.2c-.4-1.4-.5-3.5-.2-5.7.4-2.2 1.3-4.1 2.1-5.3s1.5-1.8 1.5-1.8c.1.1-.5.7-1.2 2-.7 1.2-1.5 3-1.9 5.2-.4 2.1-.3 4.1 0 5.5s.6 2.2.5 2.3z" class="B"/><path d="M202.5 321.7s-.8.5-2.4 1c-1.6.4-4.1.6-7-.2s-6-2.9-8.4-6c-2.5-3.1-4.1-7.3-5-11.7-1.7-8.9-1.7-17.2-1.2-23.1.2-3 .6-5.3.8-7 .1-.8.3-1.5.3-1.9.1-.4.1-.7.2-.6 0 0 0 .2-.1.7s-.1 1.1-.2 1.9c-.2 1.6-.5 4-.7 7-.4 5.9-.4 14.1 1.3 23 .9 4.4 2.5 8.4 4.9 11.5 2.3 3.1 5.3 5.1 8.1 6s5.3.7 6.9.4c1.6-.6 2.4-1.1 2.5-1z" class="E"/><path d="M86.2 397.2c-.1 0-.3-14.2-.3-31.7l.3-31.7c.1 0 .3 14.2.3 31.7l-.3 31.7zm-.8-74.5c-.1 0-.1-1.4-.6-3.6-.2-1.1-.7-2.4-1.2-3.8-.6-1.4-1.4-2.8-2.5-4.2s-2.2-2.5-3.4-3.5c-1.2-.9-2.3-1.7-3.3-2.2-2-1.1-3.4-1.4-3.4-1.5 0 0 .4 0 1 .2.3.1.7.2 1.1.4s.9.3 1.4.6a22.56 22.56 0 0 1 3.4 2.1c1.2 1 2.4 2.1 3.5 3.5s1.9 2.9 2.5 4.3 1 2.7 1.2 3.9l.2 1.5c.1.5.1.8.1 1.2v1.1zm68.5-41.5s.1.3.2.8l.3 2.4c.1 2.1-.1 5.3-1.2 9-1.2 3.6-3.4 7.8-7.2 11.2-3.8 3.5-9.2 5.8-15 6.3-5.9.4-11.6-1.1-15.8-4-4.3-2.8-7.1-6.6-8.8-10-1.7-3.5-2.4-6.5-2.6-8.7-.1-1.1-.1-1.9-.1-2.5v-.9s0 .3.1.9c0 .6.1 1.4.2 2.4.3 2.1 1 5.1 2.7 8.5 1.7 3.3 4.6 7 8.8 9.8s9.7 4.3 15.5 3.8c5.8-.4 11-2.7 14.7-6.1 3.7-3.3 6-7.4 7.2-11s1.4-6.7 1.4-8.8c0-1.1-.1-1.9-.2-2.4-.2-.4-.2-.7-.2-.7z" class="B"/><path d="M85.3 367.9c0 .1-8.3-2.5-18.4-5.8l-18.3-6.3c0-.1 8.3 2.5 18.4 5.8l18.3 6.3zm98.7-13.8c0 .1-22.1.4-49.3.5s-49.3.1-49.3-.1c0-.1 22-.4 49.3-.5l49.3.1zm.5 8.7c0 .1-22.2.3-49.5.3s-49.5-.1-49.5-.3 22.2-.3 49.5-.3l49.5.3z" class="E"/><path d="M170.9 373.3l-.3.8c-.2.6-.5 1.3-.9 2.3l-.7 1.6-.9 1.9-2.3 4.6c-.5.8-.9 1.7-1.4 2.6l-1.7 2.8c-1.1 1.9-2.5 3.9-4 5.9-3 4-6.6 8.3-10.7 12.4-4.2 4.1-8.5 7.5-12.6 10.5-2.1 1.4-4.1 2.8-6 3.9-1 .6-1.9 1.1-2.8 1.6s-1.8.9-2.7 1.4c-1.7.9-3.3 1.6-4.6 2.2-.7.3-1.3.6-1.9.9-.6.2-1.2.4-1.7.6-1 .4-1.7.6-2.3.9-.5.2-.8.3-.8.3s.3-.1.8-.4c.6-.2 1.3-.5 2.3-.9.5-.2 1-.4 1.6-.7s1.2-.6 1.9-.9c1.4-.7 2.9-1.3 4.6-2.3.8-.4 1.7-.9 2.6-1.4s1.8-1.1 2.8-1.6c1.9-1.1 3.9-2.5 6-3.9a104.28 104.28 0 0 0 12.5-10.4c4.1-4.1 7.7-8.3 10.7-12.3 1.4-2.1 2.9-4 4-5.9.6-.9 1.2-1.8 1.7-2.7s1-1.8 1.5-2.6c1-1.6 1.7-3.2 2.4-4.5.3-.7.7-1.3.9-1.9.3-.6.5-1.1.7-1.6.4-.9.7-1.7 1-2.2l.3-1z" class="B"/><path d="M166.9 382c-6.7 8.2-13.8 14.1-23.6 17.9-4.7 1.8-9.7 3.1-14.3 5.2-4.6 2.2-8.9 5.4-10.9 10.1-1.6 3.6-.8 9 3 9.8 1.5.3 3-.2 4.3-.7 19.5-7 32.4-24.9 41.5-42.3" opacity=".3"/><path d="M96.9 204.1c-4.2 3.3-4.5 9.5-4.3 14.9s.3 11.5-3.6 15.2c-3.2 3.1-8.8 4.2-9.7 8.5-.4 2 .5 4.3 2.3 5.3 1.8 1.1 4.2.9 5.8-.4-1.4 3.4-.7 7.7 2.1 10 2.9 2.2 7.9 1.2 9-2.3-.7 2.3.9 5 3.2 5.6 2.3.5 5-1.2 5.4-3.6m51.1-14.4c.9 2.7 4.2 4.3 6.9 3.4 2.7-1 4.2-4.3 3.1-7-.8-2.1-3-3.6-3.1-5.9-.1-2.7 2.7-4.5 5.2-5.5 2.5-1.1 5.4-2.4 5.8-5.1.4-2.6-1.8-4.7-3.7-6.5s-3.6-4.6-2.3-6.9c.7-1.2 2-1.8 2.9-2.8 1.9-2.2 1.2-6-1.1-7.9-2.2-1.9-5.5-2.3-8.4-2-2.9.4-5.7 1.5-8.6 2.2-9.5 2.3-19.9.4-28-5" class="B"/><path d="M99.8 224.7l10.3 59.6c1.8 10.5 11.8 17.5 22.3 15.6h0c9.8-1.7 16.6-10.7 15.7-20.6l-.9-9.7s14.9-3.8 13.6-19c-.6-7.3-3.1-22.3-5.6-35.9-2.6-14.6-16-24.7-30.7-23.2l-1.5.1c-15.5 2.6-26.1 17.5-23.2 33.1z" class="G"/><g class="B"><path d="M152.1 224.6c.2 1.1-.7 2.2-1.9 2.4s-2.3-.6-2.4-1.7c-.2-1.1.7-2.2 1.9-2.4s2.3.6 2.4 1.7z"/><use xlink:href="#B"/><path d="M129.3 227.3c.2 1.1-.7 2.2-1.9 2.4s-2.3-.6-2.4-1.7c-.2-1.1.7-2.2 1.9-2.4s2.3.5 2.4 1.7z"/><use xlink:href="#B" x="-22.9" y="2.7"/><path d="M140.1 241.7c0-.1 1.4-.5 3.7-1.1.6-.1 1.1-.3 1.2-.7s-.2-1.1-.6-1.7l-2.2-4.4c-3.1-6.2-5.4-11.3-5.1-11.5.3-.1 2.9 4.8 6 11 .7 1.5 1.5 3 2.1 4.4.3.7.8 1.4.5 2.3-.1.5-.5.8-.9 1s-.7.2-1 .2c-2.2.4-3.7.6-3.7.5zM129.6 216c-.2.7-2.5.6-5.2 1.2-2.7.5-4.8 1.6-5.3 1-.2-.3.1-.9 1-1.6.8-.7 2.2-1.4 3.8-1.8 1.6-.3 3.2-.2 4.2.1 1 .4 1.6.8 1.5 1.1zm21.7-.1c-.4.6-2 .2-4 .3-1.9.1-3.5.7-4 .2-.2-.3 0-.8.7-1.4s1.8-1.1 3.1-1.2 2.5.3 3.3.8 1 1 .9 1.3zm-36.7-9.4c-2.3 2.2-3.6 5.1-3.8 8.2v.3c-.2 4.4.4 8.8.2 13.2s-1.3 8.9-4.2 12.2c-1.2 1.4-3.4 2.4-4.7 1.1-.5-.5-.6-1.2-.7-1.9-1.8-10.4-5.6-19.4-6.6-30.3-.3-3 .8-5.9 3.1-7.9 2.1-1.9 4.8-3.8 7.4-2.9 2.7 1 6.4 5.4 8.6 7.2"/></g><path d="M105.6 231.1c-.3-.1-10.7-2.1-9.4 8.3 1.3 10.3 11.4 6.9 11.4 6.6 0-.4-2-14.9-2-14.9z" class="G"/><path fill="#7c5142" d="M104 242.4s-.2.1-.4.3c-.3.2-.8.3-1.3.2-1.1-.3-2.3-1.9-2.6-3.7-.1-.9-.1-1.9.2-2.6.2-.8.6-1.4 1.2-1.6.5-.2 1 .1 1.1.4.2.3.1.5.2.5 0 0 .2-.2.1-.6-.1-.2-.2-.4-.5-.6s-.7-.2-1-.1c-.8.2-1.4 1-1.7 1.8-.3.9-.4 1.9-.3 3 .3 2.1 1.7 3.9 3.2 4.1.8.1 1.3-.2 1.6-.5.2-.4.2-.6.2-.6z"/><path d="M105.1 200.1c-3-3.9 3.5-10.5 8.4-12.7 5-2.1 11.9-.3 17.2.9 3.3.8 6.7 1.9 10 1.5 2.3-.3 4.3-1.4 6.4-2.3 2.1-1 4.2-1.9 6.5-2s4.7.9 5.8 2.9.1 5-2.1 5.5c2.7-1.9 7.1-.2 7.9 3s-2.3 6.7-5.6 6.3c1.4-1.3 3.8.4 3.8 2.2 0 1.9-1.5 3.4-3.2 4.3-4.1 2.3-9.2 2.2-13.9 1.1-4.6-1.1-9-3-13.6-4.2s-12.3-3.4-16.6-1.4c-3.2 1.5-5.1 5.6-7 5-1.9-.7-3.2-2.4-3.7-4.3-.5-1.8-.4-3.8-.3-5.8m.6 32.7c.3 5.5.6 11 1.9 16.3s3.6 10.5 7.4 14.5c5 5.1 11.6 10 18.7 11.2 7.7 1.3 17.2-.3 23.5-5 3-2.2 5.2-7 4.2-10.6 2.5-1.2 4.3-3.8 4.5-6.6s-1.5-6.3-3.8-6.7c1.7-.3 2.1-2.9 1.5-4.4-.6-1.6-2.8-1.9-4.5-1.6s-3.1 1.3-4.5 2.3-2.7 2.1-4.3 2.6c-5.4 1.7-10.8-3-16.4-2.8-5.1.2-9.6 4.4-14.7 3.7-2.8-.4-5.2-2.3-6.8-4.7s-.9-11.2-1.5-14" class="B"/><path d="M146.6 256.6c0 .1-.5-.2-1.2-.4-.8-.2-1.8-.4-3-.2s-2.1.7-2.8 1.2l-1 .8s.2-.5.8-1.1 1.6-1.2 2.9-1.4 2.4 0 3.2.3c.7.4 1.1.8 1.1.8z" class="H"/><path fill="#fff" d="M135.6 245.1c.4-.1.6 2.5 3 4.1 2.3 1.6 5 1 5.1 1.4.1.2-.6.5-1.7.7-1.1.1-2.8-.1-4.2-1-1.4-1-2.1-2.4-2.3-3.4-.3-1.1-.1-1.8.1-1.8z"/><path d="M128.1 273.1s.2.1.7.2c.4.2 1.1.4 1.9.6 1.7.5 4.1 1 7.2 1.1 1.5.1 3.2.1 5-.1 1.8-.1 3.7-.5 5.6-1.1s3.9-1.5 5.8-2.6c1.9-1.2 3.6-2.6 5-4.5 1.6-2.2 2.4-5 2-7.5v-.2l.2-.1c1.3-.5 2.3-1.5 3.1-2.6.4-.5.7-1.1 1-1.7s.4-1.2.4-1.8c.2-2.5-.9-4.8-2.4-6.1l-.1-.1.1-.1c1-1.3 1.1-2.9.6-4.1s-1.5-1.9-2.3-2.3c-.9-.3-1.6-.3-2.1-.3-.5.1-.7.1-.7.1s.2-.1.7-.2 1.3-.1 2.2.2 2 1 2.5 2.3.5 3.1-.6 4.5v-.3c1.7 1.4 2.8 3.7 2.6 6.4-.1.7-.2 1.3-.5 2-.3.6-.6 1.2-1.1 1.8-.8 1.1-1.9 2.1-3.3 2.8l.1-.3c.5 2.7-.4 5.6-2 7.9-1.4 2-3.2 3.5-5.1 4.7a24 24 0 0 1-5.9 2.7c-2 .6-3.9.9-5.7 1.1s-3.5.2-5.1 0c-3.1-.2-5.6-.8-7.2-1.3l-1.9-.7c-.5-.2-.7-.3-.7-.4zm-45.3-26.3s-.2 0-.5-.3c-.3-.2-.8-.6-1-1.3-.3-.7-.4-1.6-.2-2.7s1-2.1 2-2.9 2.4-1.5 3.8-2 3-1 4.4-1.9 2.6-2.3 3.3-3.9c.8-1.7 1.1-3.6 1.2-5.5.1-3.9-.8-7.6-.9-11.1-.2-3.4.5-6.7 2.1-8.8 1.5-2.2 3.6-3.2 5-3.4.7-.2 1.3-.1 1.7-.1.4.1.6.1.6.1 0 .1-.8-.2-2.2.2-1.4.3-3.3 1.3-4.8 3.4s-2.1 5.2-1.9 8.6c.1 3.4 1 7.1 1 11.1-.1 2-.4 4-1.2 5.7s-2 3.2-3.5 4.1-3.1 1.4-4.5 1.9-2.7 1.1-3.7 1.9-1.7 1.7-1.9 2.7-.1 1.9.1 2.5c.2 1.3 1.1 1.6 1.1 1.7zm74.9-52.9s.1-.1.5-.2c.2-.1.3-.1.6-.2.2-.1.5-.1.8-.2 1.2-.2 3.3.1 5.1 1.8h0c1.2 1.5 1.9 3.7 1.5 6.2-.3 2.5-1.8 5-4.1 6.8s-5.4 2.8-8.7 3-6.7-.3-10.1-1.1c-5.6-1.3-10.6-3.7-14.7-6.5-2.1-1.3-4-2.6-6-3.5s-4-1.4-5.8-1.5c-3.7-.2-6.6.7-8.5 1.6s-2.8 1.6-2.8 1.6.8-.8 2.7-1.8c1.9-.9 4.8-2 8.6-1.8 1.9.1 3.9.5 6 1.5 2 .9 4 2.2 6.1 3.5 4.1 2.7 9 5.1 14.5 6.4 3.4.8 6.7 1.3 9.9 1.1s6.2-1.2 8.4-2.9c2.3-1.7 3.7-4.1 4-6.5s-.3-4.5-1.4-6h0c-1.6-1.7-3.6-2-4.9-1.9-1 .3-1.7.6-1.7.6zm-5.3-8.8s.1.9-.5 2.3c-.5 1.4-1.9 3.3-4.3 4.7-1.2.7-2.6 1.2-4.2 1.5s-3.3.3-5.1 0c-3.6-.4-7.3-1.8-11.1-3.1-3.9-1.2-7.8-1.9-11.2-1.2s-6.1 2.6-7.9 4.6-2.7 4-3.2 5.4-.5 2.2-.6 2.2c0 0 0-.2.1-.6 0-.4.2-1 .4-1.7.4-1.4 1.3-3.5 3.1-5.5s4.5-4.1 8.1-4.8c3.6-.8 7.6-.1 11.5 1.2 3.9 1.2 7.6 2.6 11.1 3.1 1.7.2 3.4.3 4.9 0 1.5-.2 2.9-.7 4.1-1.4 2.3-1.3 3.7-3.1 4.3-4.4.5-1.5.5-2.4.5-2.3z" class="H"/><defs ><path id="B" d="M152.8 222.5c-.2.3-2-.7-4.3-.5s-3.9 1.6-4.2 1.3c-.1-.1.1-.7.8-1.3s1.9-1.3 3.3-1.4c1.5-.1 2.7.3 3.5.8.7.5 1 1 .9 1.1z"/></defs></svg>