<svg xmlns="http://www.w3.org/2000/svg" xmlns:xlink="http://www.w3.org/1999/xlink" viewBox="0 0 500 500"><style><![CDATA[.B{fill:#f8db01}.C{fill:#1a164e}.D{fill:#263238}.E{fill:#ffbe9d}.F{fill:#46327a}.G{fill:#eb996e}.H{fill:#455a64}]]></style><path d="M358.9 189.1c-14.3-36.9-56.8-60.5-95.7-53.2-18.3 3.5-37.1 12.9-54.7 6.6-13.7-4.9-22.4-18.2-28.9-31.2s-12.1-27.1-23-36.7c-15-13.3-37.7-15.2-56.5-8.4-15 5.4-28.2 16.2-35.3 30.5-10.1 20.5-6.4 46.1 6.2 65.1s33.1 31.9 54.7 39.1c31.6 10.4 66.8 9.4 97.8-2.8 18-7.1 34.6-17.9 53.3-23.2s41.2-3.7 54.1 10.7c3.8 4.2 6.6 9.3 10.3 13.6s8.8 8 14.5 8 11.4-5.2 10.3-10.8M309.1 77c7.4 2.2 12.8 10.1 12 17.7-.8 7.7-7.9 14.3-15.7 14.2-7.7 0-14.9-6.9-14.9-14.7 0-10.9 10.9-17.7 18.6-17.2z" class="B"/><path d="M467.3 414.2c0 .1-98.6.3-220.3.3s-220.3-.1-220.3-.3 98.6-.3 220.3-.3l220.3.3zm-39.9-28.7s.1-.2.2-.5c.2-.3.4-.8.7-1.4.6-1.2 1.3-3.1 1.9-5.6 1.3-5 1.7-12.7-.2-21.7-.9-4.6-2.3-9.4-4-14.6s-3.7-10.7-5.3-16.6-2.9-12.4-2.6-19.1c.2-6.8 2.2-13.5 4.5-20.2 2.2-6.7 4.5-13.3 5.2-19.9.8-6.6-.6-13.1-3.7-18.4-2.9-5.4-6.6-10-9.3-14.7-2.8-4.7-4.5-9.6-5.6-14.2-2.1-9.1-1.4-16.8-.4-21.9 1.1-5.1 2.3-7.7 2.3-7.7s0 .2-.1.5c-.1.4-.3.9-.5 1.5-.4 1.3-.9 3.3-1.4 5.8-.9 5.1-1.6 12.7.6 21.8 1.1 4.5 2.8 9.3 5.6 14 2.7 4.7 6.4 9.3 9.4 14.7 3.1 5.4 4.6 12.1 3.8 18.8-.7 6.7-3 13.4-5.2 20.1s-4.2 13.4-4.4 20 1 13 2.6 18.9 3.6 11.4 5.2 16.6c1.7 5.2 3.1 10.1 4 14.7 1.8 9.2 1.3 16.9-.1 21.9-.7 2.5-1.5 4.4-2.1 5.6l-.7 1.4c-.3 0-.4.2-.4.2z" class="C"/><path d="M418.4 237.2s-5.6-17.8 4.4-28.3c.4-.4 1-.2 1.1.3.6 3 1.2 12-5.5 28z" class="B"/><path d="M421.8 214.9c.1 0-.1 1.3-.4 3.3l-1.3 7.9-1.2 7.9-.6 3.3c-.1 0-.1-1.3.1-3.3l1-7.9 1.5-7.8.9-3.4z" class="C"/><path d="M425 279.3s3.4-18.4 17.1-22.9c.5-.2.9.3.8.8-.9 2.8-4.5 11-17.9 22.1z" class="B"/><path d="M438.4 261.1c.1.1-.7 1.1-1.9 2.7l-9.6 12.8-2 2.6c-.1 0 .5-1.2 1.6-2.9l4.6-6.5 5-6.2c1.3-1.6 2.2-2.6 2.3-2.5z" class="C"/><path d="M421.3 325.3s-2.1-18.6 9.7-26.9c.4-.3 1 0 1 .5 0 3-1.1 11.9-10.7 26.4z" class="B"/><path d="M428.8 304c.1 0-.3 1.2-1 3.2l-5.4 15-1.2 3.1c-.1 0 .2-1.3.7-3.2l2.5-7.6 2.9-7.4 1.5-3.1z" class="C"/><path d="M431.6 371.6s-1.4-18.6 10.7-26.5c.4-.3 1 0 1 .5-.2 3-1.6 11.9-11.7 26z" class="B"/><path d="M439.9 350.7c.1 0-.4 1.2-1.1 3.1l-6 14.8-1.3 3c-.1 0 .2-1.3.8-3.2s1.6-4.6 2.8-7.5l3.2-7.3c.9-1.9 1.5-3 1.6-2.9z" class="C"/><path d="M410.4 221.6s-16.6-8.6-16.9-23.1c0-.5.5-.8 1-.5 2.5 1.6 9.3 7.5 15.9 23.6z" class="B"/><path d="M397 203.4c.1-.1.9.9 2.1 2.6l4.7 6.5 4.7 6.4 1.9 2.7c-.1.1-1-.8-2.3-2.4l-4.9-6.3-4.5-6.6c-1.2-1.7-1.8-2.8-1.7-2.9z" class="C"/><path d="M428.2 259.8s-17-7.6-18.2-22c0-.5.5-.9.9-.6 2.5 1.6 9.7 7 17.3 22.6z" class="B"/><path d="M413.7 242.6c.1-.1.9.9 2.2 2.5l5 6.2 5.1 6.1 2 2.6c-.1.1-1-.8-2.4-2.3l-5.2-6-4.9-6.3-1.8-2.8z" class="C"/><path d="M418.4 302.5s-11.7-14.5-6.2-27.9c.2-.5.8-.5 1.1-.1 1.5 2.6 5.4 10.7 5.1 28z" class="B"/><path d="M413.3 280.5c.1 0 .4 1.2.9 3.2l3.4 15.6c.5 2 .7 3.2.6 3.2s-.5-1.2-1.1-3.1l-1.9-7.7-1.5-7.8-.4-3.4z" class="C"/><path d="M430 352.8s-16.9-7.9-17.9-22.3c0-.5.5-.8.9-.6 2.6 1.6 9.7 7.1 17 22.9z" class="B"/><path d="M415.8 335.2c.1-.1.9.9 2.2 2.5l4.9 6.2 5 6.2 2 2.6c-.1.1-1-.8-2.4-2.3s-3.2-3.7-5.1-6.1l-4.8-6.4c-1.2-1.5-1.9-2.6-1.8-2.7z" class="C"/><path d="M453.6 321.8s7.2-17.2-1.8-28.5c-.3-.4-.9-.3-1.1.2-.8 2.9-2.3 11.7 2.9 28.3z" class="B"/><path d="M452.3 299.3c.1 0 .3 1.2.6 3.3l.8 7.9.3 8c0 2-.1 3.3-.2 3.3s-.2-1.3-.3-3.3l-.5-7.9-.6-7.9-.1-3.4z" class="C"/><path d="M431.4 363.4s5.7-17.8-4.2-28.3c-.3-.4-1-.2-1.1.3-.5 2.9-1.2 11.9 5.3 28z" class="B"/><path d="M428.3 341c.1 0 .4 1.2.8 3.2l1.4 7.9 1 7.9c.2 2 .2 3.3.1 3.3s-.3-1.2-.6-3.3l-2.4-15.8c-.3-1.9-.4-3.2-.3-3.2z" class="C"/><path d="M462.7 300.7s15.3-10.7 13.8-25.1c-.1-.5-.6-.7-1-.4-2.3 2.1-8.3 8.8-12.8 25.5z" class="B"/><path d="M473.7 281c.1 0-.4 1.2-1.3 3.1l-3.6 7.1-4 6.9-1.9 2.7c-.1-.1.5-1.2 1.5-2.9l7.6-14 1.7-2.9z" class="C"/><path d="M437.6 345.8s18.4-2.9 23.4-16.5c.2-.5-.3-1-.7-.8-2.9.8-11.3 4.2-22.7 17.3z" class="B"/><g class="C"><path d="M456.1 332.9c.1.1-.9.9-2.5 2.2l-6.4 4.8-6.6 4.4c-1.7 1.1-2.9 1.6-2.9 1.6-.1-.1 1-.8 2.7-2l13-9.2c1.6-1.2 2.7-1.9 2.7-1.8z"/><path d="M463.7 279.4v1.6l-.2 4.5-.9 16.2c-1.2 6.8-4.6 14.2-9.3 21.5-3.4 5.4-6.9 10.2-10 14.8-3.1 4.5-5.7 8.7-7.5 12.4s-2.9 6.9-3.5 9.1c-.3 1.1-.5 2-.6 2.6s-.2.9-.2.9 0-.3.1-.9.3-1.5.5-2.6c.5-2.3 1.5-5.5 3.3-9.3s4.4-8 7.4-12.6 6.6-9.4 10-14.8c4.6-7.2 8-14.6 9.3-21.3h0l1.1-16.2c.2-1.9.3-3.4.4-4.5 0-.5.1-.9.1-1.2-.1-.1 0-.2 0-.2zm-47.9 100.3l5.2 34.7h21.2l7.1-34.7z"/></g><path d="M130.9 395c-10.9-1.1-45.7-1.9-56.5.1-10.7 1.9-23.1 11.7-27.7 20.5-5.2 9.8-4.3 28.6 3.9 36.6s22.9 5.6 35 7.3 24.5 1.1 36.8.8c77.1-2 154.8 7.9 231.1-2.6 9.7-1.3 20.1-3.3 26.9-9.5 7.6-6.9 9.1-17.2 10.2-26.7.9-7.5 1.5-15.8-3.5-21.9-3.3-4-8.6-6.4-14.1-7.4 8.9-10.9 13.3-18.9 13.8-28.2.8-16.4-3.5-28.6-4.5-44.8s-1-32.8 3.7-48.4c2.9-9.5 7.2-20.8.7-28.3-3.7-4.3-9.8-5.6-15.5-6.5-67.5-11-136.4-11.2-204.6-6.3-8.1.6-17.2 1.7-22.4 7.9-4.3 5-4.9 12.1-4.2 18.6.8 6.5 2.9 12.8 3.4 19.4 2.9 30.9-41.1 83.9-12.5 119.4" class="F"/><g class="C"><path d="M144.9 236.8s1.2-.7 3.5-1.7 5.8-2.4 10.6-3.2 10.7-1 17.5-1.4l23.2-1c17.2-.6 37.7-.9 60.4-.7s47.7 1 73.9 2.6l9.8.6c3.2.2 6.5.4 9.6 1s6.3 1.6 8.9 3.5c1.3.9 2.4 2.1 3.4 3.4a16.52 16.52 0 0 1 2.1 4.2c1 3 1.2 6.1 1 9.2-.3 3.1-1 6-1.8 8.9s-1.8 5.7-2.5 8.5c-.8 2.8-1.4 5.6-2 8.4-2.2 11.1-2.8 22-2.1 32.1.3 5 1 9.9 1.8 14.5.9 4.6 2 9 3 13.1 2.2 8.3 4 15.9 4.6 22.7s0 12.8-1.2 17.4c-.6 2.3-1.4 4.3-2.1 6-.8 1.7-1.6 3-2.3 4.1a8.05 8.05 0 0 0-.9 1.4c-.3.4-.5.7-.8.9-.4.5-.6.8-.6.8s.2-.3.6-.8c.2-.3.4-.6.7-1s.6-.9.9-1.4c.7-1.1 1.4-2.4 2.2-4.1.7-1.7 1.5-3.7 2.1-6 1.2-4.6 1.8-10.6 1.1-17.4-.6-6.8-2.5-14.4-4.7-22.7-1.1-4.2-2.2-8.5-3.1-13.1s-1.5-9.5-1.9-14.5c-.7-10.1-.2-21 2.1-32.2.6-2.8 1.2-5.6 2-8.4.7-2.8 1.7-5.6 2.5-8.5s1.5-5.8 1.7-8.8 0-6.1-1-9c-.5-1.4-1.2-2.8-2-4.1-.9-1.2-2-2.3-3.2-3.3-2.5-1.8-5.6-2.8-8.7-3.4s-6.3-.8-9.6-1l-9.8-.6c-26.2-1.6-51.2-2.4-73.9-2.6a1604.33 1604.33 0 0 0-60.4.6l-23.2.9c-6.8.3-12.7.5-17.4 1.3s-8.3 2.1-10.6 3.1c-1.2.5-2 .9-2.6 1.2-.5.4-.8.5-.8.5zm246.3 190.7s-.3.1-.9.2c-.6.2-1.5.4-2.6.7l-9.9 2.5a188.9 188.9 0 0 0-7.2 1.8l-8.6 1.9c-6.2 1.3-13.2 3-21 4.3l-12.3 2.2c-2.1.4-4.3.7-6.6 1l-6.8 1c-2.3.3-4.7.7-7 1.1-1.2.2-2.4.4-3.6.5s-2.4.3-3.7.4l-15.3 1.8c-20.9 2.1-44 3.6-68.2 3.9a763.76 763.76 0 0 1-68.3-2.8l-15.3-1.6c-1.2-.1-2.5-.3-3.7-.4s-2.4-.3-3.6-.5l-7.1-.9-6.8-.9-6.6-.9-12.3-2c-7.9-1.2-14.9-2.8-21.1-4l-8.6-1.7-7.2-1.7-10-2.3c-1.1-.3-2-.5-2.6-.6s-.9-.2-.9-.2a6.59 6.59 0 0 0 .9.2c.6.1 1.5.3 2.6.6l17.2 3.8c2.6.6 5.5 1.1 8.6 1.7 6.2 1.2 13.2 2.7 21.1 3.9l12.3 2c2.1.4 4.3.6 6.6.9l6.8.9 7.1.9c1.2.2 2.4.3 3.6.5 1.2.1 2.4.2 3.7.4l15.3 1.5c20.9 1.8 44 2.9 68.3 2.7 24.2-.3 47.3-1.8 68.2-3.9l15.2-1.8c1.2-.1 2.5-.3 3.7-.4 1.2-.2 2.4-.4 3.6-.5 2.4-.4 4.7-.7 7-1s4.6-.7 6.8-1l6.6-1 12.3-2.2c7.8-1.3 14.8-2.9 21-4.2 3.1-.7 6-1.2 8.6-1.8s5-1.2 7.2-1.8l9.9-2.4c1.1-.3 2-.5 2.6-.6.7-.1 1-.2 1-.2z"/><path d="M130.9 395h.6c.4 0 1 .1 1.8.1l7 .5 11.1.7 14.7.8 17.8.7 9.9.3 10.5.2c14.4.2 30.2.1 46.8-.3 33.2-.8 63.2-2.5 84.9-3.7l32.7-1.9c.8 0 1.4-.1 1.8-.1h.6s-.2 0-.6.1c-.4 0-1 .1-1.8.1l-7 .5-25.7 1.6-84.9 3.9c-16.6.4-32.4.4-46.8.2l-10.5-.2-9.9-.3-17.8-.7c-5.4-.2-10.3-.6-14.7-.9l-11.1-.8c-3-.2-5.4-.4-7-.6-.8-.1-1.4-.1-1.8-.2h-.6zm194 59.6c-.2 0-.4-3-1.5-6.5-1-3.5-2.4-6.2-2.3-6.2s.5.6 1 1.7 1.2 2.6 1.7 4.4.8 3.4.9 4.6c.2 1.2.2 2 .2 2zm8.8-4.1c-.2 0-.2-2.5-1.3-5.4-1-2.9-2.6-4.8-2.5-4.9s1.9 1.8 3 4.8c1.1 2.9.9 5.5.8 5.5zm22.1-103.8c0-.2 2.5.6 5.4-.2 2.9-.7 4.7-2.6 4.8-2.4 0 0-.3.6-1.1 1.2s-2 1.4-3.5 1.8-2.9.4-3.9.2c-1.1-.3-1.7-.5-1.7-.6zm-.6-12c.1-.1 1.8.8 4.2 1.3 2.3.6 4.3.6 4.3.8 0 .1-2 .3-4.5-.3-2.3-.5-4-1.7-4-1.8z"/></g><path d="M156.1 124.5s0-.2-.1-.6c0-.4-.1-1-.1-1.7 0-.4 0-.8-.1-1.3 0-.5-.1-1-.2-1.5-.2-1.1-.3-2.3-.8-3.7-.6-2.8-1.9-6.1-4-9.6s-5.1-7.1-9.1-10.2c-4.1-3.1-9.2-5.6-15.1-6.7-1.5-.2-3-.5-4.5-.5-.8 0-1.6-.1-2.3-.1-.8 0-1.6.1-2.4.1-.4 0-.8 0-1.2.1l-1.2.2c-.8.1-1.6.2-2.4.4-1.6.4-3.2.8-4.8 1.4-1.6.5-3.1 1.3-4.7 2.1-.8.4-1.5.9-2.2 1.3-.8.4-1.5 1-2.2 1.5-1.5 1-2.7 2.3-4.1 3.5-1.2 1.3-2.5 2.6-3.5 4.2l-.8 1.1-1.4 2.4c-.3.4-.5.8-.7 1.2-.4.8-.8 1.7-1.2 2.5-.3.9-.6 1.8-1 2.7-1.2 3.6-1.8 7.4-1.8 11.3.1 3.9.7 7.7 1.8 11.3.3.9.6 1.8 1 2.7.4.8.8 1.7 1.2 2.5.2.4.4.8.7 1.2l1.4 2.4.8 1.1c1 1.5 2.3 2.8 3.5 4.2 1.3 1.2 2.6 2.5 4.1 3.5.7.5 1.4 1.1 2.2 1.5.7.4 1.5.9 2.2 1.3 1.6.7 3.1 1.5 4.7 2.1 1.6.7 3.2 1 4.8 1.4.8.2 1.6.3 2.4.4l1.2.2c.4.1.8.1 1.2.1.8 0 1.6.1 2.4.1s1.6-.1 2.3-.1c1.6 0 3.1-.3 4.5-.5 5.9-1 11-3.6 15.1-6.7s7.1-6.7 9.1-10.2c2.1-3.5 3.4-6.8 4-9.6.4-1.4.6-2.6.8-3.7.1-.5.2-1 .2-1.5s.1-.9.1-1.3c0-.7.1-1.3.1-1.7.1-.6.1-.8.1-.8v.6c0 .4 0 1-.1 1.7 0 .4 0 .8-.1 1.3 0 .5-.1 1-.2 1.5-.2 1.1-.3 2.4-.7 3.7-.6 2.8-1.9 6.1-3.9 9.7-2.1 3.5-5.1 7.2-9.2 10.3s-9.3 5.7-15.2 6.8c-1.5.2-3 .5-4.6.5-.8 0-1.6.1-2.4.1s-1.6-.1-2.4-.1c-.4 0-.8 0-1.2-.1l-1.2-.2c-.8-.1-1.6-.2-2.4-.4-1.6-.4-3.3-.8-4.8-1.4-1.6-.5-3.2-1.3-4.7-2.1-.8-.4-1.5-.9-2.3-1.3s-1.5-1-2.2-1.5c-1.5-1-2.8-2.3-4.1-3.5-1.2-1.4-2.5-2.7-3.6-4.2l-.8-1.1-1.4-2.4c-.3-.4-.5-.8-.7-1.2l-1.2-2.6c-.3-.9-.7-1.8-1-2.7-1.2-3.6-1.8-7.5-1.9-11.5.1-3.9.7-7.8 1.9-11.5.3-.9.7-1.8 1-2.7.4-.9.8-1.7 1.2-2.6.2-.4.4-.8.7-1.2L90 104l.8-1.1a36.22 36.22 0 0 1 3.6-4.2c1.4-1.2 2.6-2.5 4.1-3.5.7-.5 1.4-1.1 2.2-1.5s1.5-.9 2.3-1.3c1.6-.8 3.1-1.6 4.7-2.1 1.6-.7 3.2-1 4.8-1.4.8-.2 1.6-.3 2.4-.4l1.2-.2c.4-.1.8 0 1.2-.1.8 0 1.6-.1 2.4-.1s1.6.1 2.4.1c1.6 0 3.1.3 4.6.5 6 1.1 11.2 3.7 15.2 6.8 4.1 3.1 7.1 6.8 9.2 10.3s3.3 6.9 3.9 9.7c.4 1.4.6 2.7.7 3.7.1.5.2 1.1.2 1.5 0 .5 0 .9.1 1.3 0 .7 0 1.3.1 1.7v.8zm-43.3-8.5h2s4-6.9 3.9-8.7-1-6.3 0-7.5c1-1.3 7.2-.5 7.9 3.5.8 5.2.8 12.6.8 12.6h13c1.5 0 2.9.9 3.3 2.4.1.4.2.8.1 1.2 0 0-.1 3.1-3 3.2 0 0 .9.8.9 2.8s-2.6 2.8-2.6 2.8 1.6.5 1.6 2.8-2.4 3.2-2.4 3.2 1 1.3.7 3.4c-.2 2.1-2.6 2.6-2.6 2.6h-23.7V116zm-3.9 24.4h-6.4c-1.4 0-2.5-1.1-2.5-2.5v-19.3c0-1.4 1.1-2.5 2.5-2.5h6.4c1.4 0 2.5 1.1 2.5 2.5v19.3c0 1.4-1.1 2.5-2.5 2.5z" class="F"/><path d="M285.9 188.1c1.4-2.7 3.7-5.1 6.6-6.2s6.4-.7 8.7 1.3 3.1 5.8 1.3 8.4c4-.8 8.3 1.4 10 5.1s.6 8.4-2.5 11c-3.1 2.5-8 2.6-11.3.2-.5 2.3-2.1 4.2-4.3 5.1-2.2.8-4.7.4-6.6-1-4.6-3.6-3.5-12-8.7-14.8" class="D"/><path d="M282.3 201.6c3.8-3.9 5.7-9.7 4.8-15.2-.1-.7-.3-1.5 0-2.2.6-1.2 2.4-1.2 3.5-.4 1 .9 1.3 2.3 1.5 3.6.4 3.5.1 7.2-1 10.6-.5 1.3-1 2.7-2 3.8a5.37 5.37 0 0 1-3.7 1.9c-1.5 0-2.7-.7-3.1-2.1" class="B"/><path d="M279.2 149.1c-1.9-5.3-11-9.8-15.9-12.5-7.4-4-14.2-2.9-18.2 1-7.7-6.1-17.9-11.8-27.3-9S201 141.4 203 151c1.2 5.7 5.3 10.7 5.3 16.4 0 4-2 7.6-3.5 11.2s-2.7 7.9-1.1 11.5c1.5 3.4 5 5.4 7 8.5 1.6 2.5 2.1 5.6 3.1 8.4 3.9 10.4 16.5 15.8 27.4 13.6s19.7-10.7 24.5-20.7 6.2-21.3 6.4-32.4" class="D"/><path d="M238.4 146.9c-10.1-1.4-19.3 5.9-20.3 16.1-1.2 12.1-2.2 27.3-1 36.6 2.3 18 16 20.7 16 20.7l-.3 14.5c-.2 10.4 7.9 19.2 18.3 19.8h0c11.2.7 20.6-8.3 20.6-19.5l-.4-78.2" class="E"/><path d="M233 220.3s12.1.9 24.3-5.9c0 0-6.5 12.5-24.4 10.3l.1-4.4z" class="G"/><g class="D"><path d="M244.3 164.8c.2.7 2.7.4 5.6.9 2.9.4 5.2 1.3 5.6.7.2-.3-.2-.9-1.1-1.6s-2.4-1.3-4.1-1.6c-1.7-.2-3.3 0-4.4.4-1.2.4-1.7.9-1.6 1.2zm-22.9 1.4c.4.6 2.1 0 4.2.1 2.1 0 3.8.5 4.2-.1.2-.3-.1-.9-.8-1.4-.7-.6-2-1-3.4-1s-2.6.5-3.4 1c-.7.6-1 1.1-.8 1.4z"/><path d="M239.2 144.1c2.1 14.2 13.1 26.7 26.9 30.6-4.2 6.5-1 18.5-.8 28.6.2 9.4.3 12.1 6.5 16.7 5.1 1 7.5-12.8 11.1-16.8s7-8.8 6.6-14.2c-.2-2.5-1.3-4.9-1.5-7.4-.2-2.8.6-5.5 1-8.3 1.8-12.2-4.9-25-15.7-31s-24.8-5.1-35.1 1.7"/></g><g class="H"><path d="M287.6 180.3s.2-.2.4-.5c.3-.4.6-.9.8-1.8.4-1.6.1-4.2-1.3-6.9-.7-1.4-1.7-2.7-3-3.9s-2.7-2.4-4.4-3.5a21.18 21.18 0 0 0-5.7-2.6l-13-3.2c-2-.6-4-1.4-5.7-2.3-3.5-1.7-6.5-3.8-8.7-5.7-2.3-1.9-3.9-3.7-5-5a38.91 38.91 0 0 1-1.2-1.5c-.3-.3-.4-.5-.4-.5s.1.2.4.6.6.9 1.2 1.5c1 1.3 2.6 3.1 4.9 5.1s5.2 4.1 8.8 5.8c1.8.9 3.7 1.7 5.8 2.3 2.1.7 4.3 1.1 6.5 1.6s4.4.9 6.5 1.6c2 .6 3.9 1.5 5.6 2.5s3.1 2.2 4.4 3.4 2.3 2.5 3 3.8c1.4 2.6 1.7 5.1 1.4 6.7-.6 1.8-1.3 2.4-1.3 2.5z"/><path d="M240.5 142.9s.1.2.4.4l1.2 1.2c1 1 2.6 2.4 4.7 4 2.1 1.5 4.7 3.3 8 4.5 1.6.6 3.4.9 5.3 1.2l5.7.8c3.9.4 7.7.9 11 1.9s6 2.5 8 4.1 3.3 3.3 4 4.6c.3.6.6 1.1.7 1.5s.2.5.2.5 0-.2-.2-.6c-.1-.4-.3-.9-.6-1.6-.6-1.3-1.9-3.1-3.9-4.7-2-1.7-4.8-3.2-8.1-4.2s-7.1-1.5-11-2c-2-.2-3.9-.5-5.7-.7-1.8-.3-3.6-.6-5.2-1.2-3.2-1.1-5.8-2.8-7.9-4.3s-3.7-2.9-4.8-3.9c-.5-.5-.9-.8-1.2-1.1-.5-.3-.6-.4-.6-.4z"/><path d="M219.9 127.9c0 .1 1.5.1 4 .6.6.1 1.3.3 1.9.6.7.2 1.4.5 2.2.8 1.5.7 3.1 1.6 4.6 2.7s2.8 2.4 3.9 3.6l1.4 1.8 1.1 1.7c1.2 2.1 1.7 3.6 1.8 3.6l-.3-1c-.1-.3-.3-.7-.5-1.2-.2-.4-.4-1-.7-1.5s-.6-1.1-1.1-1.7l-1.4-1.9c-1.1-1.3-2.4-2.5-3.9-3.7a24.76 24.76 0 0 0-4.7-2.7l-2.2-.8-2-.5c-.6-.2-1.2-.2-1.7-.3s-.9-.1-1.3-.1h-1.1zm-10.4 68.6s0-.1-.1-.2-.2-.3-.4-.4c-.3-.4-.9-.9-1.4-1.7-.6-.8-1.3-1.7-1.7-3a4.87 4.87 0 0 1-.2-2.1 6.76 6.76 0 0 1 .7-2.3c.8-1.5 2.2-2.8 3.4-4.5 1.2-1.6 2.3-3.5 3.2-5.7.9-2.1 1.5-4.5 1.7-7 .3-2.5.1-5.1-.1-7.7-.1-2.6-.1-5.2.4-7.6.6-2.4 1.8-4.5 3.2-6.2 1.5-1.7 3.2-3 5-3.9s3.7-1.3 5.4-1.4c3.4-.2 6.2.7 7.9 1.5.9.4 1.5.8 1.9 1.1.2.1.4.2.5.3s.2.1.2.1-.8-.8-2.5-1.6c-1.7-.9-4.5-1.8-8-1.6-1.7.1-3.6.5-5.5 1.4s-3.7 2.2-5.2 4c-1.5 1.7-2.7 3.9-3.3 6.4s-.6 5.1-.5 7.7l.1 7.6c-.2 2.5-.8 4.8-1.7 6.9-.8 2.1-1.9 4-3.1 5.6s-2.6 3-3.4 4.5c-.4.8-.7 1.6-.7 2.4-.1.8.1 1.6.3 2.2.4 1.3 1.2 2.3 1.8 3l1.5 1.6.4.4c.1.2.2.2.2.2z"/></g><g class="D"><path d="M286.7 181.3s.1 0 .2-.1.3-.2.5-.3c.5-.3 1.1-.7 1.9-1.4 1.5-1.3 3.6-3.7 4.8-7.2s1.2-8.3-1.1-12.7c-1.1-2.2-2.9-4.2-5.1-5.8s-4.8-2.7-7.5-3.4a38.67 38.67 0 0 0-8.2-1.2l-7.7-.3-6.9-.5c-2.1-.3-4.1-.8-5.8-1.4-3.5-1.2-6-2.9-7.5-4.4-.7-.7-1.3-1.3-1.6-1.8-.2-.2-.3-.4-.4-.5s-.1-.2-.1-.2.5 1 2 2.5 4 3.3 7.5 4.5c1.7.6 3.7 1.1 5.9 1.4s4.5.5 6.9.6c4.9.2 10.3.1 15.7 1.5 2.7.7 5.3 1.8 7.4 3.3 2.2 1.5 3.8 3.5 5 5.6 2.3 4.3 2.3 9 1.2 12.4-1.1 3.5-3.2 5.8-4.7 7.2-.8.7-1.4 1.2-1.9 1.5-.2.1-.4.3-.5.3.1.4 0 .4 0 .4z"/><use xlink:href="#B"/><use xlink:href="#B" x="25.2" y="0.4"/><path d="M237.3 192.5c0-.1-1.5-.4-4-.8-.6-.1-1.2-.2-1.3-.6-.1-.5.1-1.1.5-1.9l2-4.8c2.7-6.8 4.7-12.4 4.4-12.5s-2.7 5.3-5.4 12.1l-1.9 4.8c-.3.7-.7 1.5-.4 2.5.2.5.6.8 1 .9s.8.1 1.1.2c2.5.2 4 .2 4 .1z"/></g><path d="M238.2 198.5c.9-1.2 2.5-1.8 4-1.6 1.1.1 2.1.7 2.8 1.6.6.9.7 2.1.1 2.9-.7.9-2.1 1.1-3.3.8-1.2-.4-2.2-1.2-3.1-1.9-.3-.2-.5-.4-.7-.7s-.2-.7 0-.9" class="G"/><path d="M244.5 194.4c-.4 0-.5 2.6-2.8 4.5s-5.2 1.5-5.2 1.9c0 .2.6.5 1.8.6s2.9-.3 4.3-1.4 2.1-2.7 2.2-3.8c.2-1.2-.1-1.9-.3-1.8zm-20.8 167.3l-27.4 9.3-2.2 6.8-81.8-30.4c-5.4-2.9-33.3-9.3-42.5 13.6-7.8 19.3 7.6 38.6 32.2 49.5 24.6 10.8 72.2 15.5 72.2 15.5l31.4 5.4 69.4.9c20.5.3 40.1-8.6 53.4-24.2 10.9-12.7 22.2-27.2 24.4-34.7 4.2-14.6.4-33.6-21.4-35.4s-57.2 23.1-57.2 23.1l-13.4-3.7-37.1 4.3z" class="D"/><path d="M221.6 406.2s0-.2.1-.5.1-.8-.2-1.4c-.5-1.1-2.3-2.2-4.6-2.8h0c-4.7-1.9-11.8-4.9-20.2-9s-18.1-9.4-28.5-15l-21.4-11.1c-6.7-3.2-12.7-6-17.9-8-1.3-.5-2.5-1-3.7-1.5a60.05 60.05 0 0 1-3.3-1.2c-1-.4-2-.7-2.9-1.1-.9-.3-1.7-.6-2.5-.8-1.5-.5-2.6-.9-3.4-1.1-.4-.1-.7-.2-.9-.3s-.3-.1-.3-.1.1 0 .3.1.5.1.9.3c.8.2 2 .6 3.5 1 .8.2 1.6.5 2.5.8s1.9.7 2.9 1l3.4 1.2c1.2.4 2.4.9 3.7 1.5 5.2 2 11.3 4.7 18 8 6.7 3.2 13.9 7 21.4 11.1l28.5 15.1c8.4 4.2 15.4 7.2 20.1 9.2h0c2.4.6 4.1 1.7 4.6 3a1.76 1.76 0 0 1 .1 1.4c-.2.1-.2.2-.2.2zM323.7 343s-.1 0-.3.1c-.2 0-.5.1-.9.1-.8.1-2 .2-3.5.6-3 .6-7.2 2.1-11.9 5-2.4 1.4-4.8 3.1-7.3 5.1s-5 4.3-7.5 6.9c-4.9 5.3-10.5 11-16.8 16.5-3.1 2.8-6.3 5.4-9.5 7.7s-6.4 4.4-9.9 5.6c-3.5 1.1-6.9 1.5-10.1 2s-6.1 1-8.7 1.9-4.8 1.9-6.6 3.1-3 2.7-3.7 4-.9 2.5-1 3.3v.9-.9c.1-.8.2-2 .9-3.4s1.9-2.9 3.7-4.1c1.8-1.3 4.1-2.4 6.7-3.3s5.6-1.4 8.8-1.9 6.6-.9 10-2.1 6.6-3.3 9.7-5.6c3.2-2.3 6.3-4.9 9.4-7.7 6.2-5.5 11.9-11.1 16.8-16.5 2.5-2.6 5.1-4.9 7.6-6.9s5-3.7 7.4-5.1c4.7-2.8 9-4.3 12-4.8 1.5-.4 2.7-.4 3.5-.5.4 0 .7 0 .9-.1.2.1.3.1.3.1zm-94.9 55s-.2-.4-.5-1.3c-.2-.4-.2-.9-.4-1.6l-.3-2.1c-.2-1.6-.2-3.4-.2-5.5l.6-6.7c.6-4.7 1.8-8.9 3-11.8.3-.7.6-1.4.9-1.9s.6-1 .8-1.4c.5-.7.8-1.1.9-1.1 0 0-.2.4-.7 1.2-.2.4-.4.9-.7 1.4s-.5 1.2-.8 1.9c-1.1 2.9-2.2 7.1-2.8 11.8a83.15 83.15 0 0 0-.6 6.7c0 2.1 0 3.9.1 5.4.2 3.1.8 5 .7 5z" class="H"/><path d="M221.6 406.2l53.8 13.7c3.1 1 2.9 12.4-2 12.3-2.3 0-39.4 2.3-44.1 2.1s-17.5-4.9-17.5-4.9l7.8-18.5 2-4.7z" class="B"/><g class="D"><path d="M243.4 425.3c.3 0 .5-2.7 2.1-5.6s3.7-4.6 3.5-4.8c-.1-.2-2.6 1.3-4.3 4.4-1.6 3.1-1.5 6.1-1.3 6zM238 423c.3 0 .7-2.4 2-5.1s2.9-4.6 2.7-4.8c-.1-.2-2.1 1.6-3.5 4.4-1.3 2.9-1.4 5.5-1.2 5.5zm-5.1-1.2c.3 0 0-2.6 1.1-5.5 1-2.9 2.9-4.7 2.7-4.9-.1-.2-2.4 1.4-3.5 4.6s-.5 5.9-.3 5.8z"/><path d="M233.7 415.1c.1 0 .5-1.4.5-3.8 0-1.2-.2-2.6-.6-4.2-.2-.8-.5-1.6-.8-2.4-.2-.4-.4-.9-.9-1.2-.5-.4-1.4-.3-1.8.1-.5.4-.6 1-.7 1.5 0 .5-.1.9 0 1.4 0 .9.2 1.7.4 2.5.4 1.6 1.1 2.9 1.7 3.9 1.2 2.1 2.3 3.1 2.4 3s-.8-1.3-1.8-3.3c-.5-1-1.1-2.3-1.4-3.8-.2-.7-.3-1.5-.3-2.3s0-1.8.4-2.2c.2-.2.5-.2.7-.1.2.2.4.5.6.9l.8 2.2c.4 1.5.7 2.8.8 4v3.8z"/><path d="M233.6 414.6c0-.1-1.2-.5-3.3-.5-1 0-2.3.2-3.6.5-.7.2-1.4.4-2.1.8s-1.4 1.4-1.1 2.4c.2 1 1.1 1.6 1.9 1.8s1.6.1 2.3-.1c1.4-.4 2.5-1.1 3.3-1.7 1.6-1.3 2.4-2.3 2.3-2.4s-1 .8-2.7 1.9c-.8.6-1.9 1.2-3.1 1.4-.6.1-1.3.2-1.9 0s-1.1-.6-1.3-1.2.2-1.1.7-1.5 1.2-.6 1.8-.8c1.3-.4 2.4-.6 3.4-.7 2.1.1 3.4.3 3.4.1zm17.7 11.1c.3 0 0-2.2.9-4.7.9-2.4 2.6-3.9 2.4-4.1-.1-.2-2.2 1.1-3.2 3.8-1 2.8-.3 5.1-.1 5zm-35.8 3.2c0 .1.7.4 2 .9s3.3 1.1 5.8 1.6c4.9 1.1 12 1.7 19.6 1.4 7.7-.3 14.6-.8 19.6-1.1 2.4-.2 4.4-.3 5.9-.5 1.4-.1 2.2-.2 2.2-.3s-.8-.1-2.2-.1c-1.6 0-3.6.1-6 .2l-19.6.8c-7.7.3-14.6-.2-19.5-1.1-4.8-.8-7.7-2-7.8-1.8z"/><path d="M214 430.1c.1.1 1.5-.7 3.8-1.8s5.8-2.3 9.7-1.8 6.7 3 8.5 4.8l3 3c.1-.1-.8-1.4-2.6-3.4-.9-1-2-2.1-3.5-3.1-1.4-1-3.3-1.9-5.4-2.1-4.2-.5-7.8.9-10.1 2.1-2.2 1.2-3.4 2.2-3.4 2.3zm51.6 1.1c.1-.1-.4-.7-.8-1.9s-.8-2.9-.5-4.8 1.2-3.4 2-4.4l1.4-1.6c0-.1-.8.3-1.7 1.3a8.68 8.68 0 0 0-2.3 4.6c-.3 2 .1 3.9.7 5.1.5 1.1 1.1 1.7 1.2 1.7z"/></g><path d="M343.1 385.3s-.1.2-.5.7c-.3.5-.8 1.1-1.4 1.9l-2.2 3-3.2 3.9-4.1 4.5c-1.5 1.6-3.2 3.1-5 4.8-3.7 3.2-7.9 6.7-12.6 9.7-4.8 3.1-9.5 5.7-14 7.7s-8.7 3.5-12.2 4.5c-1.8.5-3.4.9-4.9 1.2s-2.7.5-3.7.6-1.8.2-2.4.3c-.5.1-.8.1-.8.1s.3-.1.8-.2c.6-.1 1.4-.2 2.4-.3 1-.2 2.3-.5 3.7-.7 1.4-.4 3.1-.7 4.8-1.3 3.6-1 7.7-2.6 12.1-4.6s9.2-4.6 13.9-7.7 8.9-6.5 12.6-9.6c1.8-1.7 3.5-3.2 5-4.8s2.9-3 4.1-4.4l3.2-3.8c.9-1.1 1.7-2.2 2.3-3s1.1-1.4 1.5-1.9l.6-.6zm-131.9 14.6c-.1 0-.9-1.2-2.3-3.2s-3.6-4.6-6.2-7.3c-2.7-2.6-5.3-4.8-7.3-6.2l-3.2-2.3s.4.1 1 .5c.6.3 1.5.9 2.5 1.6 2.1 1.4 4.8 3.5 7.4 6.2 2.7 2.7 4.8 5.4 6.2 7.4l1.6 2.5a4.42 4.42 0 0 1 .3.8zm62.4-28.6c0 .1-1.1.8-2.9 2.2s-4.1 3.4-6.4 6c-2.2 2.6-3.9 5.2-5 7.1l-1.8 3.2.3-.9c.2-.6.6-1.4 1.1-2.4 1-2 2.7-4.7 5-7.3s4.7-4.6 6.5-5.9c.9-.7 1.7-1.1 2.2-1.4.7-.5 1-.6 1-.6z" class="H"/><path d="M286.7 355.5c13.9-11.2 40.2-16.5 40.2-16.5s-1.5-50.9-5.4-74.3l-.3-1.7c-3.6-18-19.6-28.9-37.8-31.4l-12.3-1.7-36.4 1.3-22.2 6.7s-26.3 5.9-30.3 42.8c-4 36.2-8.7 66.1-8 76.8.5 7.5 7.5 12.9 11.3 13.8 3.5.8 7.9 1.5 11.7-.7-1.3 2.4-2.2 4.8-2.4 7H217l17.4-15.3 15.9 11.4 21.3-9 14.7-10m-75.6-.7v-.1c2.5-12.3 2.8-15.9 2.8-15.9s-13.1-1.7-11-19.1l2-15.1 13.1 43.9s-3 2.5-6.9 6.3z" class="B"/><path d="M256.9 337.1l4.1-10.3c-4.5-1.9-6.1-2-11-2.6-13-1.6-26.5 2-37.1 9.7l2.7 7.7h.1c1.7.6 4.5.5 6.1.1 1.7-.4 3.5-.9 5.2-.4 2.2.6 3.8 2.5 5.8 3.6 4 2.3 9.8.6 12-3.4.9-1.7 1.8-4.1 3.7-4 1 0 1.7.7 2.5 1.3l6.9 6.1c2.8 2.4 5.5 4.9 8.5 7.1 3.5 2.6 7.5 4.9 11.8 4.7 4.3-.1 4.5-4.3 4.5-4.3l-25.8-15.3z" opacity=".2"/><path d="M232.9 230l-.6 10.5c-.2 3.6.3 7.3 1.6 10.6l12.8 33.4s-2-19.5 6.3-26.7c8.2-7.2 18.6-6.5 18.7-17.6v-14l-17.7-3.5-21.1 7.3z" class="E"/><path d="M298.4 235.5s-.2.1-.7.4c-.5.2-1.1.6-1.9 1.1-1.6 1-3.6 2.9-5.4 5.8s-3.3 6.7-3.5 11.2c-.1 2.2.1 4.6.3 7l.7 7.5c1 10.3 2.2 19.7 3.1 26.4a202.52 202.52 0 0 0 1.1 8 40.14 40.14 0 0 0 .3 2.2 4.53 4.53 0 0 1 .1.8s-.1-.3-.2-.7c-.1-.5-.2-1.2-.4-2.2l-1.3-8c-1-6.7-2.2-16.1-3.2-26.4-.3-2.6-.5-5.1-.7-7.5s-.4-4.8-.3-7.1c.3-4.5 1.9-8.5 3.7-11.3 1.9-2.9 4-4.7 5.6-5.7.8-.5 1.5-.8 2-1 .5-.4.7-.5.7-.5zM293.7 358s-.1 0-.2-.1c-.2-.1-.3-.1-.6-.2l-2.2-1-7.9-4.2c-6.6-3.7-15.8-9-26.1-15.2l-.2-.1.1-.2 3.7-8.9c1.3-3.1 2.5-6.1 3.6-9 .6-1.5 1.1-2.9 1.6-4.3.3-.7.5-1.4.7-2.1.1-.3.2-.7.3-1 0-.2.1-.3.1-.5v-.3s0 .1.1.1l.2-.5c4.5 2 8.4 4.1 12 6.1l9.2 5.1c2.6 1.4 4.7 2.4 6.1 3.1.7.3 1.2.6 1.6.8l.6.3s-.2-.1-.6-.2c-.4-.2-1-.4-1.7-.7l-6.2-3c-2.6-1.3-5.7-3.1-9.3-5-3.5-1.9-7.5-4-12-6l.2-.5c.1 0 .2.1.2.2v.6c0 .2-.1.4-.1.6-.1.4-.2.7-.3 1.1-.2.7-.5 1.4-.7 2.1-.5 1.4-1 2.9-1.6 4.3-1.1 2.9-2.3 5.9-3.6 9l-3.7 8.9-.1-.3 26 15.4a230.94 230.94 0 0 0 7.8 4.3c.9.5 1.6.8 2.1 1.1.2.1.4.2.5.3l.4-.1zm-89.6-54.2s-.2-.5-.4-1.4l-.7-4c-.5-3.4-1-8.1-1.2-13.3-.1-5.2.1-9.9.4-13.3.2-1.7.3-3.1.5-4 .1-.9.2-1.5.3-1.5 0 0 0 .5-.1 1.5-.1.9-.2 2.3-.3 4-.2 3.4-.4 8.1-.3 13.3.2 5.2.6 9.9 1 13.2l.5 4c.3.9.4 1.5.3 1.5zm-2.1 8.4s-.3.5-.9 1.3l-2.7 3.3-20.5 25.1c-.6.8-1 1.2-1 1.2s.3-.5.9-1.3l2.6-3.4c2.2-2.9 5.3-6.8 8.8-11 3.5-4.3 6.7-8.1 9.1-10.8 1.2-1.4 2.1-2.5 2.8-3.2.5-.9.8-1.3.9-1.2zm10 32.3v1.3c0 .4-.1.9-.2 1.5l-.4 1.9c-.3 1.4-.8 3.1-1.5 4.9s-1.7 3.7-2.9 5.6-2.5 3.5-3.9 4.9c-1.3 1.4-2.6 2.5-3.8 3.4-.6.5-1.1.8-1.6 1.1l-1.3.8-1.1.6c-.1-.1 1.5-1 3.8-2.8 1.1-.9 2.4-2.1 3.7-3.4 1.3-1.4 2.6-3 3.8-4.9s2.1-3.7 2.8-5.5l1.6-4.8c.8-2.8.9-4.6 1-4.6zm61.7-115.8s.1.2.4.7c.2.5.6 1.1 1 2 .7 1.8 1.7 4.5 2.3 7.9s.8 7.6.1 12.2c-.6 4.6-2.2 9.5-4.9 14.1-.5.8-1 1.5-1.5 2.3-.5.7-1.1 1.4-1.6 2.1l-.1.2-.2-.1c-4-2.4-8.7-2.5-12.4-1.1-1.9.7-3.4 1.8-4.7 2.9s-2.4 2.4-3.1 3.6c-1.5 2.5-1.9 4.9-2.1 6.5s-.1 2.5-.2 2.5v-2.6c.1-1.6.5-4.1 2-6.7a17.85 17.85 0 0 1 3.1-3.8c1.3-1.2 2.9-2.3 4.8-3 3.7-1.4 8.7-1.4 12.8 1.1l-.3.1c.5-.7 1-1.4 1.6-2.1.5-.7 1-1.5 1.4-2.2 2.7-4.5 4.3-9.4 4.9-13.9.7-4.5.6-8.7 0-12.1a36.28 36.28 0 0 0-2.1-7.9c-.3-.9-.7-1.6-.9-2.1-.2-.3-.3-.6-.3-.6zm-29.1 51.4l-.3-.6-.8-1.7-3-6.1c-1.4-2.5-3.1-5.5-5.6-8.3-1.3-1.3-2.8-2.7-4.7-3.6-1.8-.9-3.9-1.5-6.1-1.6-.9 0-1.7 0-2.5.1h-.3v-.3c.6-4.1 1.7-7.9 2.8-11.2 1.1-3.4 2.3-6.3 3.4-8.7s2.2-4.3 2.9-5.5c.4-.6.7-1.1 1-1.4.2-.3.4-.5.4-.5s-.4.7-1.2 1.9c-.7 1.3-1.7 3.1-2.8 5.6-1.1 2.4-2.2 5.4-3.3 8.7s-2.1 7.1-2.7 11.1l-.3-.3c.8 0 1.7-.1 2.6-.1 2.2.1 4.4.7 6.3 1.7s3.4 2.3 4.8 3.7c2.6 2.9 4.3 5.9 5.6 8.5s2.2 4.7 2.9 6.2c.3.7.5 1.3.7 1.7s.2.7.2.7z" class="D"/><path d="M246.7 283.9c1.1-3.5 2.5-4.8 4.4-6.6s4.5-3.2 7.1-3c2.2.1 4.3 1.3 6.5 1.3 2.6.1 5-1.4 6.9-3.1 8.1-7 10.7-19.5 6.1-29.1.4 9.5-2.7 19.1-8.7 26.5-4.7-2.7-10.8-2.5-15.3.4s-7.3 8.3-7 13.6" opacity=".2"/><g class="D"><path d="M292.3 304.7l.3 1.4.5 3.8 1.6 12.6.3 2.7-.2-.2c4.3.9 7.7 2.7 10 4.3 1.1.8 2 1.5 2.6 2s.8.8.8.8c-.1.1-1.3-1.1-3.6-2.5a27.88 27.88 0 0 0-9.9-4h-.2v-.2l-1.7-15.3c-.2-1.5-.3-2.8-.4-3.8-.1-1.1-.1-1.6-.1-1.6zm-31.4 45.4s-.2.1-.5.2l-1.5.4-5.6 1a74.57 74.57 0 0 1-18.9-.1c-3.7-.5-7.1-1.3-10.2-2.2-1.5-.5-3-.9-4.3-1.5s-2.4-1.5-3.1-2.5-1.1-2.1-1.3-3c-.3-.9-.4-1.8-.5-2.4-.1-.7-.1-1.2-.2-1.6v-.5s.1.7.4 2.1c.1.7.3 1.5.6 2.4s.7 1.9 1.4 2.9 1.7 1.8 3 2.3 2.8.9 4.3 1.4c3.1.9 6.5 1.6 10.1 2.1 7.3 1 14 .8 18.8.3 2.4-.3 4.3-.6 5.6-.8a19.71 19.71 0 0 0 1.5-.3c.2-.2.4-.3.4-.2z"/><path d="M240.1 351.7c0 .1-.7.3-1.7.9s-2.3 1.6-3.2 3.1c-1 1.5-1.4 3.1-1.5 4.2-.1 1.2 0 1.9-.1 1.9 0 0-.3-.7-.3-1.9s.4-2.9 1.4-4.5 2.4-2.6 3.5-3.2c1.1-.5 1.8-.6 1.9-.5z"/><path d="M245 283.7s.1.2.1.7c.1.5.1 1.2.2 2l.6 7.4c.4 6.2.8 14.9.5 24.5-.1 4.8-.3 9.3-.7 13.5-.3 4.1-.8 7.9-1.6 10.9s-2.1 5.3-3.1 6.8c-.5.7-.9 1.2-1.3 1.6l-.5.5s.6-.7 1.6-2.2c.9-1.5 2.1-3.7 2.9-6.7s1.3-6.7 1.5-10.8c.3-4.1.5-8.7.6-13.4.2-9.5 0-18.2-.4-24.4l-.5-7.4c-.1-.8-.1-1.5-.1-2 .2-.8.2-1 .2-1z"/></g><path d="M199.7 278.3c0 .1-3.7.6-8.4.9l-8.4.4c0-.1 3.7-.6 8.4-.9l8.4-.4zm44.9 17.7l-1.6.3c-1.1.2-2.6.4-4.5.5-1.9.2-4.2.2-6.7.2l-8.2-.7c-2.9-.4-5.6-1-8.1-1.6l-6.4-2-4.2-1.7c-1-.5-1.5-.7-1.5-.8l1.6.6 4.2 1.6 6.4 1.9 8 1.6c2.9.4 5.6.6 8.2.7h6.7l4.5-.3c1-.3 1.6-.3 1.6-.3zm42.1-15s-.5.4-1.4.9c-.9.6-2.3 1.3-4.1 2.2-1.7.9-3.9 1.8-6.3 2.7s-5.1 1.8-8 2.5l-8.2 1.6-6.8.6c-1.9.1-3.5.1-4.6 0-1.1 0-1.7-.1-1.7-.1s.6-.1 1.7-.1l4.6-.2 6.8-.7 8.2-1.6c2.9-.7 5.6-1.6 8-2.4l6.3-2.6 4.1-2c.9-.6 1.4-.9 1.4-.8zm33.5-20.8l-1.3.2-3.6.3c-3 .3-7.2 1-11.7 2.3a79.22 79.22 0 0 0-11.2 4.2c-1.4.6-2.5 1.2-3.3 1.6l-1.2.6s.4-.3 1.1-.7c.7-.5 1.8-1.1 3.2-1.7 2.7-1.4 6.7-3.1 11.2-4.3 4.5-1.3 8.8-1.9 11.8-2.1 1.5-.1 2.8-.2 3.6-.2.9-.2 1.4-.2 1.4-.2zm4.5 42s-.5 0-1.3-.1l-3.5-.3c-3-.2-7.2-.3-11.7 0-4.6.3-8.7 1-11.6 1.6-1.5.3-2.7.6-3.5.8s-1.3.3-1.3.2c0 0 .4-.2 1.2-.4.8-.3 2-.6 3.5-.9 2.9-.7 7.1-1.4 11.7-1.8 4.6-.3 8.8-.2 11.8.1 1.5.1 2.7.3 3.5.4.8.2 1.2.3 1.2.4zm-31.6 49.5c-.1 0 .4-1.5.9-3.8.5-2.4 1-5.7 1-9.4s-.6-7-1.1-9.4l-1-3.8s.2.3.4 1c.3.6.6 1.6.9 2.8.7 2.4 1.3 5.7 1.3 9.5 0 3.7-.5 7.1-1.1 9.5l-.8 2.8c-.3.5-.4.8-.5.8zm-96.2-34.8c0 .1-1.1.1-2.9.2s-4.2.4-6.9.8l-6.8 1.6-2.8.8c0-.1 1-.5 2.7-1.1s4.1-1.3 6.8-1.8 5.2-.7 7-.7l2.9.2zm7 42h-1.5c-.9-.1-2.3-.3-3.9-.8-3.2-.9-7.6-3.4-10.6-7.7s-3.7-9.3-3.4-12.6c.1-1.7.4-3.1.7-4 .1-.5.3-.8.4-1s.1-.4.2-.3c.1 0-.7 2-.8 5.4-.2 3.3.6 8.1 3.5 12.3s7.1 6.6 10.3 7.6c3 1 5.1 1 5.1 1.1zm22.7 6.6c0 .1-4.3-.8-9.5-2.1l-9.4-2.6c0-.1 4.3.8 9.5 2.1l9.4 2.6zm53.4-9.9s-.4.3-1.3.7l-3.6 1.7a88.69 88.69 0 0 1-12.4 4.5c-4.9 1.5-9.5 2.4-12.9 3-1.7.3-3 .5-4 .6-.9.1-1.5.1-1.5.1l1.4-.3c.9-.2 2.3-.4 3.9-.7 3.3-.6 7.8-1.7 12.8-3.1 4.9-1.5 9.3-3.1 12.4-4.4 1.6-.6 2.8-1.2 3.7-1.5l1.5-.6zm-35.4-28.5s-.4.2-1.2.4l-3.2.7c-2.7.5-6.6 1-10.9.9-4.3 0-8.1-.5-10.8-1.1-1.4-.3-2.5-.5-3.2-.8-.8-.2-1.2-.3-1.2-.4 0 0 .4 0 1.2.2s1.9.4 3.2.6c2.7.5 6.5.9 10.8.9 4.2 0 8-.4 10.8-.8l3.2-.5c.8-.1 1.3-.1 1.3-.1zm15.7.2c0 .1-.7.4-1.8.8-1.2.4-2.8.8-4.7.9s-3.6 0-4.8-.2-1.9-.4-1.9-.5c0-.2 3 .5 6.7.2 3.6-.3 6.4-1.4 6.5-1.2zm-34.7-86c0 .1-1.4.2-3.7.6s-5.4 1-8.8 2.1-6.4 2.3-8.5 3.3l-3.4 1.6s.3-.2.8-.6l2.4-1.3c2.1-1.1 5.1-2.4 8.5-3.4 3.4-1.1 6.6-1.7 8.9-2l2.8-.3h1zm6.7 4c.1 0-.5 2.7-1.7 5.9s-2.5 5.6-2.7 5.6c-.1-.1 1-2.6 2.2-5.7l2.2-5.8zm31.4 7.3c.2 0-.5 3.4-1 7.5l-.7 7.6c-.1 0-.1-.9-.1-2.2 0-1.4.1-3.3.3-5.4s.6-4 .9-5.3c.3-1.4.5-2.2.6-2.2zm12 .4c-.2 0-.7-1.7-1.9-3.6-1.1-1.9-2.4-3.2-2.3-3.4.1-.1 1.6 1.1 2.8 3.1s1.5 3.9 1.4 3.9z" fill="#fff"/><path d="M205.1 318c.6-3.3.5-6.6-.1-9.9-.4-1.9-.7-4-.5-5.9.3-2 2-4.1 4-4l3.6 14.2-7 5.6z" class="E"/><path d="M205 284.3l12.7 50.2 24.8-2.6-9.5-49.8c-.3-1.3-1.4-2.2-2.8-2.2l-22.7 1c-1.7.1-2.9 1.8-2.5 3.4z" class="C"/><path d="M233.5 296.2s-.2-.5-.4-1.5l-1-4.1-1.4-6c-.1-.3-.1-.6-.2-.8s-.3-.5-.5-.6a1.08 1.08 0 0 0-.7-.3c-.2-.1-.6 0-.9 0-1.3 0-2.6.1-3.9.2l-13.8.4-4.2.1H205s.5-.1 1.5-.2l4.2-.2 13.8-.6 3.9-.1c.3 0 .6-.1 1 0 .3.1.7.2.9.4.3.2.5.5.6.8s.2.6.2.9l1.3 6.1a45.18 45.18 0 0 0 .9 4.1c.2.9.3 1.4.2 1.4z" class="F"/><path fill="#fafafa" d="M219.8 285.8c-.3-.4-.8-1-1.5-.7-.3 0-.8.5-.8 1s.3 1 .7 1.2c.5.2 1 .2 1.4-.2a1.23 1.23 0 0 0 .2-1.3z"/><g class="E"><path d="M219.7 301.1c-.6.2-13.4 7.5-13.4 7.5l-6.6 7.5s-2.3 4.3 0 10.8 5.7 8.6 13.3 10.2l14.2-2.9 10-6.2-3-11.3-9.8 7.9-5.6 1-.9-1.8 8-4.6 12.6-10.6-3.9-4.3-11.6 7.5-9.9 4.9 1.4-4.1 11.5-9.3c0-.1.8-4.3-6.3-2.2z"/><path d="M220.7 294.1s2.7-1.7 7.3 0 10.6 4.3 10.6 4.3l8.8 2.1-1.1-2.1s-8.6 1.2-8.4-5h5.2l4.4-2.5 9.1 8.2 4.1 10.3 5.6 4.3-6.9 17.5-14.5-2.4-12.4 1.3-6.5-4.8-1-6.4-6.4-6s-.9-3.1 1.9-3.5 9.9 6 9.9 6l6.8-.1s1.1-1.1.1-1.7-21.5-9.6-22.5-11.8-2-3.6 0-4.3 5.3.3 5.3.3-.9-3.2.6-3.7z"/></g><g class="G"><path d="M237.9 305.7c-.1.1-4.2-1.6-9.1-3.8l-8.9-4.3c.1-.1 4.2 1.6 9.1 3.8l8.9 4.3zm4.7 15.9s-.3.2-1 .4l-2.8.8c-1.2.3-2.7.5-4.3.5-1.7 0-3.5-.4-5.2-1.2-3.5-1.6-5.9-4.2-7.5-6.1-.8-.9-1.4-1.7-1.8-2.3l-.6-.9c.1-.1 1.1 1.1 2.7 2.9 1.7 1.8 4.1 4.3 7.4 5.9 1.7.8 3.4 1.2 5 1.2s3.1-.2 4.3-.4l3.8-.8z"/><path d="M266.3 313.6s-.1-.1-.4-.3-.6-.5-1.1-.8l-4.2-3.2-4.1-10.3v.1l-9.2-8.1h.2l-4.4 2.5h-5.3l.2-.2c.1.9.1 1.8.6 2.5a5.51 5.51 0 0 0 2 1.7c1.7.7 3.7.8 5.6.6h.2l.1.1 1.1 2.1.2.5-.5-.1-8.8-2.1a167.05 167.05 0 0 0-8.5-3.5c-1.5-.6-3-1.2-4.5-1.4s-3.2-.1-4.6.6h0c-.5.2-.6.8-.6 1.4s.2 1.3.4 1.9l.1.5-.5-.1c-1-.3-2-.4-3-.5-1 0-2.1 0-2.8.6-.4.3-.4.7-.3 1.2s.4 1 .6 1.4c.3.5.4 1 .7 1.3.4.3.8.7 1.3.9 3.7 2.3 7.6 4.1 11.4 6l5.7 2.7c.9.4 1.9.9 2.8 1.3l.7.3c.2.1.5.3.7.6s.1.7 0 .9c-.1.3-.3.5-.5.7l-.1.1h-.1c-2.3 0-4.6.1-6.8.1h-.1l-.1-.1c-2.1-1.9-4.3-3.7-6.7-5-1.2-.6-2.5-1.3-3.6-.8a1.63 1.63 0 0 0-1.1 1.3c-.2.6-.1 1.2 0 1.8l-.1-.1 6.4 6 .1.1v.1c.3 2.2.7 4.3 1 6.4l-.1-.1 6.5 4.8h-.1l12.4-1.2 10.8 1.8 2.8.5c.3.1.5.1.7.1s.2.1.2.1h-.2c-.2 0-.4-.1-.7-.1-.7-.1-1.6-.2-2.8-.4l-10.8-1.7-12.4 1.3h-.2l-6.5-4.8h-.1v-.1l-1-6.4.1.1-6.4-6v-.1a3.75 3.75 0 0 1 0-2.1 4.67 4.67 0 0 1 .5-1c.3-.3.6-.5.9-.6.7-.3 1.5-.2 2.1 0 .7.2 1.3.5 1.9.9 2.4 1.4 4.6 3.1 6.8 5.1l-.2-.1c2.2 0 4.5-.1 6.8-.1l-.2.1c.3-.3.6-.8.4-1.1-.1-.3-.7-.4-1.2-.7-.9-.4-1.9-.9-2.8-1.3l-5.7-2.7c-3.8-1.8-7.7-3.7-11.5-6a6.42 6.42 0 0 1-1.3-1 3.04 3.04 0 0 1-.5-.7l-.3-.7c-.2-.5-.5-1-.6-1.5-.1-.3-.1-.6-.1-.9s.3-.6.5-.8c1-.7 2.2-.7 3.2-.7 1.1.1 2.1.3 3.1.5l-.3.3c-.2-.7-.4-1.4-.4-2.1 0-.4 0-.7.2-1.1.1-.4.4-.7.8-.8h0c1.6-.8 3.3-.9 4.9-.7 1.7.2 3.2.9 4.6 1.4 3 1.1 5.8 2.3 8.6 3.5h0l8.8 2.1-.3.3c-.4-.7-.8-1.5-1.1-2.1l.2.1c-2 .2-4 .1-5.8-.7-.9-.4-1.7-1-2.2-1.9-.6-.8-.6-1.8-.7-2.7v-.2h5.3c1.5-.9 3-1.7 4.4-2.5l.1-.1.1.1 9.1 8.2 4 10.3 4.2 3.2c.5.4.8.6 1.1.8.2.4.3.5.3.5z"/></g><defs ><path id="B" d="M221.4 177.2c.3.3 2-.9 4.5-.9s4.3 1.3 4.5 1c.1-.1-.1-.7-.9-1.3a6.17 6.17 0 0 0-3.6-1.2c-1.5 0-2.8.5-3.6 1.1-.7.6-1 1.2-.9 1.3z"/></defs></svg>