<?xml version="1.0" encoding="UTF-8" standalone="no"?>
<!-- Generator: Adobe Illustrator 22.0.1, SVG Export Plug-In . SVG Version: 6.00 Build 0)  -->

<svg
   xmlns:dc="http://purl.org/dc/elements/1.1/"
   xmlns:cc="http://creativecommons.org/ns#"
   xmlns:rdf="http://www.w3.org/1999/02/22-rdf-syntax-ns#"
   xmlns:svg="http://www.w3.org/2000/svg"
   xmlns="http://www.w3.org/2000/svg"
   xmlns:sodipodi="http://sodipodi.sourceforge.net/DTD/sodipodi-0.dtd"
   xmlns:inkscape="http://www.inkscape.org/namespaces/inkscape"
   version="1.1"
   id="Layer_1"
   x="0px"
   y="0px"
   viewBox="0 0 618.79997 343.29999"
   xml:space="preserve"
   sodipodi:docname="logo.svg"
   width="618.79999"
   height="343.29999"
   inkscape:version="0.92.2 (5c3e80d, 2017-08-06)"><metadata
     id="metadata3755"><rdf:RDF><cc:Work
         rdf:about=""><dc:format>image/svg+xml</dc:format><dc:type
           rdf:resource="http://purl.org/dc/dcmitype/StillImage" /><dc:title></dc:title></cc:Work></rdf:RDF></metadata><defs
     id="defs3753" /><sodipodi:namedview
     pagecolor="#ffffff"
     bordercolor="#666666"
     borderopacity="1"
     objecttolerance="10"
     gridtolerance="10"
     guidetolerance="10"
     inkscape:pageopacity="0"
     inkscape:pageshadow="2"
     inkscape:window-width="1366"
     inkscape:window-height="705"
     id="namedview3751"
     showgrid="false"
     fit-margin-top="0"
     fit-margin-left="0"
     fit-margin-right="0"
     fit-margin-bottom="-0.4"
     inkscape:zoom="0.90038638"
     inkscape:cx="322.05001"
     inkscape:cy="242.35002"
     inkscape:window-x="-8"
     inkscape:window-y="-8"
     inkscape:window-maximized="1"
     inkscape:current-layer="Layer_1" /><style
     type="text/css"
     id="style3728">
	.st0{fill:#ffffff !important;}
	.st1{fill:#ffffff;}
	.st2{fill:#ffffff;}
</style><path
     d="M 539.1,17.6"
     id="path3742"
     inkscape:connector-curvature="0" /><g
     id="g3748"
     transform="translate(-98.9,-196.7)"><g
       id="g3772"><g
         id="g3732"><path
           id="path3730"
           d="m 494.2,202.9 v 330.9 c 0,3.4 -2.8,6.2 -6.2,6.2 h -81.3 c -3.4,0 -6.2,-2.8 -6.2,-6.2 V 372.5 c 0,-5.9 -7.5,-8.4 -11.1,-3.7 -31.4,41.7 -62.8,83.5 -94.2,125.2 -2.6,3.4 -7.7,3.2 -10,-0.3 -27.1,-40.9 -54.2,-81.8 -81.3,-122.6 -3.4,-5.1 -11.3,-2.7 -11.3,3.4 v 159.2 c 0,3.4 -2.8,6.2 -6.2,6.2 h -81.3 c -3.4,0 -6.2,-2.8 -6.2,-6.2 V 202.9 c 0,-3.4 2.8,-6.2 6.2,-6.2 h 74.1 c 1.9,0 3.8,0.9 4.9,2.4 l 107.5,142.5 c 2.5,3.3 7.4,3.3 9.8,0 L 409,199.1 c 1.2,-1.5 3,-2.4 4.9,-2.4 H 488 c 3.4,0 6.2,2.8 6.2,6.2 z"
           class="st0"
           inkscape:connector-curvature="0"
           style="fill:#ffffff" /></g><path
         id="path3734"
         d="m 658.1,254.7 c 0.4,1.6 -0.4,3.2 -1.9,3.7 -2.6,0.9 -6.5,1.9 -11,1.9 -14.5,0 -16.3,-11 -16.3,-23.3 v -5.6 c 0,-1.7 -1.4,-3.1 -3.1,-3.1 v 0 c -1.7,0 -3.1,-1.4 -3.1,-3.1 v -7.8 c 0,-1.7 1.4,-3.1 3.1,-3.1 v 0 c 1.7,0 3.1,-1.4 3.1,-3.1 0,-1.9 0,-3.7 0.1,-5.6 0,-1.7 1.4,-3.1 3.2,-3.1 l 9.4,0.2 c 1.7,0 3.1,1.4 3.1,3.1 v 5.4 c 0,1.7 1.4,3.1 3.1,3.1 h 5.3 c 1.7,0 3.1,1.4 3.1,3.1 v 7.8 c 0,1.7 -1.4,3.1 -3.1,3.1 h -5.3 c -1.7,0 -3.1,1.4 -3.1,3.1 v 5.3 c 0,7.2 2.9,10.1 7.8,8.8 1.7,-0.4 3.4,0.5 3.8,2.2 z"
         class="st1"
         style="fill:#ffffff"
         inkscape:connector-curvature="0" /><path
         id="path3736"
         d="m 634.3,335.3 c 1.5,3.4 4.5,5.4 7.6,5.9 6.3,0.9 11,-2.1 12.2,-3.5 l 6.1,8.5 c -5.7,5.2 -10.7,7.5 -19.1,7.5 -12.2,0 -22.6,-10.6 -22.6,-23.8 0,-13.2 10.4,-23.9 22.6,-23.9 12.3,0 21.7,9.7 21.7,22.9 0,2.2 -0.1,4.4 -0.5,6.5 h -28 z m -1,-9.5 h 16 c -0.8,-4.4 -4.1,-6.5 -8.2,-6.5 -3.7,-0.1 -6.7,2.4 -7.8,6.5 z"
         class="st1"
         style="fill:#ffffff"
         inkscape:connector-curvature="0" /><path
         id="path3738"
         d="m 653.9,429.1 8.3,10.5 c -4.4,4.5 -11.2,7.2 -17.9,7.2 -14,0 -25,-10.6 -25,-23.8 0,-13.2 10.6,-23.9 25,-23.9 6.7,0 13.4,2.8 17.9,7.2 l -8.9,10.3 c -2.9,-2.1 -5.6,-3.5 -9,-3.3 -5.1,0.2 -10.1,3.3 -10.1,9.7 0,5.9 4.9,9.4 10.1,9.7 3.9,0.2 7,-1.4 9.6,-3.6 z"
         class="st1"
         style="fill:#ffffff"
         inkscape:connector-curvature="0" /><path
         id="path3740"
         d="m 663.4,510 v 28.7 h -15.7 v -26.8 c 0,-5.1 -3.9,-7.1 -6.6,-7.1 -2.9,0 -7.3,1.9 -7.5,6.8 v 27.1 H 618 v -65.3 h 15.7 v 24.8 c 2.7,-3.1 7.8,-5.8 12.7,-5.8 11.3,0 17,6.7 17,17.6 z"
         class="st1"
         style="fill:#ffffff"
         inkscape:connector-curvature="0" /><path
         id="path3746"
         d="m 594.1,495.1 v 41.3 c 0,1.8 -1.5,3.3 -3.3,3.3 h -148 c -1.8,0 -3.3,-1.5 -3.3,-3.3 V 336.2 c 0,-1.8 1.5,-3.3 3.3,-3.3 h 142.9 c 1.8,0 3.3,1.5 3.3,3.3 v 41.3 c 0,1.8 -1.5,3.3 -3.3,3.3 h -86.5 c -1.8,0 -3.3,1.5 -3.3,3.3 v 25.1 c 0,1.8 1.5,3.3 3.3,3.3 h 77.4 c 1.8,0 3.3,1.5 3.3,3.3 V 457 c 0,1.8 -1.5,3.3 -3.3,3.3 h -77.4 c -1.8,0 -3.3,1.5 -3.3,3.3 v 25.1 c 0,1.8 1.5,3.3 3.3,3.3 h 91.6 c 1.9,-0.1 3.3,1.3 3.3,3.1 z"
         class="st1"
         inkscape:connector-curvature="0"
         style="fill:#ffffff" /></g></g>
         <path d="M 580 0 V 300 Z" style="fill:#ffffff" />
         <!-- <polygon fill="#fff" points="0 0, 30 0, 30 30 ,0 30">
         <animateMotion path="M 580 0 V 300 Z" dur="1s" repeatCount="indefinite" />
         </polygon> -->
       </svg>

